<?xml version="1.0" standalone="no"?>
<!DOCTYPE svg PUBLIC "-//W3C//DTD SVG 1.1//EN" "http://www.w3.org/Graphics/SVG/1.1/DTD/svg11.dtd" >
<svg>
<metadata>
Created by FontForge 20110222 at Thu Oct  9 07:50:41 2014
 By Orthosie Webhosting
Copyright (c) 2013 by Jonas Hecksher, Playtype, e-Types AS. All rights reserved.
</metadata>
<defs>
<font id="BerlingskeSerifTx-XBd" horiz-adv-x="0" >
  <font-face 
    font-family="Berlingske Serif Tx XBd"
    font-weight="800"
    font-stretch="normal"
    units-per-em="1000"
    panose-1="2 0 9 3 6 0 0 2 0 4"
    ascent="800"
    descent="-200"
    x-height="510"
    cap-height="690"
    bbox="-447 -356 1939 1073"
    underline-thickness="50"
    underline-position="-50"
    stemh="64"
    stemv="169"
    unicode-range="U+000D-FB06"
  />
<missing-glyph horiz-adv-x="180" 
 />
    <glyph glyph-name="f_b" unicode="fb" horiz-adv-x="963" 
d="M412 22v532l-9 30c-39 1 -70 20 -70 66c0 23 8 42 27 60h-27c-58 0 -90 -43 -90 -141v-59h95v-76h-95v-307c0 -71 6 -74 68 -96v-31h-289v31c50 21 60 25 60 96v307h-71l14 76h57v45c0 137 115 199 248 199c59 0 100 -15 124 -39c39 11 75 26 106 39h15v-309
c25 26 86 77 159 77c116 0 197 -91 197 -240c0 -203 -175 -294 -301 -294c-65 0 -181 22 -218 34zM575 405v-330c17 -9 33 -15 59 -15c67 0 134 64 134 195c0 116 -61 170 -121 170c-29 0 -56 -10 -72 -20z" />
    <glyph glyph-name="f_f" unicode="ff" horiz-adv-x="666" 
d="M638 0h-293v31c50 21 60 25 60 96v307h-162v-307c0 -71 4 -74 66 -96v-31h-287v31c50 21 60 25 60 96v307h-71l14 76h57v45c0 137 110 199 238 199c82 0 126 -28 137 -70c44 47 116 70 191 70c99 0 146 -39 146 -98c0 -44 -35 -72 -72 -72c-41 0 -73 19 -73 66
c0 23 8 42 27 60h-18c-53 0 -92 -35 -92 -141v-59h95v-76h-95v-307c0 -71 10 -74 72 -96v-31zM405 510v45c0 13 1 26 4 37c-5 -1 -11 -2 -17 -2c-37 0 -69 23 -69 66c0 19 8 37 25 54h-24c-53 0 -81 -43 -81 -141v-59h162z" />
    <glyph glyph-name="f_h" unicode="fh" horiz-adv-x="962" 
d="M939 0h-272v30c47 23 55 26 55 97v220c0 57 -31 85 -75 85c-25 0 -54 -9 -73 -20v-285c0 -71 8 -73 59 -96v-31h-281v31c50 22 60 25 60 96v458c-41 0 -79 14 -79 65c0 23 8 42 27 60h-27c-58 0 -90 -43 -90 -141v-59h95v-76h-95v-307c0 -71 6 -74 68 -96v-31h-289v31
c50 21 60 25 60 96v307h-71l14 76h57v45c0 137 115 199 248 199c59 0 100 -15 124 -39c39 11 75 26 106 39h13c0 -102 1 -203 1 -304c35 31 100 71 156 71c75 0 149 -47 149 -176v-218c0 -71 10 -74 60 -97v-30z" />
    <glyph glyph-name="f_i" unicode="fi" horiz-adv-x="651" 
d="M630 0h-276v31c52 21 59 25 59 99v209c0 73 -9 95 -55 95h-115v-304c0 -74 3 -76 67 -99v-31h-288v31c52 22 60 25 60 99v304h-71l14 76h57v26c0 161 129 218 300 218c128 0 187 -48 187 -110c0 -48 -41 -78 -80 -78c-43 0 -79 22 -79 68c0 23 14 46 38 63
c-12 4 -31 8 -56 8c-99 0 -149 -36 -149 -155v-40h181c30 0 108 8 137 13h10v-393c0 -74 7 -76 59 -99v-31z" />
    <glyph glyph-name="f_j" unicode="fj" horiz-adv-x="644" 
d="M339 -234l-8 23c46 30 80 99 80 193v357c0 73 -9 95 -55 95h-113v-304c0 -74 3 -76 67 -99v-31h-288v31c52 22 60 25 60 99v304h-71l14 76h57v26c0 161 129 218 300 218c128 0 187 -48 187 -110c0 -48 -41 -78 -80 -78c-45 0 -82 20 -82 69c0 30 19 49 41 62
c-15 5 -40 8 -67 8c-93 0 -138 -43 -138 -155v-40h161c38 0 123 7 159 13h10v-483c0 -172 -141 -246 -234 -274z" />
    <glyph glyph-name="f_k" unicode="fk" horiz-adv-x="956" 
d="M633 0h-281v31c50 21 60 25 60 96v458c-41 0 -79 14 -79 65c0 23 8 42 27 60h-27c-58 0 -90 -43 -90 -141v-59h95v-76h-95v-307c0 -71 6 -74 68 -96v-31h-289v31c50 21 60 25 60 96v307h-71l14 76h57v45c0 137 115 199 248 199c59 0 100 -15 124 -39c39 11 75 26 106 39
h13v-627c0 -71 9 -73 60 -96v-31zM963 0h-145c-78 3 -94 14 -147 108c-30 52 -59 103 -89 155l88 98c26 29 39 52 39 69c0 23 -17 33 -62 46v34h287v-32c-53 -16 -92 -23 -143 -83c-23 -28 -48 -56 -71 -84c41 -63 84 -126 125 -189c51 -77 83 -81 118 -92v-30z" />
    <glyph glyph-name="f_l" unicode="fl" horiz-adv-x="650" 
d="M633 0h-281v31c50 21 60 25 60 96v458c-41 0 -79 14 -79 65c0 23 8 42 27 60h-27c-58 0 -90 -43 -90 -141v-59h95v-76h-95v-307c0 -71 6 -74 68 -96v-31h-289v31c50 21 60 25 60 96v307h-71l14 76h57v45c0 137 115 199 248 199c59 0 100 -15 124 -39c39 11 75 26 106 39
h13v-627c0 -71 9 -73 60 -96v-31z" />
    <glyph glyph-name="f_t" unicode="ft" horiz-adv-x="716" 
d="M718 87l8 -8c-23 -32 -91 -87 -159 -87c-86 0 -152 41 -152 155v297h-168v-310c0 -78 13 -92 75 -114v-20h-299v20c52 22 62 40 62 114v310h-73c5 22 9 44 13 66h60v46c0 136 113 198 239 198c84 0 138 -42 138 -100c0 -43 -35 -73 -73 -73c-41 0 -73 22 -73 67
c0 29 15 51 39 68c-7 2 -19 4 -28 4c-51 -1 -80 -53 -80 -150v-60h144c82 0 120 62 152 112h31v-112h130v-74h-130v-277c0 -52 32 -86 78 -86c29 0 48 5 66 14z" />
    <glyph glyph-name="f_f_b" unicode="ffb" horiz-adv-x="1280" 
d="M736 22v532l-9 30c-39 1 -70 20 -70 66c0 23 8 42 27 60h-27c-58 0 -90 -43 -90 -141v-59h95v-76h-95v-307c0 -71 6 -74 68 -96v-31h-289v31c50 21 60 25 60 96v307h-163v-307c0 -71 4 -74 66 -96v-31h-287v31c50 21 60 25 60 96v307h-71l14 76h57v45
c0 137 110 199 238 199c82 0 126 -28 137 -71c45 48 117 71 197 71c59 0 100 -15 124 -39c39 11 75 26 106 39h15v-309c25 26 86 77 159 77c116 0 197 -91 197 -240c0 -203 -175 -294 -301 -294c-65 0 -181 22 -218 34zM899 405v-330c17 -9 33 -15 59 -15
c67 0 134 64 134 195c0 116 -61 170 -121 170c-29 0 -56 -10 -72 -20zM406 510v45c0 13 1 26 3 37c-6 -2 -12 -3 -18 -3c-36 0 -69 23 -69 63c0 22 7 40 26 58h-24c-53 0 -81 -43 -81 -141v-59h163z" />
    <glyph glyph-name="f_f_f" unicode="fff" horiz-adv-x="1026" 
d="M315 0h-293v31c50 21 60 25 60 96v307h-71l14 76h57v45c0 137 115 199 243 199c99 0 146 -39 146 -98c0 -44 -35 -72 -72 -72c-41 0 -73 19 -73 66c0 30 16 50 25 60h-23c-53 0 -85 -43 -85 -141v-59h95v-76h-95v-307c0 -71 10 -74 72 -96v-31zM657 0h-293v31
c50 21 60 25 60 96v307h-71l14 76h57v45c0 137 115 199 243 199c99 0 146 -39 146 -98c0 -44 -35 -72 -72 -72c-41 0 -73 19 -73 66c0 30 16 50 25 60h-23c-53 0 -85 -43 -85 -141v-59h95v-76h-95v-307c0 -71 10 -74 72 -96v-31zM999 0h-293v31c50 21 60 25 60 96v307h-71
l14 76h57v45c0 137 115 199 243 199c99 0 146 -39 146 -98c0 -44 -35 -72 -72 -72c-41 0 -73 19 -73 66c0 30 16 50 25 60h-23c-53 0 -85 -43 -85 -141v-59h95v-76h-95v-307c0 -71 10 -74 72 -96v-31z" />
    <glyph glyph-name="f_f_h" unicode="ffh" horiz-adv-x="1304" 
d="M1263 0h-272v30c47 23 55 26 55 97v220c0 57 -31 85 -75 85c-25 0 -54 -9 -73 -20v-285c0 -71 8 -73 59 -96v-31h-281v31c50 22 60 25 60 96v458c-41 0 -79 14 -79 65c0 23 8 42 27 60h-27c-58 0 -90 -43 -90 -141v-59h95v-76h-95v-307c0 -71 6 -74 68 -96v-31h-289v31
c50 21 60 25 60 96v307h-163v-307c0 -71 4 -74 66 -96v-31h-287v31c50 21 60 25 60 96v307h-71l14 76h57v45c0 137 110 199 238 199c82 0 126 -28 137 -71c45 48 117 71 197 71c59 0 100 -15 124 -39c39 11 75 26 106 39h13c0 -102 1 -203 1 -304c35 31 100 71 156 71
c75 0 149 -47 149 -176v-218c0 -71 10 -74 60 -97v-30zM406 510v45c0 13 1 26 3 37c-6 -2 -12 -3 -18 -3c-36 0 -69 23 -69 63c0 22 7 40 26 58h-24c-53 0 -81 -43 -81 -141v-59h163z" />
    <glyph glyph-name="f_f_i" unicode="ffi" horiz-adv-x="975" 
d="M954 0h-276v31c52 21 59 25 59 99v209c0 69 -12 99 -55 99h-115v-308c0 -74 3 -76 67 -99v-31h-288v31c52 22 60 25 60 99v307h-163v-310c0 -71 4 -74 66 -96v-31h-287v31c50 21 60 25 60 96v310h-71l14 73h57v45c0 137 110 199 238 199c91 0 122 -38 137 -82
c52 59 142 82 249 82c128 0 187 -48 187 -110c0 -48 -41 -78 -80 -78c-43 0 -79 19 -79 65c0 23 14 49 38 66c-15 5 -40 10 -67 10c-102 0 -138 -42 -138 -172v-25h181c30 1 108 8 137 13h10v-393c0 -74 7 -76 59 -99v-31zM406 510v40c0 17 4 32 8 46c-8 -3 -16 -4 -24 -4
c-33 0 -67 22 -67 64c0 19 8 37 25 54h-24c-55 0 -81 -47 -81 -141v-59h163z" />
    <glyph glyph-name="f_f_j" unicode="ffj" horiz-adv-x="974" 
d="M735 -18v357c0 73 -9 95 -55 95h-113v-304c0 -74 3 -76 67 -99v-31h-288v31c52 22 60 25 60 99v304h-163v-307c0 -71 4 -74 66 -96v-31h-287v31c50 21 60 25 60 96v307h-71l14 76h57v45c0 137 110 199 238 199c58 0 91 -19 100 -48c19 -7 31 -19 37 -34
c52 59 142 82 249 82c128 0 187 -48 187 -110c0 -48 -41 -78 -80 -78c-42 0 -82 22 -82 69c0 30 19 49 41 62c-15 5 -40 8 -67 8c-100 0 -138 -49 -138 -170v-25h138c33 0 119 3 182 13h10v-483c0 -172 -141 -246 -234 -274c-3 8 -5 16 -8 23c46 30 80 99 80 193zM406 510
v40c0 17 4 32 8 46c-8 -3 -16 -4 -24 -4c-33 0 -67 22 -67 64c0 19 8 37 25 54h-24c-55 0 -81 -47 -81 -141v-59h163z" />
    <glyph glyph-name="f_f_k" unicode="ffk" horiz-adv-x="1297" 
d="M957 0h-281v31c50 21 60 25 60 96v458c-41 0 -79 14 -79 65c0 23 8 42 27 60h-27c-58 0 -90 -43 -90 -141v-59h95v-76h-95v-307c0 -71 6 -74 68 -96v-31h-289v31c50 21 60 25 60 96v307h-163v-307c0 -71 4 -74 66 -96v-31h-287v31c50 21 60 25 60 96v307h-71l14 76h57v45
c0 137 110 199 238 199c82 0 126 -28 137 -71c45 48 117 71 197 71c59 0 100 -15 124 -39c39 11 75 26 106 39h13v-627c0 -71 9 -73 60 -96v-31zM1287 0h-145c-78 3 -93 14 -147 108l-89 155l88 98c26 29 39 52 39 69c0 23 -17 33 -62 46v34h287v-32
c-53 -16 -92 -23 -143 -83c-23 -28 -48 -56 -71 -84c41 -63 84 -126 125 -189c51 -77 83 -81 118 -92v-30zM406 510v45c0 13 1 26 3 37c-6 -2 -12 -3 -18 -3c-36 0 -69 23 -69 63c0 22 7 40 26 58h-24c-53 0 -81 -43 -81 -141v-59h163z" />
    <glyph glyph-name="f_f_l" unicode="ffl" horiz-adv-x="974" 
d="M957 0h-281v31c50 21 60 25 60 96v458c-41 0 -79 14 -79 65c0 23 8 42 27 60h-27c-58 0 -90 -43 -90 -141v-59h95v-76h-95v-307c0 -71 6 -74 68 -96v-31h-289v31c50 21 60 25 60 96v307h-163v-307c0 -71 4 -74 66 -96v-31h-287v31c50 21 60 25 60 96v307h-71l14 76h57v45
c0 137 110 199 238 199c82 0 126 -28 137 -70c45 47 117 70 197 70c59 0 100 -15 124 -39c39 11 75 26 106 39h13v-627c0 -71 9 -73 60 -96v-31zM406 510v45c0 13 1 26 3 37c-6 -2 -12 -3 -18 -3c-36 0 -69 23 -69 63c0 22 7 40 26 58h-24c-53 0 -81 -43 -81 -141v-59h163z
" />
    <glyph glyph-name=".notdef" horiz-adv-x="180" 
 />
    <glyph glyph-name=".null" 
 />
    <glyph glyph-name=".null" 
 />
    <glyph glyph-name="CR" unicode="&#xd;" 
 />
    <glyph glyph-name="space" unicode=" " horiz-adv-x="180" 
 />
    <glyph glyph-name="uni00A0" unicode="&#xa0;" horiz-adv-x="180" 
 />
    <glyph glyph-name="A" unicode="A" horiz-adv-x="745" 
d="M743 0h-313v31c34 8 54 19 54 51c0 23 -11 67 -30 129l-13 42h-205c-24 -81 -36 -129 -36 -162c0 -41 23 -49 67 -60v-31h-265v31c59 16 85 40 150 246l131 413h189l154 -481c47 -146 71 -170 117 -182v-27zM419 328l-77 270h-5l-79 -270h161z" />
    <glyph glyph-name="B" unicode="B" horiz-adv-x="656" 
d="M268 384h31c74 0 121 53 121 132c0 74 -48 110 -127 110h-25v-242zM318 0h-299v31c65 17 80 39 80 115v408c0 76 -15 88 -80 105v31h296c138 0 274 -39 274 -171c0 -84 -68 -127 -125 -149c83 -19 167 -82 167 -169c0 -148 -177 -201 -313 -201zM268 64h48
c72 0 139 46 139 128c0 93 -73 132 -146 132h-41v-260z" />
    <glyph glyph-name="C" unicode="C" horiz-adv-x="731" 
d="M700 193l-14 -164c-46 -24 -151 -44 -233 -44c-232 0 -414 110 -414 352c0 259 210 367 414 367c75 0 180 -22 224 -42v-151h-49c-51 94 -105 130 -188 130c-125 0 -222 -75 -222 -293c0 -220 98 -299 238 -299c83 0 135 20 194 144h50z" />
    <glyph glyph-name="D" unicode="D" horiz-adv-x="814" 
d="M358 0h-332v31c62 23 73 35 73 107v416c0 72 -11 82 -73 105v31h342c220 0 401 -104 401 -328s-178 -362 -411 -362zM268 64h88c159 0 235 124 235 286c0 174 -89 276 -225 276h-98v-562z" />
    <glyph glyph-name="E" unicode="E" horiz-adv-x="590" 
d="M543 0h-517v31c62 23 73 25 73 97v436c0 72 -11 74 -73 95v31h491v-153h-38c-70 89 -73 89 -147 89h-64v-242h75c48 0 65 14 99 70h33v-198h-32c-34 55 -52 67 -100 67h-75v-259h65c99 0 102 5 192 105h39z" />
    <glyph glyph-name="F" unicode="F" horiz-adv-x="566" 
d="M357 0h-331v31c62 23 73 45 73 117v396c0 72 -11 92 -73 115v31h505v-153h-38c-70 89 -71 89 -165 89h-60v-252h91c51 0 68 15 102 71h32v-201h-31c-34 54 -52 69 -103 69h-91v-165c0 -71 18 -94 89 -117v-31z" />
    <glyph glyph-name="G" unicode="G" horiz-adv-x="784" 
d="M707 210v-178c-75 -27 -196 -47 -280 -47c-182 0 -387 104 -387 356c0 262 246 363 416 363c92 0 205 -29 242 -45v-167h-44c-61 105 -122 148 -201 148c-133 0 -235 -84 -235 -287c0 -222 107 -298 243 -298c35 0 68 10 87 16v138c0 59 -11 80 -71 103v32h287v-32
c-48 -22 -57 -28 -57 -102z" />
    <glyph glyph-name="H" unicode="H" horiz-adv-x="808" 
d="M782 0h-315v32c63 23 73 35 73 106v178h-272v-178c0 -72 11 -84 73 -107v-31h-315v31c62 23 73 35 73 107v416c0 72 -11 82 -73 105v31h315v-31c-62 -23 -73 -33 -73 -105v-165h272v165c0 71 -10 81 -73 104v32h315v-31c-61 -23 -73 -33 -73 -105v-416
c0 -72 12 -84 73 -107v-31z" />
    <glyph glyph-name="I" unicode="I" horiz-adv-x="367" 
d="M342 0h-317v31c63 23 74 33 74 105v418c0 72 -11 82 -74 105v31h317v-31c-63 -23 -74 -33 -74 -105v-418c0 -72 11 -82 74 -105v-31z" />
    <glyph glyph-name="J" unicode="J" horiz-adv-x="363" 
d="M20 -206l-5 33c54 35 84 92 84 175v552c0 72 -11 82 -74 105v31h317v-31c-63 -23 -74 -33 -74 -105v-479c0 -183 -150 -254 -248 -281z" />
    <glyph glyph-name="K" unicode="K" horiz-adv-x="749" 
d="M761 0h-334v32c32 5 51 12 51 31c0 29 -79 149 -133 240l-77 -77v-90c0 -72 11 -82 74 -105v-31h-317v31c63 23 74 33 74 105v418c0 72 -11 82 -74 105v31h317v-31c-63 -23 -74 -33 -74 -105v-234l172 201c35 41 51 68 51 92s-22 34 -62 46v31h304v-31
c-71 -26 -107 -48 -192 -142l-86 -95l167 -266c51 -82 84 -102 139 -125v-31z" />
    <glyph glyph-name="L" unicode="L" horiz-adv-x="565" 
d="M529 0h-503v31c62 23 73 43 73 115v398c0 72 -11 92 -73 115v31h315v-31c-63 -23 -73 -43 -73 -115v-480h64c86 0 92 6 180 115h38z" />
    <glyph glyph-name="M" unicode="M" horiz-adv-x="998" 
d="M986 0h-311v31c55 20 68 36 68 93c0 17 -1 37 -2 62l-20 403h-4l-197 -589h-114l-185 589h-4l-25 -397c-1 -18 -3 -37 -3 -51c0 -67 12 -91 75 -110v-31h-252v31c71 26 77 55 85 163l24 333c1 19 3 38 3 54c0 41 -12 47 -74 78v31h296l161 -494l163 494h286v-31
c-59 -21 -74 -40 -74 -94c0 -16 1 -35 3 -57l21 -316c8 -117 18 -131 80 -161v-31z" />
    <glyph glyph-name="N" unicode="N" horiz-adv-x="849" 
d="M745 -5h-112l-437 545v-308c0 -153 20 -177 80 -201v-31h-250v31c61 24 80 47 80 201v329c0 41 -20 75 -90 98v31h261l377 -458v228c0 152 -19 174 -80 199v31h250v-31c-60 -25 -79 -45 -79 -199v-465z" />
    <glyph glyph-name="O" unicode="O" horiz-adv-x="856" 
d="M425 49c131 0 208 114 208 295c0 179 -75 297 -208 297s-207 -113 -207 -297c0 -181 76 -295 207 -295zM811 350c0 -238 -191 -365 -386 -365c-199 0 -385 117 -385 359c0 234 192 360 385 360s386 -117 386 -354z" />
    <glyph glyph-name="P" unicode="P" horiz-adv-x="635" 
d="M357 0h-331v31c62 23 73 35 73 107v416c0 72 -11 82 -73 105v31h318c193 0 265 -69 265 -193c0 -140 -96 -213 -273 -213h-68v-146c0 -71 17 -84 89 -107v-31zM268 348h43c104 0 132 81 132 150c0 66 -29 128 -125 128h-50v-278z" />
    <glyph glyph-name="Q" unicode="Q" horiz-adv-x="856" 
d="M1216 -91v-14c-22 -36 -103 -139 -225 -139c-76 0 -241 56 -423 168l-102 63c-11 -1 -24 -2 -39 -2c-200 0 -386 127 -386 359c0 224 193 360 386 360c192 0 385 -131 385 -358c0 -173 -107 -290 -244 -337c210 -86 358 -119 512 -119c53 0 97 7 136 19zM427 47
c130 0 207 126 207 297c0 174 -75 298 -207 298c-133 0 -208 -124 -208 -298c0 -171 77 -297 208 -297z" />
    <glyph glyph-name="R" unicode="R" horiz-adv-x="686" 
d="M268 361h31c72 0 143 29 143 137c0 86 -54 128 -120 128h-54v-265zM706 0h-105c-126 0 -131 5 -187 99l-121 201h-25v-162c0 -72 11 -84 74 -107v-31h-315v31c62 23 73 35 73 107v416c0 72 -11 82 -73 105v31h304c178 0 281 -61 281 -187c0 -102 -87 -155 -163 -176
l148 -214c42 -61 62 -71 109 -82v-31z" />
    <glyph glyph-name="S" unicode="S" horiz-adv-x="541" 
d="M50 30v166h50c51 -95 86 -147 155 -147c52 0 97 37 97 91c0 134 -304 176 -304 369c0 117 108 195 238 195c76 0 144 -26 180 -41v-131h-49c-52 83 -84 109 -136 109c-50 0 -85 -34 -85 -81c0 -136 304 -161 304 -369c0 -119 -96 -206 -248 -206c-74 0 -155 19 -202 45z
" />
    <glyph glyph-name="T" unicode="T" horiz-adv-x="664" 
d="M488 0h-314v31c62 23 72 35 72 107v488h-41c-75 0 -71 -9 -133 -89h-40v153h605v-153h-48c-62 80 -58 89 -133 89h-41v-488c0 -72 11 -84 73 -107v-31z" />
    <glyph glyph-name="U" unicode="U" horiz-adv-x="787" 
d="M594 209v251c0 157 -25 174 -84 199v31h259v-31c-61 -25 -85 -41 -85 -199v-266c0 -135 -120 -209 -284 -209c-172 0 -300 70 -300 209v350c0 72 -11 92 -73 115v31h315v-31c-63 -23 -73 -43 -73 -115v-351c0 -73 50 -126 157 -126c108 0 168 47 168 142z" />
    <glyph glyph-name="V" unicode="V" horiz-adv-x="745" 
d="M456 0h-177l-160 482c-48 144 -75 164 -117 181v27h310v-31c-34 -8 -52 -16 -52 -48c0 -30 14 -87 41 -170l103 -326h4l96 308c28 89 41 140 41 176c0 41 -23 49 -67 60v31h265v-31c-57 -20 -82 -41 -150 -246z" />
    <glyph glyph-name="W" unicode="W" horiz-adv-x="1095" 
d="M808 0h-161l-112 416l-126 -416h-170l-114 423c-52 194 -76 222 -115 237v30h298v-31c-34 -9 -48 -17 -48 -50s14 -89 32 -162l78 -324l87 300c19 66 28 117 28 153c0 63 -31 71 -72 83v31h307v-31c-41 -12 -62 -25 -62 -64c0 -15 3 -33 9 -56l101 -400l87 284
c22 71 30 120 30 156c0 60 -30 69 -69 80v31h273v-31c-46 -17 -84 -42 -149 -245z" />
    <glyph glyph-name="X" unicode="X" horiz-adv-x="722" 
d="M714 0h-334v31c42 17 58 24 58 43c0 14 -7 29 -18 46l-94 149l-56 -80c-32 -45 -57 -87 -57 -107c0 -22 20 -32 60 -51v-31h-265v31c63 33 91 61 147 136l128 170l-139 222c-30 47 -71 78 -121 100v31h332v-32c-41 -12 -57 -22 -57 -41c0 -21 20 -57 44 -94l55 -83l61 91
c24 36 37 62 37 83c0 24 -21 31 -60 44v32h262v-31c-66 -30 -86 -51 -145 -133l-112 -154l153 -241c30 -47 63 -72 121 -100v-31z" />
    <glyph glyph-name="Y" unicode="Y" horiz-adv-x="665" 
d="M488 0h-314v31c61 23 72 35 72 107v143l-100 213c-59 126 -93 143 -142 166v30h317v-31c-33 -9 -51 -16 -51 -40s15 -58 42 -120l56 -131l56 133c23 55 36 86 36 111c0 30 -23 37 -62 47v31h260v-31c-52 -16 -98 -47 -150 -166l-93 -211v-144c0 -72 10 -84 73 -107v-31z
" />
    <glyph glyph-name="Z" unicode="Z" horiz-adv-x="582" 
d="M543 0h-523v16l335 607h-112c-76 0 -75 -1 -170 -89h-41l21 156h501v-16l-330 -602h95c97 0 99 0 199 129h46z" />
    <glyph glyph-name="AE" unicode="&#xc6;" horiz-adv-x="980" 
d="M933 0h-514v31c62 23 73 25 73 97v115h-220c-51 -93 -75 -141 -75 -171c0 -23 22 -33 68 -41v-31h-277v31c58 21 111 73 211 247l146 255c16 27 21 48 21 63c0 37 -35 51 -83 63v31h624v-153h-28c-70 89 -73 89 -147 89h-74v-242h80c48 0 65 14 99 70h28v-198h-27
c-34 55 -52 67 -100 67h-80v-259h75c99 0 102 5 192 105h29zM492 313v325l-182 -325h182z" />
    <glyph glyph-name="OE" unicode="&#x152;" horiz-adv-x="1120" 
d="M1073 0h-429v79c-55 -60 -135 -94 -223 -94c-199 0 -381 117 -381 359c0 234 192 360 385 360c85 0 162 -36 220 -98v84h402v-153h-38c-70 89 -73 89 -147 89h-64v-242h75c48 0 65 14 99 70h33v-198h-32c-34 55 -52 67 -100 67h-75v-259h65c99 0 102 5 192 105h39z
M425 49c131 0 208 114 208 295c0 179 -75 297 -208 297s-207 -113 -207 -297c0 -181 76 -295 207 -295z" />
    <glyph glyph-name="Eth" unicode="&#xd0;" horiz-adv-x="814" 
d="M358 0h-332v31c62 23 73 35 73 107v184h-69v65h69v167c0 72 -11 82 -73 105v31h342c220 0 401 -104 401 -328s-178 -362 -411 -362zM268 64h88c159 0 235 124 235 286c0 174 -89 276 -225 276h-98v-239h111v-65h-111v-258z" />
    <glyph glyph-name="Eng" unicode="&#x14a;" horiz-adv-x="849" 
d="M654 232v233c0 152 -19 174 -80 199v26h250v-26c-60 -25 -79 -45 -79 -199v-452c0 -164 -71 -246 -175 -246c-65 0 -96 28 -96 64c0 11 3 23 10 35c19 -9 54 -19 81 -19c59 0 87 49 89 123c-144 177 -319 395 -458 570v-313c0 -153 20 -177 80 -201v-26h-250v26
c61 24 80 47 80 201v339c0 41 -20 75 -90 98v26h261c126 -153 251 -306 377 -458z" />
    <glyph glyph-name="Thorn" unicode="&#xde;" horiz-adv-x="635" 
d="M357 0h-331v31c62 23 73 35 73 107v415c0 72 -12 83 -74 106v31h324v-31c-67 -23 -81 -35 -81 -106l38 -3h38c193 0 265 -64 265 -188c0 -140 -96 -208 -273 -208h-68v-16c0 -71 17 -84 89 -107v-31zM268 218h43c104 0 132 76 132 145c0 66 -29 123 -125 123h-50v-268z
" />
    <glyph glyph-name="a" unicode="a" horiz-adv-x="530" 
d="M303 89v154c-7 1 -16 2 -21 2c-46 0 -104 -17 -104 -91c0 -50 41 -75 77 -75c15 0 35 4 48 10zM528 59v-17c-31 -22 -79 -52 -132 -52c-50 0 -78 21 -91 62c-33 -29 -87 -64 -153 -64c-69 0 -133 51 -133 125c0 83 50 173 284 194v48c0 74 -44 106 -113 106
c-19 0 -38 -4 -53 -9c25 -11 46 -24 46 -60c0 -44 -33 -70 -73 -70c-39 0 -74 26 -74 69c0 81 120 131 224 131c138 0 201 -55 201 -182v-196c0 -70 18 -79 67 -85z" />
    <glyph glyph-name="b" unicode="b" horiz-adv-x="621" 
d="M233 405v-330c17 -9 33 -15 59 -15c67 0 134 64 134 195c0 116 -61 170 -121 170c-29 0 -56 -10 -72 -20zM70 22v561c0 81 -10 82 -70 101v30c70 5 170 22 223 40h10v-309c27 26 86 77 159 77c116 0 197 -91 197 -240c0 -203 -175 -294 -301 -294c-65 0 -181 22 -218 34z
" />
    <glyph glyph-name="c" unicode="c" horiz-adv-x="483" 
d="M449 134l17 -20c-22 -42 -94 -126 -209 -126c-123 0 -228 94 -228 253c0 190 127 281 271 281c86 0 160 -43 160 -111c0 -56 -36 -92 -81 -92s-83 30 -83 82c0 28 14 48 31 67v4c-81 0 -138 -54 -138 -184c0 -148 63 -191 151 -191c47 0 86 19 109 37z" />
    <glyph glyph-name="d" unicode="d" horiz-adv-x="621" 
d="M614 62v-30c-83 -8 -170 -26 -220 -44h-9v78h-4c-33 -37 -88 -78 -159 -78c-99 0 -191 88 -191 241c0 184 142 293 274 293c24 0 58 -3 78 -7v70c0 81 -16 83 -78 99v30c70 5 178 22 231 40h9v-576c0 -80 9 -90 69 -116zM383 100v341c-14 12 -41 23 -67 23
c-73 0 -123 -73 -123 -190c0 -129 61 -187 133 -187c21 0 41 5 57 13z" />
    <glyph glyph-name="e" unicode="e" horiz-adv-x="509" 
d="M471 140l19 -20c-34 -56 -103 -132 -219 -132c-145 0 -240 98 -240 257c0 173 115 277 251 277c100 0 193 -41 193 -205v-50h-282c1 -131 70 -170 149 -170c55 0 106 25 129 43zM193 317l139 16c-1 90 -20 126 -65 126s-73 -41 -74 -142z" />
    <glyph glyph-name="f" unicode="f" horiz-adv-x="342" 
d="M315 0h-293v31c50 21 60 25 60 96v307h-71l14 76h57v45c0 137 115 199 243 199c99 0 146 -39 146 -98c0 -44 -35 -72 -72 -72c-41 0 -73 19 -73 66c0 30 16 50 25 60h-23c-53 0 -85 -43 -85 -141v-59h95v-76h-95v-307c0 -71 10 -74 72 -96v-31z" />
    <glyph glyph-name="g" unicode="g" horiz-adv-x="500" 
d="M200 107l141 -7c99 -5 164 -37 164 -134c0 -129 -154 -200 -290 -200c-118 0 -234 51 -234 121c0 51 46 89 102 106c-20 17 -31 45 -31 74c0 46 36 93 75 124c-58 29 -101 74 -101 150c0 113 92 181 217 181c38 0 73 -8 104 -22l170 22h10l-16 -87l-90 9
c18 -17 38 -61 38 -99c0 -110 -95 -177 -216 -177c-25 0 -47 2 -69 7c-9 -12 -17 -28 -17 -40c0 -15 14 -27 43 -28zM305 -40l-143 7c-13 1 -23 2 -33 5c-21 -18 -34 -41 -34 -64c0 -44 52 -71 150 -71c84 0 143 32 143 77c0 31 -16 43 -83 46zM243 229c46 0 59 42 59 116
c0 72 -16 115 -59 115s-60 -43 -60 -115c0 -73 13 -116 60 -116z" />
    <glyph glyph-name="h" unicode="h" horiz-adv-x="635" 
d="M612 0h-272v30c47 23 55 26 55 97v220c0 57 -31 85 -75 85c-25 0 -54 -9 -73 -20v-285c0 -71 8 -73 59 -96v-31h-281v31c50 22 60 25 60 96v456c0 81 -10 82 -70 101v30c70 5 170 22 223 40h9v-304c37 28 98 72 156 72c75 0 149 -48 149 -177v-218c0 -71 10 -74 60 -97
v-30z" />
    <glyph glyph-name="i" unicode="i" horiz-adv-x="328" 
d="M167 574c-46 0 -83 36 -83 83s37 83 83 83c45 0 83 -36 83 -83s-38 -83 -83 -83zM307 0h-276v31c50 23 59 25 59 96v219c0 80 -9 82 -70 106v30c70 5 166 22 218 40h10v-395c0 -71 9 -73 59 -96v-31z" />
    <glyph glyph-name="j" unicode="j" horiz-adv-x="316" 
d="M14 -234l-8 23c46 30 80 99 80 193v364c0 80 -9 82 -70 106v30c70 5 170 22 222 40h10v-482c0 -172 -142 -246 -234 -274zM162 574c-46 0 -83 36 -83 83s37 83 83 83c45 0 83 -36 83 -83s-38 -83 -83 -83z" />
    <glyph glyph-name="k" unicode="k" horiz-adv-x="628" 
d="M305 0h-281v23c51 23 60 31 60 102v460c0 81 -9 84 -69 106v23c69 5 170 22 222 40h9v-629c0 -71 9 -79 59 -102v-23zM636 0h-120c-101 0 -112 3 -172 108l-89 155l88 98c26 29 39 52 39 69c0 23 -17 33 -62 46v34h287v-32c-53 -15 -97 -29 -143 -83l-72 -84l126 -189
c44 -66 82 -82 118 -92v-30z" />
    <glyph glyph-name="l" unicode="l" horiz-adv-x="319" 
d="M303 0h-281v31c50 21 60 25 60 96v456c0 81 -10 82 -70 101v30c70 5 170 22 223 40h8v-627c0 -71 9 -73 60 -96v-31z" />
    <glyph glyph-name="m" unicode="m" horiz-adv-x="942" 
d="M919 0h-272v30c47 23 54 26 54 97v220c0 57 -26 85 -70 85c-25 0 -63 -11 -83 -22c4 -19 7 -40 7 -65v-218c0 -71 10 -75 60 -97v-30h-273v30c48 22 55 26 55 97v220c0 57 -24 85 -69 85c-27 0 -56 -8 -76 -20v-285c0 -71 6 -73 54 -96v-31h-272v31c50 23 59 25 59 96
v219c0 80 -9 82 -70 106v30c70 5 165 22 217 40h9v-75c36 29 98 75 157 75c53 0 106 -22 132 -84c33 33 114 84 174 84c75 0 148 -48 148 -177v-218c0 -71 8 -74 59 -97v-30z" />
    <glyph glyph-name="n" unicode="n" horiz-adv-x="642" 
d="M619 0h-272v30c48 23 55 26 55 97v220c0 57 -35 85 -79 85c-27 0 -52 -8 -72 -20v-285c0 -71 6 -73 54 -96v-31h-272v31c50 23 59 25 59 96v219c0 80 -9 82 -70 106v30c70 5 165 22 217 40h9v-75c36 29 103 74 161 74c75 0 151 -45 151 -176v-218c0 -71 9 -74 59 -97v-30
z" />
    <glyph glyph-name="o" unicode="o" horiz-adv-x="603" 
d="M572 255c0 -161 -127 -268 -271 -268c-145 0 -270 107 -270 268c0 168 131 267 270 267c140 0 271 -99 271 -267zM301 50c69 0 96 80 96 205c0 138 -35 204 -96 204c-62 0 -96 -66 -96 -204c0 -125 27 -205 96 -205z" />
    <glyph glyph-name="p" unicode="p" horiz-adv-x="633" 
d="M317 -225h-293v31c50 23 60 27 60 98v442c0 80 -9 82 -70 106v30c70 5 165 22 217 40h9v-82c33 31 82 82 160 82c125 0 198 -106 198 -240c0 -206 -175 -294 -303 -294c-16 0 -34 1 -49 3v-87c0 -71 9 -74 71 -98v-31zM246 406v-332c16 -9 31 -14 54 -14
c68 0 136 43 136 186c0 117 -57 183 -122 183c-26 0 -52 -11 -68 -23z" />
    <glyph glyph-name="q" unicode="q" horiz-adv-x="616" 
d="M606 -225h-293v31c61 24 72 33 72 104v156h-4c-34 -36 -90 -77 -155 -77c-99 0 -194 84 -194 237c0 179 136 296 279 296c43 0 112 -14 140 -14c24 0 47 5 77 14h18v-612c0 -71 9 -81 60 -104v-31zM385 100v342c-15 10 -43 22 -66 22c-75 0 -126 -71 -126 -195
c0 -126 64 -182 134 -182c23 0 41 4 58 13z" />
    <glyph glyph-name="r" unicode="r" horiz-adv-x="450" 
d="M316 0h-290v31c51 21 60 23 60 94v229c0 73 -9 76 -70 98v30c70 5 167 22 220 40h8v-84c24 31 79 84 126 84c45 0 82 -34 82 -83s-32 -82 -78 -82c-50 0 -58 57 -92 57c-16 0 -32 -8 -37 -12v-277c0 -71 9 -73 71 -94v-31z" />
    <glyph glyph-name="s" unicode="s" horiz-adv-x="444" 
d="M40 17l-7 142h46c42 -74 83 -108 134 -108c40 0 73 18 73 55c0 93 -248 93 -248 253c0 95 88 163 197 163c41 0 112 -7 151 -22v-117h-42c-40 54 -72 76 -113 76c-34 0 -65 -15 -65 -47c0 -93 255 -87 255 -256c0 -105 -95 -168 -211 -168c-56 0 -126 9 -170 29z" />
    <glyph glyph-name="t" unicode="t" horiz-adv-x="381" 
d="M384 91l11 -12c-23 -33 -101 -87 -167 -87c-84 0 -149 42 -149 157v284l-59 4v45c83 30 118 75 161 153h56v-125h135v-81h-135v-268c0 -49 30 -81 73 -81c33 0 55 5 74 11z" />
    <glyph glyph-name="u" unicode="u" horiz-adv-x="616" 
d="M611 62v-30c-87 -8 -166 -26 -217 -44h-9v76c-37 -32 -91 -76 -156 -76c-80 0 -147 38 -147 167v191c0 80 -7 82 -60 106v30c70 5 156 22 208 40h10v-344c0 -67 38 -91 78 -91c26 0 45 4 64 14v245c0 80 -9 82 -70 106v30c70 5 166 22 218 40h10v-352
c0 -80 10 -82 71 -108z" />
    <glyph glyph-name="v" unicode="v" horiz-adv-x="598" 
d="M377 0h-171l-113 357c-28 87 -49 106 -87 121v32h290v-32c-36 -8 -51 -17 -51 -45c0 -15 4 -36 11 -62l69 -274h4l52 163c22 68 36 123 36 158c0 39 -18 54 -56 60v32h231v-32c-42 -13 -64 -37 -105 -156z" />
    <glyph glyph-name="w" unicode="w" horiz-adv-x="915" 
d="M699 0h-146l-103 358l-110 -358h-148l-102 357c-25 88 -45 106 -83 121v32h281v-32c-34 -7 -52 -11 -52 -44c0 -16 1 -34 8 -63l61 -242l115 381h131l108 -380l54 174c15 50 20 90 20 113c0 43 -20 54 -56 61v32h231v-32c-42 -13 -64 -36 -103 -156z" />
    <glyph glyph-name="x" unicode="x" horiz-adv-x="618" 
d="M611 0h-302v31c31 4 48 10 48 25c0 11 -8 28 -25 53l-59 88c-52 -82 -82 -113 -82 -139c0 -16 13 -23 38 -27v-31h-222v31c50 14 88 40 162 137l66 86l-47 74c-41 64 -83 126 -150 150v32h304v-32c-34 -6 -46 -13 -46 -27s12 -42 30 -69l31 -48l7 10c35 53 53 86 53 106
c0 16 -10 23 -35 28v32h220v-32c-52 -14 -86 -40 -158 -137l-48 -64l103 -154c48 -71 69 -79 112 -92v-31z" />
    <glyph glyph-name="y" unicode="y" horiz-adv-x="594" 
d="M287 -23l7 23h-89l-102 337c-37 121 -52 127 -96 141v32h289v-33c-35 -8 -47 -24 -47 -51c0 -19 8 -47 16 -82l58 -250h5l47 165c16 57 30 110 30 150s-15 62 -50 68v33h232v-31c-44 -18 -72 -57 -129 -227l-98 -293c-45 -133 -110 -193 -193 -193c-59 0 -94 33 -94 83
c0 42 29 77 72 77s69 -23 73 -72c20 17 46 48 69 123z" />
    <glyph glyph-name="z" unicode="z" horiz-adv-x="509" 
d="M468 0h-442v14l246 418h-56c-41 0 -85 -2 -120 -44l-23 -28h-30l20 150h411v-15l-240 -416h74c53 0 69 2 151 75h29z" />
    <glyph glyph-name="ae" unicode="&#xe6;" horiz-adv-x="765" 
d="M727 140l19 -20c-34 -56 -103 -132 -219 -132c-82 0 -142 30 -180 86c-61 -58 -110 -86 -195 -86c-69 0 -133 51 -133 125c0 83 50 173 284 194v48c0 74 -44 106 -113 106c-19 0 -38 -4 -53 -9c25 -11 46 -24 46 -60c0 -44 -33 -70 -73 -70c-39 0 -74 26 -74 69
c0 81 120 131 224 131c62 0 105 -18 133 -51c39 33 89 51 145 51c100 0 193 -41 193 -205v-50h-282c1 -131 70 -170 149 -170c55 0 106 25 129 43zM303 243c-7 1 -16 2 -21 2c-46 0 -104 -17 -104 -91c0 -50 41 -75 77 -75c30 0 59 15 75 26c-18 38 -27 85 -27 138zM449 317
l139 16c-1 90 -20 126 -65 126s-73 -41 -74 -142z" />
    <glyph glyph-name="oe" unicode="&#x153;" horiz-adv-x="868" 
d="M830 140l19 -20c-30 -50 -102 -132 -215 -132c-77 0 -133 24 -171 69c-43 -43 -100 -70 -166 -70c-145 0 -266 107 -266 268c0 168 127 267 266 267c68 0 130 -29 173 -77c42 49 100 77 165 77c109 0 199 -41 199 -205v-50h-282c2 -133 71 -170 151 -170
c52 0 104 25 127 43zM301 51c69 0 96 79 96 204c0 138 -35 204 -96 204c-62 0 -96 -66 -96 -204c0 -125 27 -204 96 -204zM552 317l139 16c-1 90 -20 126 -65 126s-73 -41 -74 -142z" />
    <glyph glyph-name="eth" unicode="&#xf0;" horiz-adv-x="603" 
d="M391 692l-67 -27c132 -98 248 -237 248 -410c0 -161 -127 -267 -271 -267c-145 0 -270 106 -270 267c0 168 131 267 265 267c17 0 39 -4 54 -10c-18 39 -52 81 -95 125l-80 -32l-19 42l64 25c-28 27 -59 54 -90 82h54c31 -17 63 -36 96 -58l92 38zM301 51
c69 0 96 79 96 204c0 138 -35 204 -96 204c-62 0 -96 -66 -96 -204c0 -125 27 -204 96 -204z" />
    <glyph glyph-name="eng" unicode="&#x14b;" horiz-adv-x="630" 
d="M328 -234l-8 23c46 30 80 99 80 193l1 365c0 57 -34 85 -78 85c-27 0 -52 -8 -72 -20v-285c0 -71 6 -73 54 -96v-31h-272v31c50 23 59 25 59 96v219c0 80 -9 82 -70 106v30c70 5 166 22 218 40h9v-75c34 32 104 74 160 74c75 0 153 -45 153 -176v-305
c0 -172 -141 -246 -234 -274z" />
    <glyph glyph-name="thorn" unicode="&#xfe;" horiz-adv-x="625" 
d="M308 -225h-293v31c50 23 60 27 60 98l1 679c0 81 -10 82 -70 101v30c70 5 170 22 223 40h8v-310c32 35 82 78 155 78c125 0 197 -106 197 -240c0 -206 -174 -294 -303 -294c-15 0 -34 1 -49 3v-87c0 -71 9 -74 71 -98v-31zM237 406v-331c16 -9 30 -15 54 -15
c69 0 136 43 136 186c0 117 -56 183 -122 183c-25 0 -52 -11 -68 -23z" />
    <glyph glyph-name="germandbls" unicode="&#xdf;" horiz-adv-x="652" 
d="M359 -12v32c80 17 109 92 109 156c0 80 -67 163 -156 194l-3 8c90 73 121 145 121 218c0 71 -36 101 -83 101c-65 0 -99 -42 -99 -193v-377c0 -71 8 -73 59 -96v-31h-277v31c50 23 59 25 59 96v219c0 80 -9 82 -70 106v30l75 12c0 132 85 260 257 260
c133 0 211 -69 211 -155c0 -78 -83 -130 -126 -157v-4c69 -27 194 -102 194 -240c0 -136 -133 -210 -271 -210z" />
    <glyph glyph-name="dotlessi" unicode="&#x131;" horiz-adv-x="322" 
d="M304 0h-276v31c50 23 59 25 59 96v219c0 80 -9 82 -70 106v30c70 5 166 22 218 40h10v-395c0 -71 9 -73 59 -96v-31z" />
    <glyph glyph-name="a.smcp" horiz-adv-x="608" 
d="M606 0h-277v31c34 7 52 13 52 44c0 18 -12 62 -27 105h-158c-12 -38 -19 -70 -19 -92c0 -42 22 -50 56 -57v-31h-231v31c42 13 70 38 111 157l112 322h176l119 -357c29 -87 48 -107 86 -122v-31zM336 245l-54 192h-5l-60 -192h119z" />
    <glyph glyph-name="b.smcp" horiz-adv-x="546" 
d="M247 287h17c49 0 83 33 83 91c0 54 -33 79 -87 79h-13v-170zM247 53h30c48 0 88 30 88 89c0 67 -47 95 -93 95h-25v-184zM275 0h-249v31c54 23 63 25 63 96v256c0 71 -9 73 -63 96v31h246c123 0 224 -28 224 -127c0 -56 -49 -91 -95 -108c65 -16 125 -63 125 -125
c0 -110 -131 -150 -251 -150z" />
    <glyph glyph-name="c.smcp" horiz-adv-x="586" 
d="M560 147l-11 -123c-38 -19 -119 -36 -183 -36c-187 0 -326 82 -326 261c0 192 161 272 326 272c58 0 140 -18 177 -35v-112h-39c-38 68 -95 95 -147 95c-85 0 -152 -52 -152 -211c0 -161 68 -216 163 -216c52 0 106 14 149 105h43z" />
    <glyph glyph-name="d.smcp" horiz-adv-x="657" 
d="M298 0h-272v31c54 23 63 25 63 96v256c0 71 -9 73 -63 96v31h280c167 0 311 -76 311 -242s-141 -268 -319 -268zM247 53h50c102 0 156 88 156 206c0 127 -62 198 -149 198h-57v-404z" />
    <glyph glyph-name="e.smcp" horiz-adv-x="488" 
d="M449 0h-423v31c54 23 63 25 63 96v256c0 71 -9 73 -63 96v31h404v-117h-37c-51 65 -53 65 -98 65h-48v-171h46c27 0 41 10 72 50h34v-149h-34c-31 39 -45 48 -72 48h-46v-183h49c63 0 65 3 132 76h37z" />
    <glyph glyph-name="f.smcp" horiz-adv-x="472" 
d="M318 0h-292v31c54 23 63 25 63 96v256c0 71 -9 73 -63 96v31h414v-118h-42c-51 65 -52 65 -111 65h-40v-178h59c27 0 41 11 72 51h34v-151h-34c-31 39 -45 49 -72 49h-59v-103c0 -71 9 -73 71 -94v-31z" />
    <glyph glyph-name="g.smcp" horiz-adv-x="627" 
d="M565 151v-125c-60 -22 -157 -38 -222 -38c-161 0 -303 78 -303 264c0 194 174 269 325 269c70 0 162 -20 193 -34v-127h-36c-45 77 -109 108 -160 108c-90 0 -158 -59 -158 -207c0 -162 72 -220 164 -220c15 0 31 2 47 7v102c0 44 -8 60 -51 77v30h243v-29
c-35 -17 -42 -21 -42 -77z" />
    <glyph glyph-name="h.smcp" horiz-adv-x="666" 
d="M640 0h-284v31c54 23 63 25 63 96v104h-172v-104c0 -71 9 -73 63 -96v-31h-284v31c54 23 63 25 63 96v256c0 71 -9 73 -63 96v31h284v-31c-54 -23 -63 -25 -63 -96v-93h172v93c0 71 -9 73 -63 96v31h284v-31c-54 -23 -63 -25 -63 -96v-256c0 -71 9 -73 63 -96v-31z" />
    <glyph glyph-name="i.smcp" horiz-adv-x="341" 
d="M315 0h-289v31c54 23 63 25 63 96v256c0 71 -9 73 -63 96v31h289v-31c-54 -23 -63 -25 -63 -96v-256c0 -71 9 -73 63 -96v-31z" />
    <glyph glyph-name="j.smcp" horiz-adv-x="329" 
d="M34 -161l-13 27c40 26 68 85 68 147v370c0 71 -9 73 -63 96v31h284v-31c-54 -23 -63 -25 -63 -96v-327c0 -111 -130 -194 -213 -217z" />
    <glyph glyph-name="k.smcp" horiz-adv-x="607" 
d="M615 0h-278v31c26 4 37 14 37 31c0 13 -8 28 -22 54l-61 107l-44 -45v-51c0 -71 9 -73 63 -96v-31h-284v31c54 23 63 25 63 96v256c0 71 -9 73 -63 96v31h284v-31c-54 -23 -63 -25 -63 -96v-130l111 133c25 30 38 48 38 63c0 17 -15 26 -46 30v31h244v-31
c-54 -19 -75 -20 -145 -98l-52 -58l122 -206c35 -60 56 -77 96 -86v-31z" />
    <glyph glyph-name="l.smcp" horiz-adv-x="467" 
d="M439 0h-413v31c54 23 63 25 63 96v256c0 71 -9 73 -63 96v31h284v-31c-54 -23 -63 -25 -63 -96v-330h44c54 0 57 4 122 84h41z" />
    <glyph glyph-name="m.smcp" horiz-adv-x="824" 
d="M807 0h-268v32c41 15 54 20 54 62c0 12 -1 27 -2 45l-10 260h-4l-141 -399h-105l-135 395h-4l-15 -252c-1 -17 -2 -31 -2 -44c0 -44 11 -54 55 -68v-31h-213v31c52 19 65 33 71 114l18 252c1 12 2 22 2 30c-2 25 -14 36 -63 47v36h260l115 -339l120 339h246v-36
c-48 -6 -61 -22 -61 -69c0 -9 0 -19 1 -30l16 -232c6 -85 19 -91 65 -112v-31z" />
    <glyph glyph-name="n.smcp" horiz-adv-x="658" 
d="M574 -4h-104l-297 363v-202c0 -91 9 -103 63 -126v-31h-214v31c54 23 63 35 63 126v196c0 91 -9 103 -63 126v31h209l255 -311v154c0 91 -9 103 -63 126v31h214v-31c-54 -23 -63 -35 -63 -126v-357z" />
    <glyph glyph-name="o.smcp" horiz-adv-x="682" 
d="M341 42c86 0 137 76 137 216c0 137 -49 211 -137 211s-137 -70 -137 -211c0 -140 50 -216 137 -216zM642 258c0 -180 -147 -270 -301 -270c-157 0 -301 90 -301 270c0 175 148 263 301 263c152 0 301 -88 301 -263z" />
    <glyph glyph-name="p.smcp" horiz-adv-x="540" 
d="M318 0h-292v31c54 23 63 25 63 96v256c0 71 -9 73 -63 96v31h274c159 0 215 -51 215 -143c0 -104 -60 -164 -221 -164h-47v-78c0 -71 9 -73 71 -94v-31zM247 256h28c71 0 85 57 85 107c0 47 -12 94 -79 94h-34v-201z" />
    <glyph glyph-name="q.smcp" horiz-adv-x="687" 
d="M953 -61v-19c-17 -28 -81 -110 -180 -110c-68 0 -179 37 -319 132l-72 48c-14 -1 -27 -2 -41 -2c-157 0 -301 90 -301 270c0 175 148 263 301 263c152 0 301 -88 301 -263c0 -128 -74 -210 -172 -247c148 -60 263 -91 369 -91c35 0 73 7 114 19zM341 42
c86 0 137 76 137 216c0 137 -49 211 -137 211s-137 -70 -137 -211c0 -140 50 -216 137 -216z" />
    <glyph glyph-name="r.smcp" horiz-adv-x="583" 
d="M247 265h22c42 0 95 18 95 100c0 62 -34 92 -70 92h-47v-192zM600 0h-118c-87 0 -101 6 -156 117l-48 97h-31v-87c0 -71 3 -73 57 -96v-31h-278v31c54 23 63 25 63 96v256c0 71 -9 73 -63 96v31h267c160 0 229 -49 229 -142c0 -69 -67 -107 -105 -122l76 -122
c52 -84 76 -87 107 -93v-31z" />
    <glyph glyph-name="s.smcp" horiz-adv-x="446" 
d="M40 21l-7 133h44c44 -74 83 -108 134 -108c40 0 72 23 72 60c0 95 -245 93 -245 253c0 95 87 163 193 163c49 0 113 -11 152 -26v-109h-39c-43 54 -74 76 -115 76c-34 0 -63 -20 -63 -50c0 -96 252 -89 252 -255c0 -107 -95 -170 -206 -170c-62 0 -128 12 -172 33z" />
    <glyph glyph-name="t.smcp" horiz-adv-x="545" 
d="M413 0h-284v31c54 23 63 25 63 96v330h-34c-39 0 -45 -7 -72 -48l-16 -26h-46v127h494v-127h-46l-17 26c-27 41 -32 48 -71 48h-34v-330c0 -71 9 -73 63 -96v-31z" />
    <glyph glyph-name="u.smcp" horiz-adv-x="636" 
d="M465 154v199c0 91 -9 103 -63 126v31h215v-31c-54 -23 -63 -35 -63 -126v-208c0 -100 -92 -156 -229 -156c-147 0 -238 53 -238 156v238c0 71 -9 73 -63 96v31h284v-31c-54 -23 -63 -25 -63 -96v-241c0 -53 36 -87 105 -87c71 0 115 30 115 99z" />
    <glyph glyph-name="v.smcp" horiz-adv-x="604" 
d="M382 0h-171l-119 357c-29 87 -51 106 -89 121v32h290v-32c-34 -7 -51 -14 -51 -44c0 -16 5 -34 13 -63l77 -275l56 164c23 68 39 124 39 159c0 43 -18 52 -54 59v32h228v-32c-42 -13 -66 -37 -107 -156z" />
    <glyph glyph-name="w.smcp" horiz-adv-x="848" 
d="M635 0h-133l-91 304l-98 -304h-135l-84 312c-38 139 -57 155 -84 166v32h248v-33c-25 -6 -35 -10 -35 -36c0 -20 9 -56 23 -110l46 -180l52 163c14 45 19 78 19 106c0 42 -20 50 -53 57v33h259v-33c-29 -8 -45 -12 -45 -42c0 -11 3 -21 7 -37l68 -253l53 169
c16 50 21 81 21 108c0 40 -22 48 -51 55v33h220v-33c-32 -12 -66 -30 -111 -172z" />
    <glyph glyph-name="x.smcp" horiz-adv-x="618" 
d="M611 0h-302v31c32 5 48 10 48 26c0 10 -8 27 -25 52l-60 87l-21 -30c-39 -55 -59 -87 -59 -107c0 -16 13 -23 39 -28v-31h-224v31c50 14 89 38 163 135l64 84l-98 146c-25 38 -61 67 -103 82v32h304v-32c-36 -6 -51 -13 -51 -29c0 -13 10 -30 28 -56l42 -63l9 14
c34 53 53 85 53 105c0 17 -12 25 -37 29v32h221v-32c-50 -14 -87 -37 -159 -134l-50 -67l106 -154c48 -71 69 -79 112 -92v-31z" />
    <glyph glyph-name="y.smcp" horiz-adv-x="529" 
d="M410 0h-284v31c54 23 63 25 63 96v77l-81 160c-46 91 -69 100 -105 116v30h266v-32c-24 -2 -37 -7 -37 -25c0 -16 10 -41 29 -82l37 -81l37 81c16 36 24 59 24 75c0 22 -15 30 -44 32v32h211v-32c-38 -11 -71 -29 -109 -115l-70 -159v-77c0 -71 9 -73 63 -96v-31z" />
    <glyph glyph-name="z.smcp" horiz-adv-x="514" 
d="M468 0h-442v14l246 435h-56c-66 0 -82 -6 -117 -48l-23 -28h-33l20 137h411v-15l-241 -437h76c53 0 66 6 148 79h31z" />
    <glyph glyph-name="ae.smcp" horiz-adv-x="785" 
d="M380 245v208h-35l-97 -208h132zM740 0h-423v31c54 23 63 25 63 96v56h-162c-20 -44 -30 -77 -30 -99c0 -40 20 -45 56 -52v-32h-242v32c42 13 73 43 129 156l99 200c9 18 13 32 13 44c0 18 -15 34 -43 45v33h521v-117h-37c-51 65 -53 65 -98 65h-48v-171h47
c27 0 40 10 71 50h34v-149h-34c-31 39 -44 48 -71 48h-47v-183h49c63 0 65 3 132 76h37z" />
    <glyph glyph-name="oe.smcp" horiz-adv-x="874" 
d="M341 42c86 0 137 76 137 216c0 137 -49 211 -137 211s-137 -70 -137 -211c0 -140 50 -216 137 -216zM835 0h-345v51c-41 -38 -94 -62 -158 -62c-157 0 -292 89 -292 269c0 175 139 264 292 264c62 0 117 -22 158 -59v47h326v-117h-37c-51 65 -53 65 -98 65h-48v-171h47
c27 0 40 10 71 50h34v-149h-34c-31 39 -44 48 -71 48h-47v-183h49c63 0 65 3 132 76h37z" />
    <glyph glyph-name="eth.smcp" horiz-adv-x="657" 
d="M298 0h-272v31c54 23 63 25 63 96v105h-54v54h54v97c0 71 -9 73 -63 96v31h280c167 0 311 -76 311 -242s-141 -268 -319 -268zM247 53h50c102 0 156 88 156 206c0 127 -62 198 -149 198h-57v-171h75v-54h-75v-179z" />
    <glyph glyph-name="eng.smcp" horiz-adv-x="658" 
d="M477 -33v21l-304 371v-202c0 -91 9 -103 63 -126v-31h-214v31c54 23 63 35 63 126v196c0 91 -9 103 -63 126v31h209l255 -313v156c0 91 -9 103 -63 126v31h214v-31c-54 -23 -63 -35 -63 -126v-247c0 -189 -36 -288 -151 -288c-51 0 -83 25 -83 66c0 10 3 21 10 32
c14 -8 36 -16 61 -16c39 0 66 22 66 67z" />
    <glyph glyph-name="thorn.smcp" horiz-adv-x="535" 
d="M318 0h-292v31c54 23 63 25 63 96v256c0 71 -9 73 -63 96v31h288v-31c-57 -22 -67 -24 -67 -89c9 -2 17 -4 26 -5h21c154 0 215 -30 215 -122c0 -104 -65 -140 -221 -140h-18l-23 -3c0 -66 10 -69 71 -89v-31zM247 176h22c66 0 85 33 85 83c0 47 -18 73 -79 73h-28v-156z
" />
    <glyph glyph-name="germandbls.smcp" horiz-adv-x="640" 
d="M454 21l-7 133h44c44 -74 83 -108 134 -108c40 0 72 23 72 60c0 95 -245 93 -245 253c0 95 87 163 193 163c49 0 113 -11 152 -26v-109h-39c-43 54 -74 76 -115 76c-34 0 -63 -20 -63 -50c0 -96 252 -89 252 -255c0 -107 -95 -170 -206 -170c-62 0 -128 12 -172 33z
M40 21l-7 133h44c44 -74 83 -108 134 -108c40 0 72 23 72 60c0 95 -245 93 -245 253c0 95 87 163 193 163c49 0 113 -11 152 -26v-109h-39c-43 54 -74 76 -115 76c-34 0 -63 -20 -63 -50c0 -96 252 -89 252 -255c0 -107 -95 -170 -206 -170c-62 0 -128 12 -172 33z" />
    <glyph glyph-name="dotlessi.smcp" horiz-adv-x="341" 
d="M315 0h-289v31c54 23 63 25 63 96v256c0 71 -9 73 -63 96v31h289v-31c-54 -23 -63 -25 -63 -96v-256c0 -71 9 -73 63 -96v-31z" />
    <glyph glyph-name="ff" horiz-adv-x="666" 
d="M638 0h-293v31c50 21 60 25 60 96v307h-162v-307c0 -71 4 -74 66 -96v-31h-287v31c50 21 60 25 60 96v307h-71l14 76h57v45c0 137 110 199 238 199c82 0 126 -28 137 -70c44 47 116 70 191 70c99 0 146 -39 146 -98c0 -44 -35 -72 -72 -72c-41 0 -73 19 -73 66
c0 23 8 42 27 60h-18c-53 0 -92 -35 -92 -141v-59h95v-76h-95v-307c0 -71 10 -74 72 -96v-31zM405 510v45c0 13 1 26 4 37c-5 -1 -11 -2 -17 -2c-37 0 -69 23 -69 66c0 19 8 37 25 54h-24c-53 0 -81 -43 -81 -141v-59h162z" />
    <glyph glyph-name="fi" unicode="&#xfb01;" horiz-adv-x="651" 
d="M630 0h-276v31c52 21 59 25 59 99v209c0 73 -9 95 -55 95h-115v-304c0 -74 3 -76 67 -99v-31h-288v31c52 22 60 25 60 99v304h-71l14 76h57v26c0 161 129 218 300 218c128 0 187 -48 187 -110c0 -48 -41 -78 -80 -78c-43 0 -79 19 -79 65c0 23 14 49 38 66
c-12 4 -31 8 -56 8c-99 0 -149 -36 -149 -155v-40h181c30 1 108 8 137 13h10v-393c0 -74 7 -76 59 -99v-31z" />
    <glyph glyph-name="fl" unicode="&#xfb02;" horiz-adv-x="650" 
d="M633 0h-281v31c50 21 60 25 60 96v458c-41 0 -79 14 -79 65c0 23 8 42 27 60h-27c-58 0 -90 -43 -90 -141v-59h95v-76h-95v-307c0 -71 6 -74 68 -96v-31h-289v31c50 21 60 25 60 96v307h-71l14 76h57v45c0 137 115 199 248 199c59 0 100 -15 124 -39c39 11 75 26 106 39
h13v-627c0 -71 9 -73 60 -96v-31z" />
    <glyph glyph-name="ffi" horiz-adv-x="975" 
d="M954 0h-276v31c52 21 59 25 59 99v209c0 69 -12 99 -55 99h-115v-308c0 -74 3 -76 67 -99v-31h-288v31c52 22 60 25 60 99v307h-163v-310c0 -71 4 -74 66 -96v-31h-287v31c50 21 60 25 60 96v310h-71l14 73h57v45c0 137 110 199 238 199c91 0 122 -38 137 -82
c52 59 142 82 249 82c128 0 187 -48 187 -110c0 -48 -41 -78 -80 -78c-43 0 -79 19 -79 65c0 23 14 49 38 66c-15 5 -40 10 -67 10c-102 0 -138 -42 -138 -172v-25h181c30 1 108 8 137 13h10v-393c0 -74 7 -76 59 -99v-31zM406 510v40c0 17 4 32 8 46c-8 -3 -16 -4 -24 -4
c-33 0 -67 22 -67 64c0 19 8 37 25 54h-24c-55 0 -81 -47 -81 -141v-59h163z" />
    <glyph glyph-name="ffl" horiz-adv-x="974" 
d="M957 0h-281v31c50 21 60 25 60 96v458c-41 0 -79 14 -79 65c0 23 8 42 27 60h-27c-58 0 -90 -43 -90 -141v-59h95v-76h-95v-307c0 -71 6 -74 68 -96v-31h-289v31c50 21 60 25 60 96v307h-163v-307c0 -71 4 -74 66 -96v-31h-287v31c50 21 60 25 60 96v307h-71l14 76h57v45
c0 137 110 199 238 199c82 0 126 -28 137 -70c45 47 117 70 197 70c59 0 100 -15 124 -39c39 11 75 26 106 39h13v-627c0 -71 9 -73 60 -96v-31zM406 510v45c0 13 1 26 3 37c-6 -2 -12 -3 -18 -3c-36 0 -69 23 -69 63c0 22 7 40 26 58h-24c-53 0 -81 -43 -81 -141v-59h163z
" />
    <glyph glyph-name="c_t" horiz-adv-x="864" 
d="M449 134l17 -20c-22 -42 -94 -126 -209 -126c-123 0 -228 94 -228 253c0 190 127 281 271 281c86 0 160 -43 160 -111c0 -56 -36 -92 -81 -92s-83 30 -83 82c0 28 14 48 31 67v4c-81 0 -138 -54 -138 -184c0 -148 63 -191 151 -191c47 0 86 19 109 37zM867 91l11 -12
c-23 -33 -101 -87 -167 -87c-84 0 -149 42 -149 157v284l-59 4v45c83 30 118 75 161 153h56v-125h135v-81h-135v-268c0 -49 30 -81 73 -81c33 0 55 5 74 11z" />
    <glyph glyph-name="s_p" horiz-adv-x="1077" 
d="M40 17l-7 142h46c42 -74 83 -108 134 -108c40 0 73 18 73 55c0 93 -248 93 -248 253c0 95 88 163 197 163c41 0 112 -7 151 -22v-117h-42c-40 54 -72 76 -113 76c-34 0 -65 -15 -65 -47c0 -93 255 -87 255 -256c0 -105 -95 -168 -211 -168c-56 0 -126 9 -170 29z
M761 -225h-293v31c50 23 60 27 60 98v442c0 80 -9 82 -70 106v30c70 5 165 22 217 40h9v-82c33 31 82 82 160 82c125 0 198 -106 198 -240c0 -206 -175 -294 -303 -294c-16 0 -34 1 -49 3v-87c0 -71 9 -74 71 -98v-31zM690 406v-332c16 -9 31 -14 54 -14
c68 0 136 43 136 186c0 117 -57 183 -122 183c-26 0 -52 -11 -68 -23z" />
    <glyph glyph-name="s_t" unicode="&#xfb06;" horiz-adv-x="825" 
d="M40 17l-7 142h46c42 -74 83 -108 134 -108c40 0 73 18 73 55c0 93 -248 93 -248 253c0 95 88 163 197 163c41 0 112 -7 151 -22v-117h-42c-40 54 -72 76 -113 76c-34 0 -65 -15 -65 -47c0 -93 255 -87 255 -256c0 -105 -95 -168 -211 -168c-56 0 -126 9 -170 29zM828 91
l11 -12c-23 -33 -101 -87 -167 -87c-84 0 -149 42 -149 157v284l-59 4v45c83 30 118 75 161 153h56v-125h135v-81h-135v-268c0 -49 30 -81 73 -81c33 0 55 5 74 11z" />
    <glyph glyph-name="longs" unicode="&#x17f;" horiz-adv-x="342" 
d="M315 0h-293v31c50 21 60 25 60 96v307h-71l14 76h57v45c0 137 115 199 243 199c99 0 146 -39 146 -98c0 -44 -35 -72 -72 -72c-41 0 -73 19 -73 66c0 30 16 50 25 60h-23c-53 0 -85 -43 -85 -141v-442c0 -71 10 -74 72 -96v-31z" />
    <glyph glyph-name="dotlessj" unicode="&#x237;" horiz-adv-x="310" 
d="M11 -234l-8 23c46 30 80 99 80 193v364c0 80 -9 82 -70 106v30c70 5 170 22 222 40h10v-482c0 -172 -142 -246 -234 -274z" />
    <glyph glyph-name="grave" unicode="`" horiz-adv-x="251" 
d="M225 563l-209 75l46 85l178 -131z" />
    <glyph glyph-name="acute" unicode="&#xb4;" horiz-adv-x="251" 
d="M240 638l-209 -75l-15 29l178 131z" />
    <glyph glyph-name="dieresis" unicode="&#xa8;" horiz-adv-x="363" 
d="M93 568c-39 0 -71 32 -71 71s32 70 71 70c40 0 71 -31 71 -70s-31 -71 -71 -71zM341 639c0 -39 -32 -71 -72 -71c-39 0 -70 32 -70 71s31 70 70 70c40 0 72 -31 72 -70z" />
    <glyph glyph-name="dotaccent" unicode="&#x2d9;" horiz-adv-x="231" 
d="M191 639c0 -41 -34 -75 -76 -75c-41 0 -75 34 -75 75s34 75 75 75c42 0 76 -34 76 -75z" />
    <glyph glyph-name="circumflex" unicode="&#x2c6;" horiz-adv-x="305" 
d="M283 568h-18l-113 53l-112 -53h-18l91 136h77z" />
    <glyph glyph-name="caron" unicode="&#x2c7;" horiz-adv-x="305" 
d="M190 568h-77l-91 136h18l112 -53l113 53h18z" />
    <glyph glyph-name="breve" unicode="&#x2d8;" horiz-adv-x="314" 
d="M258 704h26c-10 -75 -56 -138 -127 -138s-117 63 -127 138h26c20 -46 63 -61 101 -61s81 15 101 61z" />
    <glyph glyph-name="macron" unicode="&#xaf;" horiz-adv-x="284" 
d="M272 602h-260v58h260v-58z" />
    <glyph glyph-name="uni02C9" unicode="&#x2c9;" horiz-adv-x="284" 
d="M272 602h-260v58h260v-58z" />
    <glyph glyph-name="ring" unicode="&#x2da;" horiz-adv-x="300" 
d="M256 667c0 -58 -49 -105 -106 -105c-58 0 -107 47 -107 105c0 57 49 104 107 104c57 0 106 -47 106 -104zM150 608c31 0 56 28 56 59s-25 58 -56 58s-57 -27 -57 -58s26 -59 57 -59z" />
    <glyph glyph-name="tilde" unicode="&#x2dc;" horiz-adv-x="339" 
d="M299 692l20 -2c-5 -18 -36 -116 -91 -116c-54 0 -99 30 -136 30c-31 0 -37 -14 -52 -35l-20 2c5 18 36 115 91 115c53 0 92 -29 136 -29c31 0 37 14 52 35z" />
    <glyph glyph-name="hungarumlaut" unicode="&#x2dd;" horiz-adv-x="291" 
d="M38 568h-34c16 20 43 100 48 122h99c-22 -46 -60 -86 -113 -122zM162 568h-29c16 20 43 100 48 122h99c-22 -46 -65 -86 -118 -122z" />
    <glyph glyph-name="periodcentered" unicode="&#xb7;" horiz-adv-x="253" 
d="M218 356c0 -51 -41 -91 -92 -91s-92 40 -92 91c0 50 41 90 92 90s92 -40 92 -90z" />
    <glyph glyph-name="cedilla" unicode="&#xb8;" horiz-adv-x="239" 
d="M30 -209l8 29c24 -7 40 -9 55 -9c33 0 52 20 52 41c0 32 -51 52 -86 53l71 95h46l-33 -51c38 -4 86 -34 86 -86c0 -56 -57 -85 -116 -85c-34 0 -63 5 -83 13z" />
    <glyph glyph-name="ogonek" unicode="&#x2db;" horiz-adv-x="192" 
d="M174 -168v-14c-12 -15 -45 -40 -77 -40c-53 0 -80 29 -80 70c0 68 91 122 145 152h15c-31 -40 -70 -90 -70 -136c0 -23 17 -35 45 -35c5 0 16 1 22 3z" />
    <glyph glyph-name="caron.alt" horiz-adv-x="210" 
d="M121 449h-30c-4 85 -47 151 -47 192c0 35 27 63 62 63c34 0 61 -28 61 -63c0 -41 -42 -107 -46 -192z" />
    <glyph glyph-name="commaaccent" unicode="&#xf6c3;" horiz-adv-x="225" 
d="M51 -296l-10 10c24 31 34 54 34 81c0 28 -32 39 -32 81c0 39 34 65 67 65c40 0 70 -29 70 -76c0 -64 -70 -126 -129 -161z" />
    <glyph glyph-name="revcommaaccent" horiz-adv-x="225" 
d="M170 797l9 -10c-23 -31 -33 -54 -33 -81c0 -28 31 -39 31 -81c0 -39 -33 -65 -66 -65c-40 0 -71 29 -71 76c0 64 71 126 130 161z" />
    <glyph glyph-name="dblgrave" unicode="&#xf6d6;" horiz-adv-x="329" 
d="M305 568h-34c-53 36 -91 76 -113 122h99c5 -22 32 -102 48 -122zM176 568h-29c-53 36 -96 76 -118 122h99c5 -22 32 -102 48 -122z" />
    <glyph glyph-name="dieresisacute" unicode="&#xf6d7;" horiz-adv-x="363" 
d="M93 568c-39 0 -71 32 -71 71s32 70 71 70c40 0 71 -31 71 -70s-31 -71 -71 -71zM341 639c0 -39 -32 -71 -72 -71c-39 0 -70 32 -70 71s31 70 70 70c40 0 72 -31 72 -70zM90 726l-12 19c44 34 99 84 139 127c27 -18 54 -36 81 -53c-59 -45 -129 -73 -208 -93z" />
    <glyph glyph-name="dieresisgrave" unicode="&#xf6d8;" horiz-adv-x="363" 
d="M93 568c-39 0 -71 32 -71 71s32 70 71 70c40 0 71 -31 71 -70s-31 -71 -71 -71zM341 639c0 -39 -32 -71 -72 -71c-39 0 -70 32 -70 71s31 70 70 70c40 0 72 -31 72 -70zM66 819c27 17 53 35 80 53c41 -43 96 -93 140 -127c-5 -6 -8 -13 -13 -19c-79 20 -148 48 -207 93z
" />
    <glyph glyph-name="grave.cap" horiz-adv-x="251" 
d="M18 839c27 17 53 35 80 53c41 -43 96 -93 140 -127c-5 -6 -8 -13 -13 -19c-79 20 -148 48 -207 93z" />
    <glyph glyph-name="acute.cap" horiz-adv-x="251" 
d="M30 746l-12 19c44 34 99 84 139 127c27 -18 54 -36 81 -53c-59 -45 -129 -73 -208 -93z" />
    <glyph glyph-name="dieresis.cap" horiz-adv-x="363" 
d="M93 743c-39 0 -71 32 -71 71s32 70 71 70c40 0 71 -31 71 -70s-31 -71 -71 -71zM341 814c0 -39 -32 -71 -72 -71c-39 0 -70 32 -70 71s31 70 70 70c40 0 72 -31 72 -70z" />
    <glyph glyph-name="dotaccent.cap" horiz-adv-x="231" 
d="M191 819c0 -41 -34 -75 -76 -75c-41 0 -75 34 -75 75s34 75 75 75c42 0 76 -34 76 -75z" />
    <glyph glyph-name="circumflex.cap" horiz-adv-x="305" 
d="M283 748h-18l-113 53l-112 -53h-18l91 136h77z" />
    <glyph glyph-name="caron.cap" horiz-adv-x="305" 
d="M190 748h-77l-91 136h18l112 -53l113 53h18z" />
    <glyph glyph-name="breve.cap" horiz-adv-x="314" 
d="M264 889h20c-10 -75 -56 -138 -127 -138s-117 63 -127 138h20c20 -46 69 -61 107 -61s87 15 107 61z" />
    <glyph glyph-name="macron.cap" horiz-adv-x="284" 
d="M272 752h-260v58h260v-58z" />
    <glyph glyph-name="ring.cap" horiz-adv-x="300" 
d="M256 667c0 -58 -49 -105 -106 -105c-58 0 -107 47 -107 105c0 57 49 104 107 104c57 0 106 -47 106 -104zM150 608c31 0 56 28 56 59s-25 58 -56 58s-57 -27 -57 -58s26 -59 57 -59z" />
    <glyph glyph-name="tilde.cap" horiz-adv-x="339" 
d="M299 692l20 -2c-5 -18 -36 -116 -91 -116c-54 0 -99 30 -136 30c-31 0 -37 -14 -52 -35l-20 2c5 18 36 115 91 115c53 0 92 -29 136 -29c31 0 37 14 52 35z" />
    <glyph glyph-name="hungarumlaut.cap" horiz-adv-x="291" 
d="M38 748h-34c16 20 43 100 48 122h99c-22 -46 -60 -86 -113 -122zM162 748h-29c16 20 43 100 48 122h99c-22 -46 -65 -86 -118 -122z" />
    <glyph glyph-name="cedilla.cap" horiz-adv-x="239" 
d="M30 -209l8 29c24 -7 40 -9 55 -9c33 0 52 20 52 41c0 32 -51 52 -86 53l71 95h46l-33 -51c38 -4 86 -34 86 -86c0 -56 -57 -85 -116 -85c-34 0 -63 5 -83 13z" />
    <glyph glyph-name="ogonek.cap" horiz-adv-x="192" 
d="M174 -168v-14c-12 -15 -45 -40 -77 -40c-53 0 -80 29 -80 70c0 68 91 122 145 152h15c-31 -40 -70 -90 -70 -136c0 -23 17 -35 45 -35c5 0 16 1 22 3z" />
    <glyph glyph-name="commaaccent.cap" horiz-adv-x="225" 
d="M51 -296l-10 10c24 31 34 54 34 81c0 28 -32 39 -32 81c0 39 34 65 67 65c40 0 70 -29 70 -76c0 -64 -70 -126 -129 -161z" />
    <glyph glyph-name="dblgrave.cap" horiz-adv-x="329" 
d="M305 568h-34c-53 36 -91 76 -113 122h99c5 -22 32 -102 48 -122zM176 568h-29c-53 36 -96 76 -118 122h99c5 -22 32 -102 48 -122z" />
    <glyph glyph-name="dieresisacute.cap" horiz-adv-x="363" 
d="M93 568c-39 0 -71 32 -71 71s32 70 71 70c40 0 71 -31 71 -70s-31 -71 -71 -71zM341 639c0 -39 -32 -71 -72 -71c-39 0 -70 32 -70 71s31 70 70 70c40 0 72 -31 72 -70zM90 726l-12 19c44 34 99 84 139 127c27 -18 54 -36 81 -53c-59 -45 -129 -73 -208 -93z" />
    <glyph glyph-name="dieresisgrave.cap" horiz-adv-x="363" 
d="M93 568c-39 0 -71 32 -71 71s32 70 71 70c40 0 71 -31 71 -70s-31 -71 -71 -71zM341 639c0 -39 -32 -71 -72 -71c-39 0 -70 32 -70 71s31 70 70 70c40 0 72 -31 72 -70zM66 819c27 17 53 35 80 53c41 -43 96 -93 140 -127c-5 -6 -8 -13 -13 -19c-79 20 -148 48 -207 93z
" />
    <glyph glyph-name="Grave.smcp" horiz-adv-x="256" 
d="M225 563l-209 75l46 85l178 -131z" />
    <glyph glyph-name="Acute.smcp" horiz-adv-x="256" 
d="M240 638l-209 -75l-15 29l178 131z" />
    <glyph glyph-name="Dieresis.smcp" horiz-adv-x="363" 
d="M93 568c-39 0 -71 32 -71 71s32 70 71 70c40 0 71 -31 71 -70s-31 -71 -71 -71zM341 639c0 -39 -32 -71 -72 -71c-39 0 -70 32 -70 71s31 70 70 70c40 0 72 -31 72 -70z" />
    <glyph glyph-name="Dotaccent.smcp" horiz-adv-x="231" 
d="M191 639c0 -41 -34 -75 -76 -75c-41 0 -75 34 -75 75s34 75 75 75c42 0 76 -34 76 -75z" />
    <glyph glyph-name="Circumflex.smcp" horiz-adv-x="305" 
d="M283 568h-18l-113 53l-112 -53h-18l91 136h77z" />
    <glyph glyph-name="Caron.smcp" horiz-adv-x="305" 
d="M190 568h-77l-91 136h18l112 -53l113 53h18z" />
    <glyph glyph-name="Breve.smcp" horiz-adv-x="314" 
d="M258 704h26c-10 -75 -56 -138 -127 -138s-117 63 -127 138h26c20 -46 63 -61 101 -61s81 15 101 61z" />
    <glyph glyph-name="Macron.smcp" horiz-adv-x="284" 
d="M272 602h-260v58h260v-58z" />
    <glyph glyph-name="Ring.smcp" horiz-adv-x="300" 
d="M256 667c0 -58 -49 -105 -106 -105c-58 0 -107 47 -107 105c0 57 49 104 107 104c57 0 106 -47 106 -104zM150 608c31 0 56 28 56 59s-25 58 -56 58s-57 -27 -57 -58s26 -59 57 -59z" />
    <glyph glyph-name="Tilde.smcp" horiz-adv-x="338" 
d="M299 692l20 -2c-5 -18 -36 -116 -91 -116c-54 0 -99 30 -136 30c-31 0 -37 -14 -52 -35l-20 2c5 18 36 115 91 115c53 0 92 -29 136 -29c31 0 37 14 52 35z" />
    <glyph glyph-name="Hungarumlaut.smcp" horiz-adv-x="284" 
d="M38 568h-34c16 20 43 100 48 122h99c-22 -46 -60 -86 -113 -122zM162 568h-29c16 20 43 100 48 122h99c-22 -46 -65 -86 -118 -122z" />
    <glyph glyph-name="Cedilla.smcp" horiz-adv-x="259" 
d="M30 -209l8 29c24 -7 40 -9 55 -9c33 0 52 20 52 41c0 32 -51 52 -86 53l71 95h46l-33 -51c38 -4 86 -34 86 -86c0 -56 -57 -85 -116 -85c-34 0 -63 5 -83 13z" />
    <glyph glyph-name="Ogonek.smcp" horiz-adv-x="204" 
d="M174 -168v-14c-12 -15 -45 -40 -77 -40c-53 0 -80 29 -80 70c0 68 91 122 145 152h15c-31 -40 -70 -90 -70 -136c0 -23 17 -35 45 -35c5 0 16 1 22 3z" />
    <glyph glyph-name="commaaccent.smcp" horiz-adv-x="224" 
d="M51 -296l-10 10c24 31 34 54 34 81c0 28 -32 39 -32 81c0 39 34 65 67 65c40 0 70 -29 70 -76c0 -64 -70 -126 -129 -161z" />
    <glyph glyph-name="dblGrave.smcp" horiz-adv-x="329" 
d="M305 568h-34c-53 36 -91 76 -113 122h99c5 -22 32 -102 48 -122zM176 568h-29c-53 36 -96 76 -118 122h99c5 -22 32 -102 48 -122z" />
    <glyph glyph-name="DieresisAcute.smcp" horiz-adv-x="363" 
d="M93 568c-39 0 -71 32 -71 71s32 70 71 70c40 0 71 -31 71 -70s-31 -71 -71 -71zM341 639c0 -39 -32 -71 -72 -71c-39 0 -70 32 -70 71s31 70 70 70c40 0 72 -31 72 -70zM90 726l-12 19c44 34 99 84 139 127c27 -18 54 -36 81 -53c-59 -45 -129 -73 -208 -93z" />
    <glyph glyph-name="DieresisGrave.smcp" horiz-adv-x="363" 
d="M93 568c-39 0 -71 32 -71 71s32 70 71 70c40 0 71 -31 71 -70s-31 -71 -71 -71zM341 639c0 -39 -32 -71 -72 -71c-39 0 -70 32 -70 71s31 70 70 70c40 0 72 -31 72 -70zM66 819c27 17 53 35 80 53c41 -43 96 -93 140 -127c-5 -6 -8 -13 -13 -19c-79 20 -148 48 -207 93z
" />
    <glyph glyph-name="Agrave" unicode="&#xc0;" horiz-adv-x="754" 
d="M745 0h-313v31c34 8 54 19 54 51c0 23 -11 67 -30 129l-13 42h-205c-24 -81 -36 -129 -36 -162c0 -41 23 -49 67 -60v-31h-265v31c59 16 85 40 150 246l131 413h189l154 -481c47 -146 71 -170 117 -182v-27zM421 328l-77 270h-5l-79 -270h161zM476 743l-209 75l46 85
l178 -131z" />
    <glyph glyph-name="Aacute" unicode="&#xc1;" horiz-adv-x="754" 
d="M745 0h-313v31c34 8 54 19 54 51c0 23 -11 67 -30 129l-13 42h-205c-24 -81 -36 -129 -36 -162c0 -41 23 -49 67 -60v-31h-265v31c59 16 85 40 150 246l131 413h189l154 -481c47 -146 71 -170 117 -182v-27zM421 328l-77 270h-5l-79 -270h161zM491 818l-209 -75l-15 29
l178 131z" />
    <glyph glyph-name="Acircumflex" unicode="&#xc2;" horiz-adv-x="754" 
d="M745 0h-313v31c34 8 54 19 54 51c0 23 -11 67 -30 129l-13 42h-205c-24 -81 -36 -129 -36 -162c0 -41 23 -49 67 -60v-31h-265v31c59 16 85 40 150 246l131 413h189l154 -481c47 -146 71 -170 117 -182v-27zM421 328l-77 270h-5l-79 -270h161zM510 748h-18l-113 53
l-112 -53h-18l91 136h77z" />
    <glyph glyph-name="Atilde" unicode="&#xc3;" horiz-adv-x="754" 
d="M745 0h-313v31c34 8 54 19 54 51c0 23 -11 67 -30 129l-13 42h-205c-24 -81 -36 -129 -36 -162c0 -41 23 -49 67 -60v-31h-265v31c59 16 85 40 150 246l131 413h189l154 -481c47 -146 71 -170 117 -182v-27zM421 328l-77 270h-5l-79 -270h161zM509 872l20 -2
c-5 -18 -36 -116 -91 -116c-54 0 -99 30 -136 30c-31 0 -37 -14 -52 -35l-20 2c5 18 36 115 91 115c53 0 92 -29 136 -29c31 0 37 14 52 35z" />
    <glyph glyph-name="Adieresis" unicode="&#xc4;" horiz-adv-x="754" 
d="M745 0h-313v31c34 8 54 19 54 51c0 23 -11 67 -30 129l-13 42h-205c-24 -81 -36 -129 -36 -162c0 -41 23 -49 67 -60v-31h-265v31c59 16 85 40 150 246l131 413h189l154 -481c47 -146 71 -170 117 -182v-27zM421 328l-77 270h-5l-79 -270h161zM291 748
c-39 0 -71 32 -71 71s32 70 71 70c40 0 71 -31 71 -70s-31 -71 -71 -71zM539 819c0 -39 -32 -71 -72 -71c-39 0 -70 32 -70 71s31 70 70 70c40 0 72 -31 72 -70z" />
    <glyph glyph-name="Aring" unicode="&#xc5;" horiz-adv-x="745" 
d="M743 0h-313v31c34 8 54 19 54 51c0 25 -11 66 -30 129l-13 42h-205c-24 -81 -36 -129 -36 -162c0 -41 23 -49 67 -60v-31h-265v31c59 16 85 40 150 246l117 369c-23 24 -37 57 -37 93c0 77 64 138 141 138s140 -61 140 -138c0 -33 -11 -62 -30 -85l143 -445
c47 -146 71 -170 117 -182v-27zM419 328l-78 270h-4l-79 -270h161zM373 676c34 0 61 29 61 63s-27 63 -61 63s-61 -29 -61 -63s27 -63 61 -63z" />
    <glyph glyph-name="Amacron" unicode="&#x100;" horiz-adv-x="754" 
d="M745 0h-313v31c34 8 54 19 54 51c0 23 -11 67 -30 129l-13 42h-205c-24 -81 -36 -129 -36 -162c0 -41 23 -49 67 -60v-31h-265v31c59 16 85 40 150 246l131 413h189l154 -481c47 -146 71 -170 117 -182v-27zM421 328l-77 270h-5l-79 -270h161zM509 782h-260v58h260v-58z
" />
    <glyph glyph-name="Abreve" unicode="&#x102;" horiz-adv-x="754" 
d="M745 0h-313v31c34 8 54 19 54 51c0 23 -11 67 -30 129l-13 42h-205c-24 -81 -36 -129 -36 -162c0 -41 23 -49 67 -60v-31h-265v31c59 16 85 40 150 246l131 413h189l154 -481c47 -146 71 -170 117 -182v-27zM421 328l-77 270h-5l-79 -270h161zM480 884h26
c-10 -75 -56 -138 -127 -138s-117 63 -127 138h26c20 -46 63 -61 101 -61s81 15 101 61z" />
    <glyph glyph-name="Aogonek" unicode="&#x104;" horiz-adv-x="754" 
d="M583 -168v-14c-12 -15 -45 -40 -77 -40c-53 0 -80 29 -80 70c0 68 91 122 145 152h-139v31c34 8 54 19 54 51c0 23 -11 67 -30 129l-13 42h-205c-24 -81 -36 -129 -36 -162c0 -41 23 -49 67 -60v-31h-265v31c59 16 85 40 150 246l131 413h189l154 -481
c47 -146 71 -170 117 -182v-27h-159c-31 -40 -70 -90 -70 -136c0 -23 17 -35 45 -35c5 0 16 1 22 3zM421 328l-77 270h-5l-79 -270h161z" />
    <glyph glyph-name="Ccedilla" unicode="&#xc7;" horiz-adv-x="731" 
d="M328 -209l8 29c24 -7 40 -9 55 -9c33 0 52 20 52 41c0 32 -51 52 -86 53l60 81c-215 11 -378 121 -378 351c0 259 210 367 414 367c75 0 180 -22 224 -42v-151h-49c-51 94 -105 130 -188 130c-125 0 -222 -75 -222 -293c0 -220 98 -299 238 -299c83 0 135 20 194 144h50
l-14 -164c-44 -23 -142 -42 -222 -44l-23 -36c38 -4 86 -34 86 -86c0 -56 -57 -85 -116 -85c-34 0 -63 5 -83 13z" />
    <glyph glyph-name="Cacute" unicode="&#x106;" horiz-adv-x="739" 
d="M700 193l-14 -164c-46 -24 -151 -44 -233 -44c-232 0 -414 110 -414 352c0 259 210 367 414 367c75 0 180 -22 224 -42v-151h-49c-51 94 -105 130 -188 130c-125 0 -222 -75 -222 -293c0 -220 98 -299 238 -299c83 0 135 20 194 144h50zM547 818l-209 -75l-15 29l178 131
z" />
    <glyph glyph-name="Ccircumflex" unicode="&#x108;" horiz-adv-x="739" 
d="M700 193l-14 -164c-46 -24 -151 -44 -233 -44c-232 0 -414 110 -414 352c0 259 210 367 414 367c75 0 180 -22 224 -42v-151h-49c-51 94 -105 130 -188 130c-125 0 -222 -75 -222 -293c0 -220 98 -299 238 -299c83 0 135 20 194 144h50zM576 748h-18l-113 53l-112 -53
h-18l91 136h77z" />
    <glyph glyph-name="Cdotaccent" unicode="&#x10a;" horiz-adv-x="739" 
d="M700 193l-14 -164c-46 -24 -151 -44 -233 -44c-232 0 -414 110 -414 352c0 259 210 367 414 367c75 0 180 -22 224 -42v-151h-49c-51 94 -105 130 -188 130c-125 0 -222 -75 -222 -293c0 -220 98 -299 238 -299c83 0 135 20 194 144h50zM523 819c0 -41 -34 -75 -76 -75
c-41 0 -75 34 -75 75s34 75 75 75c42 0 76 -34 76 -75z" />
    <glyph glyph-name="Ccaron" unicode="&#x10c;" horiz-adv-x="739" 
d="M700 193l-14 -164c-46 -24 -151 -44 -233 -44c-232 0 -414 110 -414 352c0 259 210 367 414 367c75 0 180 -22 224 -42v-151h-49c-51 94 -105 130 -188 130c-125 0 -222 -75 -222 -293c0 -220 98 -299 238 -299c83 0 135 20 194 144h50zM475 748h-77l-91 136h18l112 -53
l113 53h18z" />
    <glyph glyph-name="Dcaron" unicode="&#x10e;" horiz-adv-x="830" 
d="M358 0h-332v31c62 23 73 35 73 107v416c0 72 -11 82 -73 105v31h342c220 0 401 -104 401 -328s-178 -362 -411 -362zM268 64h88c159 0 235 124 235 286c0 174 -89 276 -225 276h-98v-562zM452 748h-77l-91 136h18l112 -53l113 53h18z" />
    <glyph glyph-name="Dcroat" unicode="&#x110;" horiz-adv-x="814" 
d="M358 0h-332v31c62 23 73 35 73 107v184h-69v65h69v167c0 72 -11 82 -73 105v31h342c220 0 401 -104 401 -328s-178 -362 -411 -362zM268 64h88c159 0 235 124 235 286c0 174 -89 276 -225 276h-98v-239h111v-65h-111v-258z" />
    <glyph glyph-name="Egrave" unicode="&#xc8;" horiz-adv-x="602" 
d="M543 0h-517v31c62 23 73 25 73 97v436c0 72 -11 74 -73 95v31h491v-153h-38c-70 89 -73 89 -147 89h-64v-242h75c48 0 65 14 99 70h33v-198h-32c-34 55 -52 67 -100 67h-75v-259h65c99 0 102 5 192 105h39zM397 743l-209 75l46 85l178 -131z" />
    <glyph glyph-name="Eacute" unicode="&#xc9;" horiz-adv-x="602" 
d="M543 0h-517v31c62 23 73 25 73 97v436c0 72 -11 74 -73 95v31h491v-153h-38c-70 89 -73 89 -147 89h-64v-242h75c48 0 65 14 99 70h33v-198h-32c-34 55 -52 67 -100 67h-75v-259h65c99 0 102 5 192 105h39zM412 818l-209 -75l-15 29l178 131z" />
    <glyph glyph-name="Ecircumflex" unicode="&#xca;" horiz-adv-x="602" 
d="M543 0h-517v31c62 23 73 25 73 97v436c0 72 -11 74 -73 95v31h491v-153h-38c-70 89 -73 89 -147 89h-64v-242h75c48 0 65 14 99 70h33v-198h-32c-34 55 -52 67 -100 67h-75v-259h65c99 0 102 5 192 105h39zM431 748h-18l-113 53l-112 -53h-18l91 136h77z" />
    <glyph glyph-name="Edieresis" unicode="&#xcb;" horiz-adv-x="602" 
d="M543 0h-517v31c62 23 73 25 73 97v436c0 72 -11 74 -73 95v31h491v-153h-38c-70 89 -73 89 -147 89h-64v-242h75c48 0 65 14 99 70h33v-198h-32c-34 55 -52 67 -100 67h-75v-259h65c99 0 102 5 192 105h39zM212 748c-39 0 -71 32 -71 71s32 70 71 70c40 0 71 -31 71 -70
s-31 -71 -71 -71zM460 819c0 -39 -32 -71 -72 -71c-39 0 -70 32 -70 71s31 70 70 70c40 0 72 -31 72 -70z" />
    <glyph glyph-name="Emacron" unicode="&#x112;" horiz-adv-x="602" 
d="M543 0h-517v31c62 23 73 25 73 97v436c0 72 -11 74 -73 95v31h491v-153h-38c-70 89 -73 89 -147 89h-64v-242h75c48 0 65 14 99 70h33v-198h-32c-34 55 -52 67 -100 67h-75v-259h65c99 0 102 5 192 105h39zM431 782h-260v58h260v-58z" />
    <glyph glyph-name="Ebreve" unicode="&#x114;" horiz-adv-x="602" 
d="M543 0h-517v31c62 23 73 25 73 97v436c0 72 -11 74 -73 95v31h491v-153h-38c-70 89 -73 89 -147 89h-64v-242h75c48 0 65 14 99 70h33v-198h-32c-34 55 -52 67 -100 67h-75v-259h65c99 0 102 5 192 105h39zM402 884h26c-10 -75 -56 -138 -127 -138s-117 63 -127 138h26
c20 -46 63 -61 101 -61s81 15 101 61z" />
    <glyph glyph-name="Edotaccent" unicode="&#x116;" horiz-adv-x="602" 
d="M543 0h-517v31c62 23 73 25 73 97v436c0 72 -11 74 -73 95v31h491v-153h-38c-70 89 -73 89 -147 89h-64v-242h75c48 0 65 14 99 70h33v-198h-32c-34 55 -52 67 -100 67h-75v-259h65c99 0 102 5 192 105h39zM376 819c0 -41 -34 -75 -76 -75c-41 0 -75 34 -75 75
s34 75 75 75c42 0 76 -34 76 -75z" />
    <glyph glyph-name="Eogonek" unicode="&#x118;" horiz-adv-x="602" 
d="M460 -168v-14c-12 -15 -45 -40 -77 -40c-53 0 -80 29 -80 70c0 68 91 122 145 152h-422v31c62 23 73 25 73 97v436c0 72 -11 74 -73 95v31h491v-153h-38c-70 89 -73 89 -147 89h-64v-242h75c48 0 65 14 99 70h33v-198h-32c-34 55 -52 67 -100 67h-75v-259h65
c99 0 102 5 192 105h39l-21 -169h-80c-31 -40 -70 -90 -70 -136c0 -23 17 -35 45 -35c5 0 16 1 22 3z" />
    <glyph glyph-name="Ecaron" unicode="&#x11a;" horiz-adv-x="602" 
d="M543 0h-517v31c62 23 73 25 73 97v436c0 72 -11 74 -73 95v31h491v-153h-38c-70 89 -73 89 -147 89h-64v-242h75c48 0 65 14 99 70h33v-198h-32c-34 55 -52 67 -100 67h-75v-259h65c99 0 102 5 192 105h39zM338 748h-77l-91 136h18l112 -53l113 53h18z" />
    <glyph glyph-name="Gcircumflex" unicode="&#x11c;" horiz-adv-x="799" 
d="M707 210v-178c-75 -27 -196 -47 -280 -47c-182 0 -387 104 -387 356c0 262 246 363 416 363c92 0 205 -29 242 -45v-167h-44c-61 105 -122 148 -201 148c-133 0 -235 -84 -235 -287c0 -222 107 -298 243 -298c35 0 68 10 87 16v138c0 59 -11 80 -71 103v32h287v-32
c-48 -22 -57 -28 -57 -102zM530 748h-18l-113 53l-112 -53h-18l91 136h77z" />
    <glyph glyph-name="Gbreve" unicode="&#x11e;" horiz-adv-x="799" 
d="M707 210v-178c-75 -27 -196 -47 -280 -47c-182 0 -387 104 -387 356c0 262 246 363 416 363c92 0 205 -29 242 -45v-167h-44c-61 105 -122 148 -201 148c-133 0 -235 -84 -235 -287c0 -222 107 -298 243 -298c35 0 68 10 87 16v138c0 59 -11 80 -71 103v32h287v-32
c-48 -22 -57 -28 -57 -102zM500 884h26c-10 -75 -56 -138 -127 -138s-117 63 -127 138h26c20 -46 63 -61 101 -61s81 15 101 61z" />
    <glyph glyph-name="Gdotaccent" unicode="&#x120;" horiz-adv-x="799" 
d="M707 210v-178c-75 -27 -196 -47 -280 -47c-182 0 -387 104 -387 356c0 262 246 363 416 363c92 0 205 -29 242 -45v-167h-44c-61 105 -122 148 -201 148c-133 0 -235 -84 -235 -287c0 -222 107 -298 243 -298c35 0 68 10 87 16v138c0 59 -11 80 -71 103v32h287v-32
c-48 -22 -57 -28 -57 -102zM475 819c0 -41 -34 -75 -76 -75c-41 0 -75 34 -75 75s34 75 75 75c42 0 76 -34 76 -75z" />
    <glyph glyph-name="Gcommaaccent" unicode="&#x122;" horiz-adv-x="799" 
d="M707 210v-178c-75 -27 -196 -47 -280 -47c-182 0 -387 104 -387 356c0 262 246 363 416 363c92 0 205 -29 242 -45v-167h-44c-61 105 -122 148 -201 148c-133 0 -235 -84 -235 -287c0 -222 107 -298 243 -298c35 0 68 10 87 16v138c0 59 -11 80 -71 103v32h287v-32
c-48 -22 -57 -28 -57 -102zM340 -296l-10 10c24 31 34 54 34 81c0 28 -32 39 -32 81c0 39 34 65 67 65c40 0 70 -29 70 -76c0 -64 -70 -126 -129 -161z" />
    <glyph glyph-name="Hcircumflex" unicode="&#x124;" horiz-adv-x="829" 
d="M782 0h-315v32c63 23 73 35 73 106v178h-272v-178c0 -72 11 -84 73 -107v-31h-315v31c62 23 73 35 73 107v416c0 72 -11 82 -73 105v31h315v-31c-62 -23 -73 -33 -73 -105v-165h272v165c0 71 -10 81 -73 104v32h315v-31c-61 -23 -73 -33 -73 -105v-416
c0 -72 12 -84 73 -107v-31zM544 748h-18l-113 53l-112 -53h-18l91 136h77z" />
    <glyph glyph-name="Hbar" unicode="&#x126;" horiz-adv-x="808" 
d="M782 0h-315v27c63 23 73 35 73 106v183h-272v-183c0 -72 11 -84 73 -107v-26h-315v26c62 23 73 35 73 107v342h-73v69h73v15c0 72 -11 82 -73 105v26h315v-26c-62 -23 -73 -33 -73 -105v-15h272v15c0 71 -10 81 -73 104v27h315v-26c-61 -23 -73 -33 -73 -105v-15h73v-69
h-73v-342c0 -72 12 -84 73 -107v-26zM540 389v86h-272v-86h272z" />
    <glyph glyph-name="Igrave" unicode="&#xcc;" horiz-adv-x="374" 
d="M342 0h-317v31c63 23 74 33 74 105v418c0 72 -11 82 -74 105v31h317v-31c-63 -23 -74 -33 -74 -105v-418c0 -72 11 -82 74 -105v-31zM284 743l-209 75l46 85l178 -131z" />
    <glyph glyph-name="Iacute" unicode="&#xcd;" horiz-adv-x="374" 
d="M342 0h-317v31c63 23 74 33 74 105v418c0 72 -11 82 -74 105v31h317v-31c-63 -23 -74 -33 -74 -105v-418c0 -72 11 -82 74 -105v-31zM299 818l-209 -75l-15 29l178 131z" />
    <glyph glyph-name="Icircumflex" unicode="&#xce;" horiz-adv-x="374" 
d="M342 0h-317v31c63 23 74 33 74 105v418c0 72 -11 82 -74 105v31h317v-31c-63 -23 -74 -33 -74 -105v-418c0 -72 11 -82 74 -105v-31zM317 748h-18l-113 53l-112 -53h-18l91 136h77z" />
    <glyph glyph-name="Idieresis" unicode="&#xcf;" horiz-adv-x="374" 
d="M342 0h-317v31c63 23 74 33 74 105v418c0 72 -11 82 -74 105v31h317v-31c-63 -23 -74 -33 -74 -105v-418c0 -72 11 -82 74 -105v-31zM99 748c-39 0 -71 32 -71 71s32 70 71 70c40 0 71 -31 71 -70s-31 -71 -71 -71zM347 819c0 -39 -32 -71 -72 -71c-39 0 -70 32 -70 71
s31 70 70 70c40 0 72 -31 72 -70z" />
    <glyph glyph-name="Itilde" unicode="&#x128;" horiz-adv-x="374" 
d="M342 0h-317v31c63 23 74 33 74 105v418c0 72 -11 82 -74 105v31h317v-31c-63 -23 -74 -33 -74 -105v-418c0 -72 11 -82 74 -105v-31zM316 872l20 -2c-5 -18 -36 -116 -91 -116c-54 0 -99 30 -136 30c-31 0 -37 -14 -52 -35l-20 2c5 18 36 115 91 115c53 0 92 -29 136 -29
c31 0 37 14 52 35z" />
    <glyph glyph-name="Imacron" unicode="&#x12a;" horiz-adv-x="374" 
d="M342 0h-317v31c63 23 74 33 74 105v418c0 72 -11 82 -74 105v31h317v-31c-63 -23 -74 -33 -74 -105v-418c0 -72 11 -82 74 -105v-31zM317 782h-260v58h260v-58z" />
    <glyph glyph-name="Ibreve" unicode="&#x12c;" horiz-adv-x="374" 
d="M342 0h-317v31c63 23 74 33 74 105v418c0 72 -11 82 -74 105v31h317v-31c-63 -23 -74 -33 -74 -105v-418c0 -72 11 -82 74 -105v-31zM288 884h26c-10 -75 -56 -138 -127 -138s-117 63 -127 138h26c20 -46 63 -61 101 -61s81 15 101 61z" />
    <glyph glyph-name="Iogonek" unicode="&#x12e;" horiz-adv-x="374" 
d="M192 -168v-14c-12 -15 -45 -40 -77 -40c-53 0 -80 29 -80 70c0 68 91 122 145 152h-155v31c63 23 74 33 74 105v418c0 72 -11 82 -74 105v31h317v-31c-63 -23 -74 -33 -74 -105v-418c0 -72 11 -82 74 -105v-31h-147c-31 -40 -70 -90 -70 -136c0 -23 17 -35 45 -35
c5 0 16 1 22 3z" />
    <glyph glyph-name="Idotaccent" unicode="&#x130;" horiz-adv-x="374" 
d="M342 0h-317v31c63 23 74 33 74 105v418c0 72 -11 82 -74 105v31h317v-31c-63 -23 -74 -33 -74 -105v-418c0 -72 11 -82 74 -105v-31zM262 819c0 -41 -34 -75 -76 -75c-41 0 -75 34 -75 75s34 75 75 75c42 0 76 -34 76 -75z" />
    <glyph glyph-name="IJ" unicode="&#x132;" horiz-adv-x="744" 
d="M342 0h-317v31c63 23 74 33 74 105v418c0 72 -11 82 -74 105v31h317v-31c-63 -23 -74 -33 -74 -105v-418c0 -72 11 -82 74 -105v-31zM394 -206l-5 33c54 35 84 92 84 175v552c0 72 -11 82 -74 105v31h317v-31c-63 -23 -74 -33 -74 -105v-479c0 -183 -150 -254 -248 -281z
" />
    <glyph glyph-name="Jcircumflex" unicode="&#x134;" horiz-adv-x="370" 
d="M20 -206l-5 33c54 35 84 92 84 175v552c0 72 -11 82 -74 105v31h317v-31c-63 -23 -74 -33 -74 -105v-479c0 -183 -150 -254 -248 -281zM315 748h-18l-113 53l-112 -53h-18l91 136h77z" />
    <glyph glyph-name="Kcommaaccent" unicode="&#x136;" horiz-adv-x="764" 
d="M761 0h-334v32c32 5 51 12 51 31c0 29 -79 149 -133 240l-77 -77v-90c0 -72 11 -82 74 -105v-31h-317v31c63 23 74 33 74 105v418c0 72 -11 82 -74 105v31h317v-31c-63 -23 -74 -33 -74 -105v-234l172 201c35 41 51 68 51 92s-22 34 -62 46v31h304v-31
c-71 -26 -107 -48 -192 -142l-86 -95l167 -266c51 -82 84 -102 139 -125v-31zM322 -296l-10 10c24 31 34 54 34 81c0 28 -32 39 -32 81c0 39 34 65 67 65c40 0 70 -29 70 -76c0 -64 -70 -126 -129 -161z" />
    <glyph glyph-name="kgreenlandic.case" horiz-adv-x="842" 
d="M761 0h-334v32c32 5 51 12 51 31c0 29 -79 149 -133 240l-77 -77v-90c0 -72 11 -82 74 -105v-31h-317v31c63 23 74 33 74 105v418c0 72 -11 82 -74 105v31h317v-31c-63 -23 -74 -33 -74 -105v-234l172 201c35 41 51 68 51 92s-22 34 -62 46v31h304v-31
c-71 -26 -107 -48 -192 -142l-86 -95l167 -266c51 -82 84 -102 139 -125v-31zM835 705l9 -10c-23 -31 -33 -54 -33 -81c0 -28 31 -39 31 -81c0 -39 -33 -65 -66 -65c-40 0 -71 29 -71 76c0 64 71 126 130 161z" />
    <glyph glyph-name="Lacute" unicode="&#x139;" horiz-adv-x="576" 
d="M529 0h-503v31c62 23 73 43 73 115v398c0 72 -11 92 -73 115v31h315v-31c-63 -23 -73 -43 -73 -115v-480h64c86 0 92 6 180 115h38zM312 818l-209 -75l-15 29l178 131z" />
    <glyph glyph-name="Lcommaaccent" unicode="&#x13b;" horiz-adv-x="576" 
d="M529 0h-503v31c62 23 73 43 73 115v398c0 72 -11 92 -73 115v31h315v-31c-63 -23 -73 -43 -73 -115v-480h64c86 0 92 6 180 115h38zM228 -296l-10 10c24 31 34 54 34 81c0 28 -32 39 -32 81c0 39 34 65 67 65c40 0 70 -29 70 -76c0 -64 -70 -126 -129 -161z" />
    <glyph glyph-name="Lcaron" unicode="&#x13d;" horiz-adv-x="576" 
d="M529 0h-503v31c62 23 73 43 73 115v398c0 72 -11 92 -73 115v31h315v-31c-63 -23 -73 -43 -73 -115v-480h64c86 0 92 6 180 115h38zM454 449h-30c-4 85 -47 151 -47 192c0 35 27 63 62 63c34 0 61 -28 61 -63c0 -41 -42 -107 -46 -192z" />
    <glyph glyph-name="Ldot" unicode="&#x13f;" horiz-adv-x="576" 
d="M529 0h-503v31c62 23 73 43 73 115v398c0 72 -11 92 -73 115v31h315v-31c-63 -23 -73 -43 -73 -115v-480h64c86 0 92 6 180 115h38zM488 356c0 -46 -37 -82 -83 -82s-83 36 -83 82s37 82 83 82s83 -36 83 -82z" />
    <glyph glyph-name="Lslash" unicode="&#x141;" horiz-adv-x="565" 
d="M529 0h-503v31c62 23 73 43 73 115v110l-73 -20v69l73 20v219c0 72 -11 92 -73 115v31h315v-31c-63 -23 -73 -43 -73 -115v-173l123 34v-69l-123 -34v-238h64c86 0 92 6 180 115h38z" />
    <glyph glyph-name="Ntilde" unicode="&#xd1;" horiz-adv-x="849" 
d="M745 -5h-112l-437 545v-308c0 -153 20 -177 80 -201v-31h-250v31c61 24 80 47 80 201v329c0 41 -20 75 -90 98v31h261l377 -458v228c0 152 -19 174 -80 199v31h250v-31c-60 -25 -79 -45 -79 -199v-465zM562 872l20 -2c-5 -18 -36 -116 -91 -116c-54 0 -99 30 -136 30
c-31 0 -37 -14 -52 -35l-20 2c5 18 36 115 91 115c53 0 92 -29 136 -29c31 0 37 14 52 35z" />
    <glyph glyph-name="Nacute" unicode="&#x143;" horiz-adv-x="849" 
d="M745 -5h-112l-437 545v-308c0 -153 20 -177 80 -201v-31h-250v31c61 24 80 47 80 201v329c0 41 -20 75 -90 98v31h261l377 -458v228c0 152 -19 174 -80 199v31h250v-31c-60 -25 -79 -45 -79 -199v-465zM545 818l-209 -75l-15 29l178 131z" />
    <glyph glyph-name="Ncommaaccent" unicode="&#x145;" horiz-adv-x="849" 
d="M745 -5h-112l-437 545v-308c0 -153 20 -177 80 -201v-31h-250v31c61 24 80 47 80 201v329c0 41 -20 75 -90 98v31h261l377 -458v228c0 152 -19 174 -80 199v31h250v-31c-60 -25 -79 -45 -79 -199v-465zM373 -296l-10 10c24 31 34 54 34 81c0 28 -32 39 -32 81
c0 39 34 65 67 65c40 0 70 -29 70 -76c0 -64 -70 -126 -129 -161z" />
    <glyph glyph-name="Ncaron" unicode="&#x147;" horiz-adv-x="849" 
d="M745 -5h-112l-437 545v-308c0 -153 20 -177 80 -201v-31h-250v31c61 24 80 47 80 201v329c0 41 -20 75 -90 98v31h261l377 -458v228c0 152 -19 174 -80 199v31h250v-31c-60 -25 -79 -45 -79 -199v-465zM470 748h-77l-91 136h18l112 -53l113 53h18z" />
    <glyph glyph-name="napostrophe.case" horiz-adv-x="849" 
d="M745 -5h-112l-437 545v-308c0 -153 20 -177 80 -201v-31h-250v31c61 24 80 47 80 201v329c0 41 -20 75 -90 98v31h261l377 -458v228c0 152 -19 174 -80 199v31h250v-31c-60 -25 -79 -45 -79 -199v-465zM99 705l-10 10c24 31 34 55 34 82c0 28 -32 40 -32 82
c0 39 34 65 67 65c40 0 70 -29 70 -76c0 -64 -70 -128 -129 -163z" />
    <glyph glyph-name="Ograve" unicode="&#xd2;" horiz-adv-x="873" 
d="M425 49c131 0 208 114 208 295c0 179 -75 297 -208 297s-207 -113 -207 -297c0 -181 76 -295 207 -295zM811 350c0 -238 -191 -365 -386 -365c-199 0 -385 117 -385 359c0 234 192 360 385 360s386 -117 386 -354zM533 743l-209 75l46 85l178 -131z" />
    <glyph glyph-name="Oacute" unicode="&#xd3;" horiz-adv-x="873" 
d="M425 49c131 0 208 114 208 295c0 179 -75 297 -208 297s-207 -113 -207 -297c0 -181 76 -295 207 -295zM811 350c0 -238 -191 -365 -386 -365c-199 0 -385 117 -385 359c0 234 192 360 385 360s386 -117 386 -354zM548 818l-209 -75l-15 29l178 131z" />
    <glyph glyph-name="Ocircumflex" unicode="&#xd4;" horiz-adv-x="873" 
d="M425 49c131 0 208 114 208 295c0 179 -75 297 -208 297s-207 -113 -207 -297c0 -181 76 -295 207 -295zM811 350c0 -238 -191 -365 -386 -365c-199 0 -385 117 -385 359c0 234 192 360 385 360s386 -117 386 -354zM567 748h-18l-113 53l-112 -53h-18l91 136h77z" />
    <glyph glyph-name="Otilde" unicode="&#xd5;" horiz-adv-x="873" 
d="M425 49c131 0 208 114 208 295c0 179 -75 297 -208 297s-207 -113 -207 -297c0 -181 76 -295 207 -295zM811 350c0 -238 -191 -365 -386 -365c-199 0 -385 117 -385 359c0 234 192 360 385 360s386 -117 386 -354zM566 872l20 -2c-5 -18 -36 -116 -91 -116
c-54 0 -99 30 -136 30c-31 0 -37 -14 -52 -35l-20 2c5 18 36 115 91 115c53 0 92 -29 136 -29c31 0 37 14 52 35z" />
    <glyph glyph-name="Odieresis" unicode="&#xd6;" horiz-adv-x="873" 
d="M425 49c131 0 208 114 208 295c0 179 -75 297 -208 297s-207 -113 -207 -297c0 -181 76 -295 207 -295zM811 350c0 -238 -191 -365 -386 -365c-199 0 -385 117 -385 359c0 234 192 360 385 360s386 -117 386 -354zM348 748c-39 0 -71 32 -71 71s32 70 71 70
c40 0 71 -31 71 -70s-31 -71 -71 -71zM596 819c0 -39 -32 -71 -72 -71c-39 0 -70 32 -70 71s31 70 70 70c40 0 72 -31 72 -70z" />
    <glyph glyph-name="Oslash" unicode="&#xd8;" horiz-adv-x="856" 
d="M216 -54l-53 32l39 64c-96 57 -162 157 -162 302c0 234 192 360 385 360c57 0 115 -12 167 -34l42 68l54 -31l-40 -64c95 -58 163 -157 163 -297c0 -238 -191 -361 -386 -361c-58 0 -115 10 -167 30zM265 142l281 454c-32 29 -73 45 -121 45c-133 0 -207 -113 -207 -297
c0 -84 16 -152 47 -202zM587 545l-282 -454c32 -27 73 -42 120 -42c131 0 208 114 208 295c0 82 -16 150 -46 201z" />
    <glyph glyph-name="Omacron" unicode="&#x14c;" horiz-adv-x="873" 
d="M425 49c131 0 208 114 208 295c0 179 -75 297 -208 297s-207 -113 -207 -297c0 -181 76 -295 207 -295zM811 350c0 -238 -191 -365 -386 -365c-199 0 -385 117 -385 359c0 234 192 360 385 360s386 -117 386 -354zM566 782h-260v58h260v-58z" />
    <glyph glyph-name="Obreve" unicode="&#x14e;" horiz-adv-x="873" 
d="M425 49c131 0 208 114 208 295c0 179 -75 297 -208 297s-207 -113 -207 -297c0 -181 76 -295 207 -295zM811 350c0 -238 -191 -365 -386 -365c-199 0 -385 117 -385 359c0 234 192 360 385 360s386 -117 386 -354zM537 884h26c-10 -75 -56 -138 -127 -138
s-117 63 -127 138h26c20 -46 63 -61 101 -61s81 15 101 61z" />
    <glyph glyph-name="Ohungarumlaut" unicode="&#x150;" horiz-adv-x="873" 
d="M425 49c131 0 208 114 208 295c0 179 -75 297 -208 297s-207 -113 -207 -297c0 -181 76 -295 207 -295zM811 350c0 -238 -191 -365 -386 -365c-199 0 -385 117 -385 359c0 234 192 360 385 360s386 -117 386 -354zM327 748h-34c16 20 43 100 48 122h99
c-22 -46 -60 -86 -113 -122zM451 748h-29c16 20 43 100 48 122h99c-22 -46 -65 -86 -118 -122z" />
    <glyph glyph-name="Racute" unicode="&#x154;" horiz-adv-x="699" 
d="M268 361h31c72 0 143 29 143 137c0 86 -54 128 -120 128h-54v-265zM706 0h-105c-126 0 -131 5 -187 99l-121 201h-25v-162c0 -72 11 -84 74 -107v-31h-315v31c62 23 73 35 73 107v416c0 72 -11 82 -73 105v31h304c178 0 281 -61 281 -187c0 -102 -87 -155 -163 -176
l148 -214c42 -61 62 -71 109 -82v-31zM461 818l-209 -75l-15 29l178 131z" />
    <glyph glyph-name="Rcommaaccent" unicode="&#x156;" horiz-adv-x="699" 
d="M268 361h31c72 0 143 29 143 137c0 86 -54 128 -120 128h-54v-265zM706 0h-105c-126 0 -131 5 -187 99l-121 201h-25v-162c0 -72 11 -84 74 -107v-31h-315v31c62 23 73 35 73 107v416c0 72 -11 82 -73 105v31h304c178 0 281 -61 281 -187c0 -102 -87 -155 -163 -176
l148 -214c42 -61 62 -71 109 -82v-31zM290 -296l-10 10c24 31 34 54 34 81c0 28 -32 39 -32 81c0 39 34 65 67 65c40 0 70 -29 70 -76c0 -64 -70 -126 -129 -161z" />
    <glyph glyph-name="Rcaron" unicode="&#x158;" horiz-adv-x="699" 
d="M268 361h31c72 0 143 29 143 137c0 86 -54 128 -120 128h-54v-265zM706 0h-105c-126 0 -131 5 -187 99l-121 201h-25v-162c0 -72 11 -84 74 -107v-31h-315v31c62 23 73 35 73 107v416c0 72 -11 82 -73 105v31h304c178 0 281 -61 281 -187c0 -102 -87 -155 -163 -176
l148 -214c42 -61 62 -71 109 -82v-31zM387 748h-77l-91 136h18l112 -53l113 53h18z" />
    <glyph glyph-name="Sacute" unicode="&#x15a;" horiz-adv-x="552" 
d="M50 30v166h50c51 -95 86 -147 155 -147c52 0 97 37 97 91c0 134 -304 176 -304 369c0 117 108 195 238 195c76 0 144 -26 180 -41v-131h-49c-52 83 -84 109 -136 109c-50 0 -85 -34 -85 -81c0 -136 304 -161 304 -369c0 -119 -96 -206 -248 -206c-74 0 -155 19 -202 45z
M388 818l-209 -75l-15 29l178 131z" />
    <glyph glyph-name="Scircumflex" unicode="&#x15c;" horiz-adv-x="552" 
d="M50 30v166h50c51 -95 86 -147 155 -147c52 0 97 37 97 91c0 134 -304 176 -304 369c0 117 108 195 238 195c76 0 144 -26 180 -41v-131h-49c-52 83 -84 109 -136 109c-50 0 -85 -34 -85 -81c0 -136 304 -161 304 -369c0 -119 -96 -206 -248 -206c-74 0 -155 19 -202 45z
M406 748h-18l-113 53l-112 -53h-18l91 136h77z" />
    <glyph glyph-name="Scedilla" unicode="&#x15e;" horiz-adv-x="541" 
d="M156 -209l8 29c24 -7 40 -9 55 -9c33 0 52 20 52 41c0 32 -51 52 -86 53l60 80c-72 1 -150 20 -195 45v166h50c51 -95 86 -147 155 -147c52 0 97 37 97 91c0 134 -304 176 -304 369c0 117 108 195 238 195c76 0 144 -26 180 -41v-131h-49c-52 83 -84 109 -136 109
c-50 0 -85 -34 -85 -81c0 -136 304 -161 304 -369c0 -108 -79 -189 -206 -203l-25 -39c38 -4 86 -34 86 -86c0 -56 -57 -85 -116 -85c-34 0 -63 5 -83 13z" />
    <glyph glyph-name="Scaron" unicode="&#x160;" horiz-adv-x="552" 
d="M50 30v166h50c51 -95 86 -147 155 -147c52 0 97 37 97 91c0 134 -304 176 -304 369c0 117 108 195 238 195c76 0 144 -26 180 -41v-131h-49c-52 83 -84 109 -136 109c-50 0 -85 -34 -85 -81c0 -136 304 -161 304 -369c0 -119 -96 -206 -248 -206c-74 0 -155 19 -202 45z
M313 748h-77l-91 136h18l112 -53l113 53h18z" />
    <glyph glyph-name="Scommaaccent" unicode="&#x218;" horiz-adv-x="552" 
d="M50 30v166h50c51 -95 86 -147 155 -147c52 0 97 37 97 91c0 134 -304 176 -304 369c0 117 108 195 238 195c76 0 144 -26 180 -41v-131h-49c-52 83 -84 109 -136 109c-50 0 -85 -34 -85 -81c0 -136 304 -161 304 -369c0 -119 -96 -206 -248 -206c-74 0 -155 19 -202 45z
M216 -296l-10 10c24 31 34 54 34 81c0 28 -32 39 -32 81c0 39 34 65 67 65c40 0 70 -29 70 -76c0 -64 -70 -126 -129 -161z" />
    <glyph glyph-name="Tcommaaccent" unicode="&#x162;" horiz-adv-x="677" 
d="M488 0h-314v31c62 23 72 35 72 107v488h-41c-75 0 -71 -9 -133 -89h-40v153h605v-153h-48c-62 80 -58 89 -133 89h-41v-488c0 -72 11 -84 73 -107v-31zM279 -296l-10 10c24 31 34 54 34 81c0 28 -32 39 -32 81c0 39 34 65 67 65c40 0 70 -29 70 -76
c0 -64 -70 -126 -129 -161z" />
    <glyph glyph-name="uni021A" unicode="&#x21a;" horiz-adv-x="677" 
d="M488 0h-314v31c62 23 72 35 72 107v488h-41c-75 0 -71 -9 -133 -89h-40v153h605v-153h-48c-62 80 -58 89 -133 89h-41v-488c0 -72 11 -84 73 -107v-31zM279 -296l-10 10c24 31 34 54 34 81c0 28 -32 39 -32 81c0 39 34 65 67 65c40 0 70 -29 70 -76
c0 -64 -70 -126 -129 -161z" />
    <glyph glyph-name="Tcaron" unicode="&#x164;" horiz-adv-x="677" 
d="M488 0h-314v31c62 23 72 35 72 107v488h-41c-75 0 -71 -9 -133 -89h-40v153h605v-153h-48c-62 80 -58 89 -133 89h-41v-488c0 -72 11 -84 73 -107v-31zM376 748h-77l-91 136h18l112 -53l113 53h18z" />
    <glyph glyph-name="Tbar" unicode="&#x166;" horiz-adv-x="664" 
d="M488 0h-314v31c62 23 72 35 72 107v186h-99v63h99v239h-41c-75 0 -71 -9 -133 -89h-48l8 153h597l8 -153h-48c-62 80 -58 89 -133 89h-41v-239h102v-63h-102v-186c0 -72 11 -84 73 -107v-31z" />
    <glyph glyph-name="Ugrave" unicode="&#xd9;" horiz-adv-x="787" 
d="M594 209v251c0 157 -25 174 -84 199v31h259v-31c-61 -25 -85 -41 -85 -199v-266c0 -135 -120 -209 -284 -209c-172 0 -300 70 -300 209v350c0 72 -11 92 -73 115v31h315v-31c-63 -23 -73 -43 -73 -115v-351c0 -73 50 -126 157 -126c108 0 168 47 168 142zM494 743
l-209 75l46 85l178 -131z" />
    <glyph glyph-name="Uacute" unicode="&#xda;" horiz-adv-x="787" 
d="M594 209v251c0 157 -25 174 -84 199v31h259v-31c-61 -25 -85 -41 -85 -199v-266c0 -135 -120 -209 -284 -209c-172 0 -300 70 -300 209v350c0 72 -11 92 -73 115v31h315v-31c-63 -23 -73 -43 -73 -115v-351c0 -73 50 -126 157 -126c108 0 168 47 168 142zM509 818
l-209 -75l-15 29l178 131z" />
    <glyph glyph-name="Ucircumflex" unicode="&#xdb;" horiz-adv-x="787" 
d="M594 209v251c0 157 -25 174 -84 199v31h259v-31c-61 -25 -85 -41 -85 -199v-266c0 -135 -120 -209 -284 -209c-172 0 -300 70 -300 209v350c0 72 -11 92 -73 115v31h315v-31c-63 -23 -73 -43 -73 -115v-351c0 -73 50 -126 157 -126c108 0 168 47 168 142zM528 748h-18
l-113 53l-112 -53h-18l91 136h77z" />
    <glyph glyph-name="Udieresis" unicode="&#xdc;" horiz-adv-x="787" 
d="M594 209v251c0 157 -25 174 -84 199v31h259v-31c-61 -25 -85 -41 -85 -199v-266c0 -135 -120 -209 -284 -209c-172 0 -300 70 -300 209v350c0 72 -11 92 -73 115v31h315v-31c-63 -23 -73 -43 -73 -115v-351c0 -73 50 -126 157 -126c108 0 168 47 168 142zM309 748
c-39 0 -71 32 -71 71s32 70 71 70c40 0 71 -31 71 -70s-31 -71 -71 -71zM557 819c0 -39 -32 -71 -72 -71c-39 0 -70 32 -70 71s31 70 70 70c40 0 72 -31 72 -70z" />
    <glyph glyph-name="Utilde" unicode="&#x168;" horiz-adv-x="787" 
d="M594 209v251c0 157 -25 174 -84 199v31h259v-31c-61 -25 -85 -41 -85 -199v-266c0 -135 -120 -209 -284 -209c-172 0 -300 70 -300 209v350c0 72 -11 92 -73 115v31h315v-31c-63 -23 -73 -43 -73 -115v-351c0 -73 50 -126 157 -126c108 0 168 47 168 142zM527 872l20 -2
c-5 -18 -36 -116 -91 -116c-54 0 -99 30 -136 30c-31 0 -37 -14 -52 -35l-20 2c5 18 36 115 91 115c53 0 92 -29 136 -29c31 0 37 14 52 35z" />
    <glyph glyph-name="Umacron" unicode="&#x16a;" horiz-adv-x="787" 
d="M594 209v251c0 157 -25 174 -84 199v31h259v-31c-61 -25 -85 -41 -85 -199v-266c0 -135 -120 -209 -284 -209c-172 0 -300 70 -300 209v350c0 72 -11 92 -73 115v31h315v-31c-63 -23 -73 -43 -73 -115v-351c0 -73 50 -126 157 -126c108 0 168 47 168 142zM527 782h-260
v58h260v-58z" />
    <glyph glyph-name="Ubreve" unicode="&#x16c;" horiz-adv-x="787" 
d="M594 209v251c0 157 -25 174 -84 199v31h259v-31c-61 -25 -85 -41 -85 -199v-266c0 -135 -120 -209 -284 -209c-172 0 -300 70 -300 209v350c0 72 -11 92 -73 115v31h315v-31c-63 -23 -73 -43 -73 -115v-351c0 -73 50 -126 157 -126c108 0 168 47 168 142zM498 884h26
c-10 -75 -56 -138 -127 -138s-117 63 -127 138h26c20 -46 63 -61 101 -61s81 15 101 61z" />
    <glyph glyph-name="Uring" unicode="&#x16e;" horiz-adv-x="787" 
d="M594 209v251c0 157 -25 174 -84 199v31h259v-31c-61 -25 -85 -41 -85 -199v-266c0 -135 -120 -209 -284 -209c-172 0 -300 70 -300 209v350c0 72 -11 92 -73 115v31h315v-31c-63 -23 -73 -43 -73 -115v-351c0 -73 50 -126 157 -126c108 0 168 47 168 142zM503 847
c0 -58 -49 -105 -106 -105c-58 0 -107 47 -107 105c0 57 49 104 107 104c57 0 106 -47 106 -104zM397 788c31 0 56 28 56 59s-25 58 -56 58s-57 -27 -57 -58s26 -59 57 -59z" />
    <glyph glyph-name="Uhungarumlaut" unicode="&#x170;" horiz-adv-x="787" 
d="M594 209v251c0 157 -25 174 -84 199v31h259v-31c-61 -25 -85 -41 -85 -199v-266c0 -135 -120 -209 -284 -209c-172 0 -300 70 -300 209v350c0 72 -11 92 -73 115v31h315v-31c-63 -23 -73 -43 -73 -115v-351c0 -73 50 -126 157 -126c108 0 168 47 168 142zM288 748h-34
c16 20 43 100 48 122h99c-22 -46 -60 -86 -113 -122zM412 748h-29c16 20 43 100 48 122h99c-22 -46 -65 -86 -118 -122z" />
    <glyph glyph-name="Uogonek" unicode="&#x172;" horiz-adv-x="787" 
d="M463 -168v-14c-12 -15 -45 -40 -77 -40c-53 0 -80 29 -80 70c0 58 66 106 119 138c-8 -1 -17 -1 -25 -1c-172 0 -300 70 -300 209v350c0 72 -11 92 -73 115v31h315v-31c-63 -23 -73 -43 -73 -115v-351c0 -73 50 -126 157 -126c108 0 168 47 168 142v251
c0 157 -25 174 -84 199v31h259v-31c-61 -25 -85 -41 -85 -199v-266c0 -119 -93 -191 -228 -206c-29 -37 -60 -82 -60 -124c0 -23 17 -35 45 -35c5 0 16 1 22 3z" />
    <glyph glyph-name="Wcircumflex" unicode="&#x174;" horiz-adv-x="1117" 
d="M808 0h-161l-112 416l-126 -416h-170l-114 423c-52 194 -76 222 -115 237v30h298v-31c-34 -9 -48 -17 -48 -50s14 -89 32 -162l78 -324l87 300c19 66 28 117 28 153c0 63 -31 71 -72 83v31h307v-31c-41 -12 -62 -25 -62 -64c0 -15 3 -33 9 -56l101 -400l87 284
c22 71 30 120 30 156c0 60 -30 69 -69 80v31h273v-31c-46 -17 -84 -42 -149 -245zM689 748h-18l-113 53l-112 -53h-18l91 136h77z" />
    <glyph glyph-name="Wgrave" unicode="&#x1e80;" horiz-adv-x="1117" 
d="M808 0h-161l-112 416l-126 -416h-170l-114 423c-52 194 -76 222 -115 237v30h298v-31c-34 -9 -48 -17 -48 -50s14 -89 32 -162l78 -324l87 300c19 66 28 117 28 153c0 63 -31 71 -72 83v31h307v-31c-41 -12 -62 -25 -62 -64c0 -15 3 -33 9 -56l101 -400l87 284
c22 71 30 120 30 156c0 60 -30 69 -69 80v31h273v-31c-46 -17 -84 -42 -149 -245zM655 743l-209 75l46 85l178 -131z" />
    <glyph glyph-name="Wacute" unicode="&#x1e82;" horiz-adv-x="1117" 
d="M808 0h-161l-112 416l-126 -416h-170l-114 423c-52 194 -76 222 -115 237v30h298v-31c-34 -9 -48 -17 -48 -50s14 -89 32 -162l78 -324l87 300c19 66 28 117 28 153c0 63 -31 71 -72 83v31h307v-31c-41 -12 -62 -25 -62 -64c0 -15 3 -33 9 -56l101 -400l87 284
c22 71 30 120 30 156c0 60 -30 69 -69 80v31h273v-31c-46 -17 -84 -42 -149 -245zM670 818l-209 -75l-15 29l178 131z" />
    <glyph glyph-name="Wdieresis" unicode="&#x1e84;" horiz-adv-x="1117" 
d="M808 0h-161l-112 416l-126 -416h-170l-114 423c-52 194 -76 222 -115 237v30h298v-31c-34 -9 -48 -17 -48 -50s14 -89 32 -162l78 -324l87 300c19 66 28 117 28 153c0 63 -31 71 -72 83v31h307v-31c-41 -12 -62 -25 -62 -64c0 -15 3 -33 9 -56l101 -400l87 284
c22 71 30 120 30 156c0 60 -30 69 -69 80v31h273v-31c-46 -17 -84 -42 -149 -245zM470 748c-39 0 -71 32 -71 71s32 70 71 70c40 0 71 -31 71 -70s-31 -71 -71 -71zM718 819c0 -39 -32 -71 -72 -71c-39 0 -70 32 -70 71s31 70 70 70c40 0 72 -31 72 -70z" />
    <glyph glyph-name="Yacute" unicode="&#xdd;" horiz-adv-x="679" 
d="M488 0h-314v31c61 23 72 35 72 107v143l-100 213c-59 126 -93 143 -142 166v30h317v-31c-33 -9 -51 -16 -51 -40s15 -58 42 -120l56 -131l56 133c23 55 36 86 36 111c0 30 -23 37 -62 47v31h260v-31c-52 -16 -98 -47 -150 -166l-93 -211v-144c0 -72 10 -84 73 -107v-31z
M451 818l-209 -75l-15 29l178 131z" />
    <glyph glyph-name="Ydieresis" unicode="&#x178;" horiz-adv-x="679" 
d="M488 0h-314v31c61 23 72 35 72 107v143l-100 213c-59 126 -93 143 -142 166v30h317v-31c-33 -9 -51 -16 -51 -40s15 -58 42 -120l56 -131l56 133c23 55 36 86 36 111c0 30 -23 37 -62 47v31h260v-31c-52 -16 -98 -47 -150 -166l-93 -211v-144c0 -72 10 -84 73 -107v-31z
M250 748c-39 0 -71 32 -71 71s32 70 71 70c40 0 71 -31 71 -70s-31 -71 -71 -71zM498 819c0 -39 -32 -71 -72 -71c-39 0 -70 32 -70 71s31 70 70 70c40 0 72 -31 72 -70z" />
    <glyph glyph-name="Ycircumflex" unicode="&#x176;" horiz-adv-x="679" 
d="M488 0h-314v31c61 23 72 35 72 107v143l-100 213c-59 126 -93 143 -142 166v30h317v-31c-33 -9 -51 -16 -51 -40s15 -58 42 -120l56 -131l56 133c23 55 36 86 36 111c0 30 -23 37 -62 47v31h260v-31c-52 -16 -98 -47 -150 -166l-93 -211v-144c0 -72 10 -84 73 -107v-31z
M469 748h-18l-113 53l-112 -53h-18l91 136h77z" />
    <glyph glyph-name="Ygrave" unicode="&#x1ef2;" horiz-adv-x="679" 
d="M488 0h-314v31c61 23 72 35 72 107v143l-100 213c-59 126 -93 143 -142 166v30h317v-31c-33 -9 -51 -16 -51 -40s15 -58 42 -120l56 -131l56 133c23 55 36 86 36 111c0 30 -23 37 -62 47v31h260v-31c-52 -16 -98 -47 -150 -166l-93 -211v-144c0 -72 10 -84 73 -107v-31z
M436 743l-209 75l46 85l178 -131z" />
    <glyph glyph-name="Zacute" unicode="&#x179;" horiz-adv-x="594" 
d="M543 0h-523v16l335 607h-112c-76 0 -75 -1 -170 -89h-41l21 156h501v-16l-330 -602h95c97 0 99 0 199 129h46zM409 818l-209 -75l-15 29l178 131z" />
    <glyph glyph-name="Zdotaccent" unicode="&#x17b;" horiz-adv-x="594" 
d="M543 0h-523v16l335 607h-112c-76 0 -75 -1 -170 -89h-41l21 156h501v-16l-330 -602h95c97 0 99 0 199 129h46zM372 819c0 -41 -34 -75 -76 -75c-41 0 -75 34 -75 75s34 75 75 75c42 0 76 -34 76 -75z" />
    <glyph glyph-name="Zcaron" unicode="&#x17d;" horiz-adv-x="594" 
d="M543 0h-523v16l335 607h-112c-76 0 -75 -1 -170 -89h-41l21 156h501v-16l-330 -602h95c97 0 99 0 199 129h46zM334 748h-77l-91 136h18l112 -53l113 53h18z" />
    <glyph glyph-name="agrave" unicode="&#xe0;" horiz-adv-x="524" 
d="M300 89v154c-7 1 -16 2 -21 2c-46 0 -104 -17 -104 -91c0 -50 41 -75 77 -75c15 0 35 4 48 10zM525 59v-17c-31 -22 -79 -52 -132 -52c-50 0 -78 21 -91 62c-33 -29 -87 -64 -153 -64c-69 0 -133 51 -133 125c0 83 50 173 284 194v48c0 74 -44 106 -113 106
c-19 0 -38 -4 -53 -9c25 -11 46 -24 46 -60c0 -44 -33 -70 -73 -70c-39 0 -74 26 -74 69c0 81 120 131 224 131c138 0 201 -55 201 -182v-196c0 -70 18 -79 67 -85zM368 563l-209 75l46 85l178 -131z" />
    <glyph glyph-name="aacute" unicode="&#xe1;" horiz-adv-x="524" 
d="M300 89v154c-7 1 -16 2 -21 2c-46 0 -104 -17 -104 -91c0 -50 41 -75 77 -75c15 0 35 4 48 10zM525 59v-17c-31 -22 -79 -52 -132 -52c-50 0 -78 21 -91 62c-33 -29 -87 -64 -153 -64c-69 0 -133 51 -133 125c0 83 50 173 284 194v48c0 74 -44 106 -113 106
c-19 0 -38 -4 -53 -9c25 -11 46 -24 46 -60c0 -44 -33 -70 -73 -70c-39 0 -74 26 -74 69c0 81 120 131 224 131c138 0 201 -55 201 -182v-196c0 -70 18 -79 67 -85zM383 638l-209 -75l-15 29l178 131z" />
    <glyph glyph-name="acircumflex" unicode="&#xe2;" horiz-adv-x="524" 
d="M300 89v154c-7 1 -16 2 -21 2c-46 0 -104 -17 -104 -91c0 -50 41 -75 77 -75c15 0 35 4 48 10zM525 59v-17c-31 -22 -79 -52 -132 -52c-50 0 -78 21 -91 62c-33 -29 -87 -64 -153 -64c-69 0 -133 51 -133 125c0 83 50 173 284 194v48c0 74 -44 106 -113 106
c-19 0 -38 -4 -53 -9c25 -11 46 -24 46 -60c0 -44 -33 -70 -73 -70c-39 0 -74 26 -74 69c0 81 120 131 224 131c138 0 201 -55 201 -182v-196c0 -70 18 -79 67 -85zM400 568h-18l-113 53l-112 -53h-18l91 136h77z" />
    <glyph glyph-name="atilde" unicode="&#xe3;" horiz-adv-x="524" 
d="M300 89v154c-7 1 -16 2 -21 2c-46 0 -104 -17 -104 -91c0 -50 41 -75 77 -75c15 0 35 4 48 10zM525 59v-17c-31 -22 -79 -52 -132 -52c-50 0 -78 21 -91 62c-33 -29 -87 -64 -153 -64c-69 0 -133 51 -133 125c0 83 50 173 284 194v48c0 74 -44 106 -113 106
c-19 0 -38 -4 -53 -9c25 -11 46 -24 46 -60c0 -44 -33 -70 -73 -70c-39 0 -74 26 -74 69c0 81 120 131 224 131c138 0 201 -55 201 -182v-196c0 -70 18 -79 67 -85zM399 692l20 -2c-5 -18 -36 -116 -91 -116c-54 0 -99 30 -136 30c-31 0 -37 -14 -52 -35l-20 2
c5 18 36 115 91 115c53 0 92 -29 136 -29c31 0 37 14 52 35z" />
    <glyph glyph-name="adieresis" unicode="&#xe4;" horiz-adv-x="524" 
d="M300 89v154c-7 1 -16 2 -21 2c-46 0 -104 -17 -104 -91c0 -50 41 -75 77 -75c15 0 35 4 48 10zM525 59v-17c-31 -22 -79 -52 -132 -52c-50 0 -78 21 -91 62c-33 -29 -87 -64 -153 -64c-69 0 -133 51 -133 125c0 83 50 173 284 194v48c0 74 -44 106 -113 106
c-19 0 -38 -4 -53 -9c25 -11 46 -24 46 -60c0 -44 -33 -70 -73 -70c-39 0 -74 26 -74 69c0 81 120 131 224 131c138 0 201 -55 201 -182v-196c0 -70 18 -79 67 -85zM181 568c-39 0 -71 32 -71 71s32 70 71 70c40 0 71 -31 71 -70s-31 -71 -71 -71zM429 639
c0 -39 -32 -71 -72 -71c-39 0 -70 32 -70 71s31 70 70 70c40 0 72 -31 72 -70z" />
    <glyph glyph-name="aring" unicode="&#xe5;" horiz-adv-x="524" 
d="M300 89v154c-7 1 -16 2 -21 2c-46 0 -104 -17 -104 -91c0 -50 41 -75 77 -75c15 0 35 4 48 10zM525 59v-17c-31 -22 -79 -52 -132 -52c-50 0 -78 21 -91 62c-33 -29 -87 -64 -153 -64c-69 0 -133 51 -133 125c0 83 50 173 284 194v48c0 74 -44 106 -113 106
c-19 0 -38 -4 -53 -9c25 -11 46 -24 46 -60c0 -44 -33 -70 -73 -70c-39 0 -74 26 -74 69c0 81 120 131 224 131c138 0 201 -55 201 -182v-196c0 -70 18 -79 67 -85zM368 667c0 -58 -49 -105 -106 -105c-58 0 -107 47 -107 105c0 57 49 104 107 104c57 0 106 -47 106 -104z
M262 608c31 0 56 28 56 59s-25 58 -56 58s-57 -27 -57 -58s26 -59 57 -59z" />
    <glyph glyph-name="amacron" unicode="&#x101;" horiz-adv-x="524" 
d="M300 89v154c-7 1 -16 2 -21 2c-46 0 -104 -17 -104 -91c0 -50 41 -75 77 -75c15 0 35 4 48 10zM525 59v-17c-31 -22 -79 -52 -132 -52c-50 0 -78 21 -91 62c-33 -29 -87 -64 -153 -64c-69 0 -133 51 -133 125c0 83 50 173 284 194v48c0 74 -44 106 -113 106
c-19 0 -38 -4 -53 -9c25 -11 46 -24 46 -60c0 -44 -33 -70 -73 -70c-39 0 -74 26 -74 69c0 81 120 131 224 131c138 0 201 -55 201 -182v-196c0 -70 18 -79 67 -85zM399 602h-260v58h260v-58z" />
    <glyph glyph-name="abreve" unicode="&#x103;" horiz-adv-x="524" 
d="M300 89v154c-7 1 -16 2 -21 2c-46 0 -104 -17 -104 -91c0 -50 41 -75 77 -75c15 0 35 4 48 10zM525 59v-17c-31 -22 -79 -52 -132 -52c-50 0 -78 21 -91 62c-33 -29 -87 -64 -153 -64c-69 0 -133 51 -133 125c0 83 50 173 284 194v48c0 74 -44 106 -113 106
c-19 0 -38 -4 -53 -9c25 -11 46 -24 46 -60c0 -44 -33 -70 -73 -70c-39 0 -74 26 -74 69c0 81 120 131 224 131c138 0 201 -55 201 -182v-196c0 -70 18 -79 67 -85zM370 704h26c-10 -75 -56 -138 -127 -138s-117 63 -127 138h26c20 -46 63 -61 101 -61s81 15 101 61z" />
    <glyph glyph-name="aogonek" unicode="&#x105;" horiz-adv-x="524" 
d="M537 -168v-14c-12 -15 -46 -40 -78 -40c-53 0 -80 30 -80 71c0 49 52 115 98 162l-15 -5c-22 -8 -45 -16 -69 -16c-50 0 -78 21 -91 62c-33 -29 -87 -64 -153 -64c-67 0 -133 51 -133 125c0 83 50 173 284 194v48c0 74 -44 106 -113 106c-19 0 -38 -4 -53 -9
c25 -11 46 -24 46 -60c0 -44 -33 -70 -73 -70c-39 0 -74 26 -74 69c0 81 120 131 224 131c138 0 201 -55 201 -182v-196c0 -70 18 -79 67 -85v-17c-27 -52 -56 -133 -56 -178c0 -23 17 -35 45 -35c5 0 17 1 23 3zM300 89v154c-7 1 -16 2 -21 2c-46 0 -104 -17 -104 -91
c0 -50 41 -75 77 -75c15 0 35 4 48 10z" />
    <glyph glyph-name="ccedilla" unicode="&#xe7;" horiz-adv-x="483" 
d="M147 -209l8 29c24 -7 40 -9 55 -9c33 0 52 20 52 41c0 32 -51 52 -86 53l62 84c-115 9 -209 101 -209 252c0 190 127 281 271 281c86 0 160 -43 160 -111c0 -56 -36 -92 -81 -92s-83 30 -83 82c0 28 14 48 31 67v4c-81 0 -138 -54 -138 -184c0 -148 63 -191 151 -191
c47 0 86 19 109 37l17 -20c-20 -39 -82 -112 -180 -124l-26 -41c38 -4 86 -34 86 -86c0 -56 -57 -85 -116 -85c-34 0 -63 5 -83 13z" />
    <glyph glyph-name="cacute" unicode="&#x107;" horiz-adv-x="483" 
d="M449 134l17 -20c-22 -42 -94 -126 -209 -126c-123 0 -228 94 -228 253c0 190 127 281 271 281c86 0 160 -43 160 -111c0 -56 -36 -92 -81 -92s-83 30 -83 82c0 28 14 48 31 67v4c-81 0 -138 -54 -138 -184c0 -148 63 -191 151 -191c47 0 86 19 109 37zM415 638l-209 -75
l-15 29l178 131z" />
    <glyph glyph-name="ccircumflex" unicode="&#x109;" horiz-adv-x="483" 
d="M449 134l17 -20c-22 -42 -94 -126 -209 -126c-123 0 -228 94 -228 253c0 190 127 281 271 281c86 0 160 -43 160 -111c0 -56 -36 -92 -81 -92s-83 30 -83 82c0 28 14 48 31 67v4c-81 0 -138 -54 -138 -184c0 -148 63 -191 151 -191c47 0 86 19 109 37zM402 568h-18
l-113 53l-112 -53h-18l91 136h77z" />
    <glyph glyph-name="cdotaccent" unicode="&#x10b;" horiz-adv-x="483" 
d="M449 134l17 -20c-22 -42 -94 -126 -209 -126c-123 0 -228 94 -228 253c0 190 127 281 271 281c86 0 160 -43 160 -111c0 -56 -36 -92 -81 -92s-83 30 -83 82c0 28 14 48 31 67v4c-81 0 -138 -54 -138 -184c0 -148 63 -191 151 -191c47 0 86 19 109 37zM354 639
c0 -41 -34 -75 -76 -75c-41 0 -75 34 -75 75s34 75 75 75c42 0 76 -34 76 -75z" />
    <glyph glyph-name="ccaron" unicode="&#x10d;" horiz-adv-x="483" 
d="M449 134l17 -20c-22 -42 -94 -126 -209 -126c-123 0 -228 94 -228 253c0 190 127 281 271 281c86 0 160 -43 160 -111c0 -56 -36 -92 -81 -92s-83 30 -83 82c0 28 14 48 31 67v4c-81 0 -138 -54 -138 -184c0 -148 63 -191 151 -191c47 0 86 19 109 37zM320 568h-77
l-91 136h18l112 -53l113 53h18z" />
    <glyph glyph-name="dcaron" unicode="&#x10f;" horiz-adv-x="669" 
d="M614 62v-30c-83 -8 -170 -26 -220 -44h-9v78h-4c-33 -37 -88 -78 -159 -78c-99 0 -191 88 -191 241c0 184 142 293 274 293c24 0 58 -3 78 -7v70c0 81 -16 83 -78 99v30c70 5 178 22 231 40h9v-576c0 -80 9 -90 69 -116zM383 100v341c-14 12 -41 23 -67 23
c-73 0 -123 -73 -123 -190c0 -129 61 -187 133 -187c21 0 41 5 57 13zM677 474h-30c-4 85 -47 151 -47 192c0 35 27 63 62 63c34 0 61 -28 61 -63c0 -41 -42 -107 -46 -192z" />
    <glyph glyph-name="dcroat" unicode="&#x111;" horiz-adv-x="621" 
d="M614 62v-30c-83 -8 -172 -26 -222 -44h-9v78c-33 -37 -93 -78 -161 -78c-99 0 -191 88 -191 241c0 184 142 293 274 293c24 0 58 -3 78 -7v52h-123v53h121c-5 47 -25 51 -76 64v30c70 5 178 22 231 40h9v-134h57v-53h-57v-389c0 -80 9 -90 69 -116zM383 100v341
c-14 12 -41 23 -67 23c-73 0 -123 -73 -123 -190c0 -129 61 -187 133 -187c21 0 41 5 57 13z" />
    <glyph glyph-name="egrave" unicode="&#xe8;" horiz-adv-x="509" 
d="M471 140l19 -20c-34 -56 -103 -132 -219 -132c-145 0 -240 98 -240 257c0 173 115 277 251 277c100 0 193 -41 193 -205v-50h-282c1 -131 70 -170 149 -170c55 0 106 25 129 43zM193 317l139 16c-1 90 -20 126 -65 126s-73 -41 -74 -142zM358 563l-209 75l46 85l178 -131
z" />
    <glyph glyph-name="eacute" unicode="&#xe9;" horiz-adv-x="509" 
d="M471 140l19 -20c-34 -56 -103 -132 -219 -132c-145 0 -240 98 -240 257c0 173 115 277 251 277c100 0 193 -41 193 -205v-50h-282c1 -131 70 -170 149 -170c55 0 106 25 129 43zM193 317l139 16c-1 90 -20 126 -65 126s-73 -41 -74 -142zM399 638l-209 -75l-15 29
l178 131z" />
    <glyph glyph-name="ecircumflex" unicode="&#xea;" horiz-adv-x="509" 
d="M471 140l19 -20c-34 -56 -103 -132 -219 -132c-145 0 -240 98 -240 257c0 173 115 277 251 277c100 0 193 -41 193 -205v-50h-282c1 -131 70 -170 149 -170c55 0 106 25 129 43zM193 317l139 16c-1 90 -20 126 -65 126s-73 -41 -74 -142zM391 568h-18l-113 53l-112 -53
h-18l91 136h77z" />
    <glyph glyph-name="edieresis" unicode="&#xeb;" horiz-adv-x="509" 
d="M471 140l19 -20c-34 -56 -103 -132 -219 -132c-145 0 -240 98 -240 257c0 173 115 277 251 277c100 0 193 -41 193 -205v-50h-282c1 -131 70 -170 149 -170c55 0 106 25 129 43zM193 317l139 16c-1 90 -20 126 -65 126s-73 -41 -74 -142zM172 568c-39 0 -71 32 -71 71
s32 70 71 70c40 0 71 -31 71 -70s-31 -71 -71 -71zM420 639c0 -39 -32 -71 -72 -71c-39 0 -70 32 -70 71s31 70 70 70c40 0 72 -31 72 -70z" />
    <glyph glyph-name="emacron" unicode="&#x113;" horiz-adv-x="509" 
d="M471 140l19 -20c-34 -56 -103 -132 -219 -132c-145 0 -240 98 -240 257c0 173 115 277 251 277c100 0 193 -41 193 -205v-50h-282c1 -131 70 -170 149 -170c55 0 106 25 129 43zM193 317l139 16c-1 90 -20 126 -65 126s-73 -41 -74 -142zM399 602h-260v58h260v-58z" />
    <glyph glyph-name="ebreve" unicode="&#x115;" horiz-adv-x="509" 
d="M471 140l19 -20c-34 -56 -103 -132 -219 -132c-145 0 -240 98 -240 257c0 173 115 277 251 277c100 0 193 -41 193 -205v-50h-282c1 -131 70 -170 149 -170c55 0 106 25 129 43zM193 317l139 16c-1 90 -20 126 -65 126s-73 -41 -74 -142zM372 704h26
c-10 -75 -56 -138 -127 -138s-117 63 -127 138h26c20 -46 63 -61 101 -61s81 15 101 61z" />
    <glyph glyph-name="edotaccent" unicode="&#x117;" horiz-adv-x="509" 
d="M471 140l19 -20c-34 -56 -103 -132 -219 -132c-145 0 -240 98 -240 257c0 173 115 277 251 277c100 0 193 -41 193 -205v-50h-282c1 -131 70 -170 149 -170c55 0 106 25 129 43zM193 317l139 16c-1 90 -20 126 -65 126s-73 -41 -74 -142zM335 639c0 -41 -34 -75 -76 -75
c-41 0 -75 34 -75 75s34 75 75 75c42 0 76 -34 76 -75z" />
    <glyph glyph-name="eogonek" unicode="&#x119;" horiz-adv-x="509" 
d="M484 -168v-14c-12 -15 -46 -40 -78 -40c-52 0 -80 30 -80 71c0 46 41 122 83 183c-1 1 -1 1 -2 1c-35 -24 -82 -45 -136 -45c-145 0 -240 98 -240 257c0 173 115 277 251 277c100 0 193 -41 193 -205v-50h-282c1 -131 70 -170 149 -170c55 0 106 25 129 43l19 -20
c-21 -55 -73 -185 -73 -256c0 -23 17 -35 45 -35c5 0 16 1 22 3zM193 317l139 16c-1 90 -20 126 -65 126s-73 -41 -74 -142z" />
    <glyph glyph-name="ecaron" unicode="&#x11b;" horiz-adv-x="509" 
d="M471 140l19 -20c-34 -56 -103 -132 -219 -132c-145 0 -240 98 -240 257c0 173 115 277 251 277c100 0 193 -41 193 -205v-50h-282c1 -131 70 -170 149 -170c55 0 106 25 129 43zM193 317l139 16c-1 90 -20 126 -65 126s-73 -41 -74 -142zM304 568h-77l-91 136h18l112 -53
l113 53h18z" />
    <glyph glyph-name="gcircumflex" unicode="&#x11d;" horiz-adv-x="500" 
d="M200 107l141 -7c99 -5 164 -37 164 -134c0 -129 -154 -200 -290 -200c-118 0 -234 51 -234 121c0 51 46 89 102 106c-20 17 -31 45 -31 74c0 46 36 93 75 124c-58 29 -101 74 -101 150c0 113 92 181 217 181c38 0 73 -8 104 -22l170 22h10l-16 -87l-90 9
c18 -17 38 -61 38 -99c0 -110 -95 -177 -216 -177c-25 0 -47 2 -69 7c-9 -12 -17 -28 -17 -40c0 -15 14 -27 43 -28zM305 -40l-143 7c-13 1 -23 2 -33 5c-21 -18 -34 -41 -34 -64c0 -44 52 -71 150 -71c84 0 143 32 143 77c0 31 -16 43 -83 46zM243 229c46 0 59 42 59 116
c0 72 -16 115 -59 115s-60 -43 -60 -115c0 -73 13 -116 60 -116zM385 568h-18l-113 53l-112 -53h-18l91 136h77z" />
    <glyph glyph-name="gbreve" unicode="&#x11f;" horiz-adv-x="500" 
d="M200 107l141 -7c99 -5 164 -37 164 -134c0 -129 -154 -200 -290 -200c-118 0 -234 51 -234 121c0 51 46 89 102 106c-20 17 -31 45 -31 74c0 46 36 93 75 124c-58 29 -101 74 -101 150c0 113 92 181 217 181c38 0 73 -8 104 -22l170 22h10l-16 -87l-90 9
c18 -17 38 -61 38 -99c0 -110 -95 -177 -216 -177c-25 0 -47 2 -69 7c-9 -12 -17 -28 -17 -40c0 -15 14 -27 43 -28zM305 -40l-143 7c-13 1 -23 2 -33 5c-21 -18 -34 -41 -34 -64c0 -44 52 -71 150 -71c84 0 143 32 143 77c0 31 -16 43 -83 46zM243 229c46 0 59 42 59 116
c0 72 -16 115 -59 115s-60 -43 -60 -115c0 -73 13 -116 60 -116zM356 704h26c-10 -75 -56 -138 -127 -138s-117 63 -127 138h26c20 -46 63 -61 101 -61s81 15 101 61z" />
    <glyph glyph-name="gdotaccent" unicode="&#x121;" horiz-adv-x="500" 
d="M200 107l141 -7c99 -5 164 -37 164 -134c0 -129 -154 -200 -290 -200c-118 0 -234 51 -234 121c0 51 46 89 102 106c-20 17 -31 45 -31 74c0 46 36 93 75 124c-58 29 -101 74 -101 150c0 113 92 181 217 181c38 0 73 -8 104 -22l170 22h10l-16 -87l-90 9
c18 -17 38 -61 38 -99c0 -110 -95 -177 -216 -177c-25 0 -47 2 -69 7c-9 -12 -17 -28 -17 -40c0 -15 14 -27 43 -28zM305 -40l-143 7c-13 1 -23 2 -33 5c-21 -18 -34 -41 -34 -64c0 -44 52 -71 150 -71c84 0 143 32 143 77c0 31 -16 43 -83 46zM243 229c46 0 59 42 59 116
c0 72 -16 115 -59 115s-60 -43 -60 -115c0 -73 13 -116 60 -116zM330 639c0 -41 -34 -75 -76 -75c-41 0 -75 34 -75 75s34 75 75 75c42 0 76 -34 76 -75z" />
    <glyph glyph-name="gcommaaccent" unicode="&#x123;" horiz-adv-x="500" 
d="M200 107l141 -7c99 -5 164 -37 164 -134c0 -129 -154 -200 -290 -200c-118 0 -234 51 -234 121c0 51 46 89 102 106c-20 17 -31 45 -31 74c0 46 36 93 75 124c-58 29 -101 74 -101 150c0 113 92 181 217 181c38 0 73 -8 104 -22l170 22h10l-16 -87l-90 9
c18 -17 38 -61 38 -99c0 -110 -95 -177 -216 -177c-25 0 -47 2 -69 7c-9 -12 -17 -28 -17 -40c0 -15 14 -27 43 -28zM305 -40l-143 7c-13 1 -23 2 -33 5c-21 -18 -34 -41 -34 -64c0 -44 52 -71 150 -71c84 0 143 32 143 77c0 31 -16 43 -83 46zM243 229c46 0 59 42 59 116
c0 72 -16 115 -59 115s-60 -43 -60 -115c0 -73 13 -116 60 -116zM319 797l9 -10c-23 -31 -33 -54 -33 -81c0 -28 31 -39 31 -81c0 -39 -33 -65 -66 -65c-40 0 -71 29 -71 76c0 64 71 126 130 161z" />
    <glyph glyph-name="hcircumflex" unicode="&#x125;" horiz-adv-x="635" 
d="M612 0h-272v30c47 23 55 26 55 97v220c0 57 -31 85 -75 85c-25 0 -54 -9 -73 -20v-285c0 -71 8 -73 59 -96v-31h-281v31c50 22 60 25 60 96v456c0 81 -10 82 -70 101v30c70 5 170 22 223 40h9v-304c37 28 98 72 156 72c75 0 149 -48 149 -177v-218c0 -71 10 -74 60 -97
v-30zM295 761h-18l-113 53l-112 -53h-18l91 136h77z" />
    <glyph glyph-name="hbar" unicode="&#x127;" horiz-adv-x="635" 
d="M612 0h-272v30c47 23 55 26 55 97v220c0 57 -31 85 -75 85c-25 0 -54 -9 -73 -20v-285c0 -71 8 -73 59 -96v-31h-281v31c50 22 60 25 60 96v440h-62v53h60c-4 44 -20 49 -68 64v30c70 5 170 22 223 40h9v-134h132v-53h-132v-117c35 31 100 71 156 71
c75 0 149 -47 149 -176v-218c0 -71 10 -74 60 -97v-30z" />
    <glyph glyph-name="igrave" unicode="&#xec;" horiz-adv-x="328" 
d="M261 563l-209 75l46 85l178 -131zM304 0h-276v31c50 23 59 25 59 96v219c0 80 -9 82 -70 106v30c70 5 166 22 218 40h10v-395c0 -71 9 -73 59 -96v-31z" />
    <glyph glyph-name="iacute" unicode="&#xed;" horiz-adv-x="328" 
d="M276 638l-209 -75l-15 29l178 131zM304 0h-276v31c50 23 59 25 59 96v219c0 80 -9 82 -70 106v30c70 5 166 22 218 40h10v-395c0 -71 9 -73 59 -96v-31z" />
    <glyph glyph-name="icircumflex" unicode="&#xee;" horiz-adv-x="328" 
d="M304 0h-276v31c50 23 59 25 59 96v219c0 80 -9 82 -70 106v30c70 5 166 22 218 40h10v-395c0 -71 9 -73 59 -96v-31zM294 568h-18l-113 53l-112 -53h-18l91 136h77z" />
    <glyph glyph-name="idieresis" unicode="&#xef;" horiz-adv-x="328" 
d="M76 568c-39 0 -71 32 -71 71s32 70 71 70c40 0 71 -31 71 -70s-31 -71 -71 -71zM324 639c0 -39 -32 -71 -72 -71c-39 0 -70 32 -70 71s31 70 70 70c40 0 72 -31 72 -70zM304 0h-276v31c50 23 59 25 59 96v219c0 80 -9 82 -70 106v30c70 5 166 22 218 40h10v-395
c0 -71 9 -73 59 -96v-31z" />
    <glyph glyph-name="itilde" unicode="&#x129;" horiz-adv-x="328" 
d="M294 692l20 -2c-5 -18 -36 -116 -91 -116c-54 0 -99 30 -136 30c-31 0 -37 -14 -52 -35l-20 2c5 18 36 115 91 115c53 0 92 -29 136 -29c31 0 37 14 52 35zM304 0h-276v31c50 23 59 25 59 96v219c0 80 -9 82 -70 106v30c70 5 166 22 218 40h10v-395c0 -71 9 -73 59 -96
v-31z" />
    <glyph glyph-name="imacron" unicode="&#x12b;" horiz-adv-x="328" 
d="M294 602h-260v58h260v-58zM304 0h-276v31c50 23 59 25 59 96v219c0 80 -9 82 -70 106v30c70 5 166 22 218 40h10v-395c0 -71 9 -73 59 -96v-31z" />
    <glyph glyph-name="ibreve" unicode="&#x12d;" horiz-adv-x="328" 
d="M265 704h26c-10 -75 -56 -138 -127 -138s-117 63 -127 138h26c20 -46 63 -61 101 -61s81 15 101 61zM304 0h-276v31c50 23 59 25 59 96v219c0 80 -9 82 -70 106v30c70 5 166 22 218 40h10v-395c0 -71 9 -73 59 -96v-31z" />
    <glyph glyph-name="iogonek" unicode="&#x12f;" horiz-adv-x="334" 
d="M203 -168v-14c-12 -15 -45 -40 -77 -40c-53 0 -80 29 -80 70c0 68 91 122 145 152h-160v31c50 23 59 25 59 96v219c0 80 -9 82 -70 106v30c70 5 166 22 218 40h10v-395c0 -71 9 -73 59 -96v-31h-101c-31 -40 -70 -90 -70 -136c0 -23 17 -35 45 -35c5 0 16 1 22 3z
M167 574c-46 0 -83 36 -83 83s37 83 83 83c45 0 83 -36 83 -83s-38 -83 -83 -83z" />
    <glyph glyph-name="i.locl" horiz-adv-x="328" 
d="M167 574c-46 0 -83 36 -83 83s37 83 83 83c45 0 83 -36 83 -83s-38 -83 -83 -83zM307 0h-276v31c50 23 59 25 59 96v219c0 80 -9 82 -70 106v30c70 5 166 22 218 40h10v-395c0 -71 9 -73 59 -96v-31z" />
    <glyph glyph-name="ij" unicode="&#x133;" horiz-adv-x="657" 
d="M167 574c-46 0 -83 36 -83 83s37 83 83 83c45 0 83 -36 83 -83s-38 -83 -83 -83zM307 0h-276v31c50 23 59 25 59 96v219c0 80 -9 82 -70 106v30c70 5 166 22 218 40h10v-395c0 -71 9 -73 59 -96v-31zM348 -234l-8 23c46 30 80 99 80 193v364c0 80 -9 82 -70 106v30
c70 5 170 22 222 40h10v-482c0 -172 -142 -246 -234 -274zM496 574c-46 0 -83 36 -83 83s37 83 83 83c45 0 83 -36 83 -83s-38 -83 -83 -83z" />
    <glyph glyph-name="jcircumflex" unicode="&#x135;" horiz-adv-x="316" 
d="M11 -234l-8 23c46 30 80 99 80 193v364c0 80 -9 82 -70 106v30c70 5 170 22 222 40h10v-482c0 -172 -142 -246 -234 -274zM288 568h-18l-113 53l-112 -53h-18l91 136h77z" />
    <glyph glyph-name="kcommaaccent" unicode="&#x137;" horiz-adv-x="628" 
d="M305 0h-281v23c51 23 60 31 60 102v460c0 81 -9 84 -69 106v23c69 5 170 22 222 40h9v-629c0 -71 9 -79 59 -102v-23zM636 0h-120c-101 0 -112 3 -172 108l-89 155l88 98c26 29 39 52 39 69c0 23 -17 33 -62 46v34h287v-32c-53 -15 -97 -29 -143 -83l-72 -84l126 -189
c44 -66 82 -82 118 -92v-30zM261 -296l-10 10c24 31 34 54 34 81c0 28 -32 39 -32 81c0 39 34 65 67 65c40 0 70 -29 70 -76c0 -64 -70 -126 -129 -161z" />
    <glyph glyph-name="kgreenlandic" unicode="&#x138;" horiz-adv-x="628" 
d="M305 0h-281v23c51 23 60 31 60 102v228c0 81 -9 84 -69 106v23c69 5 170 22 222 40h9v-397c0 -71 9 -79 59 -102v-23zM636 0h-120c-100 0 -113 3 -172 108l-89 155l88 98c26 29 39 52 39 69c0 23 -17 33 -62 46v34h287v-32c-53 -15 -94 -26 -143 -83l-72 -84l126 -189
c48 -71 83 -81 118 -92v-30z" />
    <glyph glyph-name="lacute" unicode="&#x13a;" horiz-adv-x="319" 
d="M303 0h-281v31c50 21 60 25 60 96v456c0 81 -10 82 -70 101v30c70 5 170 22 223 40h8v-627c0 -71 9 -73 60 -96v-31zM274 826l-209 -75l-15 29l178 131z" />
    <glyph glyph-name="lcommaaccent" unicode="&#x13c;" horiz-adv-x="319" 
d="M303 0h-281v31c50 21 60 25 60 96v456c0 81 -10 82 -70 101v30c70 5 170 22 223 40h8v-627c0 -71 9 -73 60 -96v-31zM103 -296l-10 10c24 31 34 54 34 81c0 28 -32 39 -32 81c0 39 34 65 67 65c40 0 70 -29 70 -76c0 -64 -70 -126 -129 -161z" />
    <glyph glyph-name="lcaron" unicode="&#x13e;" horiz-adv-x="365" 
d="M303 0h-281v31c50 21 60 25 60 96v456c0 81 -10 82 -70 101v30c70 5 170 22 223 40h8v-627c0 -71 9 -73 60 -96v-31zM368 474h-30c-4 85 -47 151 -47 192c0 35 27 63 62 63c34 0 61 -28 61 -63c0 -41 -42 -107 -46 -192z" />
    <glyph glyph-name="ldot" unicode="&#x140;" horiz-adv-x="444" 
d="M303 0h-281v31c50 21 60 25 60 96v456c0 81 -10 82 -70 101v30c70 5 170 22 223 40h8v-627c0 -71 9 -73 60 -96v-31zM458 357c0 -46 -37 -82 -83 -82s-83 36 -83 82s37 82 83 82s83 -36 83 -82z" />
    <glyph glyph-name="lslash" unicode="&#x142;" horiz-adv-x="325" 
d="M310 0h-287v20c52 22 62 40 62 114v237l-67 -23v68l67 23v134c0 87 -11 97 -72 119v19c71 5 174 25 229 43h6v-260l65 22v-68l-65 -22v-292c0 -74 9 -91 62 -114v-20z" />
    <glyph glyph-name="ntilde" unicode="&#xf1;" horiz-adv-x="636" 
d="M616 0h-272v30c48 23 55 26 55 97v220c0 57 -35 85 -79 85c-27 0 -52 -8 -72 -20v-285c0 -71 6 -73 54 -96v-31h-272v31c50 23 59 25 59 96v219c0 80 -9 82 -70 106v30c70 5 165 22 217 40h9v-75c36 29 103 74 161 74c75 0 151 -45 151 -176v-218c0 -71 9 -74 59 -97v-30
zM452 692l20 -2c-5 -18 -36 -116 -91 -116c-54 0 -99 30 -136 30c-31 0 -37 -14 -52 -35l-20 2c5 18 36 115 91 115c53 0 92 -29 136 -29c31 0 37 14 52 35z" />
    <glyph glyph-name="nacute" unicode="&#x144;" horiz-adv-x="642" 
d="M619 0h-272v30c48 23 55 26 55 97v220c0 57 -35 85 -79 85c-27 0 -52 -8 -72 -20v-285c0 -71 6 -73 54 -96v-31h-272v31c50 23 59 25 59 96v219c0 80 -9 82 -70 106v30c70 5 165 22 217 40h9v-75c36 29 103 74 161 74c75 0 151 -45 151 -176v-218c0 -71 9 -74 59 -97v-30
zM440 638l-209 -75l-15 29l178 131z" />
    <glyph glyph-name="ncommaaccent" unicode="&#x146;" horiz-adv-x="642" 
d="M619 0h-272v30c48 23 55 26 55 97v220c0 57 -35 85 -79 85c-27 0 -52 -8 -72 -20v-285c0 -71 6 -73 54 -96v-31h-272v31c50 23 59 25 59 96v219c0 80 -9 82 -70 106v30c70 5 165 22 217 40h9v-75c36 29 103 74 161 74c75 0 151 -45 151 -176v-218c0 -71 9 -74 59 -97v-30
zM268 -296l-10 10c24 31 34 54 34 81c0 28 -32 39 -32 81c0 39 34 65 67 65c40 0 70 -29 70 -76c0 -64 -70 -126 -129 -161z" />
    <glyph glyph-name="ncaron" unicode="&#x148;" horiz-adv-x="642" 
d="M619 0h-272v30c48 23 55 26 55 97v220c0 57 -35 85 -79 85c-27 0 -52 -8 -72 -20v-285c0 -71 6 -73 54 -96v-31h-272v31c50 23 59 25 59 96v219c0 80 -9 82 -70 106v30c70 5 165 22 217 40h9v-75c36 29 103 74 161 74c75 0 151 -45 151 -176v-218c0 -71 9 -74 59 -97v-30
zM365 568h-77l-91 136h18l112 -53l113 53h18z" />
    <glyph glyph-name="napostrophe" unicode="&#x149;" horiz-adv-x="642" 
d="M619 0h-272v30c48 23 55 26 55 97v220c0 57 -35 85 -79 85c-27 0 -52 -8 -72 -20v-285c0 -71 6 -73 54 -96v-31h-272v31c50 23 59 25 59 96v219c0 80 -9 82 -70 106v30c70 5 165 22 217 40h9v-75c36 29 103 74 161 74c75 0 151 -45 151 -176v-218c0 -71 9 -74 59 -97v-30
zM112 527l-10 10c24 31 34 55 34 82c0 28 -32 40 -32 82c0 39 34 65 67 65c40 0 70 -29 70 -76c0 -64 -70 -128 -129 -163z" />
    <glyph glyph-name="ograve" unicode="&#xf2;" horiz-adv-x="603" 
d="M572 255c0 -161 -127 -268 -271 -268c-145 0 -270 107 -270 268c0 168 131 267 270 267c140 0 271 -99 271 -267zM301 50c69 0 96 80 96 205c0 138 -35 204 -96 204c-62 0 -96 -66 -96 -204c0 -125 27 -205 96 -205zM407 563l-209 75l46 85l178 -131z" />
    <glyph glyph-name="oacute" unicode="&#xf3;" horiz-adv-x="603" 
d="M572 255c0 -161 -127 -268 -271 -268c-145 0 -270 107 -270 268c0 168 131 267 270 267c140 0 271 -99 271 -267zM301 50c69 0 96 80 96 205c0 138 -35 204 -96 204c-62 0 -96 -66 -96 -204c0 -125 27 -205 96 -205zM422 638l-209 -75l-15 29l178 131z" />
    <glyph glyph-name="ocircumflex" unicode="&#xf4;" horiz-adv-x="603" 
d="M572 255c0 -161 -127 -268 -271 -268c-145 0 -270 107 -270 268c0 168 131 267 270 267c140 0 271 -99 271 -267zM301 50c69 0 96 80 96 205c0 138 -35 204 -96 204c-62 0 -96 -66 -96 -204c0 -125 27 -205 96 -205zM440 568h-18l-113 53l-112 -53h-18l91 136h77z" />
    <glyph glyph-name="otilde" unicode="&#xf5;" horiz-adv-x="603" 
d="M572 255c0 -161 -127 -268 -271 -268c-145 0 -270 107 -270 268c0 168 131 267 270 267c140 0 271 -99 271 -267zM301 50c69 0 96 80 96 205c0 138 -35 204 -96 204c-62 0 -96 -66 -96 -204c0 -125 27 -205 96 -205zM439 692l20 -2c-5 -18 -36 -116 -91 -116
c-54 0 -99 30 -136 30c-31 0 -37 -14 -52 -35l-20 2c5 18 36 115 91 115c53 0 92 -29 136 -29c31 0 37 14 52 35z" />
    <glyph glyph-name="odieresis" unicode="&#xf6;" horiz-adv-x="603" 
d="M572 255c0 -161 -127 -268 -271 -268c-145 0 -270 107 -270 268c0 168 131 267 270 267c140 0 271 -99 271 -267zM301 50c69 0 96 80 96 205c0 138 -35 204 -96 204c-62 0 -96 -66 -96 -204c0 -125 27 -205 96 -205zM221 568c-39 0 -71 32 -71 71s32 70 71 70
c40 0 71 -31 71 -70s-31 -71 -71 -71zM469 639c0 -39 -32 -71 -72 -71c-39 0 -70 32 -70 71s31 70 70 70c40 0 72 -31 72 -70z" />
    <glyph glyph-name="oslash" unicode="&#xf8;" horiz-adv-x="603" 
d="M142 -44l-45 30l36 57c-62 46 -102 120 -102 212c0 168 131 267 270 267c42 0 83 -10 119 -27l37 58l45 -30l-34 -55c62 -45 104 -118 104 -213c0 -161 -127 -267 -271 -267c-43 0 -85 10 -122 27zM390 346l-160 -250c15 -32 38 -50 71 -50c69 0 96 84 96 209
c0 35 -2 65 -7 91zM211 167l159 248c-17 32 -40 49 -69 49c-62 0 -96 -71 -96 -209c0 -33 2 -62 6 -88z" />
    <glyph glyph-name="omacron" unicode="&#x14d;" horiz-adv-x="603" 
d="M572 255c0 -161 -127 -268 -271 -268c-145 0 -270 107 -270 268c0 168 131 267 270 267c140 0 271 -99 271 -267zM301 50c69 0 96 80 96 205c0 138 -35 204 -96 204c-62 0 -96 -66 -96 -204c0 -125 27 -205 96 -205zM439 602h-260v58h260v-58z" />
    <glyph glyph-name="obreve" unicode="&#x14f;" horiz-adv-x="603" 
d="M572 255c0 -161 -127 -268 -271 -268c-145 0 -270 107 -270 268c0 168 131 267 270 267c140 0 271 -99 271 -267zM301 50c69 0 96 80 96 205c0 138 -35 204 -96 204c-62 0 -96 -66 -96 -204c0 -125 27 -205 96 -205zM410 704h26c-10 -75 -56 -138 -127 -138
s-117 63 -127 138h26c20 -46 63 -61 101 -61s81 15 101 61z" />
    <glyph glyph-name="ohungarumlaut" unicode="&#x151;" horiz-adv-x="603" 
d="M572 255c0 -161 -127 -268 -271 -268c-145 0 -270 107 -270 268c0 168 131 267 270 267c140 0 271 -99 271 -267zM301 50c69 0 96 80 96 205c0 138 -35 204 -96 204c-62 0 -96 -66 -96 -204c0 -125 27 -205 96 -205zM201 568h-34c16 20 43 100 48 122h99
c-22 -46 -60 -86 -113 -122zM325 568h-29c16 20 43 100 48 122h99c-22 -46 -65 -86 -118 -122z" />
    <glyph glyph-name="racute" unicode="&#x155;" horiz-adv-x="450" 
d="M316 0h-290v31c51 21 60 23 60 94v229c0 73 -9 76 -70 98v30c70 5 167 22 220 40h8v-84c24 31 79 84 126 84c45 0 82 -34 82 -83s-32 -82 -78 -82c-50 0 -58 57 -92 57c-16 0 -32 -8 -37 -12v-277c0 -71 9 -73 71 -94v-31zM337 638l-209 -75l-15 29l178 131z" />
    <glyph glyph-name="rcommaaccent" unicode="&#x157;" horiz-adv-x="450" 
d="M316 0h-290v31c51 21 60 23 60 94v229c0 73 -9 76 -70 98v30c70 5 167 22 220 40h8v-84c24 31 79 84 126 84c45 0 82 -34 82 -83s-32 -82 -78 -82c-50 0 -58 57 -92 57c-16 0 -32 -8 -37 -12v-277c0 -71 9 -73 71 -94v-31zM109 -296l-10 10c24 31 34 54 34 81
c0 28 -32 39 -32 81c0 39 34 65 67 65c40 0 70 -29 70 -76c0 -64 -70 -126 -129 -161z" />
    <glyph glyph-name="rcaron" unicode="&#x159;" horiz-adv-x="450" 
d="M316 0h-290v31c51 21 60 23 60 94v229c0 73 -9 76 -70 98v30c70 5 167 22 220 40h8v-84c24 31 79 84 126 84c45 0 82 -34 82 -83s-32 -82 -78 -82c-50 0 -58 57 -92 57c-16 0 -32 -8 -37 -12v-277c0 -71 9 -73 71 -94v-31zM263 568h-77l-91 136h18l112 -53l113 53h18z
" />
    <glyph glyph-name="sacute" unicode="&#x15b;" horiz-adv-x="444" 
d="M40 17l-7 142h46c42 -74 83 -108 134 -108c40 0 73 18 73 55c0 93 -248 93 -248 253c0 95 88 163 197 163c41 0 112 -7 151 -22v-117h-42c-40 54 -72 76 -113 76c-34 0 -65 -15 -65 -47c0 -93 255 -87 255 -256c0 -105 -95 -168 -211 -168c-56 0 -126 9 -170 29zM336 638
l-209 -75l-15 29l178 131z" />
    <glyph glyph-name="scircumflex" unicode="&#x15d;" horiz-adv-x="444" 
d="M40 17l-7 142h46c42 -74 83 -108 134 -108c40 0 73 18 73 55c0 93 -248 93 -248 253c0 95 88 163 197 163c41 0 112 -7 151 -22v-117h-42c-40 54 -72 76 -113 76c-34 0 -65 -15 -65 -47c0 -93 255 -87 255 -256c0 -105 -95 -168 -211 -168c-56 0 -126 9 -170 29zM354 568
h-18l-113 53l-112 -53h-18l91 136h77z" />
    <glyph glyph-name="scedilla" unicode="&#x15f;" horiz-adv-x="444" 
d="M112 -209l8 29c24 -7 40 -9 55 -9c33 0 52 20 52 41c0 32 -51 52 -86 53l62 83c-55 1 -121 10 -163 29l-7 142h46c42 -74 83 -108 134 -108c40 0 73 18 73 55c0 93 -248 93 -248 253c0 95 88 163 197 163c41 0 112 -7 151 -22v-117h-42c-40 54 -72 76 -113 76
c-34 0 -65 -15 -65 -47c0 -93 255 -87 255 -256c0 -92 -73 -152 -169 -165l-27 -42c38 -4 86 -34 86 -86c0 -56 -57 -85 -116 -85c-34 0 -63 5 -83 13z" />
    <glyph glyph-name="scaron" unicode="&#x161;" horiz-adv-x="444" 
d="M40 17l-7 142h46c42 -74 83 -108 134 -108c40 0 73 18 73 55c0 93 -248 93 -248 253c0 95 88 163 197 163c41 0 112 -7 151 -22v-117h-42c-40 54 -72 76 -113 76c-34 0 -65 -15 -65 -47c0 -93 255 -87 255 -256c0 -105 -95 -168 -211 -168c-56 0 -126 9 -170 29zM261 568
h-77l-91 136h18l112 -53l113 53h18z" />
    <glyph glyph-name="scommaaccent" unicode="&#x219;" horiz-adv-x="444" 
d="M40 17l-7 142h46c42 -74 83 -108 134 -108c40 0 73 18 73 55c0 93 -248 93 -248 253c0 95 88 163 197 163c41 0 112 -7 151 -22v-117h-42c-40 54 -72 76 -113 76c-34 0 -65 -15 -65 -47c0 -93 255 -87 255 -256c0 -105 -95 -168 -211 -168c-56 0 -126 9 -170 29z
M164 -296l-10 10c24 31 34 54 34 81c0 28 -32 39 -32 81c0 39 34 65 67 65c40 0 70 -29 70 -76c0 -64 -70 -126 -129 -161z" />
    <glyph glyph-name="tcommaaccent" unicode="&#x163;" horiz-adv-x="381" 
d="M384 91l11 -12c-23 -33 -101 -87 -167 -87c-84 0 -149 42 -149 157v284l-59 4v45c83 30 118 75 161 153h56v-125h135v-81h-135v-268c0 -49 30 -81 73 -81c33 0 55 5 74 11zM131 -296l-10 10c24 31 34 54 34 81c0 28 -32 39 -32 81c0 39 34 65 67 65c40 0 70 -29 70 -76
c0 -64 -70 -126 -129 -161z" />
    <glyph glyph-name="uni021B" unicode="&#x21b;" horiz-adv-x="385" 
d="M384 91l11 -12c-23 -33 -101 -87 -167 -87c-84 0 -149 42 -149 157v284l-59 4v45c83 30 118 75 161 153h56v-125h135v-81h-135v-268c0 -49 30 -81 73 -81c33 0 55 5 74 11zM132 -296l-10 10c24 31 34 54 34 81c0 28 -32 39 -32 81c0 39 34 65 67 65c40 0 70 -29 70 -76
c0 -64 -70 -126 -129 -161z" />
    <glyph glyph-name="tcaron" unicode="&#x165;" horiz-adv-x="381" 
d="M384 91l11 -12c-23 -33 -101 -87 -167 -87c-84 0 -149 42 -149 157v284l-59 4v45c83 30 118 75 161 153h56v-125h135v-81h-135v-268c0 -49 30 -81 73 -81c33 0 55 5 74 11zM315 547l-22 9c6 19 8 36 8 53c0 50 -29 75 -29 117c0 38 31 63 63 63c36 0 65 -27 65 -69
c0 -53 -52 -118 -85 -173z" />
    <glyph glyph-name="tbar" unicode="&#x167;" horiz-adv-x="381" 
d="M384 91l11 -12c-23 -33 -101 -87 -167 -87c-84 0 -149 42 -149 157v95h-57v67h57v122l-59 4v45c83 30 118 75 161 153h56v-125h135v-81h-135v-118h115v-67h-115v-83c0 -49 30 -81 73 -81c33 0 55 5 74 11z" />
    <glyph glyph-name="ugrave" unicode="&#xf9;" horiz-adv-x="610" 
d="M608 62v-30c-87 -8 -166 -26 -217 -44h-9v76c-37 -32 -91 -76 -156 -76c-80 0 -147 38 -147 167v191c0 80 -7 82 -60 106v30c70 5 156 22 208 40h10v-344c0 -67 38 -91 78 -91c26 0 45 4 64 14v245c0 80 -9 82 -70 106v30c70 5 166 22 218 40h10v-352
c0 -80 10 -82 71 -108zM407 563l-209 75l46 85l178 -131z" />
    <glyph glyph-name="uacute" unicode="&#xfa;" horiz-adv-x="610" 
d="M608 62v-30c-87 -8 -166 -26 -217 -44h-9v76c-37 -32 -91 -76 -156 -76c-80 0 -147 38 -147 167v191c0 80 -7 82 -60 106v30c70 5 156 22 208 40h10v-344c0 -67 38 -91 78 -91c26 0 45 4 64 14v245c0 80 -9 82 -70 106v30c70 5 166 22 218 40h10v-352
c0 -80 10 -82 71 -108zM422 638l-209 -75l-15 29l178 131z" />
    <glyph glyph-name="ucircumflex" unicode="&#xfb;" horiz-adv-x="610" 
d="M608 62v-30c-87 -8 -166 -26 -217 -44h-9v76c-37 -32 -91 -76 -156 -76c-80 0 -147 38 -147 167v191c0 80 -7 82 -60 106v30c70 5 156 22 208 40h10v-344c0 -67 38 -91 78 -91c26 0 45 4 64 14v245c0 80 -9 82 -70 106v30c70 5 166 22 218 40h10v-352
c0 -80 10 -82 71 -108zM440 568h-18l-113 53l-112 -53h-18l91 136h77z" />
    <glyph glyph-name="udieresis" unicode="&#xfc;" horiz-adv-x="610" 
d="M608 62v-30c-87 -8 -166 -26 -217 -44h-9v76c-37 -32 -91 -76 -156 -76c-80 0 -147 38 -147 167v191c0 80 -7 82 -60 106v30c70 5 156 22 208 40h10v-344c0 -67 38 -91 78 -91c26 0 45 4 64 14v245c0 80 -9 82 -70 106v30c70 5 166 22 218 40h10v-352
c0 -80 10 -82 71 -108zM221 568c-39 0 -71 32 -71 71s32 70 71 70c40 0 71 -31 71 -70s-31 -71 -71 -71zM469 639c0 -39 -32 -71 -72 -71c-39 0 -70 32 -70 71s31 70 70 70c40 0 72 -31 72 -70z" />
    <glyph glyph-name="utilde" unicode="&#x169;" horiz-adv-x="616" 
d="M611 62v-30c-87 -8 -166 -26 -217 -44h-9v76c-37 -32 -91 -76 -156 -76c-80 0 -147 38 -147 167v191c0 80 -7 82 -60 106v30c70 5 156 22 208 40h10v-344c0 -67 38 -91 78 -91c26 0 45 4 64 14v245c0 80 -9 82 -70 106v30c70 5 166 22 218 40h10v-352
c0 -80 10 -82 71 -108zM442 692l20 -2c-5 -18 -36 -116 -91 -116c-54 0 -99 30 -136 30c-31 0 -37 -14 -52 -35l-20 2c5 18 36 115 91 115c53 0 92 -29 136 -29c31 0 37 14 52 35z" />
    <glyph glyph-name="umacron" unicode="&#x16b;" horiz-adv-x="616" 
d="M611 62v-30c-87 -8 -166 -26 -217 -44h-9v76c-37 -32 -91 -76 -156 -76c-80 0 -147 38 -147 167v191c0 80 -7 82 -60 106v30c70 5 156 22 208 40h10v-344c0 -67 38 -91 78 -91c26 0 45 4 64 14v245c0 80 -9 82 -70 106v30c70 5 166 22 218 40h10v-352
c0 -80 10 -82 71 -108zM442 602h-260v58h260v-58z" />
    <glyph glyph-name="ubreve" unicode="&#x16d;" horiz-adv-x="616" 
d="M611 62v-30c-87 -8 -166 -26 -217 -44h-9v76c-37 -32 -91 -76 -156 -76c-80 0 -147 38 -147 167v191c0 80 -7 82 -60 106v30c70 5 156 22 208 40h10v-344c0 -67 38 -91 78 -91c26 0 45 4 64 14v245c0 80 -9 82 -70 106v30c70 5 166 22 218 40h10v-352
c0 -80 10 -82 71 -108zM413 704h26c-10 -75 -56 -138 -127 -138s-117 63 -127 138h26c20 -46 63 -61 101 -61s81 15 101 61z" />
    <glyph glyph-name="uring" unicode="&#x16f;" horiz-adv-x="616" 
d="M611 62v-30c-87 -8 -166 -26 -217 -44h-9v76c-37 -32 -91 -76 -156 -76c-80 0 -147 38 -147 167v191c0 80 -7 82 -60 106v30c70 5 156 22 208 40h10v-344c0 -67 38 -91 78 -91c26 0 45 4 64 14v245c0 80 -9 82 -70 106v30c70 5 166 22 218 40h10v-352
c0 -80 10 -82 71 -108zM418 667c0 -58 -49 -105 -106 -105c-58 0 -107 47 -107 105c0 57 49 104 107 104c57 0 106 -47 106 -104zM312 608c31 0 56 28 56 59s-25 58 -56 58s-57 -27 -57 -58s26 -59 57 -59z" />
    <glyph glyph-name="uhungarumlaut" unicode="&#x171;" horiz-adv-x="616" 
d="M611 62v-30c-87 -8 -166 -26 -217 -44h-9v76c-37 -32 -91 -76 -156 -76c-80 0 -147 38 -147 167v191c0 80 -7 82 -60 106v30c70 5 156 22 208 40h10v-344c0 -67 38 -91 78 -91c26 0 45 4 64 14v245c0 80 -9 82 -70 106v30c70 5 166 22 218 40h10v-352
c0 -80 10 -82 71 -108zM203 568h-34c16 20 43 100 48 122h99c-22 -46 -60 -86 -113 -122zM327 568h-29c16 20 43 100 48 122h99c-22 -46 -65 -86 -118 -122z" />
    <glyph glyph-name="uogonek" unicode="&#x173;" horiz-adv-x="616" 
d="M612 -168v-14c-12 -15 -46 -40 -78 -40c-53 0 -80 30 -80 71c0 55 61 131 109 177c-70 -9 -128 -24 -169 -38h-9v76c-37 -32 -91 -76 -156 -76c-80 0 -147 38 -147 167v191c0 80 -7 82 -60 106v30c70 5 156 22 208 40h10v-344c0 -67 38 -91 78 -91c26 0 45 4 64 14v245
c0 80 -9 82 -70 106v30c70 5 166 22 218 40h10v-352c0 -80 10 -82 71 -108v-30c-29 -38 -67 -118 -67 -168c0 -23 17 -35 45 -35c5 0 17 1 23 3z" />
    <glyph glyph-name="wcircumflex" unicode="&#x175;" horiz-adv-x="915" 
d="M699 0h-146l-103 358l-110 -358h-148l-102 357c-25 88 -45 106 -83 121v32h281v-32c-34 -7 -52 -11 -52 -44c0 -16 1 -34 8 -63l61 -242l115 381h131l108 -380l54 174c15 50 20 90 20 113c0 43 -20 54 -56 61v32h231v-32c-42 -13 -64 -36 -103 -156zM580 568h-18l-113 53
l-112 -53h-18l91 136h77z" />
    <glyph glyph-name="wgrave" unicode="&#x1e81;" horiz-adv-x="915" 
d="M699 0h-146l-103 358l-110 -358h-148l-102 357c-25 88 -45 106 -83 121v32h281v-32c-34 -7 -52 -11 -52 -44c0 -16 1 -34 8 -63l61 -242l115 381h131l108 -380l54 174c15 50 20 90 20 113c0 43 -20 54 -56 61v32h231v-32c-42 -13 -64 -36 -103 -156zM547 563l-209 75
l46 85l178 -131z" />
    <glyph glyph-name="wacute" unicode="&#x1e83;" horiz-adv-x="915" 
d="M699 0h-146l-103 358l-110 -358h-148l-102 357c-25 88 -45 106 -83 121v32h281v-32c-34 -7 -52 -11 -52 -44c0 -16 1 -34 8 -63l61 -242l115 381h131l108 -380l54 174c15 50 20 90 20 113c0 43 -20 54 -56 61v32h231v-32c-42 -13 -64 -36 -103 -156zM562 638l-209 -75
l-15 29l178 131z" />
    <glyph glyph-name="wdieresis" unicode="&#x1e85;" horiz-adv-x="915" 
d="M699 0h-146l-103 358l-110 -358h-148l-102 357c-25 88 -45 106 -83 121v32h281v-32c-34 -7 -52 -11 -52 -44c0 -16 1 -34 8 -63l61 -242l115 381h131l108 -380l54 174c15 50 20 90 20 113c0 43 -20 54 -56 61v32h231v-32c-42 -13 -64 -36 -103 -156zM361 568
c-39 0 -71 32 -71 71s32 70 71 70c40 0 71 -31 71 -70s-31 -71 -71 -71zM609 639c0 -39 -32 -71 -72 -71c-39 0 -70 32 -70 71s31 70 70 70c40 0 72 -31 72 -70z" />
    <glyph glyph-name="yacute" unicode="&#xfd;" horiz-adv-x="588" 
d="M284 -23l7 23h-89l-102 337c-37 121 -52 127 -96 141v32h289v-33c-35 -8 -47 -24 -47 -51c0 -19 8 -47 16 -82l58 -250h5l47 165c16 57 30 110 30 150s-15 62 -50 68v33h232v-31c-44 -18 -72 -57 -129 -227l-98 -293c-45 -133 -110 -193 -193 -193c-59 0 -94 33 -94 83
c0 42 29 77 72 77s69 -23 73 -72c20 17 46 48 69 123zM406 638l-209 -75l-15 29l178 131z" />
    <glyph glyph-name="ydieresis" unicode="&#xff;" horiz-adv-x="588" 
d="M284 -23l7 23h-89l-102 337c-37 121 -52 127 -96 141v32h289v-33c-35 -8 -47 -24 -47 -51c0 -19 8 -47 16 -82l58 -250h5l47 165c16 57 30 110 30 150s-15 62 -50 68v33h232v-31c-44 -18 -72 -57 -129 -227l-98 -293c-45 -133 -110 -193 -193 -193c-59 0 -94 33 -94 83
c0 42 29 77 72 77s69 -23 73 -72c20 17 46 48 69 123zM206 568c-39 0 -71 32 -71 71s32 70 71 70c40 0 71 -31 71 -70s-31 -71 -71 -71zM454 639c0 -39 -32 -71 -72 -71c-39 0 -70 32 -70 71s31 70 70 70c40 0 72 -31 72 -70z" />
    <glyph glyph-name="ycircumflex" unicode="&#x177;" horiz-adv-x="594" 
d="M287 -23l7 23h-89l-102 337c-37 121 -52 127 -96 141v32h289v-33c-35 -8 -47 -24 -47 -51c0 -19 8 -47 16 -82l58 -250h5l47 165c16 57 30 110 30 150s-15 62 -50 68v33h232v-31c-44 -18 -72 -57 -129 -227l-98 -293c-45 -133 -110 -193 -193 -193c-59 0 -94 33 -94 83
c0 42 29 77 72 77s69 -23 73 -72c20 17 46 48 69 123zM428 568h-18l-113 53l-112 -53h-18l91 136h77z" />
    <glyph glyph-name="ygrave" unicode="&#x1ef3;" horiz-adv-x="594" 
d="M287 -23l7 23h-89l-102 337c-37 121 -52 127 -96 141v32h289v-33c-35 -8 -47 -24 -47 -51c0 -19 8 -47 16 -82l58 -250h5l47 165c16 57 30 110 30 150s-15 62 -50 68v33h232v-31c-44 -18 -72 -57 -129 -227l-98 -293c-45 -133 -110 -193 -193 -193c-59 0 -94 33 -94 83
c0 42 29 77 72 77s69 -23 73 -72c20 17 46 48 69 123zM394 563l-209 75l46 85l178 -131z" />
    <glyph glyph-name="zacute" unicode="&#x17a;" horiz-adv-x="509" 
d="M468 0h-442v14l246 418h-56c-41 0 -85 -2 -120 -44l-23 -28h-30l20 150h411v-15l-240 -416h74c53 0 69 2 151 75h29zM371 638l-209 -75l-15 29l178 131z" />
    <glyph glyph-name="zdotaccent" unicode="&#x17c;" horiz-adv-x="509" 
d="M468 0h-442v14l246 418h-56c-41 0 -85 -2 -120 -44l-23 -28h-30l20 150h411v-15l-240 -416h74c53 0 69 2 151 75h29zM335 639c0 -41 -34 -75 -76 -75c-41 0 -75 34 -75 75s34 75 75 75c42 0 76 -34 76 -75z" />
    <glyph glyph-name="zcaron" unicode="&#x17e;" horiz-adv-x="509" 
d="M468 0h-442v14l246 418h-56c-41 0 -85 -2 -120 -44l-23 -28h-30l20 150h411v-15l-240 -416h74c53 0 69 2 151 75h29zM297 568h-77l-91 136h18l112 -53l113 53h18z" />
    <glyph glyph-name="zero" unicode="0" horiz-adv-x="551" 
d="M276 -15c-160 0 -247 138 -247 348c0 221 94 371 248 371s246 -141 246 -362c0 -210 -87 -357 -247 -357zM280 43c61 0 71 115 71 271c0 216 -17 332 -74 332s-76 -120 -76 -315c0 -173 13 -288 79 -288z" />
    <glyph glyph-name="one" unicode="1" horiz-adv-x="551" 
d="M442 0h-314v32c72 24 81 35 81 105v372c-37 -14 -75 -27 -108 -34l-8 47c95 30 213 115 276 179v-564c0 -71 12 -82 73 -106v-31z" />
    <glyph glyph-name="two" unicode="2" horiz-adv-x="551" 
d="M474 0h-441v37l196 250c65 83 90 155 90 223c0 85 -56 122 -126 122c-24 0 -70 -7 -86 -21c55 -3 98 -32 98 -88c0 -46 -39 -87 -88 -87c-48 0 -94 31 -94 99c0 84 102 169 247 169c111 0 218 -69 218 -183c0 -126 -176 -232 -256 -332l-35 -44h292z" />
    <glyph glyph-name="three" unicode="3" horiz-adv-x="551" 
d="M158 341l-9 17l140 191h-224v141h399v-16l-161 -209c97 -25 201 -112 201 -232c0 -161 -155 -248 -298 -248c-106 0 -182 47 -182 129c0 51 40 86 90 86c48 0 87 -33 87 -85c0 -37 -20 -63 -44 -77c11 -7 28 -8 38 -8c76 0 145 51 145 153c0 103 -89 149 -182 158z" />
    <glyph glyph-name="four" unicode="4" horiz-adv-x="551" 
d="M285 281v253l-179 -253h179zM514 0h-311v31c72 24 82 36 82 106v47h-277v74l307 432h127v-409h67v-97h-67v-47c0 -70 9 -82 72 -106v-31z" />
    <glyph glyph-name="five" unicode="5" horiz-adv-x="551" 
d="M166 36v-4c11 -3 23 -4 34 -4c76 0 134 72 134 175c0 99 -58 147 -130 147c-35 0 -68 -14 -96 -33l-32 12l44 361h330v-141h-277l-18 -150c32 17 78 34 121 34c126 0 221 -86 221 -212c0 -158 -163 -236 -280 -236c-114 0 -186 42 -186 125c0 51 43 86 90 86
c49 0 87 -30 87 -84c0 -34 -21 -57 -42 -76z" />
    <glyph glyph-name="six" unicode="6" horiz-adv-x="551" 
d="M451 704v-54c-117 -23 -201 -108 -232 -242c24 14 57 26 102 26c120 0 205 -63 205 -196c0 -145 -89 -253 -239 -253c-153 0 -250 110 -250 295c0 231 198 400 414 424zM209 358c-4 -25 -5 -52 -5 -78c0 -117 17 -232 87 -232c56 0 77 64 77 151c0 115 -45 172 -105 172
c-17 0 -37 -6 -54 -13z" />
    <glyph glyph-name="seven" unicode="7" horiz-adv-x="551" 
d="M274 0h-160c51 195 179 363 277 542h-352v148h469v-34c-121 -212 -204 -468 -234 -656z" />
    <glyph glyph-name="eight" unicode="8" horiz-adv-x="551" 
d="M368 390c84 -45 160 -100 160 -199c0 -127 -132 -206 -263 -206c-112 0 -243 59 -243 177c0 88 73 137 153 168c-92 54 -141 114 -141 188c0 109 111 186 242 186c134 0 231 -82 231 -165c0 -68 -64 -122 -139 -149zM262 283l-35 17c-27 -30 -56 -79 -56 -131
c0 -66 38 -122 104 -122c56 0 98 37 98 103c0 62 -41 99 -111 133zM313 414c30 35 38 82 38 115c0 68 -33 113 -84 113c-47 0 -78 -35 -78 -92c0 -65 43 -95 124 -136z" />
    <glyph glyph-name="nine" unicode="9" horiz-adv-x="551" 
d="M109 -15l-2 55c116 21 199 108 229 237c-28 -13 -63 -22 -106 -22c-116 0 -205 71 -205 202c0 141 89 247 237 247c152 0 254 -113 254 -294c0 -236 -194 -400 -407 -425zM345 326c3 23 5 50 5 80c0 125 -22 235 -92 235c-55 0 -75 -61 -75 -145c0 -112 45 -179 116 -179
c14 0 32 4 46 9z" />
    <glyph glyph-name="Euro" unicode="&#x20ac;" horiz-adv-x="541" 
d="M474 196h47c-5 -77 -57 -211 -192 -211c-134 0 -213 109 -234 262h-64v62h58v30c0 16 0 32 2 48h-60v62h69c31 147 127 255 268 255c75 0 139 -45 139 -107c0 -55 -39 -88 -81 -88c-44 0 -77 24 -77 66c0 36 24 61 59 71c-9 6 -26 10 -39 10c-69 0 -100 -81 -110 -207
h147v-62h-150v-78h150v-62h-146c13 -110 51 -185 119 -185c62 0 87 72 95 134z" />
    <glyph glyph-name="dollar" unicode="$" horiz-adv-x="551" 
d="M311 -99h-66v85c-71 2 -151 19 -196 44v166h50c47 -89 85 -139 146 -147v222c-12 6 -24 14 -35 21c-79 49 -158 99 -158 197c0 103 83 175 193 191v74h66v-71c68 -4 131 -27 164 -40v-131h-49c-43 68 -76 98 -115 106v-206l30 -16c81 -48 163 -98 163 -205
c0 -105 -72 -184 -193 -201v-89zM311 229v-170c33 15 58 43 58 79c0 35 -21 65 -58 91zM245 453v159c-36 -10 -57 -39 -57 -72c0 -36 20 -63 57 -87z" />
    <glyph glyph-name="cent" unicode="&#xa2;" horiz-adv-x="566" 
d="M366 -49h-70v119c-151 13 -261 95 -261 259c0 172 124 255 261 270v98h70v-97c55 -3 111 -18 142 -30v-116h-39c-30 52 -66 80 -103 90v-421c41 6 81 28 116 104h43l-11 -123c-33 -17 -89 -32 -148 -35v-118zM296 130v413c-55 -17 -96 -76 -96 -206
c0 -126 38 -187 96 -207z" />
    <glyph glyph-name="sterling" unicode="&#xa3;" horiz-adv-x="542" 
d="M367 0h-332v26c60 46 112 102 112 182c0 38 -9 76 -20 113h-83v70h62c-9 33 -16 67 -16 103c0 136 120 210 242 210c95 0 168 -42 168 -108c0 -50 -36 -84 -83 -84c-46 0 -84 31 -84 80c0 19 10 44 25 62c-78 0 -111 -38 -111 -117c0 -53 14 -99 27 -146h155v-70h-139
c3 -17 5 -34 5 -52c0 -69 -53 -108 -101 -145h180c72 0 83 12 93 51h29c1 -8 1 -25 1 -32c0 -96 -38 -143 -130 -143z" />
    <glyph glyph-name="yen" unicode="&#xa5;" horiz-adv-x="570" 
d="M435 0h-310v31c66 24 78 35 78 112v24h-111v52h111v63h-111v52h97l-76 167c-61 133 -73 136 -117 158v31h294v-31c-32 -11 -49 -15 -49 -38c0 -20 12 -54 37 -118l44 -114l44 114c21 56 31 89 31 110c0 30 -21 35 -60 46v31h227v-31c-48 -16 -67 -25 -124 -159l-71 -166
h98v-52h-110v-63h110v-52h-110v-24c0 -77 11 -88 78 -112v-31z" />
    <glyph glyph-name="florin" unicode="&#x192;" horiz-adv-x="566" 
d="M102 -192h10c52 1 80 44 80 141v361h-97c4 24 8 48 13 73h84v123c0 136 106 198 232 198c84 0 138 -42 138 -100c0 -42 -38 -61 -67 -61c-16 0 -30 6 -39 19c-22 0 -40 10 -40 36c0 24 10 46 29 63c-3 1 -7 1 -10 1c-52 -1 -80 -45 -80 -142v-137h108v-73h-108v-347
c0 -136 -106 -198 -232 -198c-84 0 -137 42 -137 100c0 41 36 61 65 61c16 0 31 -6 40 -19c22 0 40 -10 40 -36c0 -24 -10 -45 -29 -63z" />
    <glyph glyph-name="percent" unicode="%" horiz-adv-x="841" 
d="M198 -47h-73l449 684l-4 1c-33 -21 -68 -45 -111 -45c-27 0 -52 5 -75 15c5 -13 8 -39 8 -59c0 -97 -68 -244 -179 -244c-91 0 -153 73 -153 163c0 104 87 236 200 236c95 0 95 -69 197 -69c73 0 137 44 184 97h65zM229 368c74 0 113 106 113 179c0 35 -21 93 -64 93
c-66 0 -103 -109 -103 -188c0 -35 15 -84 54 -84zM598 -12c-89 0 -151 71 -151 158c0 110 86 240 204 240c84 0 130 -69 130 -148c0 -103 -63 -250 -183 -250zM616 50c74 0 113 106 113 179c0 35 -21 93 -64 93c-66 0 -103 -109 -103 -188c0 -35 15 -84 54 -84z" />
    <glyph glyph-name="perthousand" unicode="&#x2030;" horiz-adv-x="1211" 
d="M198 -47h-73l449 684l-4 1c-33 -21 -68 -45 -111 -45c-27 0 -52 5 -75 15c5 -13 8 -39 8 -59c0 -97 -68 -244 -179 -244c-91 0 -153 73 -153 163c0 104 87 236 200 236c95 0 95 -69 197 -69c73 0 137 44 184 97h65zM229 368c74 0 113 106 113 179c0 35 -21 93 -64 93
c-66 0 -103 -109 -103 -188c0 -35 15 -84 54 -84zM598 -12c-89 0 -151 71 -151 158c0 110 86 240 204 240c84 0 130 -69 130 -148c0 -103 -63 -250 -183 -250zM616 50c74 0 113 106 113 179c0 35 -21 93 -64 93c-66 0 -103 -109 -103 -188c0 -35 15 -84 54 -84zM968 -12
c-89 0 -151 71 -151 158c0 110 86 240 204 240c84 0 130 -69 130 -148c0 -103 -63 -250 -183 -250zM986 50c74 0 113 106 113 179c0 35 -21 93 -64 93c-66 0 -103 -109 -103 -188c0 -35 15 -84 54 -84z" />
    <glyph glyph-name="numbersign" unicode="#" horiz-adv-x="570" 
d="M330 0h-48l40 229h-116l-40 -229h-48l40 229h-98v48h106l24 136h-130v48h139l40 229h48l-40 -229h116l40 229h48l-40 -229h99v-48h-108l-24 -136h132v-48h-140zM330 277l24 136h-116l-24 -136h116z" />
    <glyph glyph-name="ordfeminine" unicode="&#xaa;" horiz-adv-x="386" 
d="M363 229h-339v60h339v-60zM376 396v-24c-26 -14 -59 -32 -94 -32c-29 0 -59 12 -65 39c-23 -18 -53 -41 -97 -41c-57 0 -96 35 -96 82c0 65 58 109 191 122v41c0 48 -31 63 -71 64c-11 0 -22 -2 -31 -4c17 -10 28 -27 28 -44c0 -26 -24 -48 -54 -48c-29 0 -57 21 -57 49
c0 50 61 90 164 90c82 0 135 -37 135 -115v-116c0 -48 11 -59 47 -63zM215 408v92l-3 2c-35 0 -72 -12 -72 -56c0 -34 24 -45 48 -45c8 0 19 2 27 7z" />
    <glyph glyph-name="ordmasculine" unicode="&#xba;" horiz-adv-x="435" 
d="M416 516c0 -108 -96 -178 -200 -178c-103 0 -197 69 -197 178c0 110 97 174 198 174s199 -65 199 -174zM217 381c54 0 70 59 70 133c0 83 -22 133 -71 133c-48 0 -69 -50 -69 -132c0 -75 16 -134 70 -134zM403 230h-379v59h379v-59z" />
    <glyph glyph-name="exclam" unicode="!" horiz-adv-x="305" 
d="M174 223h-44c-14 168 -64 288 -64 467h173c0 -179 -51 -299 -65 -467zM244 77c0 -51 -41 -91 -92 -91s-92 40 -92 91s41 91 92 91s92 -40 92 -91z" />
    <glyph glyph-name="question" unicode="?" horiz-adv-x="472" 
d="M255 223h-44c0 158 78 187 78 307c0 86 -54 118 -110 118c-22 0 -45 -3 -63 -12c47 -12 81 -41 81 -88c0 -51 -36 -82 -85 -82c-47 0 -86 27 -86 88c0 90 98 150 215 150c119 0 203 -56 203 -162c0 -89 -60 -142 -121 -196c-46 -41 -66 -67 -68 -123zM324 77
c0 -53 -41 -90 -91 -90s-91 37 -91 90c0 51 41 89 91 89s91 -38 91 -89z" />
    <glyph glyph-name="exclamdown" unicode="&#xa1;" horiz-adv-x="305" 
d="M130 285h44c14 -168 65 -288 65 -467h-173c0 179 50 299 64 467zM244 431c0 -51 -41 -91 -92 -91s-92 40 -92 91s41 91 92 91s92 -40 92 -91z" />
    <glyph glyph-name="questiondown" unicode="&#xbf;" horiz-adv-x="482" 
d="M255 285h44c0 -158 -78 -187 -78 -307c0 -86 54 -118 110 -118c22 0 45 3 63 12c-47 12 -81 41 -81 88c0 51 36 82 85 82c47 0 86 -27 86 -88c0 -90 -98 -150 -215 -150c-119 0 -203 56 -203 162c0 89 60 142 121 196c46 41 66 67 68 123zM186 431c0 53 41 90 91 90
s91 -37 91 -90c0 -51 -41 -89 -91 -89s-91 38 -91 89z" />
    <glyph glyph-name="parenleft" unicode="(" horiz-adv-x="356" 
d="M357 -180h-43c-70 66 -238 262 -238 476c0 159 89 326 238 460h43c-77 -117 -121 -298 -121 -472c0 -169 41 -348 121 -464z" />
    <glyph glyph-name="parenright" unicode=")" horiz-adv-x="356" 
d="M42 -180h-43c80 116 121 295 121 464c0 174 -44 355 -121 472h43c149 -134 238 -301 238 -460c0 -214 -168 -410 -238 -476z" />
    <glyph glyph-name="bracketleft" unicode="[" horiz-adv-x="379" 
d="M336 -140h-243v896h243v-42h-94v-812h94v-42z" />
    <glyph glyph-name="bracketright" unicode="]" horiz-adv-x="379" 
d="M286 -140h-243v42h94v812h-94v42h243v-896z" />
    <glyph glyph-name="braceleft" unicode="{" horiz-adv-x="317" 
d="M309 -130v-14c-126 10 -211 42 -211 182v87c0 93 0 161 -70 171v18c70 10 70 78 70 171v87c0 140 85 172 211 182v-14c-55 -14 -62 -59 -62 -169v-78c0 -121 -71 -163 -166 -188c95 -25 166 -67 166 -188v-78c0 -110 7 -155 62 -169z" />
    <glyph glyph-name="braceright" unicode="}" horiz-adv-x="316" 
d="M8 -144v14c55 14 62 59 62 169v78c0 121 71 163 166 188c-95 25 -166 67 -166 188v78c0 110 -7 155 -62 169v14c126 -10 211 -42 211 -182v-87c0 -93 0 -161 70 -171v-18c-70 -10 -70 -78 -70 -171v-87c0 -140 -85 -172 -211 -182z" />
    <glyph glyph-name="ampersand" unicode="&#x26;" horiz-adv-x="776" 
d="M761 0h-240c-22 17 -33 31 -64 69c-68 -58 -146 -84 -220 -84c-145 0 -207 98 -207 185c0 84 57 137 171 200c-45 57 -57 117 -57 155c0 96 77 179 214 179c110 0 181 -54 181 -138c0 -73 -54 -126 -156 -181l128 -149c19 29 30 55 30 77c0 28 -17 40 -57 46v34h274v-33
c-74 -23 -115 -80 -200 -179c88 -96 135 -136 203 -150v-31zM411 123l-165 194c-40 -25 -61 -50 -61 -94c0 -75 62 -138 131 -138c25 0 60 8 95 38zM340 435c49 33 70 68 70 119c0 60 -30 83 -61 83c-36 0 -63 -30 -63 -76c0 -35 16 -78 54 -126z" />
    <glyph glyph-name="at" unicode="@" horiz-adv-x="822" 
d="M630 -27l5 -7c-47 -37 -129 -77 -211 -77c-199 0 -398 129 -398 339c0 201 177 373 410 373c200 0 365 -127 365 -308c0 -182 -178 -263 -294 -263c-22 0 -51 2 -51 27c0 9 1 20 4 35l15 72c-50 -88 -101 -134 -147 -134c-61 0 -111 44 -111 140c0 162 118 285 276 285
c32 0 61 -7 82 -13l55 7l4 -2l-51 -325c-1 -8 -2 -14 -2 -19c0 -12 4 -17 10 -17c34 0 126 58 126 195c0 162 -117 268 -272 268c-178 0 -300 -151 -300 -321c0 -206 148 -297 308 -297c56 0 133 16 177 42zM479 221l6 10l27 179c-6 1 -17 2 -25 2
c-98 0 -148 -126 -148 -234c0 -49 14 -70 34 -70c26 0 68 46 106 113z" />
    <glyph glyph-name="slash" unicode="/" horiz-adv-x="413" 
d="M92 -15h-89l318 719h89z" />
    <glyph glyph-name="backslash" unicode="\" horiz-adv-x="413" 
d="M410 -11h-79l-328 711h79z" />
    <glyph glyph-name="asterisk" unicode="*" horiz-adv-x="395" 
d="M339 415l-86 -62l-56 140l-56 -140l-86 61l122 93l-157 17l35 98l133 -90l-41 158h104l-43 -158l134 90l33 -98l-157 -17z" />
    <glyph glyph-name="quoteleft" unicode="&#x2018;" horiz-adv-x="210" 
d="M149 704h38c-32 -45 -46 -82 -46 -115c0 -39 40 -45 40 -96c0 -42 -35 -74 -75 -74c-49 0 -82 39 -82 88c0 75 73 151 125 197z" />
    <glyph glyph-name="quoteright" unicode="&#x2019;" horiz-adv-x="210" 
d="M59 419h-38c32 45 46 82 46 115c0 39 -40 45 -40 96c0 42 35 74 75 74c49 0 82 -39 82 -88c0 -75 -73 -151 -125 -197z" />
    <glyph glyph-name="quotedblleft" unicode="&#x201c;" horiz-adv-x="410" 
d="M149 704h38c-32 -45 -46 -82 -46 -115c0 -39 40 -45 40 -96c0 -42 -35 -74 -75 -74c-49 0 -82 39 -82 88c0 75 73 151 125 197zM348 704h38c-32 -45 -46 -82 -46 -115c0 -39 40 -45 40 -96c0 -42 -35 -74 -75 -74c-49 0 -82 39 -82 88c0 75 73 151 125 197z" />
    <glyph glyph-name="quotedblright" unicode="&#x201d;" horiz-adv-x="410" 
d="M59 419h-38c32 45 46 82 46 115c0 39 -40 45 -40 96c0 42 35 74 75 74c49 0 82 -39 82 -88c0 -75 -73 -151 -125 -197zM258 419h-38c32 45 46 82 46 115c0 39 -40 45 -40 96c0 42 35 74 75 74c49 0 82 -39 82 -88c0 -75 -73 -151 -125 -197z" />
    <glyph glyph-name="agrave.smcp" horiz-adv-x="608" 
d="M400 563l-209 75l46 85l178 -131zM606 0h-277v31c34 7 52 13 52 44c0 18 -12 62 -27 105h-158c-12 -38 -19 -70 -19 -92c0 -42 22 -50 56 -57v-31h-231v31c42 13 70 38 111 157l112 322h176l119 -357c29 -87 48 -107 86 -122v-31zM336 245l-54 192h-5l-60 -192h119z" />
    <glyph glyph-name="aacute.smcp" horiz-adv-x="608" 
d="M415 638l-209 -75l-15 29l178 131zM606 0h-277v31c34 7 52 13 52 44c0 18 -12 62 -27 105h-158c-12 -38 -19 -70 -19 -92c0 -42 22 -50 56 -57v-31h-231v31c42 13 70 38 111 157l112 322h176l119 -357c29 -87 48 -107 86 -122v-31zM336 245l-54 192h-5l-60 -192h119z" />
    <glyph glyph-name="acircumflex.smcp" horiz-adv-x="608" 
d="M606 0h-277v31c34 7 52 13 52 44c0 18 -12 62 -27 105h-158c-12 -38 -19 -70 -19 -92c0 -42 22 -50 56 -57v-31h-231v31c42 13 70 38 111 157l112 322h176l119 -357c29 -87 48 -107 86 -122v-31zM336 245l-54 192h-5l-60 -192h119zM434 568h-18l-113 53l-112 -53h-18
l91 136h77z" />
    <glyph glyph-name="atilde.smcp" horiz-adv-x="608" 
d="M433 692l20 -2c-5 -18 -36 -116 -91 -116c-54 0 -99 30 -136 30c-31 0 -37 -14 -52 -35l-20 2c5 18 36 115 91 115c53 0 92 -29 136 -29c31 0 37 14 52 35zM606 0h-277v31c34 7 52 13 52 44c0 18 -12 62 -27 105h-158c-12 -38 -19 -70 -19 -92c0 -42 22 -50 56 -57v-31
h-231v31c42 13 70 38 111 157l112 322h176l119 -357c29 -87 48 -107 86 -122v-31zM336 245l-54 192h-5l-60 -192h119z" />
    <glyph glyph-name="adieresis.smcp" horiz-adv-x="608" 
d="M606 0h-277v31c34 7 52 13 52 44c0 18 -12 62 -27 105h-158c-12 -38 -19 -70 -19 -92c0 -42 22 -50 56 -57v-31h-231v31c42 13 70 38 111 157l112 322h176l119 -357c29 -87 48 -107 86 -122v-31zM336 245l-54 192h-5l-60 -192h119zM215 568c-39 0 -71 32 -71 71
s32 70 71 70c40 0 71 -31 71 -70s-31 -71 -71 -71zM463 639c0 -39 -32 -71 -72 -71c-39 0 -70 32 -70 71s31 70 70 70c40 0 72 -31 72 -70z" />
    <glyph glyph-name="aring.smcp" horiz-adv-x="608" 
d="M606 0h-277v31c34 7 52 13 52 44c0 18 -12 62 -27 105h-158c-12 -38 -19 -70 -19 -92c0 -42 22 -50 56 -57v-31h-231v31c42 13 70 38 111 157l108 311c-23 23 -36 53 -36 87c0 68 58 124 126 124s126 -56 126 -124c0 -32 -13 -62 -34 -83l117 -350
c29 -87 48 -107 86 -122v-31zM311 526c32 0 58 28 58 60s-26 60 -58 60s-58 -28 -58 -60s26 -60 58 -60zM336 245l-54 191h-4l-61 -191h119z" />
    <glyph glyph-name="amacron.smcp" horiz-adv-x="608" 
d="M606 0h-277v31c34 7 52 13 52 44c0 18 -12 62 -27 105h-158c-12 -38 -19 -70 -19 -92c0 -42 22 -50 56 -57v-31h-231v31c42 13 70 38 111 157l112 322h176l119 -357c29 -87 48 -107 86 -122v-31zM336 245l-54 192h-5l-60 -192h119zM433 602h-260v58h260v-58z" />
    <glyph glyph-name="abreve.smcp" horiz-adv-x="608" 
d="M404 704h26c-10 -75 -56 -138 -127 -138s-117 63 -127 138h26c20 -46 63 -61 101 -61s81 15 101 61zM606 0h-277v31c34 7 52 13 52 44c0 18 -12 62 -27 105h-158c-12 -38 -19 -70 -19 -92c0 -42 22 -50 56 -57v-31h-231v31c42 13 70 38 111 157l112 322h176l119 -357
c29 -87 48 -107 86 -122v-31zM336 245l-54 192h-5l-60 -192h119z" />
    <glyph glyph-name="aogonek.smcp" horiz-adv-x="608" 
d="M507 -168v-14c-12 -15 -45 -40 -77 -40c-53 0 -80 29 -80 70c0 68 91 122 145 152h-166v31c34 7 52 13 52 44c0 18 -12 62 -27 105h-158c-12 -38 -19 -70 -19 -92c0 -42 22 -50 56 -57v-31h-231v31c42 13 70 38 111 157l112 322h176l119 -357c29 -87 48 -107 86 -122v-31
h-96c-31 -40 -70 -90 -70 -136c0 -23 17 -35 45 -35c5 0 16 1 22 3zM336 245l-54 192h-5l-60 -192h119z" />
    <glyph glyph-name="ccedilla.smcp" horiz-adv-x="586" 
d="M251 -209l8 29c24 -7 40 -9 55 -9c33 0 52 20 52 41c0 32 -51 52 -86 53l62 84c-175 6 -302 88 -302 260c0 192 161 272 326 272c58 0 140 -18 177 -35v-112h-39c-38 68 -95 95 -147 95c-85 0 -152 -52 -152 -211c0 -161 68 -216 163 -216c52 0 106 14 149 105h43
l-11 -123c-34 -17 -101 -32 -160 -35l-25 -40c38 -4 86 -34 86 -86c0 -56 -57 -85 -116 -85c-34 0 -63 5 -83 13z" />
    <glyph glyph-name="cacute.smcp" horiz-adv-x="586" 
d="M453 638l-209 -75l-15 29l178 131zM560 147l-11 -123c-38 -19 -119 -36 -183 -36c-187 0 -326 82 -326 261c0 192 161 272 326 272c58 0 140 -18 177 -35v-112h-39c-38 68 -95 95 -147 95c-85 0 -152 -52 -152 -211c0 -161 68 -216 163 -216c52 0 106 14 149 105h43z" />
    <glyph glyph-name="ccircumflex.smcp" horiz-adv-x="586" 
d="M560 147l-11 -123c-38 -19 -119 -36 -183 -36c-187 0 -326 82 -326 261c0 192 161 272 326 272c58 0 140 -18 177 -35v-112h-39c-38 68 -95 95 -147 95c-85 0 -152 -52 -152 -211c0 -161 68 -216 163 -216c52 0 106 14 149 105h43zM471 568h-18l-113 53l-112 -53h-18
l91 136h77z" />
    <glyph glyph-name="cdotaccent.smcp" horiz-adv-x="586" 
d="M560 147l-11 -123c-38 -19 -119 -36 -183 -36c-187 0 -326 82 -326 261c0 192 161 272 326 272c58 0 140 -18 177 -35v-112h-39c-38 68 -95 95 -147 95c-85 0 -152 -52 -152 -211c0 -161 68 -216 163 -216c52 0 106 14 149 105h43zM426 639c0 -41 -34 -75 -76 -75
c-41 0 -75 34 -75 75s34 75 75 75c42 0 76 -34 76 -75z" />
    <glyph glyph-name="ccaron.smcp" horiz-adv-x="586" 
d="M387 568h-77l-91 136h18l112 -53l113 53h18zM560 147l-11 -123c-38 -19 -119 -36 -183 -36c-187 0 -326 82 -326 261c0 192 161 272 326 272c58 0 140 -18 177 -35v-112h-39c-38 68 -95 95 -147 95c-85 0 -152 -52 -152 -211c0 -161 68 -216 163 -216
c52 0 106 14 149 105h43z" />
    <glyph glyph-name="dcaron.smcp" horiz-adv-x="657" 
d="M348 568h-77l-91 136h18l112 -53l113 53h18zM298 0h-272v31c54 23 63 25 63 96v256c0 71 -9 73 -63 96v31h280c167 0 311 -76 311 -242s-141 -268 -319 -268zM247 53h50c102 0 156 88 156 206c0 127 -62 198 -149 198h-57v-404z" />
    <glyph glyph-name="dcroat.smcp" horiz-adv-x="657" 
d="M298 0h-272v31c54 23 63 25 63 96v105h-54v54h54v97c0 71 -9 73 -63 96v31h280c167 0 311 -76 311 -242s-141 -268 -319 -268zM247 53h50c102 0 156 88 156 206c0 127 -62 198 -149 198h-57v-171h75v-54h-75v-179z" />
    <glyph glyph-name="egrave.smcp" horiz-adv-x="488" 
d="M334 563l-209 75l46 85l178 -131zM449 0h-423v31c54 23 63 25 63 96v256c0 71 -9 73 -63 96v31h404v-117h-37c-51 65 -53 65 -98 65h-48v-171h46c27 0 41 10 72 50h34v-149h-34c-31 39 -45 48 -72 48h-46v-183h49c63 0 65 3 132 76h37z" />
    <glyph glyph-name="eacute.smcp" horiz-adv-x="488" 
d="M359 638l-209 -75l-15 29l178 131zM449 0h-423v31c54 23 63 25 63 96v256c0 71 -9 73 -63 96v31h404v-117h-37c-51 65 -53 65 -98 65h-48v-171h46c27 0 41 10 72 50h34v-149h-34c-31 39 -45 48 -72 48h-46v-183h49c63 0 65 3 132 76h37z" />
    <glyph glyph-name="ecircumflex.smcp" horiz-adv-x="488" 
d="M449 0h-423v31c54 23 63 25 63 96v256c0 71 -9 73 -63 96v31h404v-117h-37c-51 65 -53 65 -98 65h-48v-171h46c27 0 41 10 72 50h34v-149h-34c-31 39 -45 48 -72 48h-46v-183h49c63 0 65 3 132 76h37zM374 568h-18l-113 53l-112 -53h-18l91 136h77z" />
    <glyph glyph-name="edieresis.smcp" horiz-adv-x="488" 
d="M449 0h-423v31c54 23 63 25 63 96v256c0 71 -9 73 -63 96v31h404v-117h-37c-51 65 -53 65 -98 65h-48v-171h46c27 0 41 10 72 50h34v-149h-34c-31 39 -45 48 -72 48h-46v-183h49c63 0 65 3 132 76h37zM154 568c-39 0 -71 32 -71 71s32 70 71 70c40 0 71 -31 71 -70
s-31 -71 -71 -71zM402 639c0 -39 -32 -71 -72 -71c-39 0 -70 32 -70 71s31 70 70 70c40 0 72 -31 72 -70z" />
    <glyph glyph-name="emacron.smcp" horiz-adv-x="488" 
d="M449 0h-423v31c54 23 63 25 63 96v256c0 71 -9 73 -63 96v31h404v-117h-37c-51 65 -53 65 -98 65h-48v-171h46c27 0 41 10 72 50h34v-149h-34c-31 39 -45 48 -72 48h-46v-183h49c63 0 65 3 132 76h37zM375 602h-260v58h260v-58z" />
    <glyph glyph-name="ebreve.smcp" horiz-adv-x="488" 
d="M351 704h26c-10 -75 -56 -138 -127 -138s-117 63 -127 138h26c20 -46 63 -61 101 -61s81 15 101 61zM449 0h-423v31c54 23 63 25 63 96v256c0 71 -9 73 -63 96v31h404v-117h-37c-51 65 -53 65 -98 65h-48v-171h46c27 0 41 10 72 50h34v-149h-34c-31 39 -45 48 -72 48h-46
v-183h49c63 0 65 3 132 76h37z" />
    <glyph glyph-name="edotaccent.smcp" horiz-adv-x="488" 
d="M449 0h-423v31c54 23 63 25 63 96v256c0 71 -9 73 -63 96v31h404v-117h-37c-51 65 -53 65 -98 65h-48v-171h46c27 0 41 10 72 50h34v-149h-34c-31 39 -45 48 -72 48h-46v-183h49c63 0 65 3 132 76h37zM317 639c0 -41 -34 -75 -76 -75c-41 0 -75 34 -75 75s34 75 75 75
c42 0 76 -34 76 -75z" />
    <glyph glyph-name="eogonek.smcp" horiz-adv-x="488" 
d="M349 -168v-14c-12 -15 -45 -40 -77 -40c-53 0 -80 29 -80 70c0 68 91 122 145 152h-311v31c54 23 63 25 63 96v256c0 71 -9 73 -63 96v31h404v-117h-37c-51 65 -53 65 -98 65h-48v-171h46c27 0 41 10 72 50h34v-149h-34c-31 39 -45 48 -72 48h-46v-183h49
c63 0 65 3 132 76h37l-16 -129h-97c-31 -40 -70 -90 -70 -136c0 -23 17 -35 45 -35c5 0 16 1 22 3z" />
    <glyph glyph-name="ecaron.smcp" horiz-adv-x="488" 
d="M282 568h-77l-91 136h18l112 -53l113 53h18zM449 0h-423v31c54 23 63 25 63 96v256c0 71 -9 73 -63 96v31h404v-117h-37c-51 65 -53 65 -98 65h-48v-171h46c27 0 41 10 72 50h34v-149h-34c-31 39 -45 48 -72 48h-46v-183h49c63 0 65 3 132 76h37z" />
    <glyph glyph-name="gcircumflex.smcp" horiz-adv-x="627" 
d="M565 151v-125c-60 -22 -157 -38 -222 -38c-161 0 -303 78 -303 264c0 194 174 269 325 269c70 0 162 -20 193 -34v-127h-36c-45 77 -109 108 -160 108c-90 0 -158 -59 -158 -207c0 -162 72 -220 164 -220c15 0 31 2 47 7v102c0 44 -8 60 -51 77v30h243v-29
c-35 -17 -42 -21 -42 -77zM486 568h-18l-113 53l-112 -53h-18l91 136h77z" />
    <glyph glyph-name="gbreve.smcp" horiz-adv-x="627" 
d="M443 704h26c-10 -75 -56 -138 -127 -138s-117 63 -127 138h26c20 -46 63 -61 101 -61s81 15 101 61zM565 151v-125c-60 -22 -157 -38 -222 -38c-161 0 -303 78 -303 264c0 194 174 269 325 269c70 0 162 -20 193 -34v-127h-36c-45 77 -109 108 -160 108
c-90 0 -158 -59 -158 -207c0 -162 72 -220 164 -220c15 0 31 2 47 7v102c0 44 -8 60 -51 77v30h243v-29c-35 -17 -42 -21 -42 -77z" />
    <glyph glyph-name="gdotaccent.smcp" horiz-adv-x="627" 
d="M565 151v-125c-60 -22 -157 -38 -222 -38c-161 0 -303 78 -303 264c0 194 174 269 325 269c70 0 162 -20 193 -34v-127h-36c-45 77 -109 108 -160 108c-90 0 -158 -59 -158 -207c0 -162 72 -220 164 -220c15 0 31 2 47 7v102c0 44 -8 60 -51 77v30h243v-29
c-35 -17 -42 -21 -42 -77zM430 639c0 -41 -34 -75 -76 -75c-41 0 -75 34 -75 75s34 75 75 75c42 0 76 -34 76 -75z" />
    <glyph glyph-name="gcommaaccent.smcp" horiz-adv-x="627" 
d="M565 151v-125c-60 -22 -157 -38 -222 -38c-161 0 -303 78 -303 264c0 194 174 269 325 269c70 0 162 -20 193 -34v-127h-36c-45 77 -109 108 -160 108c-90 0 -158 -59 -158 -207c0 -162 72 -220 164 -220c15 0 31 2 47 7v102c0 44 -8 60 -51 77v30h243v-29
c-35 -17 -42 -21 -42 -77zM286 -296l-10 10c24 31 34 54 34 81c0 28 -32 39 -32 81c0 39 34 65 67 65c40 0 70 -29 70 -76c0 -64 -70 -126 -129 -161z" />
    <glyph glyph-name="hcircumflex.smcp" horiz-adv-x="666" 
d="M640 0h-284v31c54 23 63 25 63 96v104h-172v-104c0 -71 9 -73 63 -96v-31h-284v31c54 23 63 25 63 96v256c0 71 -9 73 -63 96v31h284v-31c-54 -23 -63 -25 -63 -96v-93h172v93c0 71 -9 73 -63 96v31h284v-31c-54 -23 -63 -25 -63 -96v-256c0 -71 9 -73 63 -96v-31z
M464 568h-18l-113 53l-112 -53h-18l91 136h77z" />
    <glyph glyph-name="hbar.smcp" horiz-adv-x="666" 
d="M640 0h-284v31c54 23 63 25 63 96v64h-172v-64c0 -71 9 -73 63 -96v-31h-284v31c54 23 63 25 63 96v191h-54v56h54v9c0 71 -9 73 -63 96v31h284v-31c-54 -23 -63 -25 -63 -96v-9h172v9c0 71 -9 73 -63 96v31h284v-31c-54 -23 -63 -25 -63 -96v-9h58v-56h-58v-191
c0 -71 9 -73 63 -96v-31zM419 250v68h-172v-68h172z" />
    <glyph glyph-name="igrave.smcp" horiz-adv-x="341" 
d="M272 563l-209 75l46 85l178 -131zM315 0h-289v31c54 23 63 25 63 96v256c0 71 -9 73 -63 96v31h289v-31c-54 -23 -63 -25 -63 -96v-256c0 -71 9 -73 63 -96v-31z" />
    <glyph glyph-name="iacute.smcp" horiz-adv-x="341" 
d="M282 638l-209 -75l-15 29l178 131zM315 0h-289v31c54 23 63 25 63 96v256c0 71 -9 73 -63 96v31h289v-31c-54 -23 -63 -25 -63 -96v-256c0 -71 9 -73 63 -96v-31z" />
    <glyph glyph-name="icircumflex.smcp" horiz-adv-x="341" 
d="M315 0h-289v31c54 23 63 25 63 96v256c0 71 -9 73 -63 96v31h289v-31c-54 -23 -63 -25 -63 -96v-256c0 -71 9 -73 63 -96v-31zM301 568h-18l-113 53l-112 -53h-18l91 136h77z" />
    <glyph glyph-name="idieresis.smcp" horiz-adv-x="341" 
d="M315 0h-289v31c54 23 63 25 63 96v256c0 71 -9 73 -63 96v31h289v-31c-54 -23 -63 -25 -63 -96v-256c0 -71 9 -73 63 -96v-31zM83 568c-39 0 -71 32 -71 71s32 70 71 70c40 0 71 -31 71 -70s-31 -71 -71 -71zM331 639c0 -39 -32 -71 -72 -71c-39 0 -70 32 -70 71
s31 70 70 70c40 0 72 -31 72 -70z" />
    <glyph glyph-name="itilde.smcp" horiz-adv-x="341" 
d="M300 692l20 -2c-5 -18 -36 -116 -91 -116c-54 0 -99 30 -136 30c-31 0 -37 -14 -52 -35l-20 2c5 18 36 115 91 115c53 0 92 -29 136 -29c31 0 37 14 52 35zM315 0h-289v31c54 23 63 25 63 96v256c0 71 -9 73 -63 96v31h289v-31c-54 -23 -63 -25 -63 -96v-256
c0 -71 9 -73 63 -96v-31z" />
    <glyph glyph-name="imacron.smcp" horiz-adv-x="341" 
d="M315 0h-289v31c54 23 63 25 63 96v256c0 71 -9 73 -63 96v31h289v-31c-54 -23 -63 -25 -63 -96v-256c0 -71 9 -73 63 -96v-31zM300 602h-260v58h260v-58z" />
    <glyph glyph-name="ibreve.smcp" horiz-adv-x="341" 
d="M271 704h26c-10 -75 -56 -138 -127 -138s-117 63 -127 138h26c20 -46 63 -61 101 -61s81 15 101 61zM315 0h-289v31c54 23 63 25 63 96v256c0 71 -9 73 -63 96v31h289v-31c-54 -23 -63 -25 -63 -96v-256c0 -71 9 -73 63 -96v-31z" />
    <glyph glyph-name="iogonek.smcp" horiz-adv-x="341" 
d="M209 -168v-14c-12 -15 -45 -40 -77 -40c-53 0 -80 29 -80 70c0 68 91 122 145 152h-171v31c54 23 63 25 63 96v256c0 71 -9 73 -63 96v31h289v-31c-54 -23 -63 -25 -63 -96v-256c0 -71 9 -73 63 -96v-31h-103c-31 -40 -70 -90 -70 -136c0 -23 17 -35 45 -35
c5 0 16 1 22 3z" />
    <glyph glyph-name="idotaccent.smcp" horiz-adv-x="341" 
d="M315 0h-289v31c54 23 63 25 63 96v256c0 71 -9 73 -63 96v31h289v-31c-54 -23 -63 -25 -63 -96v-256c0 -71 9 -73 63 -96v-31zM246 639c0 -41 -34 -75 -76 -75c-41 0 -75 34 -75 75s34 75 75 75c42 0 76 -34 76 -75z" />
    <glyph glyph-name="ij.smcp" horiz-adv-x="657" 
d="M315 0h-289v31c54 23 63 25 63 96v256c0 71 -9 73 -63 96v31h289v-31c-54 -23 -63 -25 -63 -96v-256c0 -71 9 -73 63 -96v-31zM362 -161l-13 27c40 26 68 85 68 147v370c0 71 -9 73 -63 96v31h284v-31c-54 -23 -63 -25 -63 -96v-327c0 -111 -130 -194 -213 -217z" />
    <glyph glyph-name="jcircumflex.smcp" horiz-adv-x="327" 
d="M34 -161l-13 27c40 26 68 85 68 147v370c0 71 -9 73 -63 96v31h284v-31c-54 -23 -63 -25 -63 -96v-327c0 -111 -130 -194 -213 -217zM297 568h-18l-113 53l-112 -53h-18l91 136h77z" />
    <glyph glyph-name="kcommaaccent.smcp" horiz-adv-x="607" 
d="M615 0h-278v31c26 4 37 14 37 31c0 13 -8 28 -22 54l-61 107l-44 -45v-51c0 -71 9 -73 63 -96v-31h-284v31c54 23 63 25 63 96v256c0 71 -9 73 -63 96v31h284v-31c-54 -23 -63 -25 -63 -96v-130l111 133c25 30 38 48 38 63c0 17 -15 26 -46 30v31h244v-31
c-54 -19 -75 -20 -145 -98l-52 -58l122 -206c35 -60 56 -77 96 -86v-31zM248 -296l-10 10c24 31 34 54 34 81c0 28 -32 39 -32 81c0 39 34 65 67 65c40 0 70 -29 70 -76c0 -64 -70 -126 -129 -161z" />
    <glyph glyph-name="kgreenlandic.smcp" horiz-adv-x="641" 
d="M615 0h-278v31c26 4 37 14 37 31c0 13 -8 28 -22 54l-61 107l-44 -45v-51c0 -71 9 -73 63 -96v-31h-284v31c54 23 63 25 63 96v256c0 71 -9 73 -63 96v31h284v-31c-54 -23 -63 -25 -63 -96v-130l111 133c25 30 38 48 38 63c0 17 -15 26 -46 30v31h244v-31
c-54 -19 -75 -20 -145 -98l-52 -58l122 -206c35 -60 56 -77 96 -86v-31zM692 522l9 -10c-23 -31 -33 -54 -33 -81c0 -28 31 -39 31 -81c0 -39 -33 -65 -66 -65c-40 0 -71 29 -71 76c0 64 71 126 130 161z" />
    <glyph glyph-name="lacute.smcp" horiz-adv-x="467" 
d="M295 638l-209 -75l-15 29l178 131zM439 0h-413v31c54 23 63 25 63 96v256c0 71 -9 73 -63 96v31h284v-31c-54 -23 -63 -25 -63 -96v-330h44c54 0 57 4 122 84h41z" />
    <glyph glyph-name="lcommaaccent.smcp" horiz-adv-x="467" 
d="M439 0h-413v31c54 23 63 25 63 96v256c0 71 -9 73 -63 96v31h284v-31c-54 -23 -63 -25 -63 -96v-330h44c54 0 57 4 122 84h41zM199 -296l-10 10c24 31 34 54 34 81c0 28 -32 39 -32 81c0 39 34 65 67 65c40 0 70 -29 70 -76c0 -64 -70 -126 -129 -161z" />
    <glyph glyph-name="lcaron.smcp" horiz-adv-x="467" 
d="M439 0h-413v31c54 23 63 25 63 96v256c0 71 -9 73 -63 96v31h284v-31c-54 -23 -63 -25 -63 -96v-330h44c54 0 57 4 122 84h41zM334 284l-10 10c24 31 34 55 34 82c0 28 -32 40 -32 82c0 39 34 65 67 65c40 0 70 -29 70 -76c0 -64 -70 -128 -129 -163z" />
    <glyph glyph-name="ldot.smcp" horiz-adv-x="341" 
d="M315 0h-289v31c54 23 63 25 63 96v256c0 71 -9 73 -63 96v31h289v-31c-54 -23 -63 -25 -63 -96v-256c0 -71 9 -73 63 -96v-31zM246 639c0 -41 -34 -75 -76 -75c-41 0 -75 34 -75 75s34 75 75 75c42 0 76 -34 76 -75z" />
    <glyph glyph-name="lslash.smcp" horiz-adv-x="467" 
d="M439 0h-413v31c54 23 63 25 63 96v53l-55 -19v55l55 19v148c0 71 -9 73 -63 96v31h284v-31c-54 -23 -63 -25 -63 -96v-93l72 25v-56l-72 -25v-181h44c54 0 57 4 122 84h41z" />
    <glyph glyph-name="ntilde.smcp" horiz-adv-x="663" 
d="M465 692l20 -2c-5 -18 -36 -116 -91 -116c-54 0 -99 30 -136 30c-31 0 -37 -14 -52 -35l-20 2c5 18 36 115 91 115c53 0 92 -29 136 -29c31 0 37 14 52 35zM574 -4h-104l-297 363v-202c0 -91 9 -103 63 -126v-31h-214v31c54 23 63 35 63 126v196c0 91 -9 103 -63 126v31
h209l255 -311v154c0 91 -9 103 -63 126v31h214v-31c-54 -23 -63 -35 -63 -126v-357z" />
    <glyph glyph-name="nacute.smcp" horiz-adv-x="663" 
d="M456 638l-209 -75l-15 29l178 131zM574 -4h-104l-297 363v-202c0 -91 9 -103 63 -126v-31h-214v31c54 23 63 35 63 126v196c0 91 -9 103 -63 126v31h209l255 -311v154c0 91 -9 103 -63 126v31h214v-31c-54 -23 -63 -35 -63 -126v-357z" />
    <glyph glyph-name="ncommaaccent.smcp" horiz-adv-x="663" 
d="M574 -4h-104l-297 363v-202c0 -91 9 -103 63 -126v-31h-214v31c54 23 63 35 63 126v196c0 91 -9 103 -63 126v31h209l255 -311v154c0 91 -9 103 -63 126v31h214v-31c-54 -23 -63 -35 -63 -126v-357zM268 -296l-10 10c24 31 34 54 34 81c0 28 -32 39 -32 81
c0 39 34 65 67 65c40 0 70 -29 70 -76c0 -64 -70 -126 -129 -161z" />
    <glyph glyph-name="ncaron.smcp" horiz-adv-x="663" 
d="M370 568h-77l-91 136h18l112 -53l113 53h18zM574 -4h-104l-297 363v-202c0 -91 9 -103 63 -126v-31h-214v31c54 23 63 35 63 126v196c0 91 -9 103 -63 126v31h209l255 -311v154c0 91 -9 103 -63 126v31h214v-31c-54 -23 -63 -35 -63 -126v-357z" />
    <glyph glyph-name="napostrophe.smcp" horiz-adv-x="663" 
d="M574 -4h-104l-297 363v-202c0 -91 9 -103 63 -126v-31h-214v31c54 23 63 35 63 126v196c0 91 -9 103 -63 126v31h209l255 -311v154c0 91 -9 103 -63 126v31h214v-31c-54 -23 -63 -35 -63 -126v-357zM79 534l-10 10c24 31 34 55 34 82c0 28 -32 40 -32 82
c0 39 34 65 67 65c40 0 70 -29 70 -76c0 -64 -70 -128 -129 -163z" />
    <glyph glyph-name="ograve.smcp" horiz-adv-x="682" 
d="M440 563l-209 75l46 85l178 -131zM341 42c86 0 137 76 137 216c0 137 -49 211 -137 211s-137 -70 -137 -211c0 -140 50 -216 137 -216zM642 258c0 -180 -147 -270 -301 -270c-157 0 -301 90 -301 270c0 175 148 263 301 263c152 0 301 -88 301 -263z" />
    <glyph glyph-name="oacute.smcp" horiz-adv-x="682" 
d="M455 638l-209 -75l-15 29l178 131zM341 42c86 0 137 76 137 216c0 137 -49 211 -137 211s-137 -70 -137 -211c0 -140 50 -216 137 -216zM642 258c0 -180 -147 -270 -301 -270c-157 0 -301 90 -301 270c0 175 148 263 301 263c152 0 301 -88 301 -263z" />
    <glyph glyph-name="ocircumflex.smcp" horiz-adv-x="682" 
d="M341 42c86 0 137 76 137 216c0 137 -49 211 -137 211s-137 -70 -137 -211c0 -140 50 -216 137 -216zM642 258c0 -180 -147 -270 -301 -270c-157 0 -301 90 -301 270c0 175 148 263 301 263c152 0 301 -88 301 -263zM474 568h-18l-113 53l-112 -53h-18l91 136h77z" />
    <glyph glyph-name="otilde.smcp" horiz-adv-x="682" 
d="M473 692l20 -2c-5 -18 -36 -116 -91 -116c-54 0 -99 30 -136 30c-31 0 -37 -14 -52 -35l-20 2c5 18 36 115 91 115c53 0 92 -29 136 -29c31 0 37 14 52 35zM341 42c86 0 137 76 137 216c0 137 -49 211 -137 211s-137 -70 -137 -211c0 -140 50 -216 137 -216zM642 258
c0 -180 -147 -270 -301 -270c-157 0 -301 90 -301 270c0 175 148 263 301 263c152 0 301 -88 301 -263z" />
    <glyph glyph-name="odieresis.smcp" horiz-adv-x="682" 
d="M341 42c86 0 137 76 137 216c0 137 -49 211 -137 211s-137 -70 -137 -211c0 -140 50 -216 137 -216zM642 258c0 -180 -147 -270 -301 -270c-157 0 -301 90 -301 270c0 175 148 263 301 263c152 0 301 -88 301 -263zM255 568c-39 0 -71 32 -71 71s32 70 71 70
c40 0 71 -31 71 -70s-31 -71 -71 -71zM503 639c0 -39 -32 -71 -72 -71c-39 0 -70 32 -70 71s31 70 70 70c40 0 72 -31 72 -70z" />
    <glyph glyph-name="oslash.smcp" horiz-adv-x="682" 
d="M158 -51l-50 36l42 57c-66 44 -110 116 -110 216c0 175 148 264 301 264c48 0 98 -10 141 -29l47 64l51 -34l-43 -60c63 -44 105 -112 105 -205c0 -180 -147 -270 -301 -270c-48 0 -94 9 -135 25zM220 137l213 290c-23 27 -54 42 -92 42c-88 0 -137 -70 -137 -211
c0 -48 5 -88 16 -121zM464 365l-210 -287c22 -24 51 -36 87 -36c86 0 137 76 137 216c0 41 -5 77 -14 107z" />
    <glyph glyph-name="omacron.smcp" horiz-adv-x="682" 
d="M473 602h-260v58h260v-58zM341 42c86 0 137 76 137 216c0 137 -49 211 -137 211s-137 -70 -137 -211c0 -140 50 -216 137 -216zM642 258c0 -180 -147 -270 -301 -270c-157 0 -301 90 -301 270c0 175 148 263 301 263c152 0 301 -88 301 -263z" />
    <glyph glyph-name="obreve.smcp" horiz-adv-x="682" 
d="M444 704h26c-10 -75 -56 -138 -127 -138s-117 63 -127 138h26c20 -46 63 -61 101 -61s81 15 101 61zM341 42c86 0 137 76 137 216c0 137 -49 211 -137 211s-137 -70 -137 -211c0 -140 50 -216 137 -216zM642 258c0 -180 -147 -270 -301 -270c-157 0 -301 90 -301 270
c0 175 148 263 301 263c152 0 301 -88 301 -263z" />
    <glyph glyph-name="ohungarumlaut.smcp" horiz-adv-x="682" 
d="M341 42c86 0 137 76 137 216c0 137 -49 211 -137 211s-137 -70 -137 -211c0 -140 50 -216 137 -216zM642 258c0 -180 -147 -270 -301 -270c-157 0 -301 90 -301 270c0 175 148 263 301 263c152 0 301 -88 301 -263zM240 568h-34c16 20 43 100 48 122h99
c-22 -46 -60 -86 -113 -122zM364 568h-29c16 20 43 100 48 122h99c-22 -46 -65 -86 -118 -122z" />
    <glyph glyph-name="racute.smcp" horiz-adv-x="583" 
d="M424 638l-209 -75l-15 29l178 131zM247 265h22c42 0 95 18 95 100c0 62 -34 92 -70 92h-47v-192zM600 0h-118c-87 0 -101 6 -156 117l-48 97h-31v-87c0 -71 3 -73 57 -96v-31h-278v31c54 23 63 25 63 96v256c0 71 -9 73 -63 96v31h267c160 0 229 -49 229 -142
c0 -69 -67 -107 -105 -122l76 -122c52 -84 76 -87 107 -93v-31z" />
    <glyph glyph-name="rcommaaccent.smcp" horiz-adv-x="583" 
d="M247 265h22c42 0 95 18 95 100c0 62 -34 92 -70 92h-47v-192zM600 0h-118c-87 0 -101 6 -156 117l-48 97h-31v-87c0 -71 3 -73 57 -96v-31h-278v31c54 23 63 25 63 96v256c0 71 -9 73 -63 96v31h267c160 0 229 -49 229 -142c0 -69 -67 -107 -105 -122l76 -122
c52 -84 76 -87 107 -93v-31zM227 -296l-10 10c24 31 34 54 34 81c0 28 -32 39 -32 81c0 39 34 65 67 65c40 0 70 -29 70 -76c0 -64 -70 -126 -129 -161z" />
    <glyph glyph-name="rcaron.smcp" horiz-adv-x="583" 
d="M328 568h-77l-91 136h18l112 -53l113 53h18zM247 265h22c42 0 95 18 95 100c0 62 -34 92 -70 92h-47v-192zM600 0h-118c-87 0 -101 6 -156 117l-48 97h-31v-87c0 -71 3 -73 57 -96v-31h-278v31c54 23 63 25 63 96v256c0 71 -9 73 -63 96v31h267c160 0 229 -49 229 -142
c0 -69 -67 -107 -105 -122l76 -122c52 -84 76 -87 107 -93v-31z" />
    <glyph glyph-name="sacute.smcp" horiz-adv-x="446" 
d="M361 638l-209 -75l-15 29l178 131zM40 21l-7 133h44c44 -74 83 -108 134 -108c40 0 72 23 72 60c0 95 -245 93 -245 253c0 95 87 163 193 163c49 0 113 -11 152 -26v-109h-39c-43 54 -74 76 -115 76c-34 0 -63 -20 -63 -50c0 -96 252 -89 252 -255
c0 -107 -95 -170 -206 -170c-62 0 -128 12 -172 33z" />
    <glyph glyph-name="scircumflex.smcp" horiz-adv-x="446" 
d="M40 21l-7 133h44c44 -74 83 -108 134 -108c40 0 72 23 72 60c0 95 -245 93 -245 253c0 95 87 163 193 163c49 0 113 -11 152 -26v-109h-39c-43 54 -74 76 -115 76c-34 0 -63 -20 -63 -50c0 -96 252 -89 252 -255c0 -107 -95 -170 -206 -170c-62 0 -128 12 -172 33z
M353 568h-18l-113 53l-112 -53h-18l91 136h77z" />
    <glyph glyph-name="scedilla.smcp" horiz-adv-x="446" 
d="M114 -209l8 29c24 -7 40 -9 55 -9c33 0 52 20 52 41c0 32 -51 52 -86 53l62 83c-60 1 -123 13 -165 33l-7 133h44c44 -74 83 -108 134 -108c40 0 72 23 72 60c0 95 -245 93 -245 253c0 95 87 163 193 163c49 0 113 -11 152 -26v-109h-39c-43 54 -74 76 -115 76
c-34 0 -63 -20 -63 -50c0 -96 252 -89 252 -255c0 -93 -72 -153 -164 -167l-27 -42c38 -4 86 -34 86 -86c0 -56 -57 -85 -116 -85c-34 0 -63 5 -83 13z" />
    <glyph glyph-name="scaron.smcp" horiz-adv-x="446" 
d="M257 568h-77l-91 136h18l112 -53l113 53h18zM40 21l-7 133h44c44 -74 83 -108 134 -108c40 0 72 23 72 60c0 95 -245 93 -245 253c0 95 87 163 193 163c49 0 113 -11 152 -26v-109h-39c-43 54 -74 76 -115 76c-34 0 -63 -20 -63 -50c0 -96 252 -89 252 -255
c0 -107 -95 -170 -206 -170c-62 0 -128 12 -172 33z" />
    <glyph glyph-name="scommaaccent.smcp" horiz-adv-x="446" 
d="M40 21l-7 133h44c44 -74 83 -108 134 -108c40 0 72 23 72 60c0 95 -245 93 -245 253c0 95 87 163 193 163c49 0 113 -11 152 -26v-109h-39c-43 54 -74 76 -115 76c-34 0 -63 -20 -63 -50c0 -96 252 -89 252 -255c0 -107 -95 -170 -206 -170c-62 0 -128 12 -172 33z
M164 -296l-10 10c24 31 34 54 34 81c0 28 -32 39 -32 81c0 39 34 65 67 65c40 0 70 -29 70 -76c0 -64 -70 -126 -129 -161z" />
    <glyph glyph-name="tcommaaccent.smcp" horiz-adv-x="545" 
d="M413 0h-284v31c54 23 63 25 63 96v330h-34c-39 0 -45 -7 -72 -48l-16 -26h-46v127h494v-127h-46l-17 26c-27 41 -32 48 -71 48h-34v-330c0 -71 9 -73 63 -96v-31zM208 -296l-10 10c24 31 34 54 34 81c0 28 -32 39 -32 81c0 39 34 65 67 65c40 0 70 -29 70 -76
c0 -64 -70 -126 -129 -161z" />
    <glyph glyph-name="uni021B.smcp" horiz-adv-x="545" 
d="M413 0h-284v31c54 23 63 25 63 96v330h-34c-39 0 -45 -7 -72 -48l-16 -26h-46v127h494v-127h-46l-17 26c-27 41 -32 48 -71 48h-34v-330c0 -71 9 -73 63 -96v-31zM208 -296l-10 10c24 31 34 54 34 81c0 28 -32 39 -32 81c0 39 34 65 67 65c40 0 70 -29 70 -76
c0 -64 -70 -126 -129 -161z" />
    <glyph glyph-name="tcaron.smcp" horiz-adv-x="545" 
d="M308 568h-77l-91 136h18l112 -53l113 53h18zM413 0h-284v31c54 23 63 25 63 96v330h-34c-39 0 -45 -7 -72 -48l-16 -26h-46v127h494v-127h-46l-17 26c-27 41 -32 48 -71 48h-34v-330c0 -71 9 -73 63 -96v-31z" />
    <glyph glyph-name="tbar.smcp" horiz-adv-x="545" 
d="M413 0h-284v31c54 23 63 25 63 96v104h-80v56h80v170h-34c-39 0 -45 -7 -72 -48l-16 -26h-46v127h494v-127h-46l-17 26c-27 41 -32 48 -71 48h-34v-170h80v-56h-80v-104c0 -71 9 -73 63 -96v-31z" />
    <glyph glyph-name="ugrave.smcp" horiz-adv-x="636" 
d="M425 563l-209 75l46 85l178 -131zM465 154v199c0 91 -9 103 -63 126v31h215v-31c-54 -23 -63 -35 -63 -126v-208c0 -100 -92 -156 -229 -156c-147 0 -238 53 -238 156v238c0 71 -9 73 -63 96v31h284v-31c-54 -23 -63 -25 -63 -96v-241c0 -53 36 -87 105 -87
c71 0 115 30 115 99z" />
    <glyph glyph-name="uacute.smcp" horiz-adv-x="636" 
d="M489 638l-209 -75l-15 29l178 131zM465 154v199c0 91 -9 103 -63 126v31h215v-31c-54 -23 -63 -35 -63 -126v-208c0 -100 -92 -156 -229 -156c-147 0 -238 53 -238 156v238c0 71 -9 73 -63 96v31h284v-31c-54 -23 -63 -25 -63 -96v-241c0 -53 36 -87 105 -87
c71 0 115 30 115 99z" />
    <glyph glyph-name="ucircumflex.smcp" horiz-adv-x="636" 
d="M465 154v199c0 91 -9 103 -63 126v31h215v-31c-54 -23 -63 -35 -63 -126v-208c0 -100 -92 -156 -229 -156c-147 0 -238 53 -238 156v238c0 71 -9 73 -63 96v31h284v-31c-54 -23 -63 -25 -63 -96v-241c0 -53 36 -87 105 -87c71 0 115 30 115 99zM475 568h-18l-113 53
l-112 -53h-18l91 136h77z" />
    <glyph glyph-name="udieresis.smcp" horiz-adv-x="636" 
d="M465 154v199c0 91 -9 103 -63 126v31h215v-31c-54 -23 -63 -35 -63 -126v-208c0 -100 -92 -156 -229 -156c-147 0 -238 53 -238 156v238c0 71 -9 73 -63 96v31h284v-31c-54 -23 -63 -25 -63 -96v-241c0 -53 36 -87 105 -87c71 0 115 30 115 99zM255 568
c-39 0 -71 32 -71 71s32 70 71 70c40 0 71 -31 71 -70s-31 -71 -71 -71zM503 639c0 -39 -32 -71 -72 -71c-39 0 -70 32 -70 71s31 70 70 70c40 0 72 -31 72 -70z" />
    <glyph glyph-name="utilde.smcp" horiz-adv-x="636" 
d="M474 692l20 -2c-5 -18 -36 -116 -91 -116c-54 0 -99 30 -136 30c-31 0 -37 -14 -52 -35l-20 2c5 18 36 115 91 115c53 0 92 -29 136 -29c31 0 37 14 52 35zM465 154v199c0 91 -9 103 -63 126v31h215v-31c-54 -23 -63 -35 -63 -126v-208c0 -100 -92 -156 -229 -156
c-147 0 -238 53 -238 156v238c0 71 -9 73 -63 96v31h284v-31c-54 -23 -63 -25 -63 -96v-241c0 -53 36 -87 105 -87c71 0 115 30 115 99z" />
    <glyph glyph-name="umacron.smcp" horiz-adv-x="636" 
d="M465 602h-260v58h260v-58zM465 154v199c0 91 -9 103 -63 126v31h215v-31c-54 -23 -63 -35 -63 -126v-208c0 -100 -92 -156 -229 -156c-147 0 -238 53 -238 156v238c0 71 -9 73 -63 96v31h284v-31c-54 -23 -63 -25 -63 -96v-241c0 -53 36 -87 105 -87c71 0 115 30 115 99z
" />
    <glyph glyph-name="ubreve.smcp" horiz-adv-x="636" 
d="M432 704h26c-10 -75 -56 -138 -127 -138s-117 63 -127 138h26c20 -46 63 -61 101 -61s81 15 101 61zM465 154v199c0 91 -9 103 -63 126v31h215v-31c-54 -23 -63 -35 -63 -126v-208c0 -100 -92 -156 -229 -156c-147 0 -238 53 -238 156v238c0 71 -9 73 -63 96v31h284v-31
c-54 -23 -63 -25 -63 -96v-241c0 -53 36 -87 105 -87c71 0 115 30 115 99z" />
    <glyph glyph-name="uring.smcp" horiz-adv-x="636" 
d="M446 667c0 -58 -49 -105 -106 -105c-58 0 -107 47 -107 105c0 57 49 104 107 104c57 0 106 -47 106 -104zM340 608c31 0 56 28 56 59s-25 58 -56 58s-57 -27 -57 -58s26 -59 57 -59zM465 154v199c0 91 -9 103 -63 126v31h215v-31c-54 -23 -63 -35 -63 -126v-208
c0 -100 -92 -156 -229 -156c-147 0 -238 53 -238 156v238c0 71 -9 73 -63 96v31h284v-31c-54 -23 -63 -25 -63 -96v-241c0 -53 36 -87 105 -87c71 0 115 30 115 99z" />
    <glyph glyph-name="uhungarumlaut.smcp" horiz-adv-x="636" 
d="M465 154v199c0 91 -9 103 -63 126v31h215v-31c-54 -23 -63 -35 -63 -126v-208c0 -100 -92 -156 -229 -156c-147 0 -238 53 -238 156v238c0 71 -9 73 -63 96v31h284v-31c-54 -23 -63 -25 -63 -96v-241c0 -53 36 -87 105 -87c71 0 115 30 115 99zM251 568h-34
c16 20 43 100 48 122h99c-22 -46 -60 -86 -113 -122zM375 568h-29c16 20 43 100 48 122h99c-22 -46 -65 -86 -118 -122z" />
    <glyph glyph-name="uogonek.smcp" horiz-adv-x="636" 
d="M380 -168v-14c-12 -15 -45 -40 -77 -40c-53 0 -80 29 -80 70c0 61 72 110 126 142c-8 -1 -16 -1 -24 -1c-147 0 -238 53 -238 156v238c0 71 -9 73 -63 96v31h284v-31c-54 -23 -63 -25 -63 -96v-241c0 -53 36 -87 105 -87c71 0 115 30 115 99v199c0 91 -9 103 -63 126v31
h215v-31c-54 -23 -63 -35 -63 -126v-208c0 -87 -70 -141 -178 -153c-29 -38 -63 -85 -63 -128c0 -23 17 -35 45 -35c5 0 16 1 22 3z" />
    <glyph glyph-name="wcircumflex.smcp" horiz-adv-x="848" 
d="M635 0h-133l-91 304l-98 -304h-135l-84 312c-38 139 -57 155 -84 166v32h248v-33c-25 -6 -35 -10 -35 -36c0 -20 9 -56 23 -110l46 -180l52 163c14 45 19 78 19 106c0 42 -20 50 -53 57v33h259v-33c-29 -8 -45 -12 -45 -42c0 -11 3 -21 7 -37l68 -253l53 169
c16 50 21 81 21 108c0 40 -22 48 -51 55v33h220v-33c-32 -12 -66 -30 -111 -172zM559 568h-18l-113 53l-112 -53h-18l91 136h77z" />
    <glyph glyph-name="wgrave.smcp" horiz-adv-x="848" 
d="M530 563l-209 75l46 85l178 -131zM635 0h-133l-91 304l-98 -304h-135l-84 312c-38 139 -57 155 -84 166v32h248v-33c-25 -6 -35 -10 -35 -36c0 -20 9 -56 23 -110l46 -180l52 163c14 45 19 78 19 106c0 42 -20 50 -53 57v33h259v-33c-29 -8 -45 -12 -45 -42
c0 -11 3 -21 7 -37l68 -253l53 169c16 50 21 81 21 108c0 40 -22 48 -51 55v33h220v-33c-32 -12 -66 -30 -111 -172z" />
    <glyph glyph-name="wacute.smcp" horiz-adv-x="848" 
d="M559 638l-209 -75l-15 29l178 131zM635 0h-133l-91 304l-98 -304h-135l-84 312c-38 139 -57 155 -84 166v32h248v-33c-25 -6 -35 -10 -35 -36c0 -20 9 -56 23 -110l46 -180l52 163c14 45 19 78 19 106c0 42 -20 50 -53 57v33h259v-33c-29 -8 -45 -12 -45 -42
c0 -11 3 -21 7 -37l68 -253l53 169c16 50 21 81 21 108c0 40 -22 48 -51 55v33h220v-33c-32 -12 -66 -30 -111 -172z" />
    <glyph glyph-name="wdieresis.smcp" horiz-adv-x="848" 
d="M635 0h-133l-91 304l-98 -304h-135l-84 312c-38 139 -57 155 -84 166v32h248v-33c-25 -6 -35 -10 -35 -36c0 -20 9 -56 23 -110l46 -180l52 163c14 45 19 78 19 106c0 42 -20 50 -53 57v33h259v-33c-29 -8 -45 -12 -45 -42c0 -11 3 -21 7 -37l68 -253l53 169
c16 50 21 81 21 108c0 40 -22 48 -51 55v33h220v-33c-32 -12 -66 -30 -111 -172zM347 568c-39 0 -71 32 -71 71s32 70 71 70c40 0 71 -31 71 -70s-31 -71 -71 -71zM595 639c0 -39 -32 -71 -72 -71c-39 0 -70 32 -70 71s31 70 70 70c40 0 72 -31 72 -70z" />
    <glyph glyph-name="yacute.smcp" horiz-adv-x="529" 
d="M390 638l-209 -75l-15 29l178 131zM410 0h-284v31c54 23 63 25 63 96v77l-81 160c-46 91 -69 100 -105 116v30h266v-32c-24 -2 -37 -7 -37 -25c0 -16 10 -41 29 -82l37 -81l37 81c16 36 24 59 24 75c0 22 -15 30 -44 32v32h211v-32c-38 -11 -71 -29 -109 -115l-70 -159
v-77c0 -71 9 -73 63 -96v-31z" />
    <glyph glyph-name="ydieresis.smcp" horiz-adv-x="529" 
d="M410 0h-284v31c54 23 63 25 63 96v77l-81 160c-46 91 -69 100 -105 116v30h266v-32c-24 -2 -37 -7 -37 -25c0 -16 10 -41 29 -82l37 -81l37 81c16 36 24 59 24 75c0 22 -15 30 -44 32v32h211v-32c-38 -11 -71 -29 -109 -115l-70 -159v-77c0 -71 9 -73 63 -96v-31z
M177 568c-39 0 -71 32 -71 71s32 70 71 70c40 0 71 -31 71 -70s-31 -71 -71 -71zM425 639c0 -39 -32 -71 -72 -71c-39 0 -70 32 -70 71s31 70 70 70c40 0 72 -31 72 -70z" />
    <glyph glyph-name="ycircumflex.smcp" horiz-adv-x="529" 
d="M410 0h-284v31c54 23 63 25 63 96v77l-81 160c-46 91 -69 100 -105 116v30h266v-32c-24 -2 -37 -7 -37 -25c0 -16 10 -41 29 -82l37 -81l37 81c16 36 24 59 24 75c0 22 -15 30 -44 32v32h211v-32c-38 -11 -71 -29 -109 -115l-70 -159v-77c0 -71 9 -73 63 -96v-31z
M389 568h-18l-113 53l-112 -53h-18l91 136h77z" />
    <glyph glyph-name="ygrave.smcp" horiz-adv-x="529" 
d="M360 563l-209 75l46 85l178 -131zM410 0h-284v31c54 23 63 25 63 96v77l-81 160c-46 91 -69 100 -105 116v30h266v-32c-24 -2 -37 -7 -37 -25c0 -16 10 -41 29 -82l37 -81l37 81c16 36 24 59 24 75c0 22 -15 30 -44 32v32h211v-32c-38 -11 -71 -29 -109 -115l-70 -159
v-77c0 -71 9 -73 63 -96v-31z" />
    <glyph glyph-name="zacute.smcp" horiz-adv-x="514" 
d="M381 638l-209 -75l-15 29l178 131zM468 0h-442v14l246 435h-56c-66 0 -82 -6 -117 -48l-23 -28h-33l20 137h411v-15l-241 -437h76c53 0 66 6 148 79h31z" />
    <glyph glyph-name="zdotaccent.smcp" horiz-adv-x="514" 
d="M468 0h-442v14l246 435h-56c-66 0 -82 -6 -117 -48l-23 -28h-33l20 137h411v-15l-241 -437h76c53 0 66 6 148 79h31zM335 639c0 -41 -34 -75 -76 -75c-41 0 -75 34 -75 75s34 75 75 75c42 0 76 -34 76 -75z" />
    <glyph glyph-name="zcaron.smcp" horiz-adv-x="514" 
d="M294 568h-77l-91 136h18l112 -53l113 53h18zM468 0h-442v14l246 435h-56c-66 0 -82 -6 -117 -48l-23 -28h-33l20 137h411v-15l-241 -437h76c53 0 66 6 148 79h31z" />
    <glyph glyph-name="zero.tscf" horiz-adv-x="551" 
d="M275 -13c-145 0 -248 107 -248 268c0 169 109 267 248 267c140 0 249 -98 249 -267c0 -161 -105 -268 -249 -268zM275 50c63 0 76 81 76 205c0 139 -22 204 -76 204c-55 0 -76 -65 -76 -204c0 -124 13 -205 76 -205z" />
    <glyph glyph-name="one.tscf" horiz-adv-x="409" 
d="M370 0h-314v32c72 24 81 35 81 105v235c-37 -14 -71 -22 -104 -29l-8 47c95 30 199 100 272 159v-412c0 -71 12 -82 73 -106v-31z" />
    <glyph glyph-name="two.tscf" horiz-adv-x="520" 
d="M475 0h-457v5c143 155 290 247 290 359c0 61 -42 95 -111 95c-24 0 -54 -4 -81 -18c50 -4 81 -35 81 -80c0 -50 -36 -81 -82 -81c-48 0 -87 34 -87 86c0 89 106 156 237 156c133 0 210 -70 210 -152c0 -128 -160 -148 -274 -246h274v-124z" />
    <glyph glyph-name="three.tscf" horiz-adv-x="516" 
d="M168 235v43c106 9 129 58 129 110c0 64 -55 84 -111 84c-12 0 -23 -1 -35 -3c26 -12 46 -35 46 -70c0 -42 -35 -75 -77 -75c-44 0 -82 26 -82 81c0 80 93 117 205 117c113 0 203 -30 203 -107c0 -75 -71 -112 -125 -127c87 -12 163 -38 163 -133
c0 -130 -140 -170 -274 -170c-110 0 -198 33 -198 113c0 46 40 82 86 82c42 0 82 -34 82 -79c0 -29 -14 -55 -31 -72c11 -1 22 -2 33 -2c78 0 141 29 141 110c0 75 -54 98 -140 98h-15z" />
    <glyph glyph-name="four.tscf" horiz-adv-x="512" 
d="M255 226v158l-150 -158h150zM484 0h-311v31c72 24 82 36 82 106v12h-247v59l277 302h127v-284h67v-77h-67v-12c0 -70 9 -82 72 -106v-31z" />
    <glyph glyph-name="five.tscf" horiz-adv-x="494" 
d="M416 390h-268l-18 -102c32 19 74 39 121 39c121 0 201 -63 201 -160c0 -137 -130 -181 -251 -181c-108 0 -183 38 -183 107c0 48 39 80 83 80c46 0 81 -31 81 -75c0 -32 -18 -54 -38 -67c10 -1 20 -2 32 -2c65 0 119 35 119 120c0 68 -46 100 -110 100
c-28 0 -54 -9 -77 -23l-45 13l42 270h311v-119z" />
    <glyph glyph-name="six.tscf" horiz-adv-x="538" 
d="M445 549v-50c-109 -24 -195 -76 -229 -175c27 12 60 22 96 22c121 0 204 -65 204 -168c0 -99 -108 -194 -234 -194c-146 0 -249 103 -249 228c0 185 186 309 412 337zM204 278c-3 -18 -4 -38 -4 -58c0 -121 32 -190 92 -190c40 0 66 48 66 126c0 73 -30 129 -105 129
c-17 0 -33 -3 -49 -7z" />
    <glyph glyph-name="seven.tscf" horiz-adv-x="507" 
d="M252 0h-141c16 106 181 328 241 384h-318v126h434v-39c-51 -68 -198 -356 -216 -471z" />
    <glyph glyph-name="eight.tscf" horiz-adv-x="541" 
d="M343 300c83 -30 158 -73 158 -155c0 -101 -118 -160 -244 -160c-109 0 -226 43 -226 137c0 73 63 107 151 130c-91 33 -139 83 -139 143c0 89 93 145 224 145c134 0 213 -60 213 -126c0 -58 -56 -96 -137 -114zM242 223l-26 11c-25 -25 -52 -64 -52 -105
c0 -53 36 -92 102 -92c52 0 96 25 96 75c0 52 -40 78 -120 111zM306 313c26 31 36 65 36 94c0 49 -35 81 -83 81c-46 0 -78 -27 -78 -65c0 -51 40 -74 125 -110z" />
    <glyph glyph-name="nine.tscf" horiz-adv-x="538" 
d="M94 -16v50c108 23 194 65 228 165c-27 -12 -60 -22 -95 -22c-121 0 -204 53 -204 156c0 99 108 189 234 189c146 0 249 -86 249 -211c0 -185 -186 -299 -412 -327zM334 245c3 18 5 37 5 58c0 121 -32 173 -92 173c-40 0 -66 -43 -66 -121c0 -73 30 -117 105 -117
c16 0 32 2 48 7z" />
    <glyph glyph-name="euro.smcp" horiz-adv-x="541" 
d="M457 169h50c-8 -113 -82 -184 -183 -184c-130 0 -219 62 -232 196h-60v49h57c0 9 -1 18 -1 26s0 17 1 26h-57v48h62c15 127 131 192 246 192c118 0 167 -51 167 -100c0 -52 -39 -83 -82 -83s-76 28 -76 71c0 30 16 50 34 63c-11 5 -23 7 -35 7c-64 0 -87 -73 -92 -150
h108v-48h-110v-52h110v-49h-109c5 -82 32 -132 93 -132c48 0 102 44 109 120z" />
    <glyph glyph-name="dollar.smcp" horiz-adv-x="446" 
d="M264 -100h-75v89c-57 2 -121 13 -159 32l-7 133h44c44 -74 93 -108 144 -108c40 0 82 23 82 60c0 95 -265 93 -265 253c0 82 72 144 161 159v77h75v-75c45 -3 98 -12 129 -24v-109h-39c-43 54 -84 76 -125 76c-34 0 -73 -20 -73 -50c0 -96 272 -89 272 -255
c0 -90 -75 -149 -164 -165v-93z" />
    <glyph glyph-name="cent.smcp" horiz-adv-x="586" 
d="M394 -100h-75v90c-163 13 -279 95 -279 259c0 173 132 255 279 269v77h75v-75c54 -5 117 -20 149 -34v-112h-39c-38 68 -95 95 -147 95c-85 0 -152 -52 -152 -211c0 -161 68 -216 163 -216c52 0 106 14 149 105h43l-11 -123c-33 -17 -97 -31 -155 -35v-89z" />
    <glyph glyph-name="sterling.smcp" horiz-adv-x="542" 
d="M367 0h-312v26c42 34 76 83 76 146c0 20 -4 39 -10 58h-81v60h61c-6 21 -11 41 -11 63c0 117 107 169 228 169c115 0 177 -44 177 -107c0 -51 -36 -85 -83 -85c-46 0 -84 31 -84 78c0 21 12 45 28 64c-73 -5 -109 -23 -109 -84c0 -30 14 -63 23 -98h117v-60h-108
c0 -53 -35 -78 -81 -106h176c72 0 83 12 93 51h29c1 -8 1 -25 1 -32c0 -96 -38 -143 -130 -143z" />
    <glyph glyph-name="yen.smcp" horiz-adv-x="563" 
d="M427 0h-284v31c52 22 62 24 63 89h-111v52h111v32l-10 20h-101v52h74l-44 88c-46 91 -69 99 -105 116v30h266v-32c-46 -4 -49 -20 -8 -107l38 -81l36 81c39 86 29 103 -20 107v32h211v-32c-38 -11 -71 -29 -109 -115l-38 -87h76v-52h-99l-9 -20v-32h108v-52h-108
c1 -65 11 -67 63 -89v-31z" />
    <glyph glyph-name="florin.smcp" horiz-adv-x="566" 
d="M463 158h-108v-195c0 -136 -106 -198 -232 -198c-84 0 -137 42 -137 100c0 43 34 73 72 73c41 0 73 -22 73 -67c0 -24 -10 -45 -29 -63h10c52 1 80 44 80 141v209h-97c4 24 8 48 13 73h84v93c0 136 106 198 232 198c84 0 138 -42 138 -100c0 -43 -35 -73 -73 -73
c-41 0 -73 22 -73 67c0 24 10 46 29 63c-3 1 -7 1 -10 1c-52 -1 -80 -45 -80 -142v-107h108v-73z" />
    <glyph glyph-name="percent.smcp" horiz-adv-x="920" 
d="M297 -47h-73l330 502l-4 1c-33 -21 -68 -45 -111 -45c-27 0 -52 5 -75 15c5 -13 8 -39 8 -59c0 -97 -68 -244 -179 -244c-91 0 -153 73 -153 163c0 104 87 236 200 236c95 0 95 -69 197 -69c73 0 137 44 184 97h65zM209 186c74 0 113 106 113 179c0 35 -21 93 -64 93
c-66 0 -103 -109 -103 -188c0 -35 15 -84 54 -84zM697 -12c-89 0 -151 71 -151 158c0 110 86 240 204 240c84 0 130 -69 130 -148c0 -103 -63 -250 -183 -250zM716 50c73 0 112 106 112 179c0 35 -21 93 -64 93c-66 0 -103 -109 -103 -188c0 -35 16 -84 55 -84z" />
    <glyph glyph-name="perthousand.smcp" horiz-adv-x="1291" 
d="M297 -47h-73l330 502l-4 1c-33 -21 -68 -45 -111 -45c-27 0 -52 5 -75 15c5 -13 8 -39 8 -59c0 -97 -68 -244 -179 -244c-91 0 -153 73 -153 163c0 104 87 236 200 236c95 0 95 -69 197 -69c73 0 137 44 184 97h65zM209 186c74 0 113 106 113 179c0 35 -21 93 -64 93
c-66 0 -103 -109 -103 -188c0 -35 15 -84 54 -84zM697 -12c-89 0 -151 71 -151 158c0 110 86 240 204 240c84 0 130 -69 130 -148c0 -103 -63 -250 -183 -250zM716 50c73 0 112 106 112 179c0 35 -21 93 -64 93c-66 0 -103 -109 -103 -188c0 -35 16 -84 55 -84zM1068 -12
c-89 0 -151 71 -151 158c0 110 86 240 204 240c84 0 130 -69 130 -148c0 -103 -63 -250 -183 -250zM1086 50c74 0 113 106 113 179c0 35 -21 93 -64 93c-66 0 -103 -109 -103 -188c0 -35 15 -84 54 -84z" />
    <glyph glyph-name="ordfeminine.smcp" horiz-adv-x="466" 
d="M444 229h-420v60h420v-60zM444 339h-191v21c24 5 36 9 36 30c0 13 -8 43 -19 73h-108c-9 -26 -13 -49 -13 -64c0 -29 15 -34 38 -39v-21h-165v21c29 9 48 26 76 108l78 222h127l82 -246c20 -60 33 -74 59 -84v-21zM258 507l-37 133h-4l-41 -133h82z" />
    <glyph glyph-name="ordmasculine.smcp" horiz-adv-x="435" 
d="M416 516c0 -108 -96 -178 -200 -178c-103 0 -197 69 -197 178c0 110 97 174 198 174s199 -65 199 -174zM217 381c54 0 70 59 70 133c0 83 -22 133 -71 133c-48 0 -69 -50 -69 -132c0 -75 16 -134 70 -134zM403 230h-379v59h379v-59z" />
    <glyph glyph-name="exclam.smcp" horiz-adv-x="305" 
d="M174 203h-44c-14 108 -64 188 -64 307h173c0 -119 -51 -199 -65 -307zM244 77c0 -51 -41 -91 -92 -91s-92 40 -92 91s41 91 92 91s92 -40 92 -91z" />
    <glyph glyph-name="question.smcp" horiz-adv-x="472" 
d="M255 203h-44c1 89 78 116 78 184c0 60 -59 79 -109 79c-23 0 -47 -4 -63 -11c45 -12 71 -34 71 -76c0 -45 -32 -74 -76 -74c-43 0 -78 26 -78 81c0 81 90 136 207 136c119 0 203 -47 203 -129c0 -113 -148 -113 -189 -190zM324 77c0 -53 -41 -90 -91 -90s-91 37 -91 90
c0 51 41 89 91 89s91 -38 91 -89z" />
    <glyph glyph-name="exclamdown.smcp" horiz-adv-x="305" 
d="M130 307h44c14 -108 65 -188 65 -307h-173c0 119 50 199 64 307zM244 433c0 -51 -41 -91 -92 -91s-92 40 -92 91s41 91 92 91s92 -40 92 -91z" />
    <glyph glyph-name="questiondown.smcp" horiz-adv-x="472" 
d="M228 305h44c-1 -89 -78 -116 -78 -184c0 -60 59 -79 109 -79c23 0 47 4 63 11c-45 12 -71 34 -71 76c0 45 32 74 76 74c43 0 78 -26 78 -81c0 -81 -90 -136 -207 -136c-119 0 -203 47 -203 129c0 113 148 113 189 190zM159 431c0 53 41 90 91 90s91 -37 91 -90
c0 -51 -41 -89 -91 -89s-91 38 -91 89z" />
    <glyph glyph-name="parenleft.smcp" horiz-adv-x="348" 
d="M339 -160h-43c-70 66 -231 220 -231 414c0 139 82 264 231 398h43c-77 -117 -114 -236 -114 -410c0 -169 34 -286 114 -402z" />
    <glyph glyph-name="parenright.smcp" horiz-adv-x="348" 
d="M52 -160h-43c80 116 114 233 114 402c0 174 -37 293 -114 410h43c149 -134 231 -259 231 -398c0 -194 -161 -348 -231 -414z" />
    <glyph glyph-name="bracketleft.smcp" horiz-adv-x="379" 
d="M346 -139h-243v802h243v-42h-94v-718h94v-42z" />
    <glyph glyph-name="bracketright.smcp" horiz-adv-x="379" 
d="M276 -139h-243v42h94v718h-94v42h243v-802z" />
    <glyph glyph-name="braceleft.smcp" horiz-adv-x="317" 
d="M309 -130v-14c-126 10 -211 42 -211 182v42c0 93 0 161 -70 171v18c70 10 70 78 70 171v42c0 140 85 172 211 182v-14c-55 -14 -62 -59 -62 -169v-33c0 -121 -71 -163 -166 -188c95 -25 166 -67 166 -188v-33c0 -110 7 -155 62 -169z" />
    <glyph glyph-name="braceright.smcp" horiz-adv-x="317" 
d="M8 -144v14c55 14 62 59 62 169v33c0 121 71 163 166 188c-95 25 -166 67 -166 188v33c0 110 -7 155 -62 169v14c126 -10 211 -42 211 -182v-42c0 -93 0 -161 70 -171v-18c-70 -10 -70 -78 -70 -171v-42c0 -140 -85 -172 -211 -182z" />
    <glyph glyph-name="ampersand.smcp" horiz-adv-x="657" 
d="M654 0h-213c-18 15 -37 31 -56 51c-57 -43 -123 -66 -189 -66c-118 0 -178 74 -178 157c0 79 54 121 147 176c-36 48 -50 98 -50 134c0 82 71 156 189 156c95 0 160 -48 160 -123c0 -62 -44 -104 -135 -156l108 -127c14 24 20 50 20 66c0 23 -12 36 -49 40v27h247v-23
c-46 -15 -97 -68 -146 -130l-26 -33l24 -25c65 -68 98 -86 147 -97v-27zM343 100l-137 168c-30 -24 -45 -50 -45 -82c0 -59 49 -111 109 -111c12 0 39 2 73 25zM287 378c38 27 55 52 55 96c0 54 -26 72 -50 72c-27 0 -47 -23 -47 -65c0 -32 12 -63 42 -103z" />
    <glyph glyph-name="at.smcp" horiz-adv-x="725" 
d="M579 64l10 -10c-46 -47 -139 -88 -220 -88c-179 0 -323 113 -323 284c0 162 137 293 330 293c183 0 301 -113 301 -260c0 -125 -128 -198 -221 -198c-31 0 -51 15 -51 47c0 6 0 12 1 18l5 40c-60 -93 -82 -105 -114 -105c-55 0 -97 42 -97 113c0 115 77 221 203 221
c26 0 57 -4 77 -9l42 9h17l-37 -264c-1 -5 -1 -10 -1 -14c0 -7 1 -11 6 -11c39 0 101 52 101 143c0 123 -73 230 -226 230c-154 0 -240 -116 -240 -253c0 -144 91 -248 250 -248c58 0 130 26 187 62zM418 252l19 118c-9 4 -20 7 -32 7c-84 0 -107 -87 -107 -169
c0 -46 15 -56 35 -56c22 0 53 41 85 100z" />
    <glyph glyph-name="slash.smcp" horiz-adv-x="413" 
d="M92 -15h-89l318 537h89z" />
    <glyph glyph-name="backslash.smcp" horiz-adv-x="413" 
d="M410 -15h-89l-318 537h89z" />
    <glyph glyph-name="asterisk.smcp" horiz-adv-x="395" 
d="M339 235l-86 -62l-56 140l-56 -140l-86 61l122 93l-157 17l35 98l133 -90l-41 158h104l-43 -158l134 90l33 -98l-157 -17z" />
    <glyph glyph-name="quoteleft.smcp" horiz-adv-x="210" 
d="M148 588l37 -1c-31 -44 -43 -75 -43 -107c0 -38 39 -44 39 -94c0 -41 -35 -71 -74 -71c-48 0 -80 37 -80 85c0 73 70 143 121 188z" />
    <glyph glyph-name="quoteright.smcp" horiz-adv-x="210" 
d="M62 249l-38 1c32 44 44 74 44 106c0 39 -39 45 -39 95c0 40 34 71 73 71c48 0 80 -37 80 -86c0 -73 -69 -142 -120 -187z" />
    <glyph glyph-name="quotedblleft.smcp" horiz-adv-x="399" 
d="M148 588l37 -1c-31 -44 -43 -75 -43 -107c0 -38 39 -44 39 -94c0 -41 -35 -71 -74 -71c-48 0 -80 37 -80 85c0 73 70 143 121 188zM337 588l37 -1c-31 -44 -43 -75 -43 -107c0 -38 39 -44 39 -94c0 -41 -35 -71 -74 -71c-48 0 -80 37 -80 85c0 73 70 143 121 188z" />
    <glyph glyph-name="quotedblright.smcp" horiz-adv-x="399" 
d="M62 249l-38 1c32 44 44 74 44 106c0 39 -39 45 -39 95c0 40 34 71 73 71c48 0 80 -37 80 -86c0 -73 -69 -142 -120 -187zM251 249l-38 1c32 44 44 74 44 106c0 39 -39 45 -39 95c0 40 34 71 73 71c48 0 80 -37 80 -86c0 -73 -69 -142 -120 -187z" />
    <glyph glyph-name="zero.alt" horiz-adv-x="551" 
d="M276 -15c-160 0 -247 138 -247 348c0 221 94 371 248 371s246 -141 246 -362c0 -210 -87 -357 -247 -357zM280 43c61 0 71 115 71 271c0 216 -17 332 -74 332s-76 -120 -76 -315c0 -173 13 -288 79 -288z" />
    <glyph glyph-name="one.alt" horiz-adv-x="391" 
d="M358 0h-314v32c72 24 81 35 81 105v372c-37 -14 -75 -27 -108 -34l-8 47c95 30 213 115 276 179v-564c0 -71 12 -82 73 -106v-31z" />
    <glyph glyph-name="two.alt" horiz-adv-x="551" 
d="M474 0h-441v37l196 250c65 83 90 155 90 223c0 85 -56 122 -126 122c-24 0 -70 -7 -86 -21c55 -3 98 -32 98 -88c0 -46 -39 -87 -88 -87c-48 0 -94 31 -94 99c0 84 102 169 247 169c111 0 218 -69 218 -183c0 -126 -176 -232 -256 -332l-35 -44h292z" />
    <glyph glyph-name="three.alt" horiz-adv-x="551" 
d="M158 341l-9 17l140 191h-224v141h399v-16l-161 -209c97 -25 201 -112 201 -232c0 -161 -155 -248 -298 -248c-106 0 -182 47 -182 129c0 51 40 86 90 86c48 0 87 -33 87 -85c0 -37 -20 -63 -44 -77c11 -7 28 -8 38 -8c76 0 145 51 145 153c0 103 -89 149 -182 158z" />
    <glyph glyph-name="four.alt" horiz-adv-x="551" 
d="M285 281v253l-179 -253h179zM514 0h-311v31c72 24 82 36 82 106v47h-277v74l307 432h127v-409h67v-97h-67v-47c0 -70 9 -82 72 -106v-31z" />
    <glyph glyph-name="five.alt" horiz-adv-x="563" 
d="M164 36v-4c11 -3 23 -4 34 -4c76 0 134 72 134 175c0 99 -58 147 -130 147c-35 0 -68 -14 -96 -33l-32 12l44 361h330v-141h-277l-18 -150c32 17 78 34 121 34c126 0 221 -86 221 -212c0 -158 -163 -236 -280 -236c-114 0 -186 42 -186 125c0 51 43 86 90 86
c49 0 87 -30 87 -84c0 -34 -21 -57 -42 -76z" />
    <glyph glyph-name="six.alt" horiz-adv-x="551" 
d="M451 704v-54c-117 -23 -201 -108 -232 -242c24 14 57 26 102 26c120 0 205 -63 205 -196c0 -145 -89 -253 -239 -253c-153 0 -250 110 -250 295c0 231 198 400 414 424zM209 358c-4 -25 -5 -52 -5 -78c0 -117 17 -232 87 -232c56 0 77 64 77 151c0 115 -45 172 -105 172
c-17 0 -37 -6 -54 -13z" />
    <glyph glyph-name="seven.alt" horiz-adv-x="551" 
d="M274 0h-160c51 195 179 363 277 542h-352v148h469v-34c-121 -212 -204 -468 -234 -656z" />
    <glyph glyph-name="eight.alt" horiz-adv-x="566" 
d="M367 390c84 -45 160 -100 160 -199c0 -127 -132 -206 -263 -206c-112 0 -243 59 -243 177c0 88 73 137 153 168c-92 54 -141 114 -141 188c0 109 111 186 242 186c134 0 231 -82 231 -165c0 -68 -64 -122 -139 -149zM261 283l-35 17c-27 -30 -56 -79 -56 -131
c0 -66 38 -122 104 -122c56 0 98 37 98 103c0 62 -41 99 -111 133zM312 414c30 35 38 82 38 115c0 68 -33 113 -84 113c-47 0 -78 -35 -78 -92c0 -65 43 -95 124 -136z" />
    <glyph glyph-name="nine.alt" horiz-adv-x="551" 
d="M109 -15l-2 55c116 21 199 108 229 237c-28 -13 -63 -22 -106 -22c-116 0 -205 71 -205 202c0 141 89 247 237 247c152 0 254 -113 254 -294c0 -236 -194 -400 -407 -425zM345 326c3 23 5 50 5 80c0 125 -22 235 -92 235c-55 0 -75 -61 -75 -145c0 -112 45 -179 116 -179
c14 0 32 4 46 9z" />
    <glyph glyph-name="zero.tosf" horiz-adv-x="566" 
d="M283 -13c-145 0 -256 107 -256 268c0 169 117 267 256 267s256 -98 256 -267c0 -161 -112 -268 -256 -268zM283 50c67 0 83 81 83 205c0 139 -24 204 -83 204c-61 0 -84 -65 -84 -204c0 -124 16 -205 84 -205z" />
    <glyph glyph-name="one.tosf" horiz-adv-x="566" 
d="M447 0h-314v32c72 24 81 35 81 105v217c-37 -14 -75 -27 -108 -34l-8 47c79 25 175 90 241 148c13 5 24 11 35 16v-394c0 -71 12 -82 73 -106v-31z" />
    <glyph glyph-name="two.tosf" horiz-adv-x="566" 
d="M502 0h-464v5c143 155 297 247 297 359c0 61 -46 95 -117 95c-23 0 -55 -4 -82 -18c50 -4 81 -35 81 -80c0 -50 -36 -81 -82 -81c-48 0 -87 34 -87 86c0 89 106 156 237 156c133 0 217 -70 217 -152c0 -128 -166 -148 -281 -246h281v-124z" />
    <glyph glyph-name="three.tosf" horiz-adv-x="566" 
d="M174 150l-3 50c118 14 158 64 158 156c0 91 -95 130 -181 91c36 -11 63 -36 63 -79c0 -46 -34 -79 -79 -79s-84 28 -84 85c0 83 105 148 217 148c123 0 218 -48 218 -147c0 -83 -83 -117 -135 -148c81 -22 178 -88 178 -198c0 -140 -175 -227 -309 -227
c-113 0 -199 49 -199 129c0 46 40 81 86 81s82 -32 82 -78c0 -35 -18 -60 -35 -77c111 -23 209 32 209 149c0 99 -70 151 -186 144z" />
    <glyph glyph-name="four.tosf" horiz-adv-x="566" 
d="M316 66v237l-201 -237h201zM470 -190h-154v190h-286v58l370 452h70v-444h69v-66h-69v-190z" />
    <glyph glyph-name="five.tosf" horiz-adv-x="551" 
d="M166 -144v-4c11 -3 23 -4 34 -4c76 0 134 72 134 175c0 99 -58 147 -130 147c-35 0 -68 -14 -96 -33l-32 12l44 361h330v-141h-277l-18 -150c32 17 78 34 121 34c126 0 221 -86 221 -212c0 -158 -163 -236 -280 -236c-114 0 -186 42 -186 125c0 51 43 86 90 86
c49 0 87 -30 87 -84c0 -34 -21 -57 -42 -76z" />
    <glyph glyph-name="six.tosf" horiz-adv-x="551" 
d="M451 704v-54c-117 -23 -201 -108 -232 -242c24 14 57 26 102 26c120 0 205 -63 205 -196c0 -145 -89 -253 -239 -253c-153 0 -250 110 -250 295c0 231 198 400 414 424zM209 358c-4 -25 -5 -52 -5 -78c0 -117 17 -232 87 -232c56 0 77 64 77 151c0 115 -45 172 -105 172
c-17 0 -37 -6 -54 -13z" />
    <glyph glyph-name="seven.tosf" horiz-adv-x="566" 
d="M206 -186h-121l317 554h-361v142h477v-29z" />
    <glyph glyph-name="eight.tosf" horiz-adv-x="566" 
d="M368 390c84 -45 160 -100 160 -199c0 -127 -132 -206 -263 -206c-112 0 -243 59 -243 177c0 88 73 137 153 168c-92 54 -141 114 -141 188c0 109 111 186 242 186c134 0 231 -82 231 -165c0 -68 -64 -122 -139 -149zM262 283l-35 17c-27 -30 -56 -79 -56 -131
c0 -66 38 -122 104 -122c56 0 98 37 98 103c0 62 -41 99 -111 133zM313 414c30 35 38 82 38 115c0 68 -33 113 -84 113c-47 0 -78 -35 -78 -92c0 -65 43 -95 124 -136z" />
    <glyph glyph-name="nine.tosf" horiz-adv-x="551" 
d="M109 -197l-2 55c116 21 199 108 229 237c-28 -13 -63 -22 -106 -22c-116 0 -205 71 -205 202c0 141 89 247 237 247c152 0 254 -113 254 -294c0 -236 -194 -400 -407 -425zM345 144c3 23 5 50 5 80c0 125 -22 235 -92 235c-55 0 -75 -61 -75 -145
c0 -112 45 -179 116 -179c14 0 32 4 46 9z" />
    <glyph glyph-name="Euro.taboldstyle" horiz-adv-x="541" 
d="M457 169h50c-8 -113 -82 -184 -183 -184c-130 0 -219 62 -232 196h-60v49h57c0 9 -1 18 -1 26s0 17 1 26h-57v48h62c15 127 131 192 246 192c118 0 167 -51 167 -100c0 -52 -39 -83 -82 -83s-76 28 -76 71c0 30 16 50 34 63c-11 5 -23 7 -35 7c-64 0 -87 -73 -92 -150
h108v-48h-110v-52h110v-49h-109c5 -82 32 -132 93 -132c48 0 102 44 109 120z" />
    <glyph glyph-name="dollar.taboldstyle" horiz-adv-x="551" 
d="M311 -99h-66v85c-71 2 -151 19 -196 44v166h50c47 -89 85 -139 146 -147v222c-12 6 -24 14 -35 21c-79 49 -158 99 -158 197c0 103 83 175 193 191v74h66v-71c68 -4 131 -27 164 -40v-131h-49c-43 68 -76 98 -115 106v-206l30 -16c81 -48 163 -98 163 -205
c0 -105 -72 -184 -193 -201v-89zM311 229v-170c33 15 58 43 58 79c0 35 -21 65 -58 91zM245 453v159c-36 -10 -57 -39 -57 -72c0 -36 20 -63 57 -87z" />
    <glyph glyph-name="cent.taboldstyle" horiz-adv-x="566" 
d="M335 -49h-57v120c-118 12 -233 104 -233 251c0 157 113 246 233 272v103h57v-95c6 1 14 1 21 1c87 0 167 -43 167 -110c0 -54 -35 -91 -81 -91c-45 0 -83 31 -83 81c0 23 8 54 27 73c-17 0 -34 -2 -51 -7v-370c16 -6 37 -7 53 -7c56 0 108 20 132 39c4 -6 8 -12 13 -18
c-25 -40 -94 -112 -198 -122v-120zM278 205v316c-41 -28 -71 -75 -71 -151c0 -83 30 -135 71 -165z" />
    <glyph glyph-name="sterling.taboldstyle" horiz-adv-x="542" 
d="M367 0h-312v26c42 34 76 83 76 146c0 20 -4 39 -10 58h-81v60h61c-6 21 -11 41 -11 63c0 117 107 169 228 169c115 0 177 -44 177 -107c0 -51 -36 -85 -83 -85c-46 0 -84 31 -84 78c0 21 12 45 28 64c-73 -5 -109 -23 -109 -84c0 -30 14 -63 23 -98h117v-60h-108
c0 -53 -35 -78 -81 -106h176c72 0 83 12 93 51h29c1 -8 1 -25 1 -32c0 -96 -38 -143 -130 -143z" />
    <glyph glyph-name="yen.taboldstyle" horiz-adv-x="570" 
d="M430 0h-284v31c52 22 62 24 63 89h-111v52h111v32l-10 20h-101v52h74l-44 88c-46 91 -69 99 -105 116v30h266v-32c-46 -4 -49 -20 -8 -107l38 -81l36 81c39 86 29 103 -20 107v32h211v-32c-38 -11 -71 -29 -109 -115l-38 -87h76v-52h-99l-9 -20v-32h108v-52h-108
c1 -65 11 -67 63 -89v-31z" />
    <glyph glyph-name="florin.taboldstyle" horiz-adv-x="566" 
d="M463 158h-108v-195c0 -136 -106 -198 -232 -198c-84 0 -137 42 -137 100c0 43 34 73 72 73c41 0 73 -22 73 -67c0 -24 -10 -45 -29 -63h10c52 1 80 44 80 141v209h-97c4 24 8 48 13 73h84v93c0 136 106 198 232 198c84 0 138 -42 138 -100c0 -43 -35 -73 -73 -73
c-41 0 -73 22 -73 67c0 24 10 46 29 63c-3 1 -7 1 -10 1c-52 -1 -80 -45 -80 -142v-107h108v-73z" />
    <glyph glyph-name="percent.oldstyle" horiz-adv-x="920" 
d="M297 -47h-73l330 502l-4 1c-33 -21 -68 -45 -111 -45c-27 0 -52 5 -75 15c5 -13 8 -39 8 -59c0 -97 -68 -244 -179 -244c-91 0 -153 73 -153 163c0 104 87 236 200 236c95 0 95 -69 197 -69c73 0 137 44 184 97h65zM209 186c74 0 113 106 113 179c0 35 -21 93 -64 93
c-66 0 -103 -109 -103 -188c0 -35 15 -84 54 -84zM697 -12c-89 0 -151 71 -151 158c0 110 86 240 204 240c84 0 130 -69 130 -148c0 -103 -63 -250 -183 -250zM716 50c73 0 112 106 112 179c0 35 -21 93 -64 93c-66 0 -103 -109 -103 -188c0 -35 16 -84 55 -84z" />
    <glyph glyph-name="perthousand.oldstyle" horiz-adv-x="1291" 
d="M297 -47h-73l330 502l-4 1c-33 -21 -68 -45 -111 -45c-27 0 -52 5 -75 15c5 -13 8 -39 8 -59c0 -97 -68 -244 -179 -244c-91 0 -153 73 -153 163c0 104 87 236 200 236c95 0 95 -69 197 -69c73 0 137 44 184 97h65zM209 186c74 0 113 106 113 179c0 35 -21 93 -64 93
c-66 0 -103 -109 -103 -188c0 -35 15 -84 54 -84zM697 -12c-89 0 -151 71 -151 158c0 110 86 240 204 240c84 0 130 -69 130 -148c0 -103 -63 -250 -183 -250zM716 50c73 0 112 106 112 179c0 35 -21 93 -64 93c-66 0 -103 -109 -103 -188c0 -35 16 -84 55 -84zM1068 -12
c-89 0 -151 71 -151 158c0 110 86 240 204 240c84 0 130 -69 130 -148c0 -103 -63 -250 -183 -250zM1086 50c74 0 113 106 113 179c0 35 -21 93 -64 93c-66 0 -103 -109 -103 -188c0 -35 15 -84 54 -84z" />
    <glyph glyph-name="numbersign.taboldstyle" horiz-adv-x="570" 
d="M330 0h-48l40 229h-116l-40 -229h-48l40 229h-98v48h106l24 136h-130v48h139l40 229h48l-40 -229h116l40 229h48l-40 -229h99v-48h-108l-24 -136h132v-48h-140zM330 277l24 136h-116l-24 -136h116z" />
    <glyph glyph-name="zero.posf" horiz-adv-x="566" 
d="M283 -13c-145 0 -256 107 -256 268c0 169 117 267 256 267s256 -98 256 -267c0 -161 -112 -268 -256 -268zM283 50c67 0 83 81 83 205c0 139 -24 204 -83 204c-61 0 -84 -65 -84 -204c0 -124 16 -205 84 -205z" />
    <glyph glyph-name="one.posf" horiz-adv-x="428" 
d="M381 0h-314v32c72 24 81 35 81 105v232c-37 -14 -70 -22 -103 -29l-8 47c79 25 169 84 237 135h34v-385c0 -71 12 -82 73 -106v-31z" />
    <glyph glyph-name="two.posf" horiz-adv-x="521" 
d="M475 0h-457v5c143 155 290 247 290 359c0 61 -42 95 -111 95c-24 0 -54 -4 -81 -18c50 -4 81 -35 81 -80c0 -50 -36 -81 -82 -81c-48 0 -87 34 -87 86c0 89 106 156 237 156c133 0 210 -70 210 -152c0 -128 -160 -148 -274 -246h274v-124z" />
    <glyph glyph-name="three.posf" horiz-adv-x="529" 
d="M150 150l-3 50c118 14 158 64 158 156c0 91 -95 130 -181 91c36 -11 63 -36 63 -79c0 -46 -34 -79 -79 -79s-84 28 -84 85c0 83 105 148 217 148c123 0 218 -48 218 -147c0 -83 -83 -117 -135 -148c81 -22 178 -88 178 -198c0 -140 -175 -227 -309 -227
c-113 0 -199 49 -199 129c0 46 40 81 86 81s82 -32 82 -78c0 -35 -18 -60 -35 -77c111 -23 209 32 209 149c0 99 -70 151 -186 144z" />
    <glyph glyph-name="four.posf" horiz-adv-x="561" 
d="M301 66v237l-201 -237h201zM455 -190h-154v190h-286v58l370 452h70v-444h69v-66h-69v-190z" />
    <glyph glyph-name="five.posf" horiz-adv-x="551" 
d="M166 -144v-4c11 -3 23 -4 34 -4c76 0 134 72 134 175c0 99 -58 147 -130 147c-35 0 -68 -14 -96 -33l-32 12l44 361h330v-141h-277l-18 -150c32 17 78 34 121 34c126 0 221 -86 221 -212c0 -158 -163 -236 -280 -236c-114 0 -186 42 -186 125c0 51 43 86 90 86
c49 0 87 -30 87 -84c0 -34 -21 -57 -42 -76z" />
    <glyph glyph-name="six.posf" horiz-adv-x="551" 
d="M451 704v-54c-117 -23 -201 -108 -232 -242c24 14 57 26 102 26c120 0 205 -63 205 -196c0 -145 -89 -253 -239 -253c-153 0 -250 110 -250 295c0 231 198 400 414 424zM209 358c-4 -25 -5 -52 -5 -78c0 -117 17 -232 87 -232c56 0 77 64 77 151c0 115 -45 172 -105 172
c-17 0 -37 -6 -54 -13z" />
    <glyph glyph-name="seven.posf" horiz-adv-x="515" 
d="M183 -186h-121l317 554h-361v142h477v-29z" />
    <glyph glyph-name="eight.posf" horiz-adv-x="566" 
d="M368 390c84 -45 160 -100 160 -199c0 -127 -132 -206 -263 -206c-112 0 -243 59 -243 177c0 88 73 137 153 168c-92 54 -141 114 -141 188c0 109 111 186 242 186c134 0 231 -82 231 -165c0 -68 -64 -122 -139 -149zM262 283l-35 17c-27 -30 -56 -79 -56 -131
c0 -66 38 -122 104 -122c56 0 98 37 98 103c0 62 -41 99 -111 133zM313 414c30 35 38 82 38 115c0 68 -33 113 -84 113c-47 0 -78 -35 -78 -92c0 -65 43 -95 124 -136z" />
    <glyph glyph-name="nine.posf" horiz-adv-x="551" 
d="M109 -197l-2 55c116 21 199 108 229 237c-28 -13 -63 -22 -106 -22c-116 0 -205 71 -205 202c0 141 89 247 237 247c152 0 254 -113 254 -294c0 -236 -194 -400 -407 -425zM345 144c3 23 5 50 5 80c0 125 -22 235 -92 235c-55 0 -75 -61 -75 -145
c0 -112 45 -179 116 -179c14 0 32 4 46 9z" />
    <glyph glyph-name="zerosuperior" horiz-adv-x="394" 
d="M197 295c40 0 47 91 47 168c0 105 -12 193 -47 193s-47 -88 -47 -193c0 -77 7 -168 47 -168zM196 253c-119 0 -177 105 -177 217c0 116 62 227 178 227s178 -105 178 -219c0 -112 -61 -225 -179 -225z" />
    <glyph glyph-name="onesuperior" unicode="&#xb9;" horiz-adv-x="394" 
d="M318 260h-236v21c45 13 52 33 52 78v210c-24 -6 -57 -12 -84 -18l-2 36c62 16 164 73 217 119h5v-347c0 -45 10 -63 48 -78v-21z" />
    <glyph glyph-name="twosuperior" unicode="&#xb2;" horiz-adv-x="394" 
d="M349 260h-320v16l131 149c50 57 69 104 69 146c0 64 -44 80 -83 80c-24 0 -42 -6 -56 -15c45 -2 73 -33 73 -64s-26 -59 -66 -59s-70 28 -70 65c0 54 62 119 172 119c87 0 161 -41 161 -116c0 -94 -117 -138 -171 -197l-22 -24h191z" />
    <glyph glyph-name="threesuperior" unicode="&#xb3;" horiz-adv-x="394" 
d="M129 470h-10l-14 20l88 105h-146v95h295v-4l-113 -133c74 -17 127 -71 127 -142c0 -97 -94 -158 -203 -158c-89 0 -136 37 -136 86c0 35 24 65 65 65c40 0 67 -31 67 -60c0 -17 -8 -37 -22 -51c3 -1 6 -1 9 -1c40 0 90 26 90 90c0 63 -49 88 -97 88z" />
    <glyph glyph-name="foursuperior" horiz-adv-x="394" 
d="M205 434v142l-118 -142h118zM374 260h-219v27c44 13 50 19 50 64v16h-192v68l214 256h101v-257h47v-67h-47v-16c0 -45 7 -49 46 -64v-27z" />
    <glyph glyph-name="fivesuperior" horiz-adv-x="394" 
d="M325 595h-202l-11 -83c23 9 61 17 92 17c80 0 152 -36 152 -115c0 -113 -105 -161 -209 -161c-83 0 -132 40 -132 87c0 37 28 64 69 64c44 0 65 -34 65 -61c0 -20 -11 -36 -22 -50c56 -4 99 32 99 91c0 52 -41 82 -83 82c-28 0 -52 -5 -63 -8l-30 10l29 222h246v-95z" />
    <glyph glyph-name="sixsuperior" horiz-adv-x="394" 
d="M320 698v-43c-77 -13 -136 -45 -158 -129c16 6 36 11 63 11c94 0 154 -53 154 -131c0 -71 -63 -153 -172 -153c-122 0 -189 86 -189 186c0 141 142 243 302 259zM154 487c-1 -10 -1 -23 -1 -33c0 -77 10 -159 56 -159c28 0 40 48 40 92c0 57 -27 105 -64 105
c-9 0 -19 -1 -31 -5z" />
    <glyph glyph-name="sevensuperior" horiz-adv-x="394" 
d="M210 260h-136c32 117 141 245 222 330h-267v100h342v-45c-81 -127 -140 -268 -161 -385z" />
    <glyph glyph-name="eightsuperior" horiz-adv-x="394" 
d="M257 508v-4c58 -27 121 -66 121 -127c0 -74 -88 -124 -189 -124c-89 0 -174 38 -174 107c0 54 56 88 116 106v4c-69 30 -106 69 -106 115c0 65 69 112 172 112c104 0 165 -49 165 -98c0 -44 -52 -77 -105 -91zM167 450c-20 -18 -35 -50 -35 -83c0 -43 24 -70 63 -70
c37 0 61 22 61 58c0 42 -33 69 -89 95zM215 519c19 22 26 53 26 75c0 44 -20 58 -50 58c-32 0 -46 -20 -46 -48c0 -38 27 -64 70 -85z" />
    </font>
</defs>
</svg>
