<?xml version="1.0" standalone="no"?>
<!DOCTYPE svg PUBLIC "-//W3C//DTD SVG 1.1//EN" "http://www.w3.org/Graphics/SVG/1.1/DTD/svg11.dtd" >
<svg>
<metadata>
Created by FontForge 20110222 at Thu Oct  9 07:51:06 2014
 By Orthosie Webhosting
Copyright (c) 2013 by Jonas Hecksher, Playtype, e-Types AS. All rights reserved.
</metadata>
<defs>
<font id="BerlingskeSerifTx-Regular" horiz-adv-x="0" >
  <font-face 
    font-family="Berlingske Serif Tx"
    font-weight="400"
    font-stretch="normal"
    units-per-em="1000"
    panose-1="2 0 5 3 6 0 0 2 0 4"
    ascent="800"
    descent="-200"
    x-height="510"
    cap-height="690"
    bbox="-435 -356 1778 1052"
    underline-thickness="50"
    underline-position="-50"
    stemh="51"
    stemv="92"
    unicode-range="U+000D-FB06"
  />
<missing-glyph horiz-adv-x="500" 
d="M462 38v613h-424v-613h424zM500 0h-500v690h500v-690zM68 595v10h114c72 0 100 -27 100 -75c0 -53 -39 -83 -102 -83h-27v-58c0 -28 7 -33 35 -42v-10h-120v10c23 9 28 14 28 42v165c0 29 -5 32 -28 41zM224 530c0 25 -11 53 -52 53h-19v-112h17c42 0 54 33 54 59z
M429 371l4 -6c-9 -12 -40 -31 -63 -31c-32 0 -53 17 -53 61v113l-22 1v15c31 11 36 29 53 60h22v-49h54v-30h-54v-107c0 -20 11 -32 28 -32c13 0 23 2 31 5z" />
    <glyph glyph-name="f_b" unicode="fb" horiz-adv-x="913" 
d="M404 14v587c-26 2 -53 20 -53 55c0 25 14 44 27 55c-19 4 -37 6 -53 6c-73 0 -132 -43 -132 -160v-47h110v-52h-110v-330c0 -76 12 -92 77 -110v-18h-234v18c55 18 67 34 67 110v330h-93l10 52h83v34c0 157 124 210 221 210c61 0 102 -13 119 -40c16 11 29 24 41 40h10
v-294c27 20 99 62 165 62c111 0 212 -84 212 -236c0 -196 -166 -298 -302 -298c-49 0 -131 14 -165 26zM494 424v-359c18 -11 48 -25 82 -25c103 0 195 74 195 222c0 137 -64 192 -163 192c-39 0 -91 -16 -114 -30z" />
    <glyph glyph-name="f_f" unicode="ff" horiz-adv-x="604" 
d="M571 0h-237v18c55 18 69 34 69 110v327h-210v-327c0 -76 14 -92 78 -110v-18h-237v18c55 18 69 34 69 110v327h-93l10 55h83v54c0 135 82 190 177 190c70 0 109 -29 109 -74c0 -32 -21 -53 -54 -53c-25 0 -49 12 -49 44c0 22 13 36 26 48c-6 1 -22 1 -27 1
c-62 0 -92 -33 -92 -143v-67h210v54c0 135 92 190 187 190c70 0 109 -29 109 -74c0 -32 -21 -53 -54 -53c-25 0 -49 12 -49 44c0 22 13 36 26 48c-6 1 -22 1 -27 1c-62 0 -102 -33 -102 -143v-67h112v-55h-112v-327c0 -76 14 -92 78 -110v-18z" />
    <glyph glyph-name="f_h" unicode="fh" horiz-adv-x="916" 
d="M881 0h-224v18c55 18 68 34 68 110v217c0 69 -37 109 -108 109c-44 0 -92 -19 -123 -37v-289c0 -76 14 -92 69 -110v-18h-228v18c55 18 69 34 69 110v473c-26 2 -53 20 -53 55c0 25 14 44 27 55c-19 4 -37 6 -53 6c-73 0 -132 -43 -132 -160v-47h110v-52h-110v-330
c0 -76 12 -92 77 -110v-18h-234v18c55 18 67 34 67 110v330h-93l10 52h83v34c0 157 124 210 221 210c61 0 102 -13 119 -40c16 11 29 24 41 40h10v-306c30 25 113 74 170 74c72 0 149 -43 149 -172v-222c0 -76 13 -92 68 -110v-18z" />
    <glyph glyph-name="f_i" unicode="fi" horiz-adv-x="584" 
d="M560 0h-224v18c55 18 68 34 68 110v207c0 93 -7 123 -81 123h-130v-330c0 -76 12 -92 77 -110v-18h-234v18c55 18 67 34 67 110v330h-93l10 52h83v39c0 157 139 205 239 205c89 0 141 -25 141 -82c0 -37 -23 -59 -50 -59c-29 0 -54 15 -54 52c0 25 14 38 27 49
c-22 4 -41 6 -61 6c-81 0 -152 -41 -152 -158v-52h147c79 0 140 8 148 12h4v-394c0 -76 13 -92 68 -110v-18z" />
    <glyph glyph-name="f_j" unicode="fj" horiz-adv-x="584" 
d="M332 -235l-9 12c49 30 81 102 81 186v372c0 93 -7 123 -81 123h-130v-330c0 -76 12 -92 77 -110v-18h-234v18c55 18 67 34 67 110v330h-93l10 52h83v39c0 157 139 205 239 205c89 0 141 -25 141 -82c0 -37 -23 -59 -50 -59c-29 0 -54 15 -54 52c0 25 14 38 27 49
c-22 4 -41 6 -61 6c-81 0 -152 -41 -152 -158v-52h147c79 0 140 8 148 12h6v-520c0 -154 -98 -212 -162 -237z" />
    <glyph glyph-name="f_k" unicode="fk" horiz-adv-x="851" 
d="M562 0h-226v18c55 18 68 34 68 110v473c-26 2 -53 20 -53 55c0 25 14 44 27 55c-19 4 -37 6 -53 6c-73 0 -132 -43 -132 -160v-47h110v-52h-110v-330c0 -76 12 -92 77 -110v-18h-234v18c55 18 67 34 67 110v330h-93l10 52h83v34c0 157 124 210 221 210
c61 0 102 -13 119 -40c16 11 29 24 41 40h10v-626c0 -76 13 -92 68 -110v-18zM867 0h-94c-59 0 -79 20 -118 75l-133 187l90 100c25 28 47 57 47 81c0 20 -16 37 -61 46v21h246v-18c-42 -10 -86 -47 -136 -100l-94 -100l131 -173c55 -73 82 -91 122 -101v-18z" />
    <glyph glyph-name="f_l" unicode="fl" horiz-adv-x="586" 
d="M562 0h-226v18c55 18 68 34 68 110v473c-26 2 -53 20 -53 55c0 25 14 44 27 55c-19 4 -37 6 -53 6c-73 0 -132 -43 -132 -160v-47h110v-52h-110v-330c0 -76 12 -92 77 -110v-18h-234v18c55 18 67 34 67 110v330h-93l10 52h83v34c0 157 124 210 221 210
c61 0 102 -13 119 -40c16 11 29 24 41 40h10v-626c0 -76 13 -92 68 -110v-18z" />
    <glyph glyph-name="f_t" unicode="ft" horiz-adv-x="658" 
d="M657 75l7 -19c-23 -23 -84 -64 -152 -64c-60 0 -108 22 -108 133v327c-30 3 -61 3 -91 3h-120v-327c0 -76 14 -92 78 -110v-18h-237v18c55 18 69 34 69 110v327h-93l10 55h83v54c0 135 92 190 187 190c70 0 109 -29 109 -74c0 -32 -21 -53 -54 -53c-25 0 -49 12 -49 44
c0 22 13 36 26 48c-6 1 -22 1 -27 1c-62 0 -102 -33 -102 -143v-67h138c78 0 113 74 146 117h17v-117h145v-58h-145v-330c0 -39 25 -66 71 -66c21 0 69 5 92 19z" />
    <glyph glyph-name="f_f_b" unicode="ffb" horiz-adv-x="1213" 
d="M704 14v587c-26 2 -53 20 -53 55c0 25 14 44 27 55c-19 4 -37 6 -53 6c-73 0 -132 -43 -132 -160v-47h110v-55h-110v-327c0 -76 12 -92 77 -110v-18h-234v18c55 18 67 34 67 110v327h-210v-327c0 -76 14 -92 78 -110v-18h-237v18c55 18 69 34 69 110v327h-93l10 55h83v54
c0 135 92 190 187 190c70 0 109 -29 109 -74c0 -32 -21 -53 -54 -53c-25 0 -49 12 -49 44c0 22 13 36 26 48c-6 1 -22 1 -27 1c-62 0 -102 -33 -102 -143v-67h210v34c0 157 124 210 221 210c61 0 102 -13 119 -40c16 11 29 24 41 40h10v-294c27 20 99 62 165 62
c111 0 212 -84 212 -236c0 -196 -166 -298 -302 -298c-49 0 -131 14 -165 26zM794 424v-359c18 -11 48 -25 82 -25c103 0 195 74 195 222c0 137 -64 192 -163 192c-39 0 -91 -16 -114 -30z" />
    <glyph glyph-name="f_f_f" unicode="fff" horiz-adv-x="904" 
d="M403 455h-210v-327c0 -76 14 -92 78 -110v-18h-237v18c55 18 69 34 69 110v327h-93l10 55h83v54c0 135 82 190 177 190c70 0 109 -29 109 -74c0 -32 -21 -53 -54 -53c-25 0 -49 12 -49 44c0 22 13 36 26 48c-6 1 -22 1 -27 1c-62 0 -92 -33 -92 -143v-67h210v54
c0 135 82 190 177 190c70 0 109 -29 109 -74c0 -32 -21 -53 -54 -53c-25 0 -49 12 -49 44c0 22 13 36 26 48c-6 1 -22 1 -27 1c-62 0 -92 -33 -92 -143v-67h210v54c0 135 92 190 187 190c70 0 109 -29 109 -74c0 -32 -21 -53 -54 -53c-25 0 -49 12 -49 44c0 22 13 36 26 48
c-6 1 -22 1 -27 1c-62 0 -102 -33 -102 -143v-67h112v-55h-112v-327c0 -76 14 -92 78 -110v-18h-237v18c55 18 69 34 69 110v327h-210v-327c0 -76 14 -92 78 -110v-18h-237v18c55 18 69 34 69 110v327z" />
    <glyph glyph-name="f_f_h" unicode="ffh" horiz-adv-x="1216" 
d="M1181 0h-224v18c55 18 68 34 68 110v217c0 69 -37 109 -108 109c-44 0 -92 -19 -123 -37v-289c0 -76 14 -92 69 -110v-18h-228v18c55 18 69 34 69 110v473c-26 2 -53 20 -53 55c0 25 14 44 27 55c-19 4 -37 6 -53 6c-73 0 -132 -43 -132 -160v-47h110v-55h-110v-327
c0 -76 12 -92 77 -110v-18h-234v18c55 18 67 34 67 110v327h-210v-327c0 -76 14 -92 78 -110v-18h-237v18c55 18 69 34 69 110v327h-93l10 55h83v54c0 135 82 190 177 190c70 0 109 -29 109 -74c0 -32 -21 -53 -54 -53c-25 0 -49 12 -49 44c0 22 13 36 26 48
c-6 1 -22 1 -27 1c-62 0 -92 -33 -92 -143v-67h210v34c0 157 124 210 221 210c61 0 102 -13 119 -40c16 11 29 24 41 40h10v-306c30 25 113 74 170 74c72 0 149 -43 149 -172v-222c0 -76 13 -92 68 -110v-18z" />
    <glyph glyph-name="f_f_i" unicode="ffi" horiz-adv-x="884" 
d="M860 0h-224v18c55 18 68 34 68 110v207c0 93 -7 123 -81 123h-130v-330c0 -76 12 -92 77 -110v-18h-234v18c55 18 67 34 67 110v330h-210v-330c0 -76 14 -92 78 -110v-18h-237v18c55 18 69 34 69 110v330h-93l10 52h83v54c0 135 82 190 177 190c70 0 109 -29 109 -74
c0 -32 -21 -53 -54 -53c-25 0 -49 12 -49 44c0 22 13 36 26 48c-6 1 -22 1 -27 1c-62 0 -92 -33 -92 -143v-67h210v39c0 157 139 205 239 205c89 0 141 -25 141 -82c0 -37 -23 -59 -50 -59c-29 0 -54 15 -54 52c0 25 14 38 27 49c-22 4 -41 6 -61 6
c-81 0 -152 -41 -152 -158v-52h147c79 0 140 8 148 12h4v-394c0 -76 13 -92 68 -110v-18z" />
    <glyph glyph-name="f_f_j" unicode="ffj" horiz-adv-x="884" 
d="M632 -235l-9 12c49 30 81 102 81 186v372c0 93 -7 120 -81 120h-130v-327c0 -76 12 -92 77 -110v-18h-234v18c55 18 67 34 67 110v327h-210v-327c0 -76 14 -92 78 -110v-18h-237v18c55 18 69 34 69 110v327h-93l10 55h83v54c0 135 82 190 177 190c70 0 109 -29 109 -74
c0 -32 -21 -53 -54 -53c-25 0 -49 12 -49 44c0 22 13 36 26 48c-6 1 -22 1 -27 1c-62 0 -92 -33 -92 -143v-67h210v39c0 157 139 205 239 205c89 0 141 -25 141 -82c0 -37 -23 -59 -50 -59c-29 0 -54 15 -54 52c0 25 14 38 27 49c-22 4 -41 6 -61 6
c-81 0 -152 -41 -152 -158v-52h147c79 0 140 8 148 12h6v-520c0 -154 -98 -212 -162 -237z" />
    <glyph glyph-name="f_f_k" unicode="ffk" horiz-adv-x="1151" 
d="M862 0h-226v18c55 18 68 34 68 110v473c-26 2 -53 20 -53 55c0 25 14 44 27 55c-19 4 -37 6 -53 6c-73 0 -132 -43 -132 -160v-47h110v-55h-110v-327c0 -76 12 -92 77 -110v-18h-234v18c55 18 67 34 67 110v327h-210v-327c0 -76 14 -92 78 -110v-18h-237v18
c55 18 69 34 69 110v327h-93l10 55h83v54c0 135 82 190 177 190c70 0 109 -29 109 -74c0 -32 -21 -53 -54 -53c-25 0 -49 12 -49 44c0 22 13 36 26 48c-6 1 -22 1 -27 1c-62 0 -92 -33 -92 -143v-67h210v34c0 157 124 210 221 210c61 0 102 -13 119 -40c16 11 29 24 41 40
h10v-626c0 -76 13 -92 68 -110v-18zM1167 0h-94c-59 0 -79 20 -118 75l-133 187l90 100c25 28 47 57 47 81c0 20 -16 37 -61 46v21h246v-18c-42 -10 -86 -47 -136 -100l-94 -100l131 -173c55 -73 82 -91 122 -101v-18z" />
    <glyph glyph-name="f_f_l" unicode="ffl" horiz-adv-x="886" 
d="M862 0h-226v18c55 18 68 34 68 110v473c-26 2 -53 20 -53 55c0 25 14 44 27 55c-19 4 -37 6 -53 6c-73 0 -132 -43 -132 -160v-47h110v-55h-110v-327c0 -76 12 -92 77 -110v-18h-234v18c55 18 67 34 67 110v327h-210v-327c0 -76 14 -92 78 -110v-18h-237v18
c55 18 69 34 69 110v327h-93l10 55h83v54c0 135 82 190 177 190c70 0 109 -29 109 -74c0 -32 -21 -53 -54 -53c-25 0 -49 12 -49 44c0 22 13 36 26 48c-6 1 -22 1 -27 1c-62 0 -92 -33 -92 -143v-67h210v34c0 157 124 210 221 210c61 0 102 -13 119 -40c16 11 29 24 41 40
h10v-626c0 -76 13 -92 68 -110v-18z" />
    <glyph glyph-name=".notdef" horiz-adv-x="500" 
d="M462 38v613h-424v-613h424zM500 0h-500v690h500v-690zM68 595v10h114c72 0 100 -27 100 -75c0 -53 -39 -83 -102 -83h-27v-58c0 -28 7 -33 35 -42v-10h-120v10c23 9 28 14 28 42v165c0 29 -5 32 -28 41zM224 530c0 25 -11 53 -52 53h-19v-112h17c42 0 54 33 54 59z
M429 371l4 -6c-9 -12 -40 -31 -63 -31c-32 0 -53 17 -53 61v113l-22 1v15c31 11 36 29 53 60h22v-49h54v-30h-54v-107c0 -20 11 -32 28 -32c13 0 23 2 31 5z" />
    <glyph glyph-name=".null" 
 />
    <glyph glyph-name=".null" 
 />
    <glyph glyph-name="CR" unicode="&#xd;" horiz-adv-x="199" 
 />
    <glyph glyph-name="space" unicode=" " horiz-adv-x="200" 
 />
    <glyph glyph-name="uni00A0" unicode="&#xa0;" horiz-adv-x="200" 
 />
    <glyph glyph-name="A" unicode="A" horiz-adv-x="675" 
d="M671 0h-235v18c39 10 56 21 56 55c0 33 -22 107 -51 193h-234c-31 -97 -50 -156 -50 -191c0 -33 18 -44 59 -57v-18h-218v18c53 20 72 45 143 254l141 418h117l136 -417c67 -205 83 -235 136 -255v-18zM423 320l-100 307l-99 -307h199z" />
    <glyph glyph-name="B" unicode="B" horiz-adv-x="608" 
d="M214 379h76c95 0 140 56 140 138c0 78 -46 122 -146 122h-70v-260zM214 51h100c84 0 151 35 151 131c0 104 -85 149 -165 149h-86v-280zM317 0h-280v18c64 18 80 34 80 111v432c0 77 -16 93 -80 111v18h268c136 0 221 -42 221 -173c0 -87 -57 -130 -116 -152
c81 -13 155 -74 155 -165c0 -146 -116 -200 -248 -200z" />
    <glyph glyph-name="C" unicode="C" horiz-adv-x="670" 
d="M632 165l-16 -138c-37 -21 -131 -42 -207 -42c-198 0 -361 120 -361 349c0 255 191 370 365 370c66 0 164 -22 198 -39v-132h-23c-51 115 -124 120 -186 120c-137 0 -244 -114 -244 -306c0 -200 117 -311 257 -311c71 0 142 12 194 129h23z" />
    <glyph glyph-name="D" unicode="D" horiz-adv-x="743" 
d="M337 0h-300v18c65 18 80 44 80 121v412c0 77 -15 103 -80 121v18h309c194 0 359 -114 359 -329c0 -234 -153 -361 -368 -361zM215 51h125c160 0 256 131 256 306c0 158 -111 282 -245 282h-136v-588z" />
    <glyph glyph-name="E" unicode="E" horiz-adv-x="566" 
d="M510 0h-467v18c63 18 79 34 79 111v432c0 77 -16 93 -79 111v18h440v-141h-22c-57 89 -52 90 -119 90h-123v-259h122c40 0 53 17 79 54h20v-161h-20c-26 37 -39 57 -79 57h-122v-279h150c63 0 63 6 139 105h21z" />
    <glyph glyph-name="F" unicode="F" horiz-adv-x="544" 
d="M306 0h-268v18c63 18 79 34 79 111v432c0 77 -16 93 -79 111v18h448v-141h-24c-56 89 -56 90 -123 90h-125v-268h130c40 0 53 18 79 55h20v-165h-20c-26 37 -39 60 -79 60h-130v-192c0 -77 18 -93 92 -111v-18z" />
    <glyph glyph-name="G" unicode="G" horiz-adv-x="728" 
d="M642 30h-4c-99 -22 -157 -45 -228 -45c-191 0 -359 127 -359 357c0 249 201 362 375 362c67 0 160 -20 197 -37v-143h-25c-55 111 -116 129 -181 129c-138 0 -256 -97 -256 -306s119 -306 266 -306c54 0 106 19 124 26v144c0 77 -15 103 -80 121v18h233v-18
c-47 -18 -62 -34 -62 -121v-181z" />
    <glyph glyph-name="H" unicode="H" horiz-adv-x="788" 
d="M740 0h-257v18c66 18 81 34 81 111v198h-345v-198c0 -77 16 -93 79 -111v-18h-255v18c65 18 80 34 80 111v432c0 77 -15 93 -80 111v18h255v-18c-63 -18 -79 -34 -79 -111v-179h345v179c0 77 -15 93 -81 111v18h257v-18c-65 -18 -80 -34 -80 -111v-432
c0 -77 15 -93 80 -111v-18z" />
    <glyph glyph-name="I" unicode="I" horiz-adv-x="343" 
d="M298 0h-257v18c65 18 81 34 81 111v432c0 77 -16 93 -81 111v18h257v-18c-64 -18 -80 -34 -80 -111v-432c0 -77 16 -93 80 -111v-18z" />
    <glyph glyph-name="J" unicode="J" horiz-adv-x="339" 
d="M42 -206l-14 20c55 39 94 105 94 210v537c0 77 -16 93 -81 111v18h257v-18c-64 -18 -80 -34 -80 -111v-498c0 -154 -103 -234 -176 -269z" />
    <glyph glyph-name="K" unicode="K" horiz-adv-x="691" 
d="M704 0h-261v18c27 6 46 11 46 29c0 20 -18 57 -65 126l-118 175l-92 -99v-120c0 -77 15 -93 78 -111v-18h-255v18c65 18 80 34 80 111v432c0 77 -15 93 -80 111v18h255v-18c-63 -18 -78 -34 -78 -111v-249l183 208c43 50 63 80 63 104c0 21 -19 36 -51 48v18h252v-18
c-73 -25 -98 -46 -203 -160l-82 -89l163 -244c75 -111 107 -141 165 -161v-18z" />
    <glyph glyph-name="L" unicode="L" horiz-adv-x="530" 
d="M485 0h-448v18c64 18 79 44 79 121v412c0 77 -15 103 -79 121v18h255v-18c-65 -18 -79 -44 -79 -121v-500h148c37 0 46 2 125 106h18z" />
    <glyph glyph-name="M" unicode="M" horiz-adv-x="939" 
d="M903 0h-239v18c54 22 68 38 68 104c0 21 -1 47 -3 78l-24 409l-212 -609h-80l-212 617l-25 -402c-2 -29 -3 -54 -3 -76c0 -75 15 -102 72 -121v-18h-225v18c65 19 75 79 84 197l22 297c2 23 3 44 3 62c0 56 -13 80 -64 98v18h214l193 -565l196 565h198v-18
c-49 -20 -63 -42 -63 -101c0 -15 1 -33 2 -55l20 -302c9 -142 16 -167 78 -196v-18z" />
    <glyph glyph-name="N" unicode="N" horiz-adv-x="798" 
d="M692 -10h-66l-452 587v-377c0 -143 13 -161 75 -182v-18h-217v18c62 21 74 37 74 182v396c0 33 -28 60 -93 76v18h199l413 -533v333c0 142 -14 161 -74 182v18h215v-18c-60 -21 -74 -37 -74 -182v-500z" />
    <glyph glyph-name="O" unicode="O" horiz-adv-x="769" 
d="M382 -15c-189 0 -339 135 -339 359c0 219 158 360 339 360s339 -138 339 -357c0 -224 -149 -362 -339 -362zM382 36c145 0 229 143 229 308c0 169 -84 309 -229 309s-230 -140 -230 -309c0 -165 85 -308 230 -308z" />
    <glyph glyph-name="P" unicode="P" horiz-adv-x="587" 
d="M306 0h-269v18c64 18 79 34 79 111v432c0 77 -15 93 -79 111v18h297c133 0 211 -59 211 -182c0 -142 -103 -207 -220 -207h-112v-172c0 -77 18 -93 93 -111v-18zM213 348h97c104 0 136 86 136 156c0 71 -34 139 -128 139h-105v-295z" />
    <glyph glyph-name="Q" unicode="Q" horiz-adv-x="769" 
d="M1163 -129v-12c-22 -26 -105 -95 -231 -95c-56 0 -224 38 -410 158l-101 65c-13 -1 -26 -2 -39 -2c-189 0 -339 135 -339 359c0 219 158 360 339 360s339 -141 339 -360c0 -177 -92 -298 -224 -341c214 -101 357 -145 533 -145c50 0 97 6 133 13zM382 36
c145 0 229 143 229 308c0 169 -84 309 -229 309s-230 -140 -230 -309c0 -165 85 -308 230 -308z" />
    <glyph glyph-name="R" unicode="R" horiz-adv-x="618" 
d="M636 0h-63c-98 0 -112 16 -160 91l-140 217h-60v-179c0 -77 14 -93 78 -111v-18h-254v18c65 18 79 34 79 111v432c0 77 -14 93 -79 111v18h288c132 0 212 -57 212 -178c0 -105 -85 -159 -165 -181l143 -209c59 -86 71 -90 121 -104v-18zM213 354h81c72 0 143 47 143 149
c0 84 -55 140 -126 140h-98v-289z" />
    <glyph glyph-name="S" unicode="S" horiz-adv-x="499" 
d="M59 27l-13 148h24c55 -110 112 -139 175 -139c62 0 116 43 116 106c0 166 -304 182 -304 377c0 110 107 185 211 185c53 0 116 -19 164 -41v-125h-24c-47 90 -89 115 -154 115c-61 0 -108 -43 -108 -94c0 -152 312 -172 312 -372c0 -121 -104 -202 -224 -202
c-61 0 -135 19 -175 42z" />
    <glyph glyph-name="T" unicode="T" horiz-adv-x="625" 
d="M439 0h-257v18c64 18 79 34 79 111v510h-100c-27 0 -40 -1 -66 -42l-30 -48h-28l12 141h522l12 -141h-28l-30 48c-26 41 -39 42 -66 42h-100v-510c0 -77 15 -93 80 -111v-18z" />
    <glyph glyph-name="U" unicode="U" horiz-adv-x="749" 
d="M574 195v295c0 142 -14 161 -76 182v18h218v-18c-61 -21 -75 -37 -75 -182v-302c0 -133 -124 -203 -274 -203c-141 0 -250 64 -250 203v373c0 77 -15 93 -80 111v18h256v-18c-63 -18 -78 -34 -78 -111v-379c0 -76 53 -133 167 -133c111 0 192 47 192 146z" />
    <glyph glyph-name="V" unicode="V" horiz-adv-x="681" 
d="M389 0h-109l-140 417c-55 165 -81 225 -136 255v18h235v-18c-39 -10 -56 -21 -56 -55c0 -33 22 -107 51 -193l119 -352l115 354c31 95 50 154 50 189c0 33 -18 44 -59 57v18h218v-18c-53 -28 -74 -57 -143 -254z" />
    <glyph glyph-name="W" unicode="W" horiz-adv-x="987" 
d="M715 0h-102l-121 455l-131 -455h-113l-112 417c-55 205 -73 226 -128 255v18h236v-18c-37 -15 -46 -29 -46 -65c0 -37 14 -97 36 -184l87 -349v1l96 351c22 78 33 130 33 166c0 43 -19 61 -60 80v18h214v-18c-36 -15 -51 -30 -51 -66c0 -37 14 -99 36 -183l92 -331
l101 334c24 79 39 140 39 175c0 37 -12 53 -51 71v18h216v-18c-54 -27 -66 -45 -134 -254z" />
    <glyph glyph-name="X" unicode="X" horiz-adv-x="649" 
d="M645 0h-261v19c42 9 63 20 63 43c0 14 -8 32 -24 57l-114 178l-75 -116c-44 -68 -63 -107 -63 -127c0 -18 18 -25 53 -35v-19h-224v18c55 18 75 40 166 173l109 159l-135 212c-51 80 -72 94 -120 110v18h253v-19c-35 -10 -54 -18 -54 -39c0 -14 8 -33 26 -61l101 -159
l64 97c44 68 61 107 61 127c0 18 -21 25 -54 35v19h219v-18c-54 -19 -78 -46 -163 -173l-94 -140l153 -239c49 -77 73 -89 113 -102v-18z" />
    <glyph glyph-name="Y" unicode="Y" horiz-adv-x="580" 
d="M416 0h-256v18c63 18 79 34 79 111v161l-94 196c-69 144 -94 176 -137 186v18h215v-18c-28 -7 -42 -15 -42 -39c0 -27 26 -71 58 -140l65 -138l62 139c33 75 50 118 50 143c0 23 -14 31 -43 35v18h195v-18c-42 -10 -68 -29 -141 -185l-91 -195v-163c0 -77 16 -93 80 -111
v-18z" />
    <glyph glyph-name="Z" unicode="Z" horiz-adv-x="538" 
d="M490 0h-464v21l352 615h-204c-38 0 -44 -9 -112 -87h-22l17 141h442v-21l-347 -615h215c37 0 53 5 121 102h21z" />
    <glyph glyph-name="AE" unicode="&#xc6;" horiz-adv-x="910" 
d="M854 0h-457v18c63 18 79 34 79 111v137h-209l-12 -22c-97 -178 -104 -195 -30 -226v-18h-226v18c56 28 95 63 202 251l144 254c57 101 25 131 -58 148v19h540v-141h-22c-57 89 -52 90 -119 90h-113v-259h110c40 0 55 17 81 54h20v-161h-20c-26 37 -41 57 -81 57h-110
v-279h140c63 0 63 6 139 105h21zM476 320v319h-4l-175 -319h179z" />
    <glyph glyph-name="OE" unicode="&#x152;" horiz-adv-x="1044" 
d="M988 0h-378v95c-52 -71 -131 -110 -228 -110c-189 0 -339 135 -339 359c0 219 158 360 339 360c97 0 176 -41 228 -112v98h351v-141h-22c-57 89 -52 90 -119 90h-113v-259h112c40 0 55 17 81 54h18v-161h-18c-26 37 -41 57 -81 57h-112v-279h140c63 0 63 6 139 105h21z
M382 36c145 0 229 143 229 308c0 169 -84 309 -229 309s-230 -140 -230 -309c0 -165 85 -308 230 -308z" />
    <glyph glyph-name="Eth" unicode="&#xd0;" horiz-adv-x="733" 
d="M327 0h-290v18c65 18 80 44 80 121v190h-71v50h71v172c0 77 -15 103 -80 121v18h299c194 0 357 -114 357 -329c0 -234 -151 -361 -366 -361zM215 51h115c160 0 254 131 254 306c0 158 -109 282 -243 282h-126v-260h121v-50h-121v-278z" />
    <glyph glyph-name="Eng" unicode="&#x14a;" horiz-adv-x="786" 
d="M613 7l-439 568v-375c0 -143 13 -161 75 -182v-18h-217v18c62 21 74 37 74 182v396c0 33 -28 60 -93 76v18h199l413 -530v330c0 142 -14 161 -74 182v18h215v-18c-60 -21 -74 -37 -74 -182v-377c0 -166 -70 -273 -177 -273c-31 0 -46 16 -46 47c0 12 2 23 10 37
c12 -5 22 -8 34 -8c51 0 90 41 100 91z" />
    <glyph glyph-name="Thorn" unicode="&#xde;" horiz-adv-x="577" 
d="M307 0h-270v14c64 18 79 48 79 125v412c0 77 -15 107 -79 125v14h256v-14c-64 -18 -79 -48 -79 -125v-11h110c133 0 209 -55 209 -181c0 -140 -101 -200 -218 -200h-101v-20c0 -77 18 -107 93 -125v-14zM214 200h86c104 0 136 85 136 160c0 65 -34 139 -128 139h-94v-299
z" />
    <glyph glyph-name="a" unicode="a" horiz-adv-x="505" 
d="M487 36v-18c-7 -3 -71 -26 -105 -26c-31 0 -58 20 -63 62c-29 -25 -84 -66 -145 -66c-76 0 -136 54 -136 125c0 92 62 163 280 178v62c0 77 -48 112 -122 112c-32 0 -71 -8 -88 -13v-5c23 -8 43 -21 43 -50c0 -31 -24 -48 -50 -48c-28 0 -49 20 -49 50
c0 63 115 123 203 123c93 0 151 -52 151 -141v-261c0 -75 30 -79 81 -84zM318 79v162c-9 2 -44 5 -58 5c-95 0 -131 -36 -131 -103c0 -57 42 -90 101 -90c39 0 67 14 88 26z" />
    <glyph glyph-name="b" unicode="b" horiz-adv-x="594" 
d="M82 14v564c0 82 -9 93 -79 119v17c53 3 126 22 165 40h4v-294c27 20 99 62 165 62c111 0 212 -84 212 -236c0 -196 -166 -298 -302 -298c-49 0 -131 14 -165 26zM172 424v-359c18 -11 48 -25 82 -25c103 0 195 74 195 222c0 137 -64 192 -163 192c-39 0 -91 -16 -114 -30
z" />
    <glyph glyph-name="c" unicode="c" horiz-adv-x="451" 
d="M418 106l14 -13c-22 -32 -83 -105 -177 -105c-109 0 -212 85 -212 259c0 191 119 275 241 275c85 0 135 -40 135 -93c0 -35 -23 -64 -58 -64c-29 0 -52 17 -52 52c0 20 6 34 19 47c-10 3 -28 7 -47 7c-82 0 -145 -54 -145 -193c0 -157 81 -219 162 -219
c51 0 101 30 120 47z" />
    <glyph glyph-name="d" unicode="d" horiz-adv-x="589" 
d="M407 96v334c-25 19 -63 40 -111 40c-92 0 -162 -73 -162 -211c0 -127 74 -203 148 -203c55 0 94 22 125 40zM577 46v-13c-81 -8 -128 -27 -170 -45v81c-35 -34 -103 -81 -175 -81c-97 0 -193 96 -193 245c0 203 144 289 266 289c43 0 83 -10 102 -15v71
c0 82 -10 93 -89 119v17c54 3 137 22 175 40h4v-589c0 -83 10 -94 80 -119z" />
    <glyph glyph-name="e" unicode="e" horiz-adv-x="494" 
d="M445 113l13 -10c-19 -37 -90 -115 -198 -115c-124 0 -219 88 -219 254c0 184 115 280 229 280c96 0 178 -44 178 -216c0 -15 0 -17 -1 -29h-313v-5c0 -152 79 -213 167 -213c71 0 117 28 144 54zM134 320l225 10c-1 100 -35 140 -98 140c-61 0 -117 -28 -127 -150z" />
    <glyph glyph-name="f" unicode="f" horiz-adv-x="304" 
d="M271 0h-237v18c55 18 69 34 69 110v327h-93l10 55h83v54c0 135 92 190 187 190c70 0 109 -29 109 -74c0 -32 -21 -53 -54 -53c-25 0 -49 12 -49 44c0 22 13 36 26 48c-6 1 -22 1 -27 1c-62 0 -102 -33 -102 -143v-67h112v-55h-112v-327c0 -76 14 -92 78 -110v-18z" />
    <glyph glyph-name="g" unicode="g" horiz-adv-x="498" 
d="M192 77l170 -9c78 -4 124 -35 124 -109c0 -133 -153 -194 -278 -194c-95 0 -200 37 -200 115c0 63 63 103 113 125c-27 14 -41 40 -41 70c0 35 21 76 69 109c-44 23 -94 66 -94 152c0 121 85 186 182 186c36 0 74 -11 105 -29l150 29h4l-8 -75l-106 8
c21 -22 42 -59 42 -109c0 -110 -82 -184 -183 -184c-24 0 -45 4 -68 12c-17 -19 -28 -37 -28 -53c0 -19 12 -42 47 -44zM324 -16l-133 6c-20 1 -37 3 -45 6c-28 -21 -56 -54 -56 -95c0 -60 62 -83 151 -83c101 0 169 44 169 98c0 43 -30 65 -86 68zM239 209
c71 0 89 62 89 131c0 80 -25 130 -89 130s-88 -51 -88 -130c0 -68 18 -131 88 -131z" />
    <glyph glyph-name="h" unicode="h" horiz-adv-x="616" 
d="M581 0h-224v18c55 18 68 34 68 110v217c0 69 -37 109 -108 109c-44 0 -92 -19 -123 -37v-289c0 -76 14 -92 69 -110v-18h-228v18c55 18 69 34 69 110v450c0 82 -9 93 -79 119v17c53 3 126 22 165 40h4v-306c30 25 113 74 170 74c72 0 149 -43 149 -172v-222
c0 -76 13 -92 68 -110v-18z" />
    <glyph glyph-name="i" unicode="i" horiz-adv-x="294" 
d="M150 617c-32 0 -58 24 -58 61c0 38 26 61 58 61c33 0 59 -23 59 -61c0 -37 -26 -61 -59 -61zM263 0h-225v18c56 18 69 34 69 110v217c0 83 -9 94 -79 118v18c53 3 125 23 167 41v-394c0 -76 13 -92 68 -110v-18z" />
    <glyph glyph-name="j" unicode="j" horiz-adv-x="294" 
d="M34 -235l-9 12c49 30 81 102 81 186v382c0 83 -9 94 -80 118v18c54 3 129 23 170 41v-520c0 -154 -98 -212 -162 -237zM149 617c-32 0 -58 24 -58 61c0 38 26 61 58 61c33 0 59 -23 59 -61c0 -37 -26 -61 -59 -61z" />
    <glyph glyph-name="k" unicode="k" horiz-adv-x="553" 
d="M569 0h-94c-59 0 -79 20 -118 75l-133 187l92 100c25 28 47 57 47 81c0 20 -16 37 -61 46v21h250v-18c-42 -10 -90 -47 -140 -100l-96 -100l131 -173c56 -74 82 -91 122 -101v-18zM265 0h-228v18c55 18 69 34 69 110v450c0 82 -9 93 -79 119v17c53 3 126 22 165 40h4
v-626c0 -76 14 -92 69 -110v-18z" />
    <glyph glyph-name="l" unicode="l" horiz-adv-x="287" 
d="M263 0h-228v18c56 18 70 34 70 110v450c0 82 -9 93 -79 119v17c53 3 126 22 165 40h4v-626c0 -76 13 -92 68 -110v-18z" />
    <glyph glyph-name="m" unicode="m" horiz-adv-x="917" 
d="M884 0h-224v18c55 18 68 34 68 110v217c0 69 -31 109 -102 109c-32 0 -78 -12 -128 -45c4 -19 7 -35 7 -59v-222c0 -76 13 -92 68 -110v-18h-224v18c55 18 68 34 68 110v217c0 69 -29 109 -100 109c-44 0 -92 -19 -123 -37v-289c0 -76 14 -92 69 -110v-18h-225v18
c55 18 68 34 68 110v217c0 83 -9 94 -79 118v18c54 3 123 23 165 41v-76c29 25 114 76 172 76c52 0 102 -23 126 -84c67 50 135 84 183 84c72 0 143 -43 143 -172v-222c0 -76 13 -92 68 -110v-18z" />
    <glyph glyph-name="n" unicode="n" horiz-adv-x="614" 
d="M581 0h-224v18c55 18 68 34 68 110v217c0 69 -37 109 -108 109c-48 0 -92 -19 -123 -37v-289c0 -76 14 -92 69 -110v-18h-225v18c55 18 68 34 68 110v217c0 83 -9 94 -79 118v18c54 3 123 23 165 41v-74c29 25 114 74 172 74c72 0 149 -43 149 -172v-222
c0 -76 13 -92 68 -110v-18z" />
    <glyph glyph-name="o" unicode="o" horiz-adv-x="577" 
d="M285 -12c-132 0 -246 100 -246 269c0 172 119 265 246 265c128 0 247 -93 247 -265c0 -169 -114 -269 -247 -269zM285 40c103 0 145 89 145 216c0 140 -51 214 -145 214s-145 -74 -145 -214c0 -127 42 -216 145 -216z" />
    <glyph glyph-name="p" unicode="p" horiz-adv-x="600" 
d="M259 -225h-237v18c56 17 68 32 68 110v442c0 83 -9 94 -78 118v18c80 8 127 23 169 41v-62c27 23 95 62 162 62c111 0 212 -92 212 -241c0 -198 -177 -294 -299 -294c-27 0 -53 5 -75 12v-96c0 -78 13 -93 78 -110v-18zM181 427v-359c19 -14 56 -28 90 -28
c94 0 183 78 183 217c0 129 -73 200 -163 200c-37 0 -88 -16 -110 -30z" />
    <glyph glyph-name="q" unicode="q" horiz-adv-x="586" 
d="M563 -225h-236v18c63 17 77 32 77 110v167c-29 -35 -93 -82 -175 -82c-97 0 -191 96 -191 245c0 203 141 289 274 289c40 0 97 -9 129 -17l39 17h15v-619c0 -78 13 -93 68 -110v-18zM404 96v333c-21 18 -62 41 -101 41c-102 0 -170 -73 -170 -211
c0 -127 72 -199 146 -199c55 0 94 19 125 36z" />
    <glyph glyph-name="r" unicode="r" horiz-adv-x="389" 
d="M271 0h-233v18c54 18 67 34 67 110v217c0 83 -9 94 -78 118v18c52 3 125 23 166 41v-76c27 29 92 76 136 76c36 0 58 -28 58 -63c0 -38 -24 -56 -54 -56c-48 0 -41 45 -63 45c-24 0 -56 -21 -77 -36v-284c0 -76 14 -92 78 -110v-18z" />
    <glyph glyph-name="s" unicode="s" horiz-adv-x="404" 
d="M39 16v121h21c41 -74 84 -106 138 -106c48 0 89 38 89 85c0 137 -245 83 -245 257c0 89 81 149 167 149c38 0 89 -5 130 -21v-101h-22c-34 52 -61 79 -115 79c-41 0 -78 -34 -78 -78c0 -124 248 -76 248 -253c0 -90 -83 -160 -186 -160c-46 0 -100 7 -147 28z" />
    <glyph glyph-name="t" unicode="t" horiz-adv-x="354" 
d="M353 75l7 -19c-23 -23 -84 -64 -152 -64c-60 0 -108 22 -108 133v327l-70 3v18l37 27c52 30 70 79 106 127h17v-117h145v-58h-145v-330c0 -39 25 -66 71 -66c21 0 69 5 92 19z" />
    <glyph glyph-name="u" unicode="u" horiz-adv-x="580" 
d="M576 52v-19c-82 -8 -122 -27 -160 -45h-4v85c-36 -33 -126 -85 -175 -85c-67 0 -143 31 -143 161v196c0 83 -1 94 -71 118v18c54 3 117 23 155 41h4v-374c0 -53 30 -92 85 -92c56 0 108 21 141 42v247c0 83 -10 94 -79 118v18c52 3 125 23 163 41h4v-357
c0 -83 10 -88 80 -113z" />
    <glyph glyph-name="v" unicode="v" horiz-adv-x="524" 
d="M298 0h-92l-104 311c-51 151 -57 164 -98 181v18h202v-18c-30 -11 -43 -22 -43 -49c0 -28 12 -72 35 -147l71 -227l79 257c17 55 30 91 30 115c0 27 -15 40 -51 51v18h193v-18c-47 -20 -64 -44 -112 -181z" />
    <glyph glyph-name="w" unicode="w" horiz-adv-x="858" 
d="M635 0h-98l-116 414l-137 -414h-93l-80 311c-37 144 -58 171 -103 181v18h220v-18c-34 -10 -48 -18 -48 -50c0 -29 8 -74 25 -146l49 -212l140 426h87l122 -445l75 261c13 46 23 86 23 109c0 36 -10 47 -50 57v18h199v-18c-50 -10 -71 -53 -113 -181z" />
    <glyph glyph-name="x" unicode="x" horiz-adv-x="564" 
d="M552 0h-228v18c34 9 50 16 50 32c0 12 -9 28 -27 54l-83 116l-38 -54c-39 -56 -60 -92 -60 -115c0 -18 12 -28 38 -33v-18h-201v18c50 14 88 51 162 148l71 94l-99 141c-26 37 -61 76 -103 91v18h231v-18c-36 -6 -51 -16 -51 -34c0 -15 10 -34 28 -60l62 -88l23 34
c40 59 58 94 58 116c0 19 -14 28 -40 32v18h198v-18c-50 -14 -86 -51 -158 -148l-54 -72l109 -154c49 -70 70 -87 112 -100v-18z" />
    <glyph glyph-name="y" unicode="y" horiz-adv-x="534" 
d="M250 -38l12 38h-41l-86 274c-53 168 -67 198 -120 218v18h224v-19c-34 -11 -49 -21 -49 -49c0 -30 12 -77 34 -154l65 -224l72 226c22 68 33 110 33 140c0 38 -17 52 -53 61v19h202v-18c-50 -31 -63 -47 -124 -218l-121 -340c-48 -135 -116 -169 -182 -169
c-44 0 -75 32 -75 67c0 33 25 59 56 59c28 0 55 -19 55 -57c0 -5 0 -10 -1 -13c27 10 65 33 99 141z" />
    <glyph glyph-name="z" unicode="z" horiz-adv-x="482" 
d="M431 0h-396v40l295 414h-161c-28 0 -52 -4 -73 -28l-31 -36h-16l18 120h375v-39l-289 -415h172c27 0 51 1 73 28l36 44h16z" />
    <glyph glyph-name="ae" unicode="&#xe6;" horiz-adv-x="739" 
d="M690 113l13 -10c-19 -37 -91 -115 -199 -115c-66 0 -129 42 -166 88c-63 -63 -107 -88 -175 -88c-63 0 -125 53 -125 123c0 75 40 160 257 179v63c0 76 -33 114 -110 114c-34 0 -61 -8 -76 -15c21 -8 41 -20 41 -49c0 -32 -23 -50 -49 -50c-28 0 -49 24 -49 54
c0 63 105 115 192 115c52 0 94 -25 116 -68c42 45 99 68 155 68c96 0 178 -44 178 -216c0 -15 0 -17 -1 -29h-313v-5c0 -152 79 -213 167 -213c71 0 117 28 144 54zM295 242c-9 2 -42 4 -50 4c-66 0 -116 -34 -116 -106c0 -44 32 -86 91 -86c43 0 83 24 105 43
c-19 39 -30 86 -30 145zM379 320l225 10c-1 100 -35 140 -98 140c-61 0 -117 -28 -127 -150z" />
    <glyph glyph-name="oe" unicode="&#x153;" horiz-adv-x="879" 
d="M830 113l13 -10c-19 -37 -90 -115 -198 -115c-79 0 -141 35 -176 103c-40 -66 -105 -103 -184 -103c-132 0 -246 100 -246 269c0 172 119 265 246 265c82 0 153 -37 192 -109c41 72 107 109 178 109c96 0 178 -44 178 -216c0 -15 0 -17 -1 -29h-313v-5
c0 -152 79 -213 167 -213c71 0 117 28 144 54zM285 40c103 0 145 89 145 216c0 140 -51 214 -145 214s-145 -74 -145 -214c0 -127 42 -216 145 -216zM519 320l225 10c-1 100 -35 140 -98 140c-61 0 -117 -28 -127 -150z" />
    <glyph glyph-name="eth" unicode="&#xf0;" horiz-adv-x="577" 
d="M383 695l-70 -30c118 -98 219 -238 219 -410c0 -169 -114 -267 -247 -267c-132 0 -246 100 -246 269c0 172 119 265 246 265c25 0 50 -4 72 -12c-27 42 -60 87 -100 130l-76 -33l-16 35l64 27c-26 25 -53 48 -83 70l37 15c32 -18 64 -39 96 -63l87 38zM285 40
c103 0 145 89 145 216c0 140 -51 214 -145 214s-145 -74 -145 -214c0 -127 42 -216 145 -216z" />
    <glyph glyph-name="eng" unicode="&#x14b;" horiz-adv-x="600" 
d="M351 -235l-9 12c49 30 83 102 83 186v382c0 69 -37 109 -108 109c-48 0 -92 -19 -123 -37v-289c0 -76 14 -92 69 -110v-18h-225v18c55 18 68 34 68 110v217c0 83 -9 94 -79 118v18c54 3 123 23 165 41v-76c29 25 114 76 172 76c72 0 149 -43 149 -172v-348
c0 -154 -98 -212 -162 -237z" />
    <glyph glyph-name="thorn" unicode="&#xfe;" horiz-adv-x="598" 
d="M259 -225h-237v18c56 17 68 32 68 110l1 675c0 82 -9 93 -79 119v17c53 3 126 22 165 40h4v-294c27 23 95 62 162 62c111 0 212 -92 212 -241c0 -198 -177 -294 -299 -294c-27 0 -53 5 -75 12v-96c0 -78 13 -93 78 -110v-18zM181 427v-359c19 -14 56 -28 90 -28
c94 0 183 78 183 217c0 129 -73 200 -163 200c-37 0 -88 -16 -110 -30z" />
    <glyph glyph-name="germandbls" unicode="&#xdf;" horiz-adv-x="589" 
d="M310 -12v29c88 7 163 55 163 156c0 104 -120 174 -203 205l-8 15c101 53 142 128 142 196c0 80 -37 120 -90 120c-75 0 -119 -52 -119 -204v-377c0 -76 13 -92 68 -110v-18h-225v18c56 18 69 34 69 110v217c0 83 -9 94 -79 118v18c28 2 54 5 85 13c1 122 53 255 204 255
c117 0 172 -69 172 -157c0 -80 -80 -133 -124 -162c-1 0 0 1 -1 0c68 -29 198 -98 198 -231c0 -136 -123 -211 -252 -211z" />
    <glyph glyph-name="dotlessi" unicode="&#x131;" horiz-adv-x="294" 
d="M263 0h-225v18c56 18 69 34 69 110v217c0 83 -9 94 -79 118v18c53 3 125 23 167 41v-394c0 -76 13 -92 68 -110v-18z" />
    <glyph glyph-name="a.smcp" horiz-adv-x="553" 
d="M549 0h-207v18c30 11 43 22 43 49c0 25 -13 66 -35 126h-169l-3 -9c-18 -54 -30 -91 -30 -115c0 -27 15 -40 51 -51v-18h-197v18c45 20 66 54 112 181l113 311h101l113 -311c48 -132 69 -165 108 -181v-18zM334 239l-72 207l-66 -207h138z" />
    <glyph glyph-name="b.smcp" horiz-adv-x="512" 
d="M278 0h-237v18c56 18 69 34 69 110v254c0 76 -13 92 -69 110v18h228c106 0 173 -30 173 -128c0 -63 -40 -94 -86 -112h-1c63 -12 116 -57 116 -121c0 -108 -91 -149 -193 -149zM203 282h55c63 0 91 40 91 100c0 56 -29 87 -96 87h-50v-187zM203 42h72c57 0 100 24 100 94
c0 75 -56 107 -110 107h-62v-201z" />
    <glyph glyph-name="c.smcp" horiz-adv-x="546" 
d="M510 130l-12 -106c-31 -18 -111 -35 -169 -35c-152 0 -283 89 -283 258c0 189 153 275 286 275c49 0 134 -19 162 -33v-103h-29c-38 85 -102 94 -142 94c-95 0 -175 -83 -175 -223c0 -146 87 -226 185 -226c47 0 108 14 147 99h30z" />
    <glyph glyph-name="d.smcp" horiz-adv-x="613" 
d="M295 0h-254v18c56 18 69 34 69 110v254c0 76 -13 92 -69 110v18h261c148 0 273 -84 273 -243c0 -173 -116 -267 -280 -267zM203 42h94c111 0 176 95 176 222c0 115 -76 205 -168 205h-102v-427z" />
    <glyph glyph-name="e.smcp" horiz-adv-x="469" 
d="M427 0h-386v18c56 18 69 34 69 110v254c0 76 -13 92 -69 110v18h366v-107h-26l-21 31c-23 33 -24 35 -57 35h-100v-186h80c38 0 45 7 71 44h22v-132h-22c-26 37 -33 47 -71 47h-80v-200h119c32 0 44 13 83 62l11 14h25z" />
    <glyph glyph-name="f.smcp" horiz-adv-x="465" 
d="M282 0h-241v18c56 18 69 34 69 110v254c0 76 -13 92 -69 110v18h376v-107h-26l-21 31c-23 33 -24 35 -57 35h-110v-192h90c38 0 45 7 71 44h22v-132h-22c-26 37 -33 47 -71 47h-90v-108c0 -76 13 -91 79 -110v-18z" />
    <glyph glyph-name="g.smcp" horiz-adv-x="591" 
d="M518 24l-68 -17c-39 -10 -80 -18 -118 -18c-146 0 -283 94 -283 264c0 184 162 269 295 269c53 0 135 -17 163 -30v-107h-29c-41 81 -98 95 -140 95c-97 0 -187 -71 -187 -223c0 -153 91 -223 194 -223c29 0 70 10 88 17v106c0 56 -11 72 -59 86v18h193v-18
c-35 -14 -49 -22 -49 -86v-133z" />
    <glyph glyph-name="h.smcp" horiz-adv-x="656" 
d="M610 0h-229v18c56 18 69 34 69 110v112h-248v-112c0 -76 13 -92 68 -110v-18h-229v18c56 18 69 34 69 110v254c0 76 -13 92 -69 110v18h229v-18c-55 -18 -68 -34 -68 -110v-97h248v97c0 76 -13 92 -69 110v18h229v-18c-55 -18 -68 -34 -68 -110v-254
c0 -76 13 -92 68 -110v-18z" />
    <glyph glyph-name="i.smcp" horiz-adv-x="316" 
d="M270 0h-229v18c56 18 69 34 69 110v254c0 76 -13 92 -69 110v18h229v-18c-55 -18 -68 -34 -68 -110v-254c0 -76 13 -92 68 -110v-18z" />
    <glyph glyph-name="j.smcp" horiz-adv-x="311" 
d="M57 -156l-15 21c39 28 68 76 68 155v362c0 76 -13 92 -69 110v18h229v-18c-55 -18 -68 -34 -68 -110v-333c0 -113 -85 -178 -145 -205z" />
    <glyph glyph-name="k.smcp" horiz-adv-x="557" 
d="M572 0h-213v18c19 3 33 8 33 22c0 15 -13 42 -45 88l-84 122l-61 -64v-68c1 -76 12 -82 68 -100v-18h-229v18c56 18 69 34 69 110v254c0 76 -13 92 -69 110v18h229v-18c-55 -18 -68 -34 -68 -110v-134l125 137c29 31 40 54 40 74c0 15 -10 26 -33 35v16h206v-16
c-50 -18 -86 -50 -152 -117l-61 -62l122 -181c51 -77 78 -100 123 -116v-18z" />
    <glyph glyph-name="l.smcp" horiz-adv-x="453" 
d="M415 0h-374v18c56 18 69 34 69 110v254c0 76 -13 92 -69 110v18h229v-18c-55 -18 -67 -34 -67 -110v-340h107c32 0 44 13 83 62l11 14h25z" />
    <glyph glyph-name="m.smcp" horiz-adv-x="754" 
d="M725 0h-213v18c39 17 58 24 58 72c0 19 -1 39 -2 59l-13 279l-161 -428h-69l-150 427l-19 -279c-1 -16 -2 -32 -2 -44c0 -60 15 -72 58 -86v-18h-195v18c47 14 67 36 75 142l16 218c0 16 3 31 3 46c0 40 -10 55 -48 68v18h171l142 -411l154 411h156v-18
c-35 -15 -46 -27 -46 -70c0 -13 1 -27 2 -41l15 -222c7 -110 18 -123 68 -141v-18z" />
    <glyph glyph-name="n.smcp" horiz-adv-x="672" 
d="M562 -7h-67l-321 419v-284c0 -76 13 -92 68 -110v-18h-201v18c56 18 69 34 69 110v254c0 76 -13 92 -69 110v18h166l291 -378v250c0 76 -13 92 -69 110v18h201v-18c-55 -18 -68 -34 -68 -110v-389z" />
    <glyph glyph-name="o.smcp" horiz-adv-x="627" 
d="M581 252c0 -162 -125 -263 -270 -263s-270 101 -270 263c0 166 131 270 270 270s270 -104 270 -270zM311 31c109 0 167 102 167 225c0 122 -58 224 -167 224c-110 0 -169 -103 -169 -224c0 -122 59 -225 169 -225z" />
    <glyph glyph-name="p.smcp" horiz-adv-x="497" 
d="M282 0h-241v18c56 18 69 34 69 110v254c0 76 -13 92 -69 110v18h250c105 0 166 -47 166 -138c0 -105 -81 -157 -173 -157h-81v-87c0 -76 13 -91 79 -110v-18zM203 254h70c68 0 89 64 89 115s-21 102 -83 102h-76v-217z" />
    <glyph glyph-name="q.smcp" horiz-adv-x="627" 
d="M887 -88v-12c-18 -21 -81 -74 -181 -74c-43 0 -171 27 -307 116l-73 48c-5 -1 -11 -1 -15 -1c-145 0 -270 101 -270 263c0 166 131 270 270 270s270 -104 270 -270c0 -125 -82 -215 -182 -250c141 -63 262 -102 379 -102c38 0 77 5 109 12zM311 31c109 0 167 102 167 225
c0 122 -58 224 -167 224c-110 0 -169 -103 -169 -224c0 -122 59 -225 169 -225z" />
    <glyph glyph-name="r.smcp" horiz-adv-x="529" 
d="M549 0h-71c-83 0 -91 4 -149 88l-95 138h-31v-98c0 -76 13 -92 68 -110v-18h-230v18c56 18 69 34 69 110v254c0 76 -13 92 -69 110v18h260c104 0 167 -43 167 -132c0 -79 -85 -126 -141 -138l101 -127c58 -73 79 -91 121 -95v-18zM203 264h56c47 0 114 34 114 107
c0 61 -35 98 -82 98h-88v-205z" />
    <glyph glyph-name="s.smcp" horiz-adv-x="404" 
d="M37 16v122h24c41 -74 75 -104 137 -104c47 0 88 34 88 81c0 66 -55 88 -112 112c-66 27 -134 57 -134 146s82 149 169 149c39 0 91 -5 132 -21v-105h-26c-34 52 -56 80 -113 80c-40 0 -76 -29 -76 -73c0 -57 55 -80 108 -103c65 -27 140 -62 140 -152s-84 -160 -188 -160
c-47 0 -102 7 -149 28z" />
    <glyph glyph-name="t.smcp" horiz-adv-x="527" 
d="M375 0h-229v18c56 18 69 34 69 110v341h-66c-37 0 -42 -4 -76 -50l-12 -16h-26l10 107h432l10 -107h-26l-12 16c-34 46 -39 50 -76 50h-66v-341c0 -76 13 -92 68 -110v-18z" />
    <glyph glyph-name="u.smcp" horiz-adv-x="617" 
d="M462 145v237c0 76 -21 92 -77 110v18h209v-18c-55 -18 -68 -34 -68 -110v-242c0 -98 -96 -151 -212 -151c-110 0 -210 48 -210 151v242c0 76 -13 92 -69 110v18h229v-18c-55 -18 -68 -34 -68 -110v-246c0 -56 51 -96 129 -96c75 0 137 33 137 105z" />
    <glyph glyph-name="v.smcp" horiz-adv-x="553" 
d="M322 0h-96l-116 311c-53 141 -68 164 -108 181v18h209v-18c-30 -11 -43 -22 -43 -49c0 -28 15 -74 42 -147l81 -221l84 251c18 54 30 91 30 115c0 27 -15 40 -51 51v18h197v-18c-47 -20 -61 -45 -112 -181z" />
    <glyph glyph-name="w.smcp" horiz-adv-x="787" 
d="M585 0h-96l-98 320l-101 -320h-96l-87 311c-42 151 -68 164 -108 181v18h215v-18c-30 -11 -43 -22 -43 -49c0 -28 11 -71 31 -147l58 -219l75 249c16 55 18 91 18 115c0 27 -15 40 -51 51v18h194v-18c-30 -11 -43 -22 -43 -49c0 -28 8 -73 32 -147l69 -219l68 249
c13 47 20 93 20 115c0 27 -15 40 -51 51v18h197v-18c-46 -20 -60 -52 -102 -181z" />
    <glyph glyph-name="x.smcp" horiz-adv-x="555" 
d="M554 0h-232v18c34 9 50 16 50 32c0 12 -10 30 -27 54l-80 112l-35 -50c-40 -57 -61 -93 -61 -116c0 -17 12 -27 37 -32v-18h-205v18c50 14 90 51 164 148l70 92l-100 143c-26 36 -63 76 -103 91v18h235v-18c-36 -6 -51 -16 -51 -34c0 -15 11 -36 28 -60l56 -80l19 29
c36 55 58 93 58 116c0 16 -11 25 -34 29v18h202v-18c-49 -14 -94 -51 -164 -145l-52 -70l113 -159c46 -66 70 -87 112 -100v-18z" />
    <glyph glyph-name="y.smcp" horiz-adv-x="481" 
d="M358 0h-229v18c56 18 69 34 69 110v87l-82 143c-55 95 -78 127 -110 134v18h194v-18c-23 -5 -36 -9 -36 -27c0 -16 8 -35 25 -65l71 -128l46 94c24 49 37 80 37 99c0 14 -17 23 -38 26v19h170v-18c-31 -7 -56 -24 -112 -134l-73 -143v-87c0 -76 13 -92 68 -110v-18z" />
    <glyph glyph-name="z.smcp" horiz-adv-x="482" 
d="M433 0h-400v31l295 431h-159c-25 0 -52 -7 -71 -28l-31 -36h-20l18 112h379v-31l-289 -432h170c26 0 49 1 71 28l36 44h20z" />
    <glyph glyph-name="ae.smcp" horiz-adv-x="744" 
d="M702 0h-386v18c56 18 69 34 69 110v65h-172l-5 -9c-28 -51 -48 -91 -48 -115c0 -27 15 -40 51 -51v-18h-209v18c45 20 75 61 142 181l95 170c15 26 23 48 23 66c0 26 -19 44 -65 57v18h485v-107h-26l-21 31c-23 33 -24 35 -57 35h-100v-186h80c38 0 45 7 71 44h22v-132
h-22c-26 37 -33 47 -71 47h-80v-200h119c32 0 44 13 83 62l11 14h25zM385 239v230h-22l-125 -230h147z" />
    <glyph glyph-name="oe.smcp" horiz-adv-x="833" 
d="M791 0h-317v58c-41 -42 -97 -69 -163 -69c-145 0 -270 101 -270 263c0 166 131 270 270 270c66 0 121 -26 163 -70v58h297v-107h-26l-21 31c-23 33 -24 35 -57 35h-100v-186h80c38 0 45 7 71 44h22v-132h-22c-26 37 -33 47 -71 47h-80v-200h119c32 0 44 13 83 62l11 14
h25zM311 31c109 0 167 102 167 225c0 122 -58 224 -167 224c-110 0 -169 -103 -169 -224c0 -122 59 -225 169 -225z" />
    <glyph glyph-name="eth.smcp" horiz-adv-x="613" 
d="M295 0h-254v18c56 18 69 34 69 110v108h-58v45h58v101c0 76 -13 92 -69 110v18h261c148 0 273 -84 273 -243c0 -173 -116 -267 -280 -267zM203 42h94c111 0 176 95 176 222c0 115 -76 205 -168 205h-102v-188h99v-45h-99v-194z" />
    <glyph glyph-name="eng.smcp" horiz-adv-x="658" 
d="M504 -6l-330 413v-279c0 -76 13 -92 68 -110v-18h-201v18c56 18 69 34 69 110v254c0 76 -13 92 -69 110v18h166l301 -372v244c0 76 -13 92 -69 110v18h201v-18c-55 -18 -68 -34 -68 -110v-269c0 -166 -46 -273 -142 -273c-32 0 -66 16 -66 47c0 12 2 23 11 38
c13 -5 32 -13 43 -13c51 0 72 39 86 82z" />
    <glyph glyph-name="thorn.smcp" horiz-adv-x="497" 
d="M282 0h-241v18c56 18 69 34 69 110v259c0 71 -15 87 -69 105v18h229v-18c-51 -16 -67 -42 -68 -105h89c105 0 166 -27 166 -118c0 -105 -81 -135 -173 -135h-81v-6c0 -76 13 -91 79 -110v-18zM203 173h70c68 0 89 42 89 93s-21 82 -83 82h-76v-175z" />
    <glyph glyph-name="germandbls.smcp" horiz-adv-x="792" 
d="M37 16v122h24c41 -74 75 -104 137 -104c47 0 88 34 88 81c0 66 -55 88 -112 112c-66 27 -134 57 -134 146s82 149 169 149c39 0 91 -5 132 -21v-105h-26c-34 52 -56 80 -113 80c-40 0 -76 -29 -76 -73c0 -57 55 -80 108 -103c65 -27 140 -62 140 -152s-84 -160 -188 -160
c-47 0 -102 7 -149 28zM425 16v122h24c41 -74 75 -104 137 -104c47 0 88 34 88 81c0 66 -55 88 -112 112c-66 27 -134 57 -134 146s82 149 169 149c39 0 91 -5 132 -21v-105h-26c-34 52 -56 80 -113 80c-40 0 -76 -29 -76 -73c0 -57 55 -80 108 -103
c65 -27 140 -62 140 -152s-84 -160 -188 -160c-47 0 -102 7 -149 28z" />
    <glyph glyph-name="dotlessi.smcp" horiz-adv-x="316" 
d="M268 0h-225v18c56 18 69 34 69 110v254c0 76 -13 92 -69 110v18h225v-18c-55 -18 -68 -34 -68 -110v-254c0 -76 13 -92 68 -110v-18z" />
    <glyph glyph-name="ff" horiz-adv-x="604" 
d="M571 0h-237v18c55 18 69 34 69 110v327h-210v-327c0 -76 14 -92 78 -110v-18h-237v18c55 18 69 34 69 110v327h-93l10 55h83v54c0 135 82 190 177 190c70 0 109 -29 109 -74c0 -32 -21 -53 -54 -53c-25 0 -49 12 -49 44c0 22 13 36 26 48c-6 1 -22 1 -27 1
c-62 0 -92 -33 -92 -143v-67h210v54c0 135 92 190 187 190c70 0 109 -29 109 -74c0 -32 -21 -53 -54 -53c-25 0 -49 12 -49 44c0 22 13 36 26 48c-6 1 -22 1 -27 1c-62 0 -102 -33 -102 -143v-67h112v-55h-112v-327c0 -76 14 -92 78 -110v-18z" />
    <glyph glyph-name="fi" unicode="&#xfb01;" horiz-adv-x="584" 
d="M560 0h-224v18c55 18 68 34 68 110v207c0 93 -7 123 -81 123h-130v-330c0 -76 12 -92 77 -110v-18h-234v18c55 18 67 34 67 110v330h-93l10 52h83v39c0 157 139 205 239 205c89 0 141 -25 141 -82c0 -37 -23 -59 -50 -59c-29 0 -54 15 -54 52c0 25 14 38 27 49
c-22 4 -41 6 -61 6c-81 0 -152 -41 -152 -158v-52h147c79 0 140 8 148 12h4v-394c0 -76 13 -92 68 -110v-18z" />
    <glyph glyph-name="fl" unicode="&#xfb02;" horiz-adv-x="586" 
d="M562 0h-226v18c55 18 68 34 68 110v473c-26 2 -53 20 -53 55c0 25 14 44 27 55c-19 4 -37 6 -53 6c-73 0 -132 -43 -132 -160v-47h110v-52h-110v-330c0 -76 12 -92 77 -110v-18h-234v18c55 18 67 34 67 110v330h-93l10 52h83v34c0 157 124 210 221 210
c61 0 102 -13 119 -40c16 11 29 24 41 40h10v-626c0 -76 13 -92 68 -110v-18z" />
    <glyph glyph-name="ffi" horiz-adv-x="884" 
d="M860 0h-224v18c55 18 68 34 68 110v207c0 93 -7 123 -81 123h-130v-330c0 -76 12 -92 77 -110v-18h-234v18c55 18 67 34 67 110v330h-210v-330c0 -76 14 -92 78 -110v-18h-237v18c55 18 69 34 69 110v330h-93l10 52h83v54c0 135 82 190 177 190c70 0 109 -29 109 -74
c0 -32 -21 -53 -54 -53c-25 0 -49 12 -49 44c0 22 13 36 26 48c-6 1 -22 1 -27 1c-62 0 -92 -33 -92 -143v-67h210v39c0 157 139 205 239 205c89 0 141 -25 141 -82c0 -37 -23 -59 -50 -59c-29 0 -54 15 -54 52c0 25 14 38 27 49c-22 4 -41 6 -61 6
c-81 0 -152 -41 -152 -158v-52h147c79 0 140 8 148 12h4v-394c0 -76 13 -92 68 -110v-18z" />
    <glyph glyph-name="ffl" horiz-adv-x="886" 
d="M862 0h-226v18c55 18 68 34 68 110v473c-26 2 -53 20 -53 55c0 25 14 44 27 55c-19 4 -37 6 -53 6c-73 0 -132 -43 -132 -160v-47h110v-55h-110v-327c0 -76 12 -92 77 -110v-18h-234v18c55 18 67 34 67 110v327h-210v-327c0 -76 14 -92 78 -110v-18h-237v18
c55 18 69 34 69 110v327h-93l10 55h83v54c0 135 82 190 177 190c70 0 109 -29 109 -74c0 -32 -21 -53 -54 -53c-25 0 -49 12 -49 44c0 22 13 36 26 48c-6 1 -22 1 -27 1c-62 0 -92 -33 -92 -143v-67h210v34c0 157 124 210 221 210c61 0 102 -13 119 -40c16 11 29 24 41 40
h10v-626c0 -76 13 -92 68 -110v-18z" />
    <glyph glyph-name="c_t" horiz-adv-x="805" 
d="M418 106l14 -13c-22 -32 -83 -105 -177 -105c-109 0 -212 85 -212 259c0 191 119 275 241 275c85 0 135 -40 135 -93c0 -35 -23 -64 -58 -64c-29 0 -52 17 -52 52c0 20 6 34 19 47c-10 3 -28 7 -47 7c-82 0 -145 -54 -145 -193c0 -157 81 -219 162 -219
c51 0 101 30 120 47zM804 75l7 -19c-23 -23 -84 -64 -152 -64c-60 0 -108 22 -108 133v327l-70 3v18l37 27c52 30 70 79 106 127h17v-117h145v-58h-145v-330c0 -39 25 -66 71 -66c21 0 69 5 92 19z" />
    <glyph glyph-name="s_p" horiz-adv-x="1004" 
d="M39 16v121h21c41 -74 84 -106 138 -106c48 0 89 38 89 85c0 137 -245 83 -245 257c0 89 81 149 167 149c38 0 89 -5 130 -21v-101h-22c-34 52 -61 79 -115 79c-41 0 -78 -34 -78 -78c0 -124 248 -76 248 -253c0 -90 -83 -160 -186 -160c-46 0 -100 7 -147 28zM663 -225
h-237v18c56 17 68 32 68 110v442c0 83 -9 94 -78 118v18c80 8 127 23 169 41v-62c27 23 95 62 162 62c111 0 212 -92 212 -241c0 -198 -177 -294 -299 -294c-27 0 -53 5 -75 12v-96c0 -78 13 -93 78 -110v-18zM585 427v-359c19 -14 56 -28 90 -28c94 0 183 78 183 217
c0 129 -73 200 -163 200c-37 0 -88 -16 -110 -30z" />
    <glyph glyph-name="s_t" unicode="&#xfb06;" horiz-adv-x="747" 
d="M39 16v121h21c41 -74 84 -106 138 -106c48 0 89 38 89 85c0 137 -245 83 -245 257c0 89 81 149 167 149c38 0 89 -5 130 -21v-101h-22c-34 52 -61 79 -115 79c-41 0 -78 -34 -78 -78c0 -124 248 -76 248 -253c0 -90 -83 -160 -186 -160c-46 0 -100 7 -147 28zM746 75
l7 -19c-23 -23 -84 -64 -152 -64c-60 0 -108 22 -108 133v327l-70 3v18l37 27c52 30 70 79 106 127h17v-117h145v-58h-145v-330c0 -39 25 -66 71 -66c21 0 69 5 92 19z" />
    <glyph glyph-name="longs" unicode="&#x17f;" horiz-adv-x="304" 
d="M271 0h-237v18c55 18 69 34 69 110v327h-93l10 55h83v54c0 135 92 190 187 190c70 0 109 -29 109 -74c0 -32 -21 -53 -54 -53c-25 0 -49 12 -49 44c0 22 13 36 26 48c-6 1 -22 1 -27 1c-62 0 -102 -33 -102 -143v-449c0 -76 14 -92 78 -110v-18z" />
    <glyph glyph-name="dotlessj" unicode="&#x237;" horiz-adv-x="294" 
d="M34 -235l-9 12c49 30 81 102 81 186v382c0 83 -9 94 -80 118v18c54 3 129 23 170 41v-520c0 -154 -98 -212 -162 -237z" />
    <glyph glyph-name="grave" unicode="`" horiz-adv-x="227" 
d="M215 563l-199 85l36 65l174 -130z" />
    <glyph glyph-name="acute" unicode="&#xb4;" horiz-adv-x="227" 
d="M226 648l-199 -85l-11 20l174 130z" />
    <glyph glyph-name="dieresis" unicode="&#xa8;" horiz-adv-x="317" 
d="M58 587c-28 0 -52 22 -52 55c0 34 24 55 52 55c29 0 53 -21 53 -55c0 -33 -24 -55 -53 -55zM256 587c-28 0 -52 22 -52 55c0 34 24 55 52 55c29 0 53 -21 53 -55c0 -33 -24 -55 -53 -55z" />
    <glyph glyph-name="dotaccent" unicode="&#x2d9;" horiz-adv-x="276" 
d="M140 587c-28 0 -52 22 -52 55c0 34 24 55 52 55c29 0 53 -21 53 -55c0 -33 -24 -55 -53 -55z" />
    <glyph glyph-name="circumflex" unicode="&#x2c6;" horiz-adv-x="290" 
d="M257 560h-33l-82 58l-79 -58h-33l88 130h49z" />
    <glyph glyph-name="caron" unicode="&#x2c7;" horiz-adv-x="290" 
d="M167 560h-49l-88 130h33l79 -58l82 58h33z" />
    <glyph glyph-name="breve" unicode="&#x2d8;" horiz-adv-x="298" 
d="M257 692l20 -1c-9 -68 -65 -131 -130 -131c-64 0 -120 63 -126 131l20 1c19 -41 62 -59 106 -59c46 0 88 18 110 59z" />
    <glyph glyph-name="macron" unicode="&#xaf;" horiz-adv-x="270" 
d="M251 595h-234v62h234v-62z" />
    <glyph glyph-name="uni02C9" unicode="&#x2c9;" horiz-adv-x="270" 
d="M251 595h-234v62h234v-62z" />
    <glyph glyph-name="ring" unicode="&#x2da;" horiz-adv-x="300" 
d="M254 667c0 -56 -48 -102 -104 -102s-104 46 -104 102s48 102 104 102s104 -46 104 -102zM150 603c35 0 62 29 62 64s-27 64 -62 64s-62 -29 -62 -64s27 -64 62 -64z" />
    <glyph glyph-name="tilde" unicode="&#x2dc;" horiz-adv-x="326" 
d="M288 686l28 -2c-4 -40 -46 -96 -97 -96c-50 0 -104 35 -137 35c-30 0 -40 -17 -47 -37l-27 4c4 40 45 94 96 94c47 0 104 -32 138 -32c30 0 38 14 46 34z" />
    <glyph glyph-name="hungarumlaut" unicode="&#x2dd;" horiz-adv-x="276" 
d="M72 557h-28c13 43 22 88 24 134h74c-23 -53 -44 -99 -70 -134zM183 557h-28c13 43 23 88 24 134h75c-24 -53 -45 -99 -71 -134z" />
    <glyph glyph-name="periodcentered" unicode="&#xb7;" horiz-adv-x="212" 
d="M164 355c0 -32 -28 -59 -60 -59s-59 27 -59 59s27 60 59 60s60 -28 60 -60z" />
    <glyph glyph-name="cedilla" unicode="&#xb8;" horiz-adv-x="227" 
d="M24 -186l17 17c22 -10 44 -13 61 -13c20 0 48 12 48 38c0 29 -60 45 -95 46l72 98h30l-33 -50c36 -5 86 -32 86 -84c0 -60 -60 -81 -97 -81s-68 13 -89 29z" />
    <glyph glyph-name="ogonek" unicode="&#x2db;" horiz-adv-x="182" 
d="M161 -168v-12c-11 -15 -37 -35 -65 -35c-46 0 -70 33 -70 71c0 59 67 112 116 144h28c-35 -41 -70 -90 -70 -132c0 -22 18 -39 44 -39c5 0 12 1 17 3z" />
    <glyph glyph-name="caron.alt" horiz-adv-x="213" 
d="M116 476h-21c-4 76 -32 144 -32 178c0 29 20 50 42 50c23 0 43 -21 43 -50c0 -35 -29 -106 -32 -178z" />
    <glyph glyph-name="commaaccent" unicode="&#xf6c3;" horiz-adv-x="212" 
d="M85 -230h-30c19 30 28 61 28 77c0 25 -28 38 -28 67c0 33 24 50 49 50c30 0 52 -23 52 -57c0 -47 -37 -97 -71 -137z" />
    <glyph glyph-name="revcommaaccent" horiz-adv-x="212" 
d="M126 704h30c-19 -30 -28 -61 -28 -77c0 -25 28 -38 28 -67c0 -33 -24 -50 -49 -50c-30 0 -52 23 -52 57c0 47 37 97 71 137z" />
    <glyph glyph-name="dblgrave" unicode="&#xf6d6;" horiz-adv-x="332" 
d="M271 557h-28c-26 35 -47 81 -70 134h74c2 -46 11 -91 24 -134zM160 557h-28c-26 35 -47 81 -71 134h75c1 -46 11 -91 24 -134z" />
    <glyph glyph-name="dieresisacute" unicode="&#xf6d7;" horiz-adv-x="322" 
d="M58 587c-28 0 -52 22 -52 55c0 34 24 55 52 55c29 0 53 -21 53 -55c0 -33 -24 -55 -53 -55zM256 587c-28 0 -52 22 -52 55c0 34 24 55 52 55c29 0 53 -21 53 -55c0 -33 -24 -55 -53 -55zM266 818l-199 -85l-11 20l174 130z" />
    <glyph glyph-name="dieresisgrave" unicode="&#xf6d8;" horiz-adv-x="315" 
d="M58 587c-28 0 -52 22 -52 55c0 34 24 55 52 55c29 0 53 -21 53 -55c0 -33 -24 -55 -53 -55zM256 587c-28 0 -52 22 -52 55c0 34 24 55 52 55c29 0 53 -21 53 -55c0 -33 -24 -55 -53 -55zM251 733l-199 85l36 65l174 -130z" />
    <glyph glyph-name="grave.cap" horiz-adv-x="227" 
d="M215 753l-199 85l36 65l174 -130z" />
    <glyph glyph-name="acute.cap" horiz-adv-x="227" 
d="M226 838l-199 -85l-11 20l174 130z" />
    <glyph glyph-name="dieresis.cap" horiz-adv-x="317" 
d="M224 584c-27 0 -50 27 -50 58c0 32 23 59 50 59c29 0 50 -27 50 -59c0 -31 -21 -58 -50 -58zM90 584c-28 0 -51 27 -51 58c0 32 23 59 51 59s51 -27 51 -59c0 -31 -23 -58 -51 -58z" />
    <glyph glyph-name="dotaccent.cap" horiz-adv-x="276" 
d="M140 747c-28 0 -52 22 -52 55c0 34 24 55 52 55c29 0 53 -21 53 -55c0 -33 -24 -55 -53 -55z" />
    <glyph glyph-name="circumflex.cap" horiz-adv-x="290" 
d="M257 557h-13l-102 58l-99 -58h-13l88 130h49z" />
    <glyph glyph-name="caron.cap" horiz-adv-x="290" 
d="M167 740h-49l-88 130h33l79 -58l82 58h33z" />
    <glyph glyph-name="breve.cap" horiz-adv-x="298" 
d="M257 882l20 -1c-9 -68 -65 -131 -130 -131c-64 0 -120 63 -126 131l20 1c19 -41 62 -59 106 -59c46 0 88 18 110 59z" />
    <glyph glyph-name="macron.cap" horiz-adv-x="270" 
d="M251 755h-234v62h234v-62z" />
    <glyph glyph-name="ring.cap" horiz-adv-x="300" 
d="M254 837c0 -56 -48 -102 -104 -102s-104 46 -104 102s48 102 104 102s104 -46 104 -102zM150 773c35 0 62 29 62 64s-27 64 -62 64s-62 -29 -62 -64s27 -64 62 -64z" />
    <glyph glyph-name="tilde.cap" horiz-adv-x="326" 
d="M289 839l28 -2c-4 -40 -46 -96 -97 -96c-50 0 -104 35 -137 35c-30 0 -40 -17 -47 -37l-27 4c4 40 45 94 96 94c47 0 104 -32 138 -32c30 0 38 14 46 34z" />
    <glyph glyph-name="hungarumlaut.cap" horiz-adv-x="276" 
d="M72 747h-28c13 43 22 88 24 134h74c-23 -53 -44 -99 -70 -134zM183 747h-28c13 43 23 88 24 134h75c-24 -53 -45 -99 -71 -134z" />
    <glyph glyph-name="cedilla.cap" horiz-adv-x="227" 
d="M24 -186l17 17c22 -10 44 -13 61 -13c20 0 48 12 48 38c0 29 -60 45 -95 46l72 98h30l-33 -50c36 -5 86 -32 86 -84c0 -60 -60 -81 -97 -81s-68 13 -89 29z" />
    <glyph glyph-name="ogonek.cap" horiz-adv-x="182" 
d="M161 -168v-12c-11 -15 -37 -35 -65 -35c-46 0 -70 33 -70 71c0 59 82 112 131 144h11c-35 -41 -68 -90 -68 -132c0 -22 18 -39 44 -39c5 0 12 1 17 3z" />
    <glyph glyph-name="commaaccent.cap" horiz-adv-x="212" 
d="M85 -230h-30c19 30 28 61 28 77c0 25 -28 38 -28 67c0 33 24 50 49 50c30 0 52 -23 52 -57c0 -47 -37 -97 -71 -137z" />
    <glyph glyph-name="dblgrave.cap" horiz-adv-x="332" 
d="M271 557h-28c-26 35 -47 81 -70 134h74c2 -46 11 -91 24 -134zM160 557h-28c-26 35 -47 81 -71 134h75c1 -46 11 -91 24 -134z" />
    <glyph glyph-name="dieresisacute.cap" horiz-adv-x="322" 
d="M58 587c-28 0 -52 22 -52 55c0 34 24 55 52 55c29 0 53 -21 53 -55c0 -33 -24 -55 -53 -55zM256 587c-28 0 -52 22 -52 55c0 34 24 55 52 55c29 0 53 -21 53 -55c0 -33 -24 -55 -53 -55zM266 818l-199 -85l-11 20l174 130z" />
    <glyph glyph-name="dieresisgrave.cap" horiz-adv-x="315" 
d="M58 587c-28 0 -52 22 -52 55c0 34 24 55 52 55c29 0 53 -21 53 -55c0 -33 -24 -55 -53 -55zM256 587c-28 0 -52 22 -52 55c0 34 24 55 52 55c29 0 53 -21 53 -55c0 -33 -24 -55 -53 -55zM251 733l-199 85l36 65l174 -130z" />
    <glyph glyph-name="Grave.smcp" horiz-adv-x="242" 
d="M215 563l-199 85l36 65l174 -130z" />
    <glyph glyph-name="Acute.smcp" horiz-adv-x="242" 
d="M226 648l-199 -85l-11 20l174 130z" />
    <glyph glyph-name="Dieresis.smcp" horiz-adv-x="315" 
d="M58 587c-28 0 -52 22 -52 55c0 34 24 55 52 55c29 0 53 -21 53 -55c0 -33 -24 -55 -53 -55zM256 587c-28 0 -52 22 -52 55c0 34 24 55 52 55c29 0 53 -21 53 -55c0 -33 -24 -55 -53 -55z" />
    <glyph glyph-name="Dotaccent.smcp" horiz-adv-x="281" 
d="M140 587c-28 0 -52 22 -52 55c0 34 24 55 52 55c29 0 53 -21 53 -55c0 -33 -24 -55 -53 -55z" />
    <glyph glyph-name="Circumflex.smcp" horiz-adv-x="287" 
d="M257 560h-33l-82 58l-79 -58h-33l88 130h49z" />
    <glyph glyph-name="Caron.smcp" horiz-adv-x="287" 
d="M167 560h-49l-88 130h33l79 -58l82 58h33z" />
    <glyph glyph-name="Breve.smcp" horiz-adv-x="298" 
d="M257 692l20 -1c-9 -68 -65 -131 -130 -131c-64 0 -120 63 -126 131l20 1c19 -41 62 -59 106 -59c46 0 88 18 110 59z" />
    <glyph glyph-name="Macron.smcp" horiz-adv-x="268" 
d="M251 595h-234v62h234v-62z" />
    <glyph glyph-name="Ring.smcp" horiz-adv-x="300" 
d="M254 667c0 -56 -48 -102 -104 -102s-104 46 -104 102s48 102 104 102s104 -46 104 -102zM150 603c35 0 62 29 62 64s-27 64 -62 64s-62 -29 -62 -64s27 -64 62 -64z" />
    <glyph glyph-name="Tilde.smcp" horiz-adv-x="324" 
d="M288 686l28 -2c-4 -40 -46 -96 -97 -96c-50 0 -104 35 -137 35c-30 0 -40 -17 -47 -37l-27 4c4 40 45 94 96 94c47 0 104 -32 138 -32c30 0 38 14 46 34z" />
    <glyph glyph-name="Hungarumlaut.smcp" horiz-adv-x="298" 
d="M72 557h-28c13 43 22 88 24 134h74c-23 -53 -44 -99 -70 -134zM183 557h-28c13 43 23 88 24 134h75c-24 -53 -45 -99 -71 -134z" />
    <glyph glyph-name="Cedilla.smcp" horiz-adv-x="234" 
d="M24 -186l17 17c22 -10 44 -13 61 -13c20 0 48 12 48 38c0 29 -60 45 -95 46l72 98h30l-33 -50c36 -5 86 -32 86 -84c0 -60 -60 -81 -97 -81s-68 13 -89 29z" />
    <glyph glyph-name="Ogonek.smcp" horiz-adv-x="194" 
d="M161 -168v-12c-11 -15 -37 -35 -65 -35c-46 0 -70 33 -70 71c0 59 67 112 116 144h28c-35 -41 -70 -90 -70 -132c0 -22 18 -39 44 -39c5 0 12 1 17 3z" />
    <glyph glyph-name="commaaccent.smcp" horiz-adv-x="214" 
d="M53 -259l-3 2c29 37 38 66 38 89c0 28 -28 35 -28 71c0 30 23 51 51 51c32 0 53 -27 53 -58c0 -56 -58 -118 -111 -155z" />
    <glyph glyph-name="dblGrave.smcp" horiz-adv-x="332" 
d="M271 557h-28c-26 35 -47 81 -70 134h74c2 -46 11 -91 24 -134zM160 557h-28c-26 35 -47 81 -71 134h75c1 -46 11 -91 24 -134z" />
    <glyph glyph-name="DieresisAcute.smcp" horiz-adv-x="322" 
d="M58 587c-28 0 -52 22 -52 55c0 34 24 55 52 55c29 0 53 -21 53 -55c0 -33 -24 -55 -53 -55zM256 587c-28 0 -52 22 -52 55c0 34 24 55 52 55c29 0 53 -21 53 -55c0 -33 -24 -55 -53 -55zM266 818l-199 -85l-11 20l174 130z" />
    <glyph glyph-name="DieresisGrave.smcp" horiz-adv-x="315" 
d="M58 587c-28 0 -52 22 -52 55c0 34 24 55 52 55c29 0 53 -21 53 -55c0 -33 -24 -55 -53 -55zM256 587c-28 0 -52 22 -52 55c0 34 24 55 52 55c29 0 53 -21 53 -55c0 -33 -24 -55 -53 -55zM251 733l-199 85l36 65l174 -130z" />
    <glyph glyph-name="Agrave" unicode="&#xc0;" horiz-adv-x="675" 
d="M671 0h-235v18c39 10 56 21 56 55c0 33 -22 107 -51 193h-234c-31 -97 -50 -156 -50 -191c0 -33 18 -44 59 -57v-18h-218v18c53 20 72 45 143 254l141 418h117l136 -417c67 -205 83 -235 136 -255v-18zM423 320l-100 307l-99 -307h199zM446 743l-199 85l36 65l174 -130z
" />
    <glyph glyph-name="Aacute" unicode="&#xc1;" horiz-adv-x="675" 
d="M671 0h-235v18c39 10 56 21 56 55c0 33 -22 107 -51 193h-234c-31 -97 -50 -156 -50 -191c0 -33 18 -44 59 -57v-18h-218v18c53 20 72 45 143 254l141 418h117l136 -417c67 -205 83 -235 136 -255v-18zM423 320l-100 307l-99 -307h199zM457 828l-199 -85l-11 20l174 130z
" />
    <glyph glyph-name="Acircumflex" unicode="&#xc2;" horiz-adv-x="675" 
d="M671 0h-235v18c39 10 56 21 56 55c0 33 -22 107 -51 193h-234c-31 -97 -50 -156 -50 -191c0 -33 18 -44 59 -57v-18h-218v18c53 20 72 45 143 254l141 418h117l136 -417c67 -205 83 -235 136 -255v-18zM423 320l-100 307l-99 -307h199zM447 740h-33l-82 58l-79 -58h-33
l88 130h49z" />
    <glyph glyph-name="Atilde" unicode="&#xc3;" horiz-adv-x="675" 
d="M671 0h-235v18c39 10 56 21 56 55c0 33 -22 107 -51 193h-234c-31 -97 -50 -156 -50 -191c0 -33 18 -44 59 -57v-18h-218v18c53 20 72 45 143 254l141 418h117l136 -417c67 -205 83 -235 136 -255v-18zM423 320l-100 307l-99 -307h199zM460 866l28 -2
c-4 -40 -46 -96 -97 -96c-50 0 -104 35 -137 35c-30 0 -40 -17 -47 -37l-27 4c4 40 45 94 96 94c47 0 104 -32 138 -32c30 0 38 14 46 34z" />
    <glyph glyph-name="Adieresis" unicode="&#xc4;" horiz-adv-x="675" 
d="M671 0h-235v18c39 10 56 21 56 55c0 33 -22 107 -51 193h-234c-31 -97 -50 -156 -50 -191c0 -33 18 -44 59 -57v-18h-218v18c53 20 72 45 143 254l141 418h117l136 -417c67 -205 83 -235 136 -255v-18zM423 320l-100 307l-99 -307h199zM235 767c-28 0 -52 22 -52 55
c0 34 24 55 52 55c29 0 53 -21 53 -55c0 -33 -24 -55 -53 -55zM433 767c-28 0 -52 22 -52 55c0 34 24 55 52 55c29 0 53 -21 53 -55c0 -33 -24 -55 -53 -55z" />
    <glyph glyph-name="Aring" unicode="&#xc5;" horiz-adv-x="675" 
d="M671 0h-235v18c39 10 56 21 56 55c0 33 -22 107 -51 193h-234c-31 -97 -50 -156 -50 -191c0 -33 18 -44 59 -57v-18h-218v18c53 20 72 45 143 254l122 362c-29 21 -48 55 -48 95c0 67 55 122 122 122s122 -55 122 -122c0 -37 -17 -70 -43 -91l119 -365
c67 -205 83 -235 136 -255v-18zM423 320l-94 291h-11l-94 -291h199zM337 663c38 0 66 30 66 68s-28 68 -66 68s-66 -30 -66 -68s28 -68 66 -68z" />
    <glyph glyph-name="Amacron" unicode="&#x100;" horiz-adv-x="675" 
d="M671 0h-235v18c39 10 56 21 56 55c0 33 -22 107 -51 193h-234c-31 -97 -50 -156 -50 -191c0 -33 18 -44 59 -57v-18h-218v18c53 20 72 45 143 254l141 418h117l136 -417c67 -205 83 -235 136 -255v-18zM423 320l-100 307l-99 -307h199zM451 775h-234v62h234v-62z" />
    <glyph glyph-name="Abreve" unicode="&#x102;" horiz-adv-x="675" 
d="M671 0h-235v18c39 10 56 21 56 55c0 33 -22 107 -51 193h-234c-31 -97 -50 -156 -50 -191c0 -33 18 -44 59 -57v-18h-218v18c53 20 72 45 143 254l141 418h117l136 -417c67 -205 83 -235 136 -255v-18zM423 320l-100 307l-99 -307h199zM443 872l20 -1
c-9 -68 -65 -131 -130 -131c-64 0 -120 63 -126 131l20 1c19 -41 62 -59 106 -59c46 0 88 18 110 59z" />
    <glyph glyph-name="Aogonek" unicode="&#x104;" horiz-adv-x="675" 
d="M583 -168v-12c-11 -15 -37 -35 -65 -35c-46 0 -70 33 -70 71c0 59 67 112 116 144h-128v18c39 10 56 21 56 55c0 33 -22 107 -51 193h-234c-31 -97 -50 -156 -50 -191c0 -33 18 -44 59 -57v-18h-218v18c53 20 72 45 143 254l141 418h117l136 -417
c67 -205 83 -235 136 -255v-18h-79c-35 -41 -70 -90 -70 -132c0 -22 18 -39 44 -39c5 0 12 1 17 3zM423 320l-100 307l-99 -307h199z" />
    <glyph glyph-name="Ccedilla" unicode="&#xc7;" horiz-adv-x="670" 
d="M300 -186l17 17c22 -10 44 -13 61 -13c20 0 48 12 48 38c0 29 -60 45 -95 46l61 83c-191 7 -344 126 -344 349c0 255 191 370 365 370c66 0 164 -22 198 -39v-132h-23c-51 115 -124 120 -186 120c-137 0 -244 -114 -244 -306c0 -200 117 -311 257 -311
c71 0 142 12 194 129h23l-16 -138c-35 -20 -120 -39 -193 -42l-23 -35c36 -5 86 -32 86 -84c0 -60 -60 -81 -97 -81s-68 13 -89 29z" />
    <glyph glyph-name="Cacute" unicode="&#x106;" horiz-adv-x="670" 
d="M632 165l-16 -138c-37 -21 -131 -42 -207 -42c-198 0 -361 120 -361 349c0 255 191 370 365 370c66 0 164 -22 198 -39v-132h-23c-51 115 -124 120 -186 120c-137 0 -244 -114 -244 -306c0 -200 117 -311 257 -311c71 0 142 12 194 129h23zM486 828l-199 -85l-11 20
l174 130z" />
    <glyph glyph-name="Ccircumflex" unicode="&#x108;" horiz-adv-x="670" 
d="M632 165l-16 -138c-37 -21 -131 -42 -207 -42c-198 0 -361 120 -361 349c0 255 191 370 365 370c66 0 164 -22 198 -39v-132h-23c-51 115 -124 120 -186 120c-137 0 -244 -114 -244 -306c0 -200 117 -311 257 -311c71 0 142 12 194 129h23zM506 740h-33l-82 58l-79 -58
h-33l88 130h49z" />
    <glyph glyph-name="Cdotaccent" unicode="&#x10a;" horiz-adv-x="670" 
d="M632 165l-16 -138c-37 -21 -131 -42 -207 -42c-198 0 -361 120 -361 349c0 255 191 370 365 370c66 0 164 -22 198 -39v-132h-23c-51 115 -124 120 -186 120c-137 0 -244 -114 -244 -306c0 -200 117 -311 257 -311c71 0 142 12 194 129h23zM409 767c-28 0 -52 22 -52 55
c0 34 24 55 52 55c29 0 53 -21 53 -55c0 -33 -24 -55 -53 -55z" />
    <glyph glyph-name="Ccaron" unicode="&#x10c;" horiz-adv-x="670" 
d="M632 165l-16 -138c-37 -21 -131 -42 -207 -42c-198 0 -361 120 -361 349c0 255 191 370 365 370c66 0 164 -22 198 -39v-132h-23c-51 115 -124 120 -186 120c-137 0 -244 -114 -244 -306c0 -200 117 -311 257 -311c71 0 142 12 194 129h23zM424 740h-49l-88 130h33
l79 -58l82 58h33z" />
    <glyph glyph-name="Dcaron" unicode="&#x10e;" horiz-adv-x="743" 
d="M337 0h-300v18c65 18 80 44 80 121v412c0 77 -15 103 -80 121v18h309c194 0 359 -114 359 -329c0 -234 -153 -361 -368 -361zM215 51h125c160 0 256 131 256 306c0 158 -111 282 -245 282h-136v-588zM384 740h-49l-88 130h33l79 -58l82 58h33z" />
    <glyph glyph-name="Dcroat" unicode="&#x110;" horiz-adv-x="733" 
d="M327 0h-290v18c65 18 80 44 80 121v190h-71v50h71v172c0 77 -15 103 -80 121v18h299c194 0 357 -114 357 -329c0 -234 -151 -361 -366 -361zM215 51h115c160 0 254 131 254 306c0 158 -109 282 -243 282h-126v-260h121v-50h-121v-278z" />
    <glyph glyph-name="Egrave" unicode="&#xc8;" horiz-adv-x="566" 
d="M510 0h-467v18c63 18 79 34 79 111v432c0 77 -16 93 -79 111v18h440v-141h-22c-57 89 -52 90 -119 90h-123v-259h122c40 0 53 17 79 54h20v-161h-20c-26 37 -39 57 -79 57h-122v-279h150c63 0 63 6 139 105h21zM359 743l-199 85l36 65l174 -130z" />
    <glyph glyph-name="Eacute" unicode="&#xc9;" horiz-adv-x="566" 
d="M510 0h-467v18c63 18 79 34 79 111v432c0 77 -16 93 -79 111v18h440v-141h-22c-57 89 -52 90 -119 90h-123v-259h122c40 0 53 17 79 54h20v-161h-20c-26 37 -39 57 -79 57h-122v-279h150c63 0 63 6 139 105h21zM400 828l-199 -85l-11 20l174 130z" />
    <glyph glyph-name="Ecircumflex" unicode="&#xca;" horiz-adv-x="566" 
d="M510 0h-467v18c63 18 79 34 79 111v432c0 77 -16 93 -79 111v18h440v-141h-22c-57 89 -52 90 -119 90h-123v-259h122c40 0 53 17 79 54h20v-161h-20c-26 37 -39 57 -79 57h-122v-279h150c63 0 63 6 139 105h21zM390 740h-33l-82 58l-79 -58h-33l88 130h49z" />
    <glyph glyph-name="Edieresis" unicode="&#xcb;" horiz-adv-x="566" 
d="M510 0h-467v18c63 18 79 34 79 111v432c0 77 -16 93 -79 111v18h440v-141h-22c-57 89 -52 90 -119 90h-123v-259h122c40 0 53 17 79 54h20v-161h-20c-26 37 -39 57 -79 57h-122v-279h150c63 0 63 6 139 105h21zM177 767c-28 0 -52 22 -52 55c0 34 24 55 52 55
c29 0 53 -21 53 -55c0 -33 -24 -55 -53 -55zM375 767c-28 0 -52 22 -52 55c0 34 24 55 52 55c29 0 53 -21 53 -55c0 -33 -24 -55 -53 -55z" />
    <glyph glyph-name="Emacron" unicode="&#x112;" horiz-adv-x="566" 
d="M510 0h-467v18c63 18 79 34 79 111v432c0 77 -16 93 -79 111v18h440v-141h-22c-57 89 -52 90 -119 90h-123v-259h122c40 0 53 17 79 54h20v-161h-20c-26 37 -39 57 -79 57h-122v-279h150c63 0 63 6 139 105h21zM393 775h-234v62h234v-62z" />
    <glyph glyph-name="Ebreve" unicode="&#x114;" horiz-adv-x="566" 
d="M510 0h-467v18c63 18 79 34 79 111v432c0 77 -16 93 -79 111v18h440v-141h-22c-57 89 -52 90 -119 90h-123v-259h122c40 0 53 17 79 54h20v-161h-20c-26 37 -39 57 -79 57h-122v-279h150c63 0 63 6 139 105h21zM385 872l20 -1c-9 -68 -65 -131 -130 -131
c-64 0 -120 63 -126 131l20 1c19 -41 62 -59 106 -59c46 0 88 18 110 59z" />
    <glyph glyph-name="Edotaccent" unicode="&#x116;" horiz-adv-x="566" 
d="M510 0h-467v18c63 18 79 34 79 111v432c0 77 -16 93 -79 111v18h440v-141h-22c-57 89 -52 90 -119 90h-123v-259h122c40 0 53 17 79 54h20v-161h-20c-26 37 -39 57 -79 57h-122v-279h150c63 0 63 6 139 105h21zM275 767c-28 0 -52 22 -52 55c0 34 24 55 52 55
c29 0 53 -21 53 -55c0 -33 -24 -55 -53 -55z" />
    <glyph glyph-name="Eogonek" unicode="&#x118;" horiz-adv-x="566" 
d="M432 -168v-12c-11 -15 -37 -35 -65 -35c-46 0 -70 33 -70 71c0 59 67 112 116 144h-370v18c63 18 79 34 79 111v432c0 77 -16 93 -79 111v18h440v-141h-22c-57 89 -52 90 -119 90h-123v-259h122c40 0 53 17 79 54h20v-161h-20c-26 37 -39 57 -79 57h-122v-279h150
c63 0 63 6 139 105h21l-19 -156h-69c-35 -41 -70 -90 -70 -132c0 -22 18 -39 44 -39c5 0 12 1 17 3z" />
    <glyph glyph-name="Ecaron" unicode="&#x11a;" horiz-adv-x="566" 
d="M510 0h-467v18c63 18 79 34 79 111v432c0 77 -16 93 -79 111v18h440v-141h-22c-57 89 -52 90 -119 90h-123v-259h122c40 0 53 17 79 54h20v-161h-20c-26 37 -39 57 -79 57h-122v-279h150c63 0 63 6 139 105h21zM300 740h-49l-88 130h33l79 -58l82 58h33z" />
    <glyph glyph-name="Gcircumflex" unicode="&#x11c;" horiz-adv-x="728" 
d="M642 30h-4c-99 -22 -157 -45 -228 -45c-191 0 -359 127 -359 357c0 249 201 362 375 362c67 0 160 -20 197 -37v-143h-25c-55 111 -116 129 -181 129c-138 0 -256 -97 -256 -306s119 -306 266 -306c54 0 106 19 124 26v144c0 77 -15 103 -80 121v18h233v-18
c-47 -18 -62 -34 -62 -121v-181zM523 740h-33l-82 58l-79 -58h-33l88 130h49z" />
    <glyph glyph-name="Gbreve" unicode="&#x11e;" horiz-adv-x="728" 
d="M642 30h-4c-99 -22 -157 -45 -228 -45c-191 0 -359 127 -359 357c0 249 201 362 375 362c67 0 160 -20 197 -37v-143h-25c-55 111 -116 129 -181 129c-138 0 -256 -97 -256 -306s119 -306 266 -306c54 0 106 19 124 26v144c0 77 -15 103 -80 121v18h233v-18
c-47 -18 -62 -34 -62 -121v-181zM525 872l20 -1c-9 -68 -65 -131 -130 -131c-64 0 -120 63 -126 131l20 1c19 -41 62 -59 106 -59c46 0 88 18 110 59z" />
    <glyph glyph-name="Gdotaccent" unicode="&#x120;" horiz-adv-x="728" 
d="M642 30h-4c-99 -22 -157 -45 -228 -45c-191 0 -359 127 -359 357c0 249 201 362 375 362c67 0 160 -20 197 -37v-143h-25c-55 111 -116 129 -181 129c-138 0 -256 -97 -256 -306s119 -306 266 -306c54 0 106 19 124 26v144c0 77 -15 103 -80 121v18h233v-18
c-47 -18 -62 -34 -62 -121v-181zM412 767c-28 0 -52 22 -52 55c0 34 24 55 52 55c29 0 53 -21 53 -55c0 -33 -24 -55 -53 -55z" />
    <glyph glyph-name="Gcommaaccent" unicode="&#x122;" horiz-adv-x="728" 
d="M642 30h-4c-99 -22 -157 -45 -228 -45c-191 0 -359 127 -359 357c0 249 201 362 375 362c67 0 160 -20 197 -37v-143h-25c-55 111 -116 129 -181 129c-138 0 -256 -97 -256 -306s119 -306 266 -306c54 0 106 19 124 26v144c0 77 -15 103 -80 121v18h233v-18
c-47 -18 -62 -34 -62 -121v-181zM366 -230h-30c19 30 28 61 28 77c0 25 -28 38 -28 67c0 33 24 50 49 50c30 0 52 -23 52 -57c0 -47 -37 -97 -71 -137z" />
    <glyph glyph-name="Hcircumflex" unicode="&#x124;" horiz-adv-x="788" 
d="M740 0h-257v18c66 18 81 34 81 111v198h-345v-198c0 -77 16 -93 79 -111v-18h-255v18c65 18 80 34 80 111v432c0 77 -15 93 -80 111v18h255v-18c-63 -18 -79 -34 -79 -111v-179h345v179c0 77 -15 93 -81 111v18h257v-18c-65 -18 -80 -34 -80 -111v-432
c0 -77 15 -93 80 -111v-18zM508 740h-33l-82 58l-79 -58h-33l88 130h49z" />
    <glyph glyph-name="Hbar" unicode="&#x126;" horiz-adv-x="788" 
d="M740 0h-258v14c66 18 81 48 81 125v194h-343v-194c0 -77 16 -107 79 -125v-14h-256v14c65 18 80 48 80 125v335h-78v43h78v34c0 77 -15 107 -80 125v14h256v-14c-63 -18 -79 -48 -79 -125v-34h343v34c0 77 -15 107 -81 125v14h258v-14c-65 -18 -80 -48 -80 -125v-34h80
v-43h-80v-335c0 -77 15 -107 80 -125v-14zM563 376v98h-343v-98h343z" />
    <glyph glyph-name="Igrave" unicode="&#xcc;" horiz-adv-x="343" 
d="M298 0h-257v18c65 18 81 34 81 111v432c0 77 -16 93 -81 111v18h257v-18c-64 -18 -80 -34 -80 -111v-432c0 -77 16 -93 80 -111v-18zM282 743l-199 85l36 65l174 -130z" />
    <glyph glyph-name="Iacute" unicode="&#xcd;" horiz-adv-x="343" 
d="M298 0h-257v18c65 18 81 34 81 111v432c0 77 -16 93 -81 111v18h257v-18c-64 -18 -80 -34 -80 -111v-432c0 -77 16 -93 80 -111v-18zM293 828l-199 -85l-11 20l174 130z" />
    <glyph glyph-name="Icircumflex" unicode="&#xce;" horiz-adv-x="343" 
d="M298 0h-257v18c65 18 81 34 81 111v432c0 77 -16 93 -81 111v18h257v-18c-64 -18 -80 -34 -80 -111v-432c0 -77 16 -93 80 -111v-18zM284 740h-33l-82 58l-79 -58h-33l88 130h49z" />
    <glyph glyph-name="Idieresis" unicode="&#xcf;" horiz-adv-x="343" 
d="M298 0h-257v18c65 18 81 34 81 111v432c0 77 -16 93 -81 111v18h257v-18c-64 -18 -80 -34 -80 -111v-432c0 -77 16 -93 80 -111v-18zM70 767c-28 0 -52 22 -52 55c0 34 24 55 52 55c29 0 53 -21 53 -55c0 -33 -24 -55 -53 -55zM268 767c-28 0 -52 22 -52 55
c0 34 24 55 52 55c29 0 53 -21 53 -55c0 -33 -24 -55 -53 -55z" />
    <glyph glyph-name="Itilde" unicode="&#x128;" horiz-adv-x="343" 
d="M298 0h-257v18c65 18 81 34 81 111v432c0 77 -16 93 -81 111v18h257v-18c-64 -18 -80 -34 -80 -111v-432c0 -77 16 -93 80 -111v-18zM297 866l28 -2c-4 -40 -46 -96 -97 -96c-50 0 -104 35 -137 35c-30 0 -40 -17 -47 -37l-27 4c4 40 45 94 96 94c47 0 104 -32 138 -32
c30 0 38 14 46 34z" />
    <glyph glyph-name="Imacron" unicode="&#x12a;" horiz-adv-x="343" 
d="M298 0h-257v18c65 18 81 34 81 111v432c0 77 -16 93 -81 111v18h257v-18c-64 -18 -80 -34 -80 -111v-432c0 -77 16 -93 80 -111v-18zM287 775h-234v62h234v-62z" />
    <glyph glyph-name="Ibreve" unicode="&#x12c;" horiz-adv-x="343" 
d="M298 0h-257v18c65 18 81 34 81 111v432c0 77 -16 93 -81 111v18h257v-18c-64 -18 -80 -34 -80 -111v-432c0 -77 16 -93 80 -111v-18zM279 872l20 -1c-9 -68 -65 -131 -130 -131c-64 0 -120 63 -126 131l20 1c19 -41 62 -59 106 -59c46 0 88 18 110 59z" />
    <glyph glyph-name="Iogonek" unicode="&#x12e;" horiz-adv-x="343" 
d="M201 -168v-12c-11 -15 -37 -35 -65 -35c-46 0 -70 33 -70 71c0 59 67 112 116 144h-141v18c65 18 81 34 81 111v432c0 77 -16 93 -81 111v18h257v-18c-64 -18 -80 -34 -80 -111v-432c0 -77 16 -93 80 -111v-18h-88c-35 -41 -70 -90 -70 -132c0 -22 18 -39 44 -39
c5 0 12 1 17 3z" />
    <glyph glyph-name="Idotaccent" unicode="&#x130;" horiz-adv-x="343" 
d="M298 0h-257v18c65 18 81 34 81 111v432c0 77 -16 93 -81 111v18h257v-18c-64 -18 -80 -34 -80 -111v-432c0 -77 16 -93 80 -111v-18zM168 767c-28 0 -52 22 -52 55c0 34 24 55 52 55c29 0 53 -21 53 -55c0 -33 -24 -55 -53 -55z" />
    <glyph glyph-name="IJ" unicode="&#x132;" horiz-adv-x="686" 
d="M298 0h-257v18c65 18 81 34 81 111v432c0 77 -16 93 -81 111v18h257v-18c-64 -18 -80 -34 -80 -111v-432c0 -77 16 -93 80 -111v-18zM385 -206l-14 20c55 39 94 105 94 210v537c0 77 -16 93 -81 111v18h257v-18c-64 -18 -80 -34 -80 -111v-498
c0 -154 -103 -234 -176 -269z" />
    <glyph glyph-name="Jcircumflex" unicode="&#x134;" horiz-adv-x="343" 
d="M42 -206l-14 20c55 39 94 105 94 210v537c0 77 -16 93 -81 111v18h257v-18c-64 -18 -80 -34 -80 -111v-498c0 -154 -103 -234 -176 -269zM284 740h-33l-82 58l-79 -58h-33l88 130h49z" />
    <glyph glyph-name="Kcommaaccent" unicode="&#x136;" horiz-adv-x="694" 
d="M704 0h-261v18c27 6 46 11 46 29c0 20 -18 57 -65 126l-118 175l-92 -99v-120c0 -77 15 -93 78 -111v-18h-255v18c65 18 80 34 80 111v432c0 77 -15 93 -80 111v18h255v-18c-63 -18 -78 -34 -78 -111v-249l183 208c43 50 63 80 63 104c0 21 -19 36 -51 48v18h252v-18
c-73 -25 -98 -46 -203 -160l-82 -89l163 -244c75 -111 107 -141 165 -161v-18zM330 -230h-30c19 30 28 61 28 77c0 25 -28 38 -28 67c0 33 24 50 49 50c30 0 52 -23 52 -57c0 -47 -37 -97 -71 -137z" />
    <glyph glyph-name="kgreenlandic.case" horiz-adv-x="760" 
d="M704 0h-261v18c27 6 46 11 46 29c0 20 -18 57 -65 126l-118 175l-92 -99v-120c0 -77 15 -93 78 -111v-18h-255v18c65 18 80 34 80 111v432c0 77 -15 93 -80 111v18h255v-18c-63 -18 -78 -34 -78 -111v-249l183 208c43 50 63 80 63 104c0 21 -19 36 -51 48v18h252v-18
c-73 -25 -98 -46 -203 -160l-82 -89l163 -244c75 -111 107 -141 165 -161v-18zM730 690h30c-19 -30 -28 -61 -28 -77c0 -25 28 -38 28 -67c0 -33 -24 -50 -49 -50c-30 0 -52 23 -52 57c0 47 37 97 71 137z" />
    <glyph glyph-name="Lacute" unicode="&#x139;" horiz-adv-x="534" 
d="M485 0h-448v18c64 18 79 44 79 121v412c0 77 -15 103 -79 121v18h255v-18c-65 -18 -79 -44 -79 -121v-500h148c37 0 46 2 125 106h18zM330 828l-199 -85l-11 20l174 130z" />
    <glyph glyph-name="Lcommaaccent" unicode="&#x13b;" horiz-adv-x="534" 
d="M485 0h-448v18c64 18 79 44 79 121v412c0 77 -15 103 -79 121v18h255v-18c-65 -18 -79 -44 -79 -121v-500h148c37 0 46 2 125 106h18zM250 -230h-30c19 30 28 61 28 77c0 25 -28 38 -28 67c0 33 24 50 49 50c30 0 52 -23 52 -57c0 -47 -37 -97 -71 -137z" />
    <glyph glyph-name="Lcaron" unicode="&#x13d;" horiz-adv-x="534" 
d="M485 0h-448v18c64 18 79 44 79 121v412c0 77 -15 103 -79 121v18h255v-18c-65 -18 -79 -44 -79 -121v-500h148c37 0 46 2 125 106h18zM378 476h-21c-4 76 -32 144 -32 178c0 29 20 50 42 50c23 0 43 -21 43 -50c0 -35 -29 -106 -32 -178z" />
    <glyph glyph-name="Ldot" unicode="&#x13f;" horiz-adv-x="534" 
d="M485 0h-448v18c64 18 79 44 79 121v412c0 77 -15 103 -79 121v18h255v-18c-65 -18 -79 -44 -79 -121v-500h148c37 0 46 2 125 106h18zM392 352c0 -32 -28 -59 -60 -59s-59 27 -59 59s27 60 59 60s60 -28 60 -60z" />
    <glyph glyph-name="Lslash" unicode="&#x141;" horiz-adv-x="530" 
d="M485 0h-448v18c64 18 79 44 79 121v133l-58 -23v52l58 23v227c0 77 -15 103 -79 121v18h255v-18c-65 -18 -79 -44 -79 -121v-187l87 35v-53l-87 -35v-260h148c37 0 46 2 125 106h18z" />
    <glyph glyph-name="Ntilde" unicode="&#xd1;" horiz-adv-x="798" 
d="M692 -10h-66l-452 587v-377c0 -143 13 -161 75 -182v-18h-217v18c62 21 74 37 74 182v396c0 33 -28 60 -93 76v18h199l413 -533v333c0 142 -14 161 -74 182v18h215v-18c-60 -21 -74 -37 -74 -182v-500zM527 866l28 -2c-4 -40 -46 -96 -97 -96c-50 0 -104 35 -137 35
c-30 0 -40 -17 -47 -37l-27 4c4 40 45 94 96 94c47 0 104 -32 138 -32c30 0 38 14 46 34z" />
    <glyph glyph-name="Nacute" unicode="&#x143;" horiz-adv-x="798" 
d="M692 -10h-66l-452 587v-377c0 -143 13 -161 75 -182v-18h-217v18c62 21 74 37 74 182v396c0 33 -28 60 -93 76v18h199l413 -533v333c0 142 -14 161 -74 182v18h215v-18c-60 -21 -74 -37 -74 -182v-500zM524 828l-199 -85l-11 20l174 130z" />
    <glyph glyph-name="Ncommaaccent" unicode="&#x145;" horiz-adv-x="798" 
d="M692 -10h-66l-452 587v-377c0 -143 13 -161 75 -182v-18h-217v18c62 21 74 37 74 182v396c0 33 -28 60 -93 76v18h199l413 -533v333c0 142 -14 161 -74 182v18h215v-18c-60 -21 -74 -37 -74 -182v-500zM385 -230h-30c19 30 28 61 28 77c0 25 -28 38 -28 67
c0 33 24 50 49 50c30 0 52 -23 52 -57c0 -47 -37 -97 -71 -137z" />
    <glyph glyph-name="Ncaron" unicode="&#x147;" horiz-adv-x="798" 
d="M692 -10h-66l-452 587v-377c0 -143 13 -161 75 -182v-18h-217v18c62 21 74 37 74 182v396c0 33 -28 60 -93 76v18h199l413 -533v333c0 142 -14 161 -74 182v18h215v-18c-60 -21 -74 -37 -74 -182v-500zM424 740h-49l-88 130h33l79 -58l82 58h33z" />
    <glyph glyph-name="napostrophe.case" horiz-adv-x="798" 
d="M692 -10h-66l-452 587v-377c0 -143 13 -161 75 -182v-18h-217v18c62 21 74 37 74 182v396c0 33 -28 60 -93 76v18h199l413 -533v333c0 142 -14 161 -74 182v18h215v-18c-60 -21 -74 -37 -74 -182v-500zM125 730h-30c19 30 28 61 28 77c0 25 -28 38 -28 67
c0 33 24 50 49 50c30 0 52 -23 52 -57c0 -47 -37 -97 -71 -137z" />
    <glyph glyph-name="Ograve" unicode="&#xd2;" horiz-adv-x="769" 
d="M382 -15c-189 0 -339 135 -339 359c0 219 158 360 339 360s339 -138 339 -357c0 -224 -149 -362 -339 -362zM382 36c145 0 229 143 229 308c0 169 -84 309 -229 309s-230 -140 -230 -309c0 -165 85 -308 230 -308zM495 743l-199 85l36 65l174 -130z" />
    <glyph glyph-name="Oacute" unicode="&#xd3;" horiz-adv-x="769" 
d="M382 -15c-189 0 -339 135 -339 359c0 219 158 360 339 360s339 -138 339 -357c0 -224 -149 -362 -339 -362zM382 36c145 0 229 143 229 308c0 169 -84 309 -229 309s-230 -140 -230 -309c0 -165 85 -308 230 -308zM506 828l-199 -85l-11 20l174 130z" />
    <glyph glyph-name="Ocircumflex" unicode="&#xd4;" horiz-adv-x="769" 
d="M382 -15c-189 0 -339 135 -339 359c0 219 158 360 339 360s339 -138 339 -357c0 -224 -149 -362 -339 -362zM382 36c145 0 229 143 229 308c0 169 -84 309 -229 309s-230 -140 -230 -309c0 -165 85 -308 230 -308zM496 740h-33l-82 58l-79 -58h-33l88 130h49z" />
    <glyph glyph-name="Otilde" unicode="&#xd5;" horiz-adv-x="769" 
d="M382 -15c-189 0 -339 135 -339 359c0 219 158 360 339 360s339 -138 339 -357c0 -224 -149 -362 -339 -362zM382 36c145 0 229 143 229 308c0 169 -84 309 -229 309s-230 -140 -230 -309c0 -165 85 -308 230 -308zM509 866l28 -2c-4 -40 -46 -96 -97 -96
c-50 0 -104 35 -137 35c-30 0 -40 -17 -47 -37l-27 4c4 40 45 94 96 94c47 0 104 -32 138 -32c30 0 38 14 46 34z" />
    <glyph glyph-name="Odieresis" unicode="&#xd6;" horiz-adv-x="769" 
d="M382 -15c-189 0 -339 135 -339 359c0 219 158 360 339 360s339 -138 339 -357c0 -224 -149 -362 -339 -362zM382 36c145 0 229 143 229 308c0 169 -84 309 -229 309s-230 -140 -230 -309c0 -165 85 -308 230 -308zM284 767c-28 0 -52 22 -52 55c0 34 24 55 52 55
c29 0 53 -21 53 -55c0 -33 -24 -55 -53 -55zM482 767c-28 0 -52 22 -52 55c0 34 24 55 52 55c29 0 53 -21 53 -55c0 -33 -24 -55 -53 -55z" />
    <glyph glyph-name="Oslash" unicode="&#xd8;" horiz-adv-x="769" 
d="M202 -53l-47 24l37 68c-91 59 -149 164 -149 305c0 219 158 360 339 360c54 0 107 -13 154 -37l36 66l47 -23l-39 -71c84 -61 141 -164 141 -295c0 -224 -149 -359 -339 -359c-52 0 -100 10 -144 29zM229 107l276 504c-34 26 -75 42 -123 42c-145 0 -230 -140 -230 -309
c0 -94 27 -180 77 -237zM543 572l-274 -501c32 -22 70 -35 113 -35c145 0 229 143 229 308c0 89 -24 171 -68 228z" />
    <glyph glyph-name="Omacron" unicode="&#x14c;" horiz-adv-x="769" 
d="M382 -15c-189 0 -339 135 -339 359c0 219 158 360 339 360s339 -138 339 -357c0 -224 -149 -362 -339 -362zM382 36c145 0 229 143 229 308c0 169 -84 309 -229 309s-230 -140 -230 -309c0 -165 85 -308 230 -308zM501 775h-234v62h234v-62z" />
    <glyph glyph-name="Obreve" unicode="&#x14e;" horiz-adv-x="769" 
d="M382 -15c-189 0 -339 135 -339 359c0 219 158 360 339 360s339 -138 339 -357c0 -224 -149 -362 -339 -362zM382 36c145 0 229 143 229 308c0 169 -84 309 -229 309s-230 -140 -230 -309c0 -165 85 -308 230 -308zM493 872l20 -1c-9 -68 -65 -131 -130 -131
c-64 0 -120 63 -126 131l20 1c19 -41 62 -59 106 -59c46 0 88 18 110 59z" />
    <glyph glyph-name="Ohungarumlaut" unicode="&#x150;" horiz-adv-x="769" 
d="M382 -15c-189 0 -339 135 -339 359c0 219 158 360 339 360s339 -138 339 -357c0 -224 -149 -362 -339 -362zM382 36c145 0 229 143 229 308c0 169 -84 309 -229 309s-230 -140 -230 -309c0 -165 85 -308 230 -308zM307 737h-28c13 43 22 88 24 134h74
c-23 -53 -44 -99 -70 -134zM418 737h-28c13 43 23 88 24 134h75c-24 -53 -45 -99 -71 -134z" />
    <glyph glyph-name="Racute" unicode="&#x154;" horiz-adv-x="618" 
d="M636 0h-63c-98 0 -112 16 -160 91l-140 217h-60v-179c0 -77 14 -93 78 -111v-18h-254v18c65 18 79 34 79 111v432c0 77 -14 93 -79 111v18h288c132 0 212 -57 212 -178c0 -105 -85 -159 -165 -181l143 -209c59 -86 71 -90 121 -104v-18zM213 354h81c72 0 143 47 143 149
c0 84 -55 140 -126 140h-98v-289zM431 828l-199 -85l-11 20l174 130z" />
    <glyph glyph-name="Rcommaaccent" unicode="&#x156;" horiz-adv-x="618" 
d="M636 0h-63c-98 0 -112 16 -160 91l-140 217h-60v-179c0 -77 14 -93 78 -111v-18h-254v18c65 18 79 34 79 111v432c0 77 -14 93 -79 111v18h288c132 0 212 -57 212 -178c0 -105 -85 -159 -165 -181l143 -209c59 -86 71 -90 121 -104v-18zM213 354h81c72 0 143 47 143 149
c0 84 -55 140 -126 140h-98v-289zM292 -230h-30c19 30 28 61 28 77c0 25 -28 38 -28 67c0 33 24 50 49 50c30 0 52 -23 52 -57c0 -47 -37 -97 -71 -137z" />
    <glyph glyph-name="Rcaron" unicode="&#x158;" horiz-adv-x="618" 
d="M636 0h-63c-98 0 -112 16 -160 91l-140 217h-60v-179c0 -77 14 -93 78 -111v-18h-254v18c65 18 79 34 79 111v432c0 77 -14 93 -79 111v18h288c132 0 212 -57 212 -178c0 -105 -85 -159 -165 -181l143 -209c59 -86 71 -90 121 -104v-18zM213 354h81c72 0 143 47 143 149
c0 84 -55 140 -126 140h-98v-289zM331 740h-49l-88 130h33l79 -58l82 58h33z" />
    <glyph glyph-name="Sacute" unicode="&#x15a;" horiz-adv-x="479" 
d="M59 27l-13 148h24c55 -110 112 -139 175 -139c62 0 116 43 116 106c0 166 -304 182 -304 377c0 110 107 185 211 185c53 0 116 -19 164 -41v-125h-24c-47 90 -89 115 -154 115c-61 0 -108 -43 -108 -94c0 -152 312 -172 312 -372c0 -121 -104 -202 -224 -202
c-61 0 -135 19 -175 42zM375 828l-199 -85l-11 20l174 130z" />
    <glyph glyph-name="Scircumflex" unicode="&#x15c;" horiz-adv-x="479" 
d="M59 27l-13 148h24c55 -110 112 -139 175 -139c62 0 116 43 116 106c0 166 -304 182 -304 377c0 110 107 185 211 185c53 0 116 -19 164 -41v-125h-24c-47 90 -89 115 -154 115c-61 0 -108 -43 -108 -94c0 -152 312 -172 312 -372c0 -121 -104 -202 -224 -202
c-61 0 -135 19 -175 42zM365 740h-33l-82 58l-79 -58h-33l88 130h49z" />
    <glyph glyph-name="Scedilla" unicode="&#x15e;" horiz-adv-x="479" 
d="M157 -186l17 17c22 -10 44 -13 61 -13c20 0 48 12 48 38c0 29 -60 45 -95 46l61 84c-5 -1 -10 -1 -15 -1c-61 0 -135 19 -175 42l-13 148h24c55 -110 112 -139 175 -139c62 0 116 39 116 102c0 166 -304 182 -304 377c0 110 107 189 211 189c53 0 116 -19 164 -41v-125
h-24c-47 90 -89 115 -154 115c-61 0 -108 -47 -108 -98c0 -152 312 -172 312 -372c0 -104 -77 -176 -175 -193l-26 -40c36 -5 86 -32 86 -84c0 -60 -60 -81 -97 -81s-68 13 -89 29z" />
    <glyph glyph-name="Scaron" unicode="&#x160;" horiz-adv-x="479" 
d="M59 27l-13 148h24c55 -110 112 -139 175 -139c62 0 116 43 116 106c0 166 -304 182 -304 377c0 110 107 185 211 185c53 0 116 -19 164 -41v-125h-24c-47 90 -89 115 -154 115c-61 0 -108 -43 -108 -94c0 -152 312 -172 312 -372c0 -121 -104 -202 -224 -202
c-61 0 -135 19 -175 42zM275 740h-49l-88 130h33l79 -58l82 58h33z" />
    <glyph glyph-name="Scommaaccent" unicode="&#x218;" horiz-adv-x="479" 
d="M59 27l-13 148h24c55 -110 112 -139 175 -139c62 0 116 43 116 106c0 166 -304 182 -304 377c0 110 107 185 211 185c53 0 116 -19 164 -41v-125h-24c-47 90 -89 115 -154 115c-61 0 -108 -43 -108 -94c0 -152 312 -172 312 -372c0 -121 -104 -202 -224 -202
c-61 0 -135 19 -175 42zM237 -230h-30c19 30 28 61 28 77c0 25 -28 38 -28 67c0 33 24 50 49 50c30 0 52 -23 52 -57c0 -47 -37 -97 -71 -137z" />
    <glyph glyph-name="Tcommaaccent" unicode="&#x162;" horiz-adv-x="625" 
d="M439 0h-257v18c64 18 79 34 79 111v510h-100c-27 0 -40 -1 -66 -42l-30 -48h-28l12 141h522l12 -141h-28l-30 48c-26 41 -39 42 -66 42h-100v-510c0 -77 15 -93 80 -111v-18zM296 -230h-30c19 30 28 61 28 77c0 25 -28 38 -28 67c0 33 24 50 49 50c30 0 52 -23 52 -57
c0 -47 -37 -97 -71 -137z" />
    <glyph glyph-name="uni021A" unicode="&#x21a;" horiz-adv-x="625" 
d="M439 0h-257v18c64 18 79 34 79 111v510h-100c-27 0 -40 -1 -66 -42l-30 -48h-28l12 141h522l12 -141h-28l-30 48c-26 41 -39 42 -66 42h-100v-510c0 -77 15 -93 80 -111v-18zM296 -230h-30c19 30 28 61 28 77c0 25 -28 38 -28 67c0 33 24 50 49 50c30 0 52 -23 52 -57
c0 -47 -37 -97 -71 -137z" />
    <glyph glyph-name="Tcaron" unicode="&#x164;" horiz-adv-x="625" 
d="M439 0h-257v18c64 18 79 34 79 111v510h-100c-27 0 -40 -1 -66 -42l-30 -48h-28l12 141h522l12 -141h-28l-30 48c-26 41 -39 42 -66 42h-100v-510c0 -77 15 -93 80 -111v-18zM334 740h-49l-88 130h33l79 -58l82 58h33z" />
    <glyph glyph-name="Tbar" unicode="&#x166;" horiz-adv-x="625" 
d="M439 0h-257v18c64 18 79 34 79 111v204h-96v42h96v264h-100c-27 0 -40 -1 -66 -42l-30 -48h-28l12 141h522l12 -141h-28l-30 48c-26 41 -39 42 -66 42h-100v-264h96v-42h-96v-204c0 -77 15 -93 80 -111v-18z" />
    <glyph glyph-name="Ugrave" unicode="&#xd9;" horiz-adv-x="749" 
d="M574 195v295c0 142 -14 161 -76 182v18h218v-18c-61 -21 -75 -37 -75 -182v-302c0 -133 -124 -203 -274 -203c-141 0 -250 64 -250 203v373c0 77 -15 93 -80 111v18h256v-18c-63 -18 -78 -34 -78 -111v-379c0 -76 53 -133 167 -133c111 0 192 47 192 146zM475 743
l-199 85l36 65l174 -130z" />
    <glyph glyph-name="Uacute" unicode="&#xda;" horiz-adv-x="749" 
d="M574 195v295c0 142 -14 161 -76 182v18h218v-18c-61 -21 -75 -37 -75 -182v-302c0 -133 -124 -203 -274 -203c-141 0 -250 64 -250 203v373c0 77 -15 93 -80 111v18h256v-18c-63 -18 -78 -34 -78 -111v-379c0 -76 53 -133 167 -133c111 0 192 47 192 146zM486 828
l-199 -85l-11 20l174 130z" />
    <glyph glyph-name="Ucircumflex" unicode="&#xdb;" horiz-adv-x="749" 
d="M574 195v295c0 142 -14 161 -76 182v18h218v-18c-61 -21 -75 -37 -75 -182v-302c0 -133 -124 -203 -274 -203c-141 0 -250 64 -250 203v373c0 77 -15 93 -80 111v18h256v-18c-63 -18 -78 -34 -78 -111v-379c0 -76 53 -133 167 -133c111 0 192 47 192 146zM476 740h-33
l-82 58l-79 -58h-33l88 130h49z" />
    <glyph glyph-name="Udieresis" unicode="&#xdc;" horiz-adv-x="749" 
d="M574 195v295c0 142 -14 161 -76 182v18h218v-18c-61 -21 -75 -37 -75 -182v-302c0 -133 -124 -203 -274 -203c-141 0 -250 64 -250 203v373c0 77 -15 93 -80 111v18h256v-18c-63 -18 -78 -34 -78 -111v-379c0 -76 53 -133 167 -133c111 0 192 47 192 146zM263 767
c-28 0 -52 22 -52 55c0 34 24 55 52 55c29 0 53 -21 53 -55c0 -33 -24 -55 -53 -55zM461 767c-28 0 -52 22 -52 55c0 34 24 55 52 55c29 0 53 -21 53 -55c0 -33 -24 -55 -53 -55z" />
    <glyph glyph-name="Utilde" unicode="&#x168;" horiz-adv-x="749" 
d="M574 195v295c0 142 -14 161 -76 182v18h218v-18c-61 -21 -75 -37 -75 -182v-302c0 -133 -124 -203 -274 -203c-141 0 -250 64 -250 203v373c0 77 -15 93 -80 111v18h256v-18c-63 -18 -78 -34 -78 -111v-379c0 -76 53 -133 167 -133c111 0 192 47 192 146zM526 866l28 -2
c-4 -40 -46 -96 -97 -96c-50 0 -104 35 -137 35c-30 0 -40 -17 -47 -37l-27 4c4 40 45 94 96 94c47 0 104 -32 138 -32c30 0 38 14 46 34z" />
    <glyph glyph-name="Umacron" unicode="&#x16a;" horiz-adv-x="749" 
d="M574 195v295c0 142 -14 161 -76 182v18h218v-18c-61 -21 -75 -37 -75 -182v-302c0 -133 -124 -203 -274 -203c-141 0 -250 64 -250 203v373c0 77 -15 93 -80 111v18h256v-18c-63 -18 -78 -34 -78 -111v-379c0 -76 53 -133 167 -133c111 0 192 47 192 146zM514 775h-234
v62h234v-62z" />
    <glyph glyph-name="Ubreve" unicode="&#x16c;" horiz-adv-x="749" 
d="M574 195v295c0 142 -14 161 -76 182v18h218v-18c-61 -21 -75 -37 -75 -182v-302c0 -133 -124 -203 -274 -203c-141 0 -250 64 -250 203v373c0 77 -15 93 -80 111v18h256v-18c-63 -18 -78 -34 -78 -111v-379c0 -76 53 -133 167 -133c111 0 192 47 192 146zM502 872l20 -1
c-9 -68 -65 -131 -130 -131c-64 0 -120 63 -126 131l20 1c19 -41 62 -59 106 -59c46 0 88 18 110 59z" />
    <glyph glyph-name="Uring" unicode="&#x16e;" horiz-adv-x="749" 
d="M574 195v295c0 142 -14 161 -76 182v18h218v-18c-61 -21 -75 -37 -75 -182v-302c0 -133 -124 -203 -274 -203c-141 0 -250 64 -250 203v373c0 77 -15 93 -80 111v18h256v-18c-63 -18 -78 -34 -78 -111v-379c0 -76 53 -133 167 -133c111 0 192 47 192 146zM498 836
c0 -56 -48 -102 -104 -102s-104 46 -104 102s48 102 104 102s104 -46 104 -102zM394 772c35 0 62 29 62 64s-27 64 -62 64s-62 -29 -62 -64s27 -64 62 -64z" />
    <glyph glyph-name="Uhungarumlaut" unicode="&#x170;" horiz-adv-x="749" 
d="M574 195v295c0 142 -14 161 -76 182v18h218v-18c-61 -21 -75 -37 -75 -182v-302c0 -133 -124 -203 -274 -203c-141 0 -250 64 -250 203v373c0 77 -15 93 -80 111v18h256v-18c-63 -18 -78 -34 -78 -111v-379c0 -76 53 -133 167 -133c111 0 192 47 192 146zM327 737h-28
c13 43 22 88 24 134h74c-23 -53 -44 -99 -70 -134zM438 737h-28c13 43 23 88 24 134h75c-24 -53 -45 -99 -71 -134z" />
    <glyph glyph-name="Uogonek" unicode="&#x172;" horiz-adv-x="741" 
d="M453 -168v-12c-11 -15 -37 -35 -65 -35c-46 0 -70 33 -70 71c0 53 66 101 115 134c-21 -3 -44 -5 -66 -5c-141 0 -250 64 -250 203v373c0 77 -15 93 -80 111v18h256v-18c-63 -18 -78 -34 -78 -111v-379c0 -76 53 -133 167 -133c111 0 192 47 192 146v295
c0 142 -14 161 -76 182v18h218v-18c-61 -21 -75 -37 -75 -182v-302c0 -106 -79 -172 -186 -194c-33 -40 -63 -86 -63 -126c0 -22 18 -39 44 -39c5 0 12 1 17 3z" />
    <glyph glyph-name="Wcircumflex" unicode="&#x174;" horiz-adv-x="987" 
d="M715 0h-102l-121 455l-131 -455h-113l-112 417c-55 205 -73 226 -128 255v18h236v-18c-37 -15 -46 -29 -46 -65c0 -37 14 -97 36 -184l87 -349v1l96 351c22 78 33 130 33 166c0 43 -19 61 -60 80v18h214v-18c-36 -15 -51 -30 -51 -66c0 -37 14 -99 36 -183l92 -331
l101 334c24 79 39 140 39 175c0 37 -12 53 -51 71v18h216v-18c-54 -27 -66 -45 -134 -254zM591 740h-33l-82 58l-79 -58h-33l88 130h49z" />
    <glyph glyph-name="Wgrave" unicode="&#x1e80;" horiz-adv-x="987" 
d="M715 0h-102l-121 455l-131 -455h-113l-112 417c-55 205 -73 226 -128 255v18h236v-18c-37 -15 -46 -29 -46 -65c0 -37 14 -97 36 -184l87 -349v1l96 351c22 78 33 130 33 166c0 43 -19 61 -60 80v18h214v-18c-36 -15 -51 -30 -51 -66c0 -37 14 -99 36 -183l92 -331
l101 334c24 79 39 140 39 175c0 37 -12 53 -51 71v18h216v-18c-54 -27 -66 -45 -134 -254zM590 743l-199 85l36 65l174 -130z" />
    <glyph glyph-name="Wacute" unicode="&#x1e82;" horiz-adv-x="987" 
d="M715 0h-102l-121 455l-131 -455h-113l-112 417c-55 205 -73 226 -128 255v18h236v-18c-37 -15 -46 -29 -46 -65c0 -37 14 -97 36 -184l87 -349v1l96 351c22 78 33 130 33 166c0 43 -19 61 -60 80v18h214v-18c-36 -15 -51 -30 -51 -66c0 -37 14 -99 36 -183l92 -331
l101 334c24 79 39 140 39 175c0 37 -12 53 -51 71v18h216v-18c-54 -27 -66 -45 -134 -254zM601 828l-199 -85l-11 20l174 130z" />
    <glyph glyph-name="Wdieresis" unicode="&#x1e84;" horiz-adv-x="987" 
d="M715 0h-102l-121 455l-131 -455h-113l-112 417c-55 205 -73 226 -128 255v18h236v-18c-37 -15 -46 -29 -46 -65c0 -37 14 -97 36 -184l87 -349v1l96 351c22 78 33 130 33 166c0 43 -19 61 -60 80v18h214v-18c-36 -15 -51 -30 -51 -66c0 -37 14 -99 36 -183l92 -331
l101 334c24 79 39 140 39 175c0 37 -12 53 -51 71v18h216v-18c-54 -27 -66 -45 -134 -254zM378 767c-28 0 -52 22 -52 55c0 34 24 55 52 55c29 0 53 -21 53 -55c0 -33 -24 -55 -53 -55zM576 767c-28 0 -52 22 -52 55c0 34 24 55 52 55c29 0 53 -21 53 -55
c0 -33 -24 -55 -53 -55z" />
    <glyph glyph-name="Yacute" unicode="&#xdd;" horiz-adv-x="595" 
d="M429 0h-256v18c63 18 79 34 79 111v161l-94 196c-69 144 -94 176 -137 186v18h215v-18c-28 -7 -42 -15 -42 -39c0 -27 26 -71 58 -140l65 -138l62 139c33 75 50 118 50 143c0 23 -14 31 -43 35v18h195v-18c-42 -10 -68 -29 -141 -185l-91 -195v-163c0 -77 16 -93 80 -111
v-18zM419 828l-199 -85l-11 20l174 130z" />
    <glyph glyph-name="Ydieresis" unicode="&#x178;" horiz-adv-x="595" 
d="M429 0h-256v18c63 18 79 34 79 111v161l-94 196c-69 144 -94 176 -137 186v18h215v-18c-28 -7 -42 -15 -42 -39c0 -27 26 -71 58 -140l65 -138l62 139c33 75 50 118 50 143c0 23 -14 31 -43 35v18h195v-18c-42 -10 -68 -29 -141 -185l-91 -195v-163c0 -77 16 -93 80 -111
v-18zM195 767c-28 0 -52 22 -52 55c0 34 24 55 52 55c29 0 53 -21 53 -55c0 -33 -24 -55 -53 -55zM393 767c-28 0 -52 22 -52 55c0 34 24 55 52 55c29 0 53 -21 53 -55c0 -33 -24 -55 -53 -55z" />
    <glyph glyph-name="Ycircumflex" unicode="&#x176;" horiz-adv-x="595" 
d="M429 0h-256v18c63 18 79 34 79 111v161l-94 196c-69 144 -94 176 -137 186v18h215v-18c-28 -7 -42 -15 -42 -39c0 -27 26 -71 58 -140l65 -138l62 139c33 75 50 118 50 143c0 23 -14 31 -43 35v18h195v-18c-42 -10 -68 -29 -141 -185l-91 -195v-163c0 -77 16 -93 80 -111
v-18zM409 740h-33l-82 58l-79 -58h-33l88 130h49z" />
    <glyph glyph-name="Ygrave" unicode="&#x1ef2;" horiz-adv-x="595" 
d="M429 0h-256v18c63 18 79 34 79 111v161l-94 196c-69 144 -94 176 -137 186v18h215v-18c-28 -7 -42 -15 -42 -39c0 -27 26 -71 58 -140l65 -138l62 139c33 75 50 118 50 143c0 23 -14 31 -43 35v18h195v-18c-42 -10 -68 -29 -141 -185l-91 -195v-163c0 -77 16 -93 80 -111
v-18zM408 743l-199 85l36 65l174 -130z" />
    <glyph glyph-name="Zacute" unicode="&#x179;" horiz-adv-x="538" 
d="M490 0h-464v21l352 615h-204c-38 0 -44 -9 -112 -87h-22l17 141h442v-21l-347 -615h215c37 0 53 5 121 102h21zM390 828l-199 -85l-11 20l174 130z" />
    <glyph glyph-name="Zdotaccent" unicode="&#x17b;" horiz-adv-x="538" 
d="M490 0h-464v21l352 615h-204c-38 0 -44 -9 -112 -87h-22l17 141h442v-21l-347 -615h215c37 0 53 5 121 102h21zM266 767c-28 0 -52 22 -52 55c0 34 24 55 52 55c29 0 53 -21 53 -55c0 -33 -24 -55 -53 -55z" />
    <glyph glyph-name="Zcaron" unicode="&#x17d;" horiz-adv-x="538" 
d="M490 0h-464v21l352 615h-204c-38 0 -44 -9 -112 -87h-22l17 141h442v-21l-347 -615h215c37 0 53 5 121 102h21zM290 740h-49l-88 130h33l79 -58l82 58h33z" />
    <glyph glyph-name="agrave" unicode="&#xe0;" horiz-adv-x="505" 
d="M487 36v-18c-7 -3 -71 -26 -105 -26c-31 0 -58 20 -63 62c-29 -25 -84 -66 -145 -66c-76 0 -136 54 -136 125c0 92 62 163 280 178v62c0 77 -48 112 -122 112c-32 0 -71 -8 -88 -13v-5c23 -8 43 -21 43 -50c0 -31 -24 -48 -50 -48c-28 0 -49 20 -49 50
c0 63 115 123 203 123c93 0 151 -52 151 -141v-261c0 -75 30 -79 81 -84zM318 79v162c-9 2 -44 5 -58 5c-95 0 -131 -36 -131 -103c0 -57 42 -90 101 -90c39 0 67 14 88 26zM321 563l-199 85l36 65l174 -130z" />
    <glyph glyph-name="aacute" unicode="&#xe1;" horiz-adv-x="505" 
d="M487 36v-18c-7 -3 -71 -26 -105 -26c-31 0 -58 20 -63 62c-29 -25 -84 -66 -145 -66c-76 0 -136 54 -136 125c0 92 62 163 280 178v62c0 77 -48 112 -122 112c-32 0 -71 -8 -88 -13v-5c23 -8 43 -21 43 -50c0 -31 -24 -48 -50 -48c-28 0 -49 20 -49 50
c0 63 115 123 203 123c93 0 151 -52 151 -141v-261c0 -75 30 -79 81 -84zM318 79v162c-9 2 -44 5 -58 5c-95 0 -131 -36 -131 -103c0 -57 42 -90 101 -90c39 0 67 14 88 26zM350 648l-199 -85l-11 20l174 130z" />
    <glyph glyph-name="acircumflex" unicode="&#xe2;" horiz-adv-x="505" 
d="M487 36v-18c-7 -3 -71 -26 -105 -26c-31 0 -58 20 -63 62c-29 -25 -84 -66 -145 -66c-76 0 -136 54 -136 125c0 92 62 163 280 178v62c0 77 -48 112 -122 112c-32 0 -71 -8 -88 -13v-5c23 -8 43 -21 43 -50c0 -31 -24 -48 -50 -48c-28 0 -49 20 -49 50
c0 63 115 123 203 123c93 0 151 -52 151 -141v-261c0 -75 30 -79 81 -84zM318 79v162c-9 2 -44 5 -58 5c-95 0 -131 -36 -131 -103c0 -57 42 -90 101 -90c39 0 67 14 88 26zM362 560h-33l-82 58l-79 -58h-33l88 130h49z" />
    <glyph glyph-name="atilde" unicode="&#xe3;" horiz-adv-x="505" 
d="M487 36v-18c-7 -3 -71 -26 -105 -26c-31 0 -58 20 -63 62c-29 -25 -84 -66 -145 -66c-76 0 -136 54 -136 125c0 92 62 163 280 178v62c0 77 -48 112 -122 112c-32 0 -71 -8 -88 -13v-5c23 -8 43 -21 43 -50c0 -31 -24 -48 -50 -48c-28 0 -49 20 -49 50
c0 63 115 123 203 123c93 0 151 -52 151 -141v-261c0 -75 30 -79 81 -84zM318 79v162c-9 2 -44 5 -58 5c-95 0 -131 -36 -131 -103c0 -57 42 -90 101 -90c39 0 67 14 88 26zM375 686l28 -2c-4 -40 -46 -96 -97 -96c-50 0 -104 35 -137 35c-30 0 -40 -17 -47 -37l-27 4
c4 40 45 94 96 94c47 0 104 -32 138 -32c30 0 38 14 46 34z" />
    <glyph glyph-name="adieresis" unicode="&#xe4;" horiz-adv-x="505" 
d="M487 36v-18c-7 -3 -71 -26 -105 -26c-31 0 -58 20 -63 62c-29 -25 -84 -66 -145 -66c-76 0 -136 54 -136 125c0 92 62 163 280 178v62c0 77 -48 112 -122 112c-32 0 -71 -8 -88 -13v-5c23 -8 43 -21 43 -50c0 -31 -24 -48 -50 -48c-28 0 -49 20 -49 50
c0 63 115 123 203 123c93 0 151 -52 151 -141v-261c0 -75 30 -79 81 -84zM318 79v162c-9 2 -44 5 -58 5c-95 0 -131 -36 -131 -103c0 -57 42 -90 101 -90c39 0 67 14 88 26zM149 587c-28 0 -52 22 -52 55c0 34 24 55 52 55c29 0 53 -21 53 -55c0 -33 -24 -55 -53 -55z
M347 587c-28 0 -52 22 -52 55c0 34 24 55 52 55c29 0 53 -21 53 -55c0 -33 -24 -55 -53 -55z" />
    <glyph glyph-name="aring" unicode="&#xe5;" horiz-adv-x="505" 
d="M487 36v-18c-7 -3 -71 -26 -105 -26c-31 0 -58 20 -63 62c-29 -25 -84 -66 -145 -66c-76 0 -136 54 -136 125c0 92 62 163 280 178v62c0 77 -48 112 -122 112c-32 0 -71 -8 -88 -13v-5c23 -8 43 -21 43 -50c0 -31 -24 -48 -50 -48c-28 0 -49 20 -49 50
c0 63 115 123 203 123c93 0 151 -52 151 -141v-261c0 -75 30 -79 81 -84zM318 79v162c-9 2 -44 5 -58 5c-95 0 -131 -36 -131 -103c0 -57 42 -90 101 -90c39 0 67 14 88 26zM356 687c0 -56 -48 -102 -104 -102s-104 46 -104 102s48 102 104 102s104 -46 104 -102zM252 623
c35 0 62 29 62 64s-27 64 -62 64s-62 -29 -62 -64s27 -64 62 -64z" />
    <glyph glyph-name="amacron" unicode="&#x101;" horiz-adv-x="505" 
d="M487 36v-18c-7 -3 -71 -26 -105 -26c-31 0 -58 20 -63 62c-29 -25 -84 -66 -145 -66c-76 0 -136 54 -136 125c0 92 62 163 280 178v62c0 77 -48 112 -122 112c-32 0 -71 -8 -88 -13v-5c23 -8 43 -21 43 -50c0 -31 -24 -48 -50 -48c-28 0 -49 20 -49 50
c0 63 115 123 203 123c93 0 151 -52 151 -141v-261c0 -75 30 -79 81 -84zM318 79v162c-9 2 -44 5 -58 5c-95 0 -131 -36 -131 -103c0 -57 42 -90 101 -90c39 0 67 14 88 26zM365 595h-234v62h234v-62z" />
    <glyph glyph-name="abreve" unicode="&#x103;" horiz-adv-x="505" 
d="M487 36v-18c-7 -3 -71 -26 -105 -26c-31 0 -58 20 -63 62c-29 -25 -84 -66 -145 -66c-76 0 -136 54 -136 125c0 92 62 163 280 178v62c0 77 -48 112 -122 112c-32 0 -71 -8 -88 -13v-5c23 -8 43 -21 43 -50c0 -31 -24 -48 -50 -48c-28 0 -49 20 -49 50
c0 63 115 123 203 123c93 0 151 -52 151 -141v-261c0 -75 30 -79 81 -84zM318 79v162c-9 2 -44 5 -58 5c-95 0 -131 -36 -131 -103c0 -57 42 -90 101 -90c39 0 67 14 88 26zM357 692l20 -1c-9 -68 -65 -131 -130 -131c-64 0 -120 63 -126 131l20 1c19 -41 62 -59 106 -59
c46 0 88 18 110 59z" />
    <glyph glyph-name="aogonek" unicode="&#x105;" horiz-adv-x="505" 
d="M496 -168v-12c-11 -15 -37 -35 -65 -35c-46 0 -70 33 -70 71c0 54 56 119 103 153c-24 -7 -60 -17 -82 -17c-31 0 -58 19 -63 61c-29 -25 -96 -65 -154 -65c-69 0 -127 51 -127 125c0 92 62 163 280 178v62c0 77 -48 112 -122 112c-32 0 -71 -8 -88 -13v-5
c23 -8 43 -21 43 -50c0 -31 -24 -48 -50 -48c-28 0 -49 20 -49 50c0 63 115 123 203 123c93 0 151 -52 151 -141v-261c0 -75 30 -79 81 -84v-18c-35 -41 -52 -108 -52 -150c0 -22 18 -39 44 -39c5 0 12 1 17 3zM318 76v165c-9 2 -35 5 -44 5c-95 0 -144 -44 -144 -111
c0 -57 45 -81 91 -81c39 0 76 10 97 22z" />
    <glyph glyph-name="ccedilla" unicode="&#xe7;" horiz-adv-x="451" 
d="M167 -186l17 17c22 -10 44 -13 61 -13c20 0 48 12 48 38c0 29 -60 45 -95 46l63 86h-6c-109 0 -212 85 -212 259c0 191 119 275 241 275c85 0 135 -40 135 -93c0 -35 -23 -64 -58 -64c-29 0 -52 17 -52 52c0 20 6 34 19 47c-10 3 -28 7 -47 7c-82 0 -145 -54 -145 -193
c0 -157 81 -219 162 -219c51 0 101 30 120 47l14 -13c-19 -27 -66 -84 -137 -100l-28 -43c36 -5 86 -32 86 -84c0 -60 -60 -81 -97 -81s-68 13 -89 29z" />
    <glyph glyph-name="cacute" unicode="&#x107;" horiz-adv-x="451" 
d="M418 106l14 -13c-22 -32 -83 -105 -177 -105c-109 0 -212 85 -212 259c0 191 119 275 241 275c85 0 135 -40 135 -93c0 -35 -23 -64 -58 -64c-29 0 -52 17 -52 52c0 20 6 34 19 47c-10 3 -28 7 -47 7c-82 0 -145 -54 -145 -193c0 -157 81 -219 162 -219
c51 0 101 30 120 47zM366 648l-199 -85l-11 20l174 130z" />
    <glyph glyph-name="ccircumflex" unicode="&#x109;" horiz-adv-x="451" 
d="M418 106l14 -13c-22 -32 -83 -105 -177 -105c-109 0 -212 85 -212 259c0 191 119 275 241 275c85 0 135 -40 135 -93c0 -35 -23 -64 -58 -64c-29 0 -52 17 -52 52c0 20 6 34 19 47c-10 3 -28 7 -47 7c-82 0 -145 -54 -145 -193c0 -157 81 -219 162 -219
c51 0 101 30 120 47zM385 560h-33l-82 58l-79 -58h-33l88 130h49z" />
    <glyph glyph-name="cdotaccent" unicode="&#x10b;" horiz-adv-x="451" 
d="M418 106l14 -13c-22 -32 -83 -105 -177 -105c-109 0 -212 85 -212 259c0 191 119 275 241 275c85 0 135 -40 135 -93c0 -35 -23 -64 -58 -64c-29 0 -52 17 -52 52c0 20 6 34 19 47c-10 3 -28 7 -47 7c-82 0 -145 -54 -145 -193c0 -157 81 -219 162 -219
c51 0 101 30 120 47zM271 587c-28 0 -52 22 -52 55c0 34 24 55 52 55c29 0 53 -21 53 -55c0 -33 -24 -55 -53 -55z" />
    <glyph glyph-name="ccaron" unicode="&#x10d;" horiz-adv-x="451" 
d="M418 106l14 -13c-22 -32 -83 -105 -177 -105c-109 0 -212 85 -212 259c0 191 119 275 241 275c85 0 135 -40 135 -93c0 -35 -23 -64 -58 -64c-29 0 -52 17 -52 52c0 20 6 34 19 47c-10 3 -28 7 -47 7c-82 0 -145 -54 -145 -193c0 -157 81 -219 162 -219
c51 0 101 30 120 47zM285 560h-49l-88 130h33l79 -58l82 58h33z" />
    <glyph glyph-name="dcaron" unicode="&#x10f;" horiz-adv-x="591" 
d="M402 96v334c-25 19 -63 40 -111 40c-92 0 -162 -73 -162 -211c0 -127 74 -203 148 -203c55 0 94 22 125 40zM572 46v-13c-81 -8 -128 -27 -170 -45v81c-35 -34 -103 -81 -175 -81c-97 0 -193 96 -193 245c0 203 144 289 266 289c43 0 83 -10 102 -15v71
c0 82 -10 93 -89 119v17c54 3 137 22 175 40h4v-589c0 -83 10 -94 80 -119zM587 526h-21c-4 76 -32 144 -32 178c0 29 20 50 42 50c23 0 43 -21 43 -50c0 -35 -29 -106 -32 -178z" />
    <glyph glyph-name="dcroat" unicode="&#x111;" horiz-adv-x="589" 
d="M577 46v-13c-81 -8 -128 -27 -170 -45v81c-35 -34 -103 -81 -175 -81c-97 0 -193 96 -193 245c0 203 144 289 266 289c43 0 83 -10 102 -15v71h-145v50h142c-7 38 -27 49 -86 69v17c54 3 137 22 175 40h4v-126h54v-50h-54v-413c0 -83 10 -94 80 -119zM407 96v334
c-25 19 -63 40 -111 40c-92 0 -162 -73 -162 -211c0 -127 74 -203 148 -203c55 0 94 22 125 40z" />
    <glyph glyph-name="egrave" unicode="&#xe8;" horiz-adv-x="494" 
d="M445 113l13 -10c-19 -37 -90 -115 -198 -115c-124 0 -219 88 -219 254c0 184 115 280 229 280c96 0 178 -44 178 -216c0 -15 0 -17 -1 -29h-313v-5c0 -152 79 -213 167 -213c71 0 117 28 144 54zM134 320l225 10c-1 100 -35 140 -98 140c-61 0 -117 -28 -127 -150z
M372 563l-199 85l36 65l174 -130z" />
    <glyph glyph-name="eacute" unicode="&#xe9;" horiz-adv-x="494" 
d="M445 113l13 -10c-19 -37 -90 -115 -198 -115c-124 0 -219 88 -219 254c0 184 115 280 229 280c96 0 178 -44 178 -216c0 -15 0 -17 -1 -29h-313v-5c0 -152 79 -213 167 -213c71 0 117 28 144 54zM134 320l225 10c-1 100 -35 140 -98 140c-61 0 -117 -28 -127 -150z
M369 648l-199 -85l-11 20l174 130z" />
    <glyph glyph-name="ecircumflex" unicode="&#xea;" horiz-adv-x="494" 
d="M445 113l13 -10c-19 -37 -90 -115 -198 -115c-124 0 -219 88 -219 254c0 184 115 280 229 280c96 0 178 -44 178 -216c0 -15 0 -17 -1 -29h-313v-5c0 -152 79 -213 167 -213c71 0 117 28 144 54zM134 320l225 10c-1 100 -35 140 -98 140c-61 0 -117 -28 -127 -150z
M357 560h-33l-82 58l-79 -58h-33l88 130h49z" />
    <glyph glyph-name="edieresis" unicode="&#xeb;" horiz-adv-x="494" 
d="M445 113l13 -10c-19 -37 -90 -115 -198 -115c-124 0 -219 88 -219 254c0 184 115 280 229 280c96 0 178 -44 178 -216c0 -15 0 -17 -1 -29h-313v-5c0 -152 79 -213 167 -213c71 0 117 28 144 54zM134 320l225 10c-1 100 -35 140 -98 140c-61 0 -117 -28 -127 -150z
M144 587c-28 0 -52 22 -52 55c0 34 24 55 52 55c29 0 53 -21 53 -55c0 -33 -24 -55 -53 -55zM342 587c-28 0 -52 22 -52 55c0 34 24 55 52 55c29 0 53 -21 53 -55c0 -33 -24 -55 -53 -55z" />
    <glyph glyph-name="emacron" unicode="&#x113;" horiz-adv-x="494" 
d="M445 113l13 -10c-19 -37 -90 -115 -198 -115c-124 0 -219 88 -219 254c0 184 115 280 229 280c96 0 178 -44 178 -216c0 -15 0 -17 -1 -29h-313v-5c0 -152 79 -213 167 -213c71 0 117 28 144 54zM134 320l225 10c-1 100 -35 140 -98 140c-61 0 -117 -28 -127 -150z
M361 595h-234v62h234v-62z" />
    <glyph glyph-name="ebreve" unicode="&#x115;" horiz-adv-x="494" 
d="M445 113l13 -10c-19 -37 -90 -115 -198 -115c-124 0 -219 88 -219 254c0 184 115 280 229 280c96 0 178 -44 178 -216c0 -15 0 -17 -1 -29h-313v-5c0 -152 79 -213 167 -213c71 0 117 28 144 54zM134 320l225 10c-1 100 -35 140 -98 140c-61 0 -117 -28 -127 -150z
M353 692l20 -1c-9 -68 -65 -131 -130 -131c-64 0 -120 63 -126 131l20 1c19 -41 62 -59 106 -59c46 0 88 18 110 59z" />
    <glyph glyph-name="edotaccent" unicode="&#x117;" horiz-adv-x="494" 
d="M445 113l13 -10c-19 -37 -90 -115 -198 -115c-124 0 -219 88 -219 254c0 184 115 280 229 280c96 0 178 -44 178 -216c0 -15 0 -17 -1 -29h-313v-5c0 -152 79 -213 167 -213c71 0 117 28 144 54zM134 320l225 10c-1 100 -35 140 -98 140c-61 0 -117 -28 -127 -150z
M243 587c-28 0 -52 22 -52 55c0 34 24 55 52 55c29 0 53 -21 53 -55c0 -33 -24 -55 -53 -55z" />
    <glyph glyph-name="eogonek" unicode="&#x119;" horiz-adv-x="494" 
d="M452 -168v-12c-11 -15 -37 -35 -65 -35c-46 0 -70 33 -70 71c0 40 45 122 84 182c-35 -27 -82 -50 -141 -50c-124 0 -219 88 -219 254c0 184 115 280 229 280c96 0 178 -44 178 -216c0 -15 0 -17 -1 -29h-313v-5c0 -152 79 -213 167 -213c71 0 117 28 144 54l13 -10
c-18 -46 -67 -193 -67 -235c0 -22 18 -39 44 -39c5 0 12 1 17 3zM134 320l225 10c-1 100 -35 140 -98 140c-61 0 -117 -28 -127 -150z" />
    <glyph glyph-name="ecaron" unicode="&#x11b;" horiz-adv-x="494" 
d="M445 113l13 -10c-19 -37 -90 -115 -198 -115c-124 0 -219 88 -219 254c0 184 115 280 229 280c96 0 178 -44 178 -216c0 -15 0 -17 -1 -29h-313v-5c0 -152 79 -213 167 -213c71 0 117 28 144 54zM134 320l225 10c-1 100 -35 140 -98 140c-61 0 -117 -28 -127 -150z
M280 560h-49l-88 130h33l79 -58l82 58h33z" />
    <glyph glyph-name="gcircumflex" unicode="&#x11d;" horiz-adv-x="498" 
d="M192 77l170 -9c78 -4 124 -35 124 -109c0 -133 -153 -194 -278 -194c-95 0 -200 37 -200 115c0 63 63 103 113 125c-27 14 -41 40 -41 70c0 35 21 76 69 109c-44 23 -94 66 -94 152c0 121 85 186 182 186c36 0 74 -11 105 -29l150 29h4l-8 -75l-106 8
c21 -22 42 -59 42 -109c0 -110 -82 -184 -183 -184c-24 0 -45 4 -68 12c-17 -19 -28 -37 -28 -53c0 -19 12 -42 47 -44zM324 -16l-133 6c-20 1 -37 3 -45 6c-28 -21 -56 -54 -56 -95c0 -60 62 -83 151 -83c101 0 169 44 169 98c0 43 -30 65 -86 68zM239 209
c71 0 89 62 89 131c0 80 -25 130 -89 130s-88 -51 -88 -130c0 -68 18 -131 88 -131zM354 560h-33l-82 58l-79 -58h-33l88 130h49z" />
    <glyph glyph-name="gbreve" unicode="&#x11f;" horiz-adv-x="498" 
d="M192 77l170 -9c78 -4 124 -35 124 -109c0 -133 -153 -194 -278 -194c-95 0 -200 37 -200 115c0 63 63 103 113 125c-27 14 -41 40 -41 70c0 35 21 76 69 109c-44 23 -94 66 -94 152c0 121 85 186 182 186c36 0 74 -11 105 -29l150 29h4l-8 -75l-106 8
c21 -22 42 -59 42 -109c0 -110 -82 -184 -183 -184c-24 0 -45 4 -68 12c-17 -19 -28 -37 -28 -53c0 -19 12 -42 47 -44zM324 -16l-133 6c-20 1 -37 3 -45 6c-28 -21 -56 -54 -56 -95c0 -60 62 -83 151 -83c101 0 169 44 169 98c0 43 -30 65 -86 68zM239 209
c71 0 89 62 89 131c0 80 -25 130 -89 130s-88 -51 -88 -130c0 -68 18 -131 88 -131zM349 692l20 -1c-9 -68 -65 -131 -130 -131c-64 0 -120 63 -126 131l20 1c19 -41 62 -59 106 -59c46 0 88 18 110 59z" />
    <glyph glyph-name="gdotaccent" unicode="&#x121;" horiz-adv-x="498" 
d="M192 77l170 -9c78 -4 124 -35 124 -109c0 -133 -153 -194 -278 -194c-95 0 -200 37 -200 115c0 63 63 103 113 125c-27 14 -41 40 -41 70c0 35 21 76 69 109c-44 23 -94 66 -94 152c0 121 85 186 182 186c36 0 74 -11 105 -29l150 29h4l-8 -75l-106 8
c21 -22 42 -59 42 -109c0 -110 -82 -184 -183 -184c-24 0 -45 4 -68 12c-17 -19 -28 -37 -28 -53c0 -19 12 -42 47 -44zM324 -16l-133 6c-20 1 -37 3 -45 6c-28 -21 -56 -54 -56 -95c0 -60 62 -83 151 -83c101 0 169 44 169 98c0 43 -30 65 -86 68zM239 209
c71 0 89 62 89 131c0 80 -25 130 -89 130s-88 -51 -88 -130c0 -68 18 -131 88 -131zM239 587c-28 0 -52 22 -52 55c0 34 24 55 52 55c29 0 53 -21 53 -55c0 -33 -24 -55 -53 -55z" />
    <glyph glyph-name="gcommaaccent" unicode="&#x123;" horiz-adv-x="498" 
d="M192 77l170 -9c78 -4 124 -35 124 -109c0 -133 -153 -194 -278 -194c-95 0 -200 37 -200 115c0 63 63 103 113 125c-27 14 -41 40 -41 70c0 35 21 76 69 109c-44 23 -94 66 -94 152c0 121 85 186 182 186c36 0 74 -11 105 -29l150 29h4l-8 -75l-106 8
c21 -22 42 -59 42 -109c0 -110 -82 -184 -183 -184c-24 0 -45 4 -68 12c-17 -19 -28 -37 -28 -53c0 -19 12 -42 47 -44zM324 -16l-133 6c-20 1 -37 3 -45 6c-28 -21 -56 -54 -56 -95c0 -60 62 -83 151 -83c101 0 169 44 169 98c0 43 -30 65 -86 68zM239 209
c71 0 89 62 89 131c0 80 -25 130 -89 130s-88 -51 -88 -130c0 -68 18 -131 88 -131zM267 794h30c-19 -30 -28 -61 -28 -77c0 -25 28 -38 28 -67c0 -33 -24 -50 -49 -50c-30 0 -52 23 -52 57c0 47 37 97 71 137z" />
    <glyph glyph-name="hcircumflex" unicode="&#x125;" horiz-adv-x="616" 
d="M581 0h-224v18c55 18 68 34 68 110v217c0 69 -37 109 -108 109c-44 0 -92 -19 -123 -37v-289c0 -76 14 -92 69 -110v-18h-228v18c55 18 69 34 69 110v450c0 82 -9 93 -79 119v17c53 3 126 22 165 40h4v-306c30 25 113 74 170 74c72 0 149 -43 149 -172v-222
c0 -76 13 -92 68 -110v-18zM259 787h-33l-82 58l-79 -58h-33l88 130h49z" />
    <glyph glyph-name="hbar" unicode="&#x127;" horiz-adv-x="616" 
d="M581 0h-224v18c55 18 68 34 68 110v217c0 69 -37 109 -108 109c-44 0 -92 -19 -123 -37v-289c0 -76 14 -92 69 -110v-18h-228v18c55 18 69 34 69 110v441h-80v50h78c-4 46 -21 57 -77 78v17c53 3 126 22 165 40h4v-135h140v-50h-140v-121c30 25 113 74 170 74
c72 0 149 -43 149 -172v-222c0 -76 13 -92 68 -110v-18z" />
    <glyph glyph-name="igrave" unicode="&#xec;" horiz-adv-x="294" 
d="M263 0h-225v18c56 18 69 34 69 110v217c0 83 -9 94 -79 118v18c53 3 125 23 167 41v-394c0 -76 13 -92 68 -110v-18zM258 563l-199 85l36 65l174 -130z" />
    <glyph glyph-name="iacute" unicode="&#xed;" horiz-adv-x="294" 
d="M263 0h-225v18c56 18 69 34 69 110v217c0 83 -9 94 -79 118v18c53 3 125 23 167 41v-394c0 -76 13 -92 68 -110v-18zM269 648l-199 -85l-11 20l174 130z" />
    <glyph glyph-name="icircumflex" unicode="&#xee;" horiz-adv-x="294" 
d="M263 0h-225v18c56 18 69 34 69 110v217c0 83 -9 94 -79 118v18c53 3 125 23 167 41v-394c0 -76 13 -92 68 -110v-18zM259 560h-33l-82 58l-79 -58h-33l88 130h49z" />
    <glyph glyph-name="idieresis" unicode="&#xef;" horiz-adv-x="294" 
d="M263 0h-225v18c56 18 69 34 69 110v217c0 83 -9 94 -79 118v18c53 3 125 23 167 41v-394c0 -76 13 -92 68 -110v-18zM47 587c-28 0 -52 22 -52 55c0 34 24 55 52 55c29 0 53 -21 53 -55c0 -33 -24 -55 -53 -55zM245 587c-28 0 -52 22 -52 55c0 34 24 55 52 55
c29 0 53 -21 53 -55c0 -33 -24 -55 -53 -55z" />
    <glyph glyph-name="itilde" unicode="&#x129;" horiz-adv-x="294" 
d="M263 0h-225v18c56 18 69 34 69 110v217c0 83 -9 94 -79 118v18c53 3 125 23 167 41v-394c0 -76 13 -92 68 -110v-18zM272 686l28 -2c-4 -40 -46 -96 -97 -96c-50 0 -104 35 -137 35c-30 0 -40 -17 -47 -37l-27 4c4 40 45 94 96 94c47 0 104 -32 138 -32c30 0 38 14 46 34
z" />
    <glyph glyph-name="imacron" unicode="&#x12b;" horiz-adv-x="294" 
d="M263 0h-225v18c56 18 69 34 69 110v217c0 83 -9 94 -79 118v18c53 3 125 23 167 41v-394c0 -76 13 -92 68 -110v-18zM262 595h-234v62h234v-62z" />
    <glyph glyph-name="ibreve" unicode="&#x12d;" horiz-adv-x="294" 
d="M263 0h-225v18c56 18 69 34 69 110v217c0 83 -9 94 -79 118v18c53 3 125 23 167 41v-394c0 -76 13 -92 68 -110v-18zM255 692l20 -1c-9 -68 -65 -131 -130 -131c-64 0 -120 63 -126 131l20 1c19 -41 62 -59 106 -59c46 0 88 18 110 59z" />
    <glyph glyph-name="iogonek" unicode="&#x12f;" horiz-adv-x="294" 
d="M169 -168v-12c-11 -15 -37 -35 -65 -35c-46 0 -70 33 -70 71c0 59 67 112 116 144h-112v18c56 18 69 34 69 110v217c0 83 -9 94 -79 118v18c53 3 125 23 167 41v-394c0 -76 13 -92 68 -110v-18h-85c-35 -41 -70 -90 -70 -132c0 -22 18 -39 44 -39c5 0 12 1 17 3zM150 617
c-32 0 -58 24 -58 61c0 38 26 61 58 61c33 0 59 -23 59 -61c0 -37 -26 -61 -59 -61z" />
    <glyph glyph-name="i.locl" horiz-adv-x="294" 
d="M149 580c-30 0 -55 29 -55 64c0 36 25 64 55 64c31 0 56 -28 56 -64c0 -35 -25 -64 -56 -64zM265 0h-229v14c56 18 69 48 69 124v197c0 83 -9 104 -79 128v14c53 3 129 27 171 45v-384c0 -76 13 -106 68 -124v-14z" />
    <glyph glyph-name="ij" unicode="&#x133;" horiz-adv-x="587" 
d="M150 617c-32 0 -58 24 -58 61c0 38 26 61 58 61c33 0 59 -23 59 -61c0 -37 -26 -61 -59 -61zM263 0h-225v18c56 18 69 34 69 110v217c0 83 -9 94 -79 118v18c53 3 125 23 167 41v-394c0 -76 13 -92 68 -110v-18zM328 -235l-9 12c49 30 81 102 81 186v382
c0 83 -9 94 -80 118v18c54 3 129 23 170 41v-520c0 -154 -98 -212 -162 -237zM443 617c-32 0 -58 24 -58 61c0 38 26 61 58 61c33 0 59 -23 59 -61c0 -37 -26 -61 -59 -61z" />
    <glyph glyph-name="jcircumflex" unicode="&#x135;" horiz-adv-x="294" 
d="M34 -235l-9 12c49 30 81 102 81 186v382c0 83 -9 94 -80 118v18c54 3 129 23 170 41v-520c0 -154 -98 -212 -162 -237zM259 560h-33l-82 58l-79 -58h-33l88 130h49z" />
    <glyph glyph-name="kcommaaccent" unicode="&#x137;" horiz-adv-x="553" 
d="M569 0h-94c-59 0 -79 20 -118 75l-133 187l92 100c25 28 47 57 47 81c0 20 -16 37 -61 46v21h250v-18c-42 -10 -90 -47 -140 -100l-96 -100l131 -173c56 -74 82 -91 122 -101v-18zM265 0h-228v18c55 18 69 34 69 110v450c0 82 -9 93 -79 119v17c53 3 126 22 165 40h4
v-626c0 -76 14 -92 69 -110v-18zM264 -230h-30c19 30 28 61 28 77c0 25 -28 38 -28 67c0 33 24 50 49 50c30 0 52 -23 52 -57c0 -47 -37 -97 -71 -137z" />
    <glyph glyph-name="kgreenlandic" unicode="&#x138;" horiz-adv-x="553" 
d="M569 0h-94c-59 0 -84 20 -123 75l-133 187l90 100c46 52 89 107 -9 127v21h246v-18c-42 -10 -91 -47 -141 -100l-94 -100l131 -173c55 -73 87 -91 127 -101v-18zM265 0h-228v18c55 18 69 34 69 110v218c0 82 -9 93 -79 119v17c53 3 126 22 165 40h4v-394
c0 -76 14 -92 69 -110v-18z" />
    <glyph glyph-name="lacute" unicode="&#x13a;" horiz-adv-x="287" 
d="M263 0h-228v18c56 18 70 34 70 110v450c0 82 -9 93 -79 119v17c53 3 126 22 165 40h4v-626c0 -76 13 -92 68 -110v-18zM265 847l-199 -85l-11 20l174 130z" />
    <glyph glyph-name="lcommaaccent" unicode="&#x13c;" horiz-adv-x="287" 
d="M263 0h-228v18c56 18 70 34 70 110v450c0 82 -9 93 -79 119v17c53 3 126 22 165 40h4v-626c0 -76 13 -92 68 -110v-18zM127 -230h-30c19 30 28 61 28 77c0 25 -28 38 -28 67c0 33 24 50 49 50c30 0 52 -23 52 -57c0 -47 -37 -97 -71 -137z" />
    <glyph glyph-name="lcaron" unicode="&#x13e;" horiz-adv-x="296" 
d="M263 0h-228v18c56 18 70 34 70 110v450c0 82 -9 93 -79 119v17c53 3 126 22 165 40h4v-626c0 -76 13 -92 68 -110v-18zM293 526h-21c-4 76 -32 144 -32 178c0 29 20 50 42 50c23 0 43 -21 43 -50c0 -35 -29 -106 -32 -178z" />
    <glyph glyph-name="ldot" unicode="&#x140;" horiz-adv-x="313" 
d="M263 0h-228v18c56 18 70 34 70 110v450c0 82 -9 93 -79 119v17c53 3 126 22 165 40h4v-626c0 -76 13 -92 68 -110v-18zM364 355c0 -32 -28 -59 -60 -59s-59 27 -59 59s27 60 59 60s60 -28 60 -60z" />
    <glyph glyph-name="lslash" unicode="&#x142;" horiz-adv-x="287" 
d="M263 0h-228v18c56 18 70 34 70 110v271l-76 -30v52l76 31v126c0 82 -9 93 -79 119v17c53 3 126 22 165 40h4v-266l76 31v-53l-76 -31v-307c0 -76 13 -92 68 -110v-18z" />
    <glyph glyph-name="ntilde" unicode="&#xf1;" horiz-adv-x="614" 
d="M581 0h-224v18c55 18 68 34 68 110v217c0 69 -37 109 -108 109c-48 0 -92 -19 -123 -37v-289c0 -76 14 -92 69 -110v-18h-225v18c55 18 68 34 68 110v217c0 83 -9 94 -79 118v18c54 3 123 23 165 41v-74c29 25 114 74 172 74c72 0 149 -43 149 -172v-222
c0 -76 13 -92 68 -110v-18zM425 686l28 -2c-4 -40 -46 -96 -97 -96c-50 0 -104 35 -137 35c-30 0 -40 -17 -47 -37l-27 4c4 40 45 94 96 94c47 0 104 -32 138 -32c30 0 38 14 46 34z" />
    <glyph glyph-name="nacute" unicode="&#x144;" horiz-adv-x="614" 
d="M581 0h-224v18c55 18 68 34 68 110v217c0 69 -37 109 -108 109c-48 0 -92 -19 -123 -37v-289c0 -76 14 -92 69 -110v-18h-225v18c55 18 68 34 68 110v217c0 83 -9 94 -79 118v18c54 3 123 23 165 41v-74c29 25 114 74 172 74c72 0 149 -43 149 -172v-222
c0 -76 13 -92 68 -110v-18zM422 648l-199 -85l-11 20l174 130z" />
    <glyph glyph-name="ncommaaccent" unicode="&#x146;" horiz-adv-x="614" 
d="M581 0h-224v18c55 18 68 34 68 110v217c0 69 -37 109 -108 109c-48 0 -92 -19 -123 -37v-289c0 -76 14 -92 69 -110v-18h-225v18c55 18 68 34 68 110v217c0 83 -9 94 -79 118v18c54 3 123 23 165 41v-74c29 25 114 74 172 74c72 0 149 -43 149 -172v-222
c0 -76 13 -92 68 -110v-18zM284 -230h-30c19 30 28 61 28 77c0 25 -28 38 -28 67c0 33 24 50 49 50c30 0 52 -23 52 -57c0 -47 -37 -97 -71 -137z" />
    <glyph glyph-name="ncaron" unicode="&#x148;" horiz-adv-x="614" 
d="M581 0h-224v18c55 18 68 34 68 110v217c0 69 -37 109 -108 109c-48 0 -92 -19 -123 -37v-289c0 -76 14 -92 69 -110v-18h-225v18c55 18 68 34 68 110v217c0 83 -9 94 -79 118v18c54 3 123 23 165 41v-74c29 25 114 74 172 74c72 0 149 -43 149 -172v-222
c0 -76 13 -92 68 -110v-18zM322 560h-49l-88 130h33l79 -58l82 58h33z" />
    <glyph glyph-name="napostrophe" unicode="&#x149;" horiz-adv-x="614" 
d="M581 0h-224v18c55 18 68 34 68 110v217c0 69 -37 109 -108 109c-48 0 -92 -19 -123 -37v-289c0 -76 14 -92 69 -110v-18h-225v18c55 18 68 34 68 110v217c0 83 -9 94 -79 118v18c54 3 123 23 165 41v-74c29 25 114 74 172 74c72 0 149 -43 149 -172v-222
c0 -76 13 -92 68 -110v-18zM129 560h-30c19 30 28 61 28 77c0 25 -28 38 -28 67c0 33 24 50 49 50c30 0 52 -23 52 -57c0 -47 -37 -97 -71 -137z" />
    <glyph glyph-name="ograve" unicode="&#xf2;" horiz-adv-x="577" 
d="M285 -12c-132 0 -246 100 -246 269c0 172 119 265 246 265c128 0 247 -93 247 -265c0 -169 -114 -269 -247 -269zM285 40c103 0 145 89 145 216c0 140 -51 214 -145 214s-145 -74 -145 -214c0 -127 42 -216 145 -216zM399 563l-199 85l36 65l174 -130z" />
    <glyph glyph-name="oacute" unicode="&#xf3;" horiz-adv-x="577" 
d="M285 -12c-132 0 -246 100 -246 269c0 172 119 265 246 265c128 0 247 -93 247 -265c0 -169 -114 -269 -247 -269zM285 40c103 0 145 89 145 216c0 140 -51 214 -145 214s-145 -74 -145 -214c0 -127 42 -216 145 -216zM410 648l-199 -85l-11 20l174 130z" />
    <glyph glyph-name="ocircumflex" unicode="&#xf4;" horiz-adv-x="577" 
d="M285 -12c-132 0 -246 100 -246 269c0 172 119 265 246 265c128 0 247 -93 247 -265c0 -169 -114 -269 -247 -269zM285 40c103 0 145 89 145 216c0 140 -51 214 -145 214s-145 -74 -145 -214c0 -127 42 -216 145 -216zM400 560h-33l-82 58l-79 -58h-33l88 130h49z" />
    <glyph glyph-name="otilde" unicode="&#xf5;" horiz-adv-x="577" 
d="M285 -12c-132 0 -246 100 -246 269c0 172 119 265 246 265c128 0 247 -93 247 -265c0 -169 -114 -269 -247 -269zM285 40c103 0 145 89 145 216c0 140 -51 214 -145 214s-145 -74 -145 -214c0 -127 42 -216 145 -216zM413 686l28 -2c-4 -40 -46 -96 -97 -96
c-50 0 -104 35 -137 35c-30 0 -40 -17 -47 -37l-27 4c4 40 45 94 96 94c47 0 104 -32 138 -32c30 0 38 14 46 34z" />
    <glyph glyph-name="odieresis" unicode="&#xf6;" horiz-adv-x="577" 
d="M285 -12c-132 0 -246 100 -246 269c0 172 119 265 246 265c128 0 247 -93 247 -265c0 -169 -114 -269 -247 -269zM285 40c103 0 145 89 145 216c0 140 -51 214 -145 214s-145 -74 -145 -214c0 -127 42 -216 145 -216zM187 587c-28 0 -52 22 -52 55c0 34 24 55 52 55
c29 0 53 -21 53 -55c0 -33 -24 -55 -53 -55zM385 587c-28 0 -52 22 -52 55c0 34 24 55 52 55c29 0 53 -21 53 -55c0 -33 -24 -55 -53 -55z" />
    <glyph glyph-name="oslash" unicode="&#xf8;" horiz-adv-x="577" 
d="M118 -46l-37 22l45 70c-53 46 -87 118 -87 211c0 172 119 265 246 265c45 0 89 -12 127 -34l42 65l36 -23l-43 -67c51 -45 85 -114 85 -206c0 -169 -114 -269 -247 -269c-45 0 -87 12 -124 33zM168 110l209 324c-24 24 -54 36 -92 36c-94 0 -145 -74 -145 -214
c0 -58 8 -108 28 -146zM404 396l-209 -323c23 -21 52 -33 90 -33c103 0 145 89 145 216c0 58 -9 105 -26 140z" />
    <glyph glyph-name="omacron" unicode="&#x14d;" horiz-adv-x="577" 
d="M285 -12c-132 0 -246 100 -246 269c0 172 119 265 246 265c128 0 247 -93 247 -265c0 -169 -114 -269 -247 -269zM285 40c103 0 145 89 145 216c0 140 -51 214 -145 214s-145 -74 -145 -214c0 -127 42 -216 145 -216zM404 595h-234v62h234v-62z" />
    <glyph glyph-name="obreve" unicode="&#x14f;" horiz-adv-x="577" 
d="M285 -12c-132 0 -246 100 -246 269c0 172 119 265 246 265c128 0 247 -93 247 -265c0 -169 -114 -269 -247 -269zM285 40c103 0 145 89 145 216c0 140 -51 214 -145 214s-145 -74 -145 -214c0 -127 42 -216 145 -216zM396 692l20 -1c-9 -68 -65 -131 -130 -131
c-64 0 -120 63 -126 131l20 1c19 -41 62 -59 106 -59c46 0 88 18 110 59z" />
    <glyph glyph-name="ohungarumlaut" unicode="&#x151;" horiz-adv-x="577" 
d="M285 -12c-132 0 -246 100 -246 269c0 172 119 265 246 265c128 0 247 -93 247 -265c0 -169 -114 -269 -247 -269zM285 40c103 0 145 89 145 216c0 140 -51 214 -145 214s-145 -74 -145 -214c0 -127 42 -216 145 -216zM211 557h-28c13 43 22 88 24 134h74
c-23 -53 -44 -99 -70 -134zM322 557h-28c13 43 23 88 24 134h75c-24 -53 -45 -99 -71 -134z" />
    <glyph glyph-name="racute" unicode="&#x155;" horiz-adv-x="375" 
d="M271 0h-233v18c54 18 67 34 67 110v217c0 83 -9 94 -78 118v18c52 3 125 23 166 41v-76c27 29 92 76 136 76c36 0 58 -28 58 -63c0 -38 -24 -56 -54 -56c-48 0 -41 45 -63 45c-24 0 -56 -21 -77 -36v-284c0 -76 14 -92 78 -110v-18zM310 648l-199 -85l-11 20l174 130z
" />
    <glyph glyph-name="rcommaaccent" unicode="&#x157;" horiz-adv-x="389" 
d="M271 0h-233v18c54 18 67 34 67 110v217c0 83 -9 94 -78 118v18c52 3 125 23 166 41v-76c27 29 92 76 136 76c36 0 58 -28 58 -63c0 -38 -24 -56 -54 -56c-48 0 -41 45 -63 45c-24 0 -56 -21 -77 -36v-284c0 -76 14 -92 78 -110v-18zM136 -230h-30c19 30 28 61 28 77
c0 25 -28 38 -28 67c0 33 24 50 49 50c30 0 52 -23 52 -57c0 -47 -37 -97 -71 -137z" />
    <glyph glyph-name="rcaron" unicode="&#x159;" horiz-adv-x="389" 
d="M271 0h-233v18c54 18 67 34 67 110v217c0 83 -9 94 -78 118v18c52 3 125 23 166 41v-76c27 29 92 76 136 76c36 0 58 -28 58 -63c0 -38 -24 -56 -54 -56c-48 0 -41 45 -63 45c-24 0 -56 -21 -77 -36v-284c0 -76 14 -92 78 -110v-18zM218 560h-49l-88 130h33l79 -58l82 58
h33z" />
    <glyph glyph-name="sacute" unicode="&#x15b;" horiz-adv-x="404" 
d="M39 16v121h21c41 -74 84 -106 138 -106c48 0 89 38 89 85c0 137 -245 83 -245 257c0 89 81 149 167 149c38 0 89 -5 130 -21v-101h-22c-34 52 -61 79 -115 79c-41 0 -78 -34 -78 -78c0 -124 248 -76 248 -253c0 -90 -83 -160 -186 -160c-46 0 -100 7 -147 28zM324 648
l-199 -85l-11 20l174 130z" />
    <glyph glyph-name="scircumflex" unicode="&#x15d;" horiz-adv-x="404" 
d="M39 16v121h21c41 -74 84 -106 138 -106c48 0 89 38 89 85c0 137 -245 83 -245 257c0 89 81 149 167 149c38 0 89 -5 130 -21v-101h-22c-34 52 -61 79 -115 79c-41 0 -78 -34 -78 -78c0 -124 248 -76 248 -253c0 -90 -83 -160 -186 -160c-46 0 -100 7 -147 28zM314 560
h-33l-82 58l-79 -58h-33l88 130h49z" />
    <glyph glyph-name="scedilla" unicode="&#x15f;" horiz-adv-x="404" 
d="M106 -186l17 17c22 -10 44 -13 61 -13c20 0 48 12 48 38c0 29 -60 45 -95 46l63 87c-4 -1 -9 -1 -14 -1c-46 0 -100 7 -147 28v126h21c41 -74 84 -103 138 -103c48 0 92 30 92 77c0 137 -247 83 -247 257c0 89 80 149 166 149c38 0 89 -5 130 -21v-105h-22
c-34 52 -61 75 -115 75c-41 0 -80 -26 -80 -70c0 -124 249 -72 249 -253c0 -76 -58 -137 -137 -154l-28 -44c36 -5 86 -32 86 -84c0 -60 -60 -81 -97 -81s-68 13 -89 29z" />
    <glyph glyph-name="scaron" unicode="&#x161;" horiz-adv-x="404" 
d="M39 16v121h21c41 -74 84 -106 138 -106c48 0 89 38 89 85c0 137 -245 83 -245 257c0 89 81 149 167 149c38 0 89 -5 130 -21v-101h-22c-34 52 -61 79 -115 79c-41 0 -78 -34 -78 -78c0 -124 248 -76 248 -253c0 -90 -83 -160 -186 -160c-46 0 -100 7 -147 28zM224 560
h-49l-88 130h33l79 -58l82 58h33z" />
    <glyph glyph-name="scommaaccent" unicode="&#x219;" horiz-adv-x="404" 
d="M39 16v121h21c41 -74 84 -106 138 -106c48 0 89 38 89 85c0 137 -245 83 -245 257c0 89 81 149 167 149c38 0 89 -5 130 -21v-101h-22c-34 52 -61 79 -115 79c-41 0 -78 -34 -78 -78c0 -124 248 -76 248 -253c0 -90 -83 -160 -186 -160c-46 0 -100 7 -147 28zM185 -230
h-30c19 30 28 61 28 77c0 25 -28 38 -28 67c0 33 24 50 49 50c30 0 52 -23 52 -57c0 -47 -37 -97 -71 -137z" />
    <glyph glyph-name="tcommaaccent" unicode="&#x163;" horiz-adv-x="354" 
d="M353 75l7 -19c-23 -23 -84 -64 -152 -64c-60 0 -108 22 -108 133v327l-70 3v18l37 27c52 30 70 79 106 127h17v-117h145v-58h-145v-330c0 -39 25 -66 71 -66c21 0 69 5 92 19zM158 -230h-30c19 30 28 61 28 77c0 25 -28 38 -28 67c0 33 24 50 49 50c30 0 52 -23 52 -57
c0 -47 -37 -97 -71 -137z" />
    <glyph glyph-name="uni021B" unicode="&#x21b;" horiz-adv-x="354" 
d="M353 75l7 -19c-23 -23 -84 -64 -152 -64c-60 0 -108 22 -108 133v327l-70 3v18l37 27c52 30 70 79 106 127h17v-117h145v-58h-145v-330c0 -39 25 -66 71 -66c21 0 69 5 92 19zM158 -230h-30c19 30 28 61 28 77c0 25 -28 38 -28 67c0 33 24 50 49 50c30 0 52 -23 52 -57
c0 -47 -37 -97 -71 -137z" />
    <glyph glyph-name="tcaron" unicode="&#x165;" horiz-adv-x="354" 
d="M353 75l7 -19c-23 -23 -84 -64 -152 -64c-60 0 -108 22 -108 133v327l-70 3v18l37 27c52 30 70 79 106 127h17v-117h145v-58h-145v-330c0 -39 25 -66 71 -66c21 0 69 5 92 19zM265 570h-30c19 30 28 61 28 77c0 25 -28 38 -28 67c0 33 24 50 49 50c30 0 52 -23 52 -57
c0 -47 -37 -97 -71 -137z" />
    <glyph glyph-name="tbar" unicode="&#x167;" horiz-adv-x="354" 
d="M353 75l6 -17c-23 -23 -83 -66 -151 -66c-60 0 -108 22 -108 133v137h-75v52h75v138l-70 3v18l37 27c52 30 70 79 106 127h17v-117h145v-58h-145v-138h129v-52h-129v-140c0 -39 25 -66 71 -66c21 0 69 5 92 19z" />
    <glyph glyph-name="ugrave" unicode="&#xf9;" horiz-adv-x="580" 
d="M576 52v-19c-82 -8 -122 -27 -160 -45h-4v85c-36 -33 -126 -85 -175 -85c-67 0 -143 31 -143 161v196c0 83 -1 94 -71 118v18c54 3 117 23 155 41h4v-374c0 -53 30 -92 85 -92c56 0 108 21 141 42v247c0 83 -10 94 -79 118v18c52 3 125 23 163 41h4v-357
c0 -83 10 -88 80 -113zM401 563l-199 85l36 65l174 -130z" />
    <glyph glyph-name="uacute" unicode="&#xfa;" horiz-adv-x="580" 
d="M576 52v-19c-82 -8 -122 -27 -160 -45h-4v85c-36 -33 -126 -85 -175 -85c-67 0 -143 31 -143 161v196c0 83 -1 94 -71 118v18c54 3 117 23 155 41h4v-374c0 -53 30 -92 85 -92c56 0 108 21 141 42v247c0 83 -10 94 -79 118v18c52 3 125 23 163 41h4v-357
c0 -83 10 -88 80 -113zM412 648l-199 -85l-11 20l174 130z" />
    <glyph glyph-name="ucircumflex" unicode="&#xfb;" horiz-adv-x="580" 
d="M576 52v-19c-82 -8 -122 -27 -160 -45h-4v85c-36 -33 -126 -85 -175 -85c-67 0 -143 31 -143 161v196c0 83 -1 94 -71 118v18c54 3 117 23 155 41h4v-374c0 -53 30 -92 85 -92c56 0 108 21 141 42v247c0 83 -10 94 -79 118v18c52 3 125 23 163 41h4v-357
c0 -83 10 -88 80 -113zM402 560h-33l-82 58l-79 -58h-33l88 130h49z" />
    <glyph glyph-name="udieresis" unicode="&#xfc;" horiz-adv-x="580" 
d="M576 52v-19c-82 -8 -122 -27 -160 -45h-4v85c-36 -33 -126 -85 -175 -85c-67 0 -143 31 -143 161v196c0 83 -1 94 -71 118v18c54 3 117 23 155 41h4v-374c0 -53 30 -92 85 -92c56 0 108 21 141 42v247c0 83 -10 94 -79 118v18c52 3 125 23 163 41h4v-357
c0 -83 10 -88 80 -113zM189 587c-28 0 -52 22 -52 55c0 34 24 55 52 55c29 0 53 -21 53 -55c0 -33 -24 -55 -53 -55zM387 587c-28 0 -52 22 -52 55c0 34 24 55 52 55c29 0 53 -21 53 -55c0 -33 -24 -55 -53 -55z" />
    <glyph glyph-name="utilde" unicode="&#x169;" horiz-adv-x="580" 
d="M576 52v-19c-82 -8 -122 -27 -160 -45h-4v85c-36 -33 -126 -85 -175 -85c-67 0 -143 31 -143 161v196c0 83 -1 94 -71 118v18c54 3 117 23 155 41h4v-374c0 -53 30 -92 85 -92c56 0 108 21 141 42v247c0 83 -10 94 -79 118v18c52 3 125 23 163 41h4v-357
c0 -83 10 -88 80 -113zM415 686l28 -2c-4 -40 -46 -96 -97 -96c-50 0 -104 35 -137 35c-30 0 -40 -17 -47 -37l-27 4c4 40 45 94 96 94c47 0 104 -32 138 -32c30 0 38 14 46 34z" />
    <glyph glyph-name="umacron" unicode="&#x16b;" horiz-adv-x="580" 
d="M576 52v-19c-82 -8 -122 -27 -160 -45h-4v85c-36 -33 -126 -85 -175 -85c-67 0 -143 31 -143 161v196c0 83 -1 94 -71 118v18c54 3 117 23 155 41h4v-374c0 -53 30 -92 85 -92c56 0 108 21 141 42v247c0 83 -10 94 -79 118v18c52 3 125 23 163 41h4v-357
c0 -83 10 -88 80 -113zM406 595h-234v62h234v-62z" />
    <glyph glyph-name="ubreve" unicode="&#x16d;" horiz-adv-x="580" 
d="M576 52v-19c-82 -8 -122 -27 -160 -45h-4v85c-36 -33 -126 -85 -175 -85c-67 0 -143 31 -143 161v196c0 83 -1 94 -71 118v18c54 3 117 23 155 41h4v-374c0 -53 30 -92 85 -92c56 0 108 21 141 42v247c0 83 -10 94 -79 118v18c52 3 125 23 163 41h4v-357
c0 -83 10 -88 80 -113zM398 692l20 -1c-9 -68 -65 -131 -130 -131c-64 0 -120 63 -126 131l20 1c19 -41 62 -59 106 -59c46 0 88 18 110 59z" />
    <glyph glyph-name="uring" unicode="&#x16f;" horiz-adv-x="580" 
d="M576 52v-19c-82 -8 -122 -27 -160 -45h-4v85c-36 -33 -126 -85 -175 -85c-67 0 -143 31 -143 161v196c0 83 -1 94 -71 118v18c54 3 117 23 155 41h4v-374c0 -53 30 -92 85 -92c56 0 108 21 141 42v247c0 83 -10 94 -79 118v18c52 3 125 23 163 41h4v-357
c0 -83 10 -88 80 -113zM394 667c0 -56 -48 -102 -104 -102s-104 46 -104 102s48 102 104 102s104 -46 104 -102zM290 603c35 0 62 29 62 64s-27 64 -62 64s-62 -29 -62 -64s27 -64 62 -64z" />
    <glyph glyph-name="uhungarumlaut" unicode="&#x171;" horiz-adv-x="580" 
d="M576 52v-19c-82 -8 -122 -27 -160 -45h-4v85c-36 -33 -126 -85 -175 -85c-67 0 -143 31 -143 161v196c0 83 -1 94 -71 118v18c54 3 117 23 155 41h4v-374c0 -53 30 -92 85 -92c56 0 108 21 141 42v247c0 83 -10 94 -79 118v18c52 3 125 23 163 41h4v-357
c0 -83 10 -88 80 -113zM213 557h-28c13 43 22 88 24 134h74c-23 -53 -44 -99 -70 -134zM324 557h-28c13 43 23 88 24 134h75c-24 -53 -45 -99 -71 -134z" />
    <glyph glyph-name="uogonek" unicode="&#x173;" horiz-adv-x="580" 
d="M571 -168v-12c-11 -15 -37 -35 -65 -35c-46 0 -70 33 -70 71c0 58 67 139 113 175c-64 -8 -98 -25 -133 -43h-4v85c-36 -33 -126 -85 -175 -85c-67 0 -143 31 -143 161v196c0 83 -1 94 -71 118v18c54 3 117 23 155 41h4v-374c0 -53 30 -92 85 -92c56 0 108 21 141 42v247
c0 83 -10 94 -79 118v18c52 3 125 23 163 41h4v-357c0 -83 10 -88 80 -113v-19c-35 -41 -66 -123 -66 -165c0 -22 18 -39 44 -39c5 0 12 1 17 3z" />
    <glyph glyph-name="wcircumflex" unicode="&#x175;" horiz-adv-x="858" 
d="M635 0h-98l-116 414l-137 -414h-93l-80 311c-37 144 -58 171 -103 181v18h220v-18c-34 -10 -48 -18 -48 -50c0 -29 8 -74 25 -146l49 -212l140 426h87l122 -445l75 261c13 46 23 86 23 109c0 36 -10 47 -50 57v18h199v-18c-50 -10 -71 -53 -113 -181zM543 560h-33l-82 58
l-79 -58h-33l88 130h49z" />
    <glyph glyph-name="wgrave" unicode="&#x1e81;" horiz-adv-x="858" 
d="M635 0h-98l-116 414l-137 -414h-93l-80 311c-37 144 -58 171 -103 181v18h220v-18c-34 -10 -48 -18 -48 -50c0 -29 8 -74 25 -146l49 -212l140 426h87l122 -445l75 261c13 46 23 86 23 109c0 36 -10 47 -50 57v18h199v-18c-50 -10 -71 -53 -113 -181zM523 563l-199 85
l36 65l174 -130z" />
    <glyph glyph-name="wacute" unicode="&#x1e83;" horiz-adv-x="858" 
d="M635 0h-98l-116 414l-137 -414h-93l-80 311c-37 144 -58 171 -103 181v18h220v-18c-34 -10 -48 -18 -48 -50c0 -29 8 -74 25 -146l49 -212l140 426h87l122 -445l75 261c13 46 23 86 23 109c0 36 -10 47 -50 57v18h199v-18c-50 -10 -71 -53 -113 -181zM534 648l-199 -85
l-11 20l174 130z" />
    <glyph glyph-name="wdieresis" unicode="&#x1e85;" horiz-adv-x="858" 
d="M635 0h-98l-116 414l-137 -414h-93l-80 311c-37 144 -58 171 -103 181v18h220v-18c-34 -10 -48 -18 -48 -50c0 -29 8 -74 25 -146l49 -212l140 426h87l122 -445l75 261c13 46 23 86 23 109c0 36 -10 47 -50 57v18h199v-18c-50 -10 -71 -53 -113 -181zM331 587
c-28 0 -52 22 -52 55c0 34 24 55 52 55c29 0 53 -21 53 -55c0 -33 -24 -55 -53 -55zM529 587c-28 0 -52 22 -52 55c0 34 24 55 52 55c29 0 53 -21 53 -55c0 -33 -24 -55 -53 -55z" />
    <glyph glyph-name="yacute" unicode="&#xfd;" horiz-adv-x="534" 
d="M250 -38l12 38h-41l-86 274c-53 168 -67 198 -120 218v18h224v-19c-34 -11 -49 -21 -49 -49c0 -30 12 -77 34 -154l65 -224l72 226c22 68 33 110 33 140c0 38 -17 52 -53 61v19h202v-18c-50 -31 -63 -47 -124 -218l-121 -340c-48 -135 -116 -169 -182 -169
c-44 0 -75 32 -75 67c0 33 25 59 56 59c28 0 55 -19 55 -57c0 -5 0 -10 -1 -13c27 10 65 33 99 141zM388 648l-199 -85l-11 20l174 130z" />
    <glyph glyph-name="ydieresis" unicode="&#xff;" horiz-adv-x="534" 
d="M250 -38l12 38h-41l-86 274c-53 168 -67 198 -120 218v18h224v-19c-34 -11 -49 -21 -49 -49c0 -30 12 -77 34 -154l65 -224l72 226c22 68 33 110 33 140c0 38 -17 52 -53 61v19h202v-18c-50 -31 -63 -47 -124 -218l-121 -340c-48 -135 -116 -169 -182 -169
c-44 0 -75 32 -75 67c0 33 25 59 56 59c28 0 55 -19 55 -57c0 -5 0 -10 -1 -13c27 10 65 33 99 141zM166 587c-28 0 -52 22 -52 55c0 34 24 55 52 55c29 0 53 -21 53 -55c0 -33 -24 -55 -53 -55zM364 587c-28 0 -52 22 -52 55c0 34 24 55 52 55c29 0 53 -21 53 -55
c0 -33 -24 -55 -53 -55z" />
    <glyph glyph-name="ycircumflex" unicode="&#x177;" horiz-adv-x="534" 
d="M250 -38l12 38h-41l-86 274c-53 168 -67 198 -120 218v18h224v-19c-34 -11 -49 -21 -49 -49c0 -30 12 -77 34 -154l65 -224l72 226c22 68 33 110 33 140c0 38 -17 52 -53 61v19h202v-18c-50 -31 -63 -47 -124 -218l-121 -340c-48 -135 -116 -169 -182 -169
c-44 0 -75 32 -75 67c0 33 25 59 56 59c28 0 55 -19 55 -57c0 -5 0 -10 -1 -13c27 10 65 33 99 141zM379 560h-33l-82 58l-79 -58h-33l88 130h49z" />
    <glyph glyph-name="ygrave" unicode="&#x1ef3;" horiz-adv-x="534" 
d="M250 -38l12 38h-41l-86 274c-53 168 -67 198 -120 218v18h224v-19c-34 -11 -49 -21 -49 -49c0 -30 12 -77 34 -154l65 -224l72 226c22 68 33 110 33 140c0 38 -17 52 -53 61v19h202v-18c-50 -31 -63 -47 -124 -218l-121 -340c-48 -135 -116 -169 -182 -169
c-44 0 -75 32 -75 67c0 33 25 59 56 59c28 0 55 -19 55 -57c0 -5 0 -10 -1 -13c27 10 65 33 99 141zM377 563l-199 85l36 65l174 -130z" />
    <glyph glyph-name="zacute" unicode="&#x17a;" horiz-adv-x="482" 
d="M431 0h-396v40l295 414h-161c-28 0 -52 -4 -73 -28l-31 -36h-16l18 120h375v-39l-289 -415h172c27 0 51 1 73 28l36 44h16zM352 648l-199 -85l-11 20l174 130z" />
    <glyph glyph-name="zdotaccent" unicode="&#x17c;" horiz-adv-x="482" 
d="M431 0h-396v40l295 414h-161c-28 0 -52 -4 -73 -28l-31 -36h-16l18 120h375v-39l-289 -415h172c27 0 51 1 73 28l36 44h16zM228 587c-28 0 -52 22 -52 55c0 34 24 55 52 55c29 0 53 -21 53 -55c0 -33 -24 -55 -53 -55z" />
    <glyph glyph-name="zcaron" unicode="&#x17e;" horiz-adv-x="482" 
d="M431 0h-396v40l295 414h-161c-28 0 -52 -4 -73 -28l-31 -36h-16l18 120h375v-39l-289 -415h172c27 0 51 1 73 28l36 44h16zM252 560h-49l-88 130h33l79 -58l82 58h33z" />
    <glyph glyph-name="zero" unicode="0" horiz-adv-x="541" 
d="M268 -15c-160 0 -220 163 -220 354c0 192 67 364 220 364c154 0 221 -168 221 -360c0 -191 -61 -358 -221 -358zM268 37c112 0 121 178 121 301c0 125 -14 313 -121 313s-121 -188 -121 -313c0 -123 10 -301 121 -301z" />
    <glyph glyph-name="one" unicode="1" horiz-adv-x="541" 
d="M419 0h-270v18c83 18 98 33 98 110v412c-28 -16 -85 -33 -133 -46l-4 33c85 32 163 107 216 170l13 1v-570c0 -76 14 -92 80 -110v-18z" />
    <glyph glyph-name="two" unicode="2" horiz-adv-x="541" 
d="M458 0h-390v34l177 217c77 95 118 189 118 268c0 74 -52 130 -128 130c-57 0 -86 -10 -110 -35c43 0 70 -24 70 -65c0 -38 -27 -65 -63 -65s-65 19 -65 70c0 62 82 150 211 150c106 0 186 -68 186 -182c0 -76 -64 -170 -157 -281l-127 -151h278v-90z" />
    <glyph glyph-name="three" unicode="3" horiz-adv-x="541" 
d="M177 349l-13 23l161 224h-242v94h358v-15l-171 -232c101 -12 199 -78 199 -211c0 -160 -120 -247 -254 -247c-101 0 -161 48 -161 115c0 40 31 67 66 67c36 0 62 -24 62 -62c0 -34 -20 -56 -44 -68c18 -7 41 -13 58 -13c89 0 176 56 176 179c0 126 -101 153 -195 146z
" />
    <glyph glyph-name="four" unicode="4" horiz-adv-x="541" 
d="M325 251v313l-215 -313h215zM493 0h-266v18c83 18 98 33 98 110v58h-290v50l317 461h62v-446h72v-65h-72v-58c0 -76 14 -92 79 -110v-18z" />
    <glyph glyph-name="five" unicode="5" horiz-adv-x="541" 
d="M435 604h-245l-26 -214c30 22 73 45 120 45c99 0 185 -60 185 -203c0 -181 -146 -247 -254 -247c-84 0 -160 53 -160 117c0 45 30 67 66 67c35 0 61 -24 61 -62c0 -34 -21 -53 -42 -66c23 -9 42 -12 62 -12c103 0 167 65 167 191c0 118 -66 149 -136 149
c-38 0 -84 -16 -117 -38l-13 5l43 354h289v-86z" />
    <glyph glyph-name="six" unicode="6" horiz-adv-x="541" 
d="M432 704v-39c-128 -37 -228 -132 -265 -274c33 25 95 46 131 46c109 0 190 -68 190 -210c0 -146 -86 -242 -209 -242c-136 0 -226 113 -226 262c0 251 167 425 379 457zM159 356c-5 -28 -7 -58 -7 -90c0 -143 34 -229 130 -229c76 0 116 74 116 164
c0 121 -54 180 -138 180c-31 0 -73 -10 -101 -25z" />
    <glyph glyph-name="seven" unicode="7" horiz-adv-x="541" 
d="M232 0h-102c53 176 171 405 284 598h-363v92h432v-24c-115 -205 -206 -475 -251 -666z" />
    <glyph glyph-name="eight" unicode="8" horiz-adv-x="541" 
d="M338 383v-4c76 -40 154 -91 154 -195c0 -125 -119 -199 -226 -199c-106 0 -217 56 -217 178c0 102 90 153 148 182v4c-72 39 -132 85 -132 183c0 90 82 171 206 171c129 0 198 -84 198 -161c0 -86 -79 -131 -131 -159zM221 332c-40 -29 -82 -91 -82 -167
c0 -70 47 -128 135 -128c75 0 131 49 131 124c0 73 -95 127 -184 171zM312 394c49 42 67 100 67 140c0 74 -53 117 -116 117c-77 0 -115 -49 -115 -108c0 -66 73 -102 164 -149z" />
    <glyph glyph-name="nine" unicode="9" horiz-adv-x="541" 
d="M120 -15v43c111 29 221 117 251 273c-37 -21 -81 -38 -133 -38c-104 0 -193 68 -193 203c0 132 86 235 209 235c135 0 225 -123 225 -290c0 -215 -149 -394 -359 -426zM376 329c3 18 5 36 5 71c0 144 -34 249 -133 249c-81 0 -113 -70 -113 -156c0 -115 57 -178 155 -178
c18 0 56 2 86 14z" />
    <glyph glyph-name="Euro" unicode="&#x20ac;" horiz-adv-x="541" 
d="M466 196h42c0 -98 -58 -211 -173 -211c-137 0 -204 127 -223 265h-64v52h59c-1 12 -1 25 -1 37c0 16 1 33 3 51h-61v52h70c31 150 118 262 247 262c83 0 121 -48 121 -104c0 -43 -30 -69 -64 -69s-60 21 -60 55c0 41 34 58 77 58c-15 10 -40 21 -73 21
c-87 0 -144 -87 -151 -223h188v-52h-194c-1 -18 -1 -35 -1 -51v-37h195v-52h-192c6 -124 50 -213 144 -213c75 0 111 97 111 159z" />
    <glyph glyph-name="dollar" unicode="$" horiz-adv-x="541" 
d="M297 -84h-45v69h-3c-61 0 -135 19 -175 42l-13 148h19c52 -106 111 -138 172 -140v258c-85 49 -180 101 -180 202c0 99 87 173 180 186v73h45v-71c50 -3 106 -20 150 -40v-125h-19c-40 76 -80 106 -131 113v-247c84 -47 176 -97 176 -201c0 -105 -78 -177 -176 -194v-73z
M252 410v221c-53 -7 -96 -46 -96 -97c0 -55 43 -92 96 -124zM297 265v-225c46 12 84 46 84 99c0 56 -38 95 -84 126z" />
    <glyph glyph-name="cent" unicode="&#xa2;" horiz-adv-x="541" 
d="M500 208l-12 -106c-29 -17 -100 -33 -156 -35v-82h-56v84c-133 16 -240 103 -240 256c0 167 120 254 240 271v94h56v-90c50 -2 126 -20 152 -33v-103h-29c-33 72 -84 90 -123 93v-448c45 2 101 19 138 99h30zM138 335c0 -122 61 -198 138 -220v438
c-78 -18 -138 -97 -138 -218z" />
    <glyph glyph-name="sterling" unicode="&#xa3;" horiz-adv-x="541" 
d="M389 0h-342v32c60 46 132 96 132 176c0 43 -11 85 -24 127h-100v52h84c-10 35 -17 70 -17 107c0 136 114 210 202 210c104 0 159 -50 159 -99c0 -37 -28 -62 -60 -62c-34 0 -58 22 -58 55c0 24 19 43 40 49c-23 10 -36 15 -66 15c-80 0 -120 -43 -120 -125
c0 -54 15 -101 29 -150h172v-52h-160c4 -21 7 -43 7 -66c0 -75 -61 -145 -113 -186h207c72 0 83 12 93 51h24c1 -8 1 -25 1 -32c0 -74 -51 -102 -90 -102z" />
    <glyph glyph-name="yen" unicode="&#xa5;" horiz-adv-x="541" 
d="M397 0h-251v18c64 18 79 34 79 110v31h-128v50h128v77h-128v51h110l-66 146c-58 129 -90 179 -130 189v18h206v-18c-27 -7 -40 -17 -40 -38c0 -27 17 -73 49 -144l62 -136l58 137c27 64 43 104 43 131s-18 40 -57 50v18h205v-18c-43 -7 -78 -67 -135 -188l-69 -147h105
v-51h-120v-77h120v-50h-120v-31c0 -76 14 -92 79 -110v-18z" />
    <glyph glyph-name="florin" unicode="&#x192;" horiz-adv-x="541" 
d="M122 -197h10c45 0 75 29 75 154v337h-96l11 51h85v152c0 157 73 207 174 207c56 0 90 -33 90 -77c0 -38 -23 -57 -50 -57c-29 0 -54 13 -54 50c0 22 8 34 18 45h-10c-45 0 -75 -29 -75 -154v-166h107v-51h-107v-324c0 -153 -73 -205 -174 -205c-43 0 -90 29 -90 75
c0 37 23 56 50 56c29 0 54 -12 54 -49c0 -22 -8 -34 -18 -44z" />
    <glyph glyph-name="percent" unicode="%" horiz-adv-x="868" 
d="M219 -46h-58l408 675c-4 -3 -10 -6 -14 -8c-26 -17 -56 -35 -91 -35c-23 0 -48 6 -67 14c3 -14 6 -33 6 -51c0 -98 -64 -240 -167 -240c-85 0 -144 69 -144 159c0 105 81 233 186 233c40 0 60 -14 80 -28c32 -23 54 -40 104 -40c71 0 131 43 174 94h50zM239 356
c81 0 127 115 127 198c0 42 -24 100 -73 100c-73 0 -115 -118 -115 -210c0 -39 18 -88 61 -88zM594 -12c-83 0 -141 67 -141 155c0 110 80 236 191 236c77 0 120 -65 120 -146c0 -103 -59 -245 -170 -245zM600 36c81 0 128 115 128 197c0 43 -25 100 -72 100
c-75 0 -117 -118 -117 -210c0 -39 21 -87 61 -87z" />
    <glyph glyph-name="perthousand" unicode="&#x2030;" horiz-adv-x="1163" 
d="M219 -46h-58l408 675c-4 -3 -10 -6 -14 -8c-26 -17 -56 -35 -91 -35c-23 0 -48 6 -67 14c3 -14 6 -33 6 -51c0 -98 -64 -240 -167 -240c-85 0 -144 69 -144 159c0 105 81 233 186 233c40 0 60 -14 80 -28c32 -23 54 -40 104 -40c71 0 131 43 174 94h50zM239 356
c81 0 127 115 127 198c0 42 -24 100 -73 100c-73 0 -115 -118 -115 -210c0 -39 18 -88 61 -88zM594 -12c-83 0 -141 67 -141 155c0 110 80 236 191 236c77 0 120 -65 120 -146c0 -103 -59 -245 -170 -245zM600 36c81 0 128 115 128 197c0 43 -25 100 -72 100
c-75 0 -117 -118 -117 -210c0 -39 21 -87 61 -87zM941 -12c-83 0 -141 67 -141 155c0 110 80 236 191 236c77 0 120 -65 120 -146c0 -103 -59 -245 -170 -245zM947 36c81 0 128 115 128 197c0 43 -25 100 -72 100c-75 0 -117 -118 -117 -210c0 -39 21 -87 61 -87z" />
    <glyph glyph-name="numbersign" unicode="#" horiz-adv-x="541" 
d="M138 0h-51l43 219h-65v51h75l29 149h-104v51h114l43 220h51l-43 -220h129l43 220h51l-43 -220h65v-51h-75l-29 -149h104v-51h-114l-43 -219h-51l43 219h-129zM220 419l-29 -149h129l29 149h-129z" />
    <glyph glyph-name="ordfeminine" unicode="&#xaa;" horiz-adv-x="350" 
d="M328 245h-299v54h299v-54zM333 378v-14c-4 -2 -51 -19 -77 -19c-20 0 -41 17 -48 38l-9 -7c-19 -14 -45 -33 -79 -33c-49 0 -91 35 -91 89c0 49 34 106 150 106c9 0 18 0 28 -1v55c0 45 -38 63 -72 63c-13 0 -33 -2 -43 -9c14 -7 21 -20 21 -41c0 -27 -18 -39 -39 -39
s-36 17 -36 42c0 43 81 82 137 82s101 -31 101 -94v-165c0 -45 24 -49 57 -53zM207 401v104c-6 1 -14 2 -20 2c-55 0 -87 -18 -87 -67c0 -34 29 -51 58 -51c12 0 37 6 49 12z" />
    <glyph glyph-name="ordmasculine" unicode="&#xba;" horiz-adv-x="385" 
d="M191 343c-91 0 -161 79 -161 175c0 99 73 172 161 172c86 0 161 -73 161 -172c0 -96 -72 -175 -161 -175zM191 383c62 0 79 69 79 135c0 71 -23 132 -79 132c-58 0 -81 -61 -81 -132c0 -66 17 -135 81 -135zM343 245h-305v54h305v-54z" />
    <glyph glyph-name="exclam" unicode="!" horiz-adv-x="280" 
d="M152 193h-26c-5 65 -4 120 -13 185c-14 95 -29 202 -29 312h111c0 -110 -15 -221 -30 -316c-9 -61 -9 -121 -13 -181zM140 -12c-33 0 -60 26 -60 64c0 37 27 63 60 63s60 -26 60 -63c0 -38 -27 -64 -60 -64z" />
    <glyph glyph-name="question" unicode="?" horiz-adv-x="447" 
d="M234 193h-27c0 165 106 205 106 329c0 99 -64 133 -118 133c-34 0 -75 -13 -96 -28h5c40 0 68 -20 68 -58c0 -40 -26 -61 -61 -61s-60 21 -60 65c0 66 68 131 184 131c97 0 174 -65 174 -172c0 -160 -166 -205 -175 -339zM219 -12c-33 0 -60 26 -60 64c0 37 27 63 60 63
s60 -26 60 -63c0 -38 -27 -64 -60 -64z" />
    <glyph glyph-name="exclamdown" unicode="&#xa1;" horiz-adv-x="241" 
d="M106 317h26c4 -60 4 -120 13 -181c15 -95 30 -206 30 -316h-111c0 110 15 217 29 312c9 65 8 120 13 185zM120 522c33 0 60 -26 60 -64c0 -37 -27 -63 -60 -63s-60 26 -60 63c0 38 27 64 60 64z" />
    <glyph glyph-name="questiondown" unicode="&#xbf;" horiz-adv-x="447" 
d="M227 317h27c0 -165 -106 -205 -106 -329c0 -99 64 -133 118 -133c34 0 75 13 96 28h-5c-40 0 -68 20 -68 58c0 40 26 61 61 61s60 -21 60 -65c0 -66 -68 -131 -184 -131c-97 0 -174 65 -174 172c0 160 166 205 175 339zM242 522c33 0 60 -26 60 -64
c0 -37 -27 -63 -60 -63s-60 26 -60 63c0 38 27 64 60 64z" />
    <glyph glyph-name="parenleft" unicode="(" horiz-adv-x="330" 
d="M314 -177h-29c-65 65 -202 258 -202 474c0 213 150 400 202 454h29c-74 -119 -138 -284 -138 -464c0 -189 61 -347 138 -464z" />
    <glyph glyph-name="parenright" unicode=")" horiz-adv-x="331" 
d="M40 -177h-29c78 118 139 276 139 464c0 182 -65 346 -139 464h29c53 -54 204 -241 204 -454c0 -216 -137 -409 -204 -474z" />
    <glyph glyph-name="bracketleft" unicode="[" horiz-adv-x="360" 
d="M278 -137h-199v888h199v-42h-117v-804h117v-42z" />
    <glyph glyph-name="bracketright" unicode="]" horiz-adv-x="360" 
d="M278 -137h-199v42h116v804h-116v42h199v-888z" />
    <glyph glyph-name="braceleft" unicode="{" horiz-adv-x="301" 
d="M275 -123v-18c-99 10 -163 31 -163 174v105c0 87 -7 144 -85 153v25c78 9 85 66 85 154v106c0 142 64 163 163 173v-18c-61 -14 -81 -51 -81 -156v-97c0 -94 -52 -146 -114 -174c62 -27 114 -80 114 -174v-96c0 -106 20 -144 81 -157z" />
    <glyph glyph-name="braceright" unicode="}" horiz-adv-x="301" 
d="M25 -141v18c61 13 81 51 81 157v96c0 94 52 147 114 174c-62 28 -114 80 -114 174v97c0 105 -20 142 -81 156v18c99 -10 163 -31 163 -173v-106c0 -88 7 -145 85 -154v-25c-78 -9 -85 -66 -85 -153v-105c0 -143 -64 -164 -163 -174z" />
    <glyph glyph-name="ampersand" unicode="&#x26;" horiz-adv-x="754" 
d="M728 0h-177c-21 17 -48 46 -84 89l-5 5c-69 -75 -133 -109 -222 -109c-121 0 -191 98 -191 189c0 87 68 144 181 203c-44 55 -65 108 -65 155c0 87 71 172 188 172c85 0 150 -50 150 -129c0 -77 -51 -135 -157 -190l153 -181c62 81 93 152 0 161v18h235v-18
c-69 -20 -119 -86 -207 -194l12 -14c96 -112 127 -126 189 -139v-18zM435 127l-177 216c-70 -38 -116 -78 -116 -138c0 -76 65 -154 148 -154c35 0 83 13 145 76zM319 417c77 47 108 80 108 147c0 64 -45 98 -94 98c-51 0 -89 -39 -89 -94c0 -40 23 -89 75 -151z" />
    <glyph glyph-name="at" unicode="@" horiz-adv-x="800" 
d="M444 180l33 52l33 173c-6 2 -21 4 -33 4c-111 0 -163 -117 -163 -223c0 -62 19 -89 40 -89c25 0 56 30 90 83zM586 -26l10 -22c-49 -37 -127 -63 -201 -63c-165 0 -349 106 -349 335c0 221 182 376 379 376c167 0 333 -107 333 -307c0 -182 -176 -263 -268 -263
c-32 0 -44 21 -35 65l18 73l-7 2c-48 -84 -87 -140 -139 -140s-100 49 -100 141c0 153 103 285 245 285c28 0 47 -5 67 -11l49 11h10l-61 -350c-4 -22 1 -27 11 -27c47 0 158 73 158 202c0 168 -126 267 -273 267c-167 0 -313 -134 -313 -320c0 -193 147 -297 300 -297
c53 0 118 16 166 43z" />
    <glyph glyph-name="slash" unicode="/" horiz-adv-x="386" 
d="M67 -15h-61l308 719h63z" />
    <glyph glyph-name="backslash" unicode="\" horiz-adv-x="386" 
d="M377 -15h-63l-308 720h61z" />
    <glyph glyph-name="asterisk" unicode="*" horiz-adv-x="370" 
d="M305 414l-61 -45l-61 132l-60 -132l-62 45l100 97l-135 23l24 78l121 -71l-20 149h69l-22 -148l118 70l25 -78l-135 -23z" />
    <glyph glyph-name="quoteleft" unicode="&#x2018;" horiz-adv-x="212" 
d="M147 701h19c-35 -45 -48 -91 -48 -115c0 -25 34 -37 34 -80c0 -36 -27 -60 -56 -60c-36 0 -59 30 -59 67c0 62 55 149 110 188z" />
    <glyph glyph-name="quoteright" unicode="&#x2019;" horiz-adv-x="212" 
d="M53 446h-19c35 45 48 91 48 115c0 25 -34 37 -34 80c0 36 27 60 56 60c36 0 59 -30 59 -67c0 -62 -55 -149 -110 -188z" />
    <glyph glyph-name="quotedblleft" unicode="&#x201c;" horiz-adv-x="383" 
d="M147 701h19c-35 -45 -48 -91 -48 -115c0 -25 34 -37 34 -80c0 -36 -27 -60 -56 -60c-36 0 -59 30 -59 67c0 62 55 149 110 188zM318 701h19c-35 -45 -48 -91 -48 -115c0 -25 34 -37 34 -80c0 -36 -27 -60 -56 -60c-36 0 -59 30 -59 67c0 62 55 149 110 188z" />
    <glyph glyph-name="quotedblright" unicode="&#x201d;" horiz-adv-x="383" 
d="M53 446h-19c35 45 48 91 48 115c0 25 -34 37 -34 80c0 36 27 60 56 60c36 0 59 -30 59 -67c0 -62 -55 -149 -110 -188zM224 446h-19c35 45 48 91 48 115c0 25 -34 37 -34 80c0 36 27 60 56 60c36 0 59 -30 59 -67c0 -62 -55 -149 -110 -188z" />
    <glyph glyph-name="agrave.smcp" horiz-adv-x="553" 
d="M549 0h-207v18c30 11 43 22 43 49c0 25 -13 66 -35 126h-169l-3 -9c-18 -54 -30 -91 -30 -115c0 -27 15 -40 51 -51v-18h-197v18c45 20 66 54 112 181l113 311h101l113 -311c48 -132 69 -165 108 -181v-18zM334 239l-72 207l-66 -207h138zM388 563l-199 85l36 65
l174 -130z" />
    <glyph glyph-name="aacute.smcp" horiz-adv-x="553" 
d="M549 0h-207v18c30 11 43 22 43 49c0 25 -13 66 -35 126h-169l-3 -9c-18 -54 -30 -91 -30 -115c0 -27 15 -40 51 -51v-18h-197v18c45 20 66 54 112 181l113 311h101l113 -311c48 -132 69 -165 108 -181v-18zM334 239l-72 207l-66 -207h138zM422 648l-199 -85l-11 20
l174 130z" />
    <glyph glyph-name="acircumflex.smcp" horiz-adv-x="553" 
d="M549 0h-207v18c30 11 43 22 43 49c0 25 -13 66 -35 126h-169l-3 -9c-18 -54 -30 -91 -30 -115c0 -27 15 -40 51 -51v-18h-197v18c45 20 66 54 112 181l113 311h101l113 -311c48 -132 69 -165 108 -181v-18zM334 239l-72 207l-66 -207h138zM393 560h-33l-82 58l-79 -58
h-33l88 130h49z" />
    <glyph glyph-name="atilde.smcp" horiz-adv-x="553" 
d="M549 0h-207v18c30 11 43 22 43 49c0 25 -13 66 -35 126h-169l-3 -9c-18 -54 -30 -91 -30 -115c0 -27 15 -40 51 -51v-18h-197v18c45 20 66 54 112 181l113 311h101l113 -311c48 -132 69 -165 108 -181v-18zM334 239l-72 207l-66 -207h138zM405 686l28 -2
c-4 -40 -46 -96 -97 -96c-50 0 -104 35 -137 35c-30 0 -40 -17 -47 -37l-27 4c4 40 45 94 96 94c47 0 104 -32 138 -32c30 0 38 14 46 34z" />
    <glyph glyph-name="adieresis.smcp" horiz-adv-x="553" 
d="M549 0h-207v18c30 11 43 22 43 49c0 25 -13 66 -35 126h-169l-3 -9c-18 -54 -30 -91 -30 -115c0 -27 15 -40 51 -51v-18h-197v18c45 20 66 54 112 181l113 311h101l113 -311c48 -132 69 -165 108 -181v-18zM334 239l-72 207l-66 -207h138zM179 587c-28 0 -52 22 -52 55
c0 34 24 55 52 55c29 0 53 -21 53 -55c0 -33 -24 -55 -53 -55zM377 587c-28 0 -52 22 -52 55c0 34 24 55 52 55c29 0 53 -21 53 -55c0 -33 -24 -55 -53 -55z" />
    <glyph glyph-name="aring.smcp" horiz-adv-x="553" 
d="M549 0h-205v18c30 11 43 22 43 49c0 25 -13 65 -35 126h-173l-3 -9c-18 -55 -30 -91 -30 -115c0 -27 15 -40 51 -51v-18h-193v18c47 20 62 44 112 181l109 301c-31 18 -52 50 -52 88c0 56 48 102 104 102s104 -46 104 -102c0 -37 -21 -69 -50 -87l110 -302
c55 -153 67 -164 108 -181v-18zM336 239l-74 207l-68 -207h142zM277 528c32 0 58 28 58 60s-26 60 -58 60s-58 -28 -58 -60s26 -60 58 -60z" />
    <glyph glyph-name="amacron.smcp" horiz-adv-x="553" 
d="M549 0h-207v18c30 11 43 22 43 49c0 25 -13 66 -35 126h-169l-3 -9c-18 -54 -30 -91 -30 -115c0 -27 15 -40 51 -51v-18h-197v18c45 20 66 54 112 181l113 311h101l113 -311c48 -132 69 -165 108 -181v-18zM334 239l-72 207l-66 -207h138zM397 595h-234v62h234v-62z" />
    <glyph glyph-name="abreve.smcp" horiz-adv-x="553" 
d="M549 0h-207v18c30 11 43 22 43 49c0 25 -13 66 -35 126h-169l-3 -9c-18 -54 -30 -91 -30 -115c0 -27 15 -40 51 -51v-18h-197v18c45 20 66 54 112 181l113 311h101l113 -311c48 -132 69 -165 108 -181v-18zM334 239l-72 207l-66 -207h138zM388 692l20 -1
c-9 -68 -65 -131 -130 -131c-64 0 -120 63 -126 131l20 1c19 -41 62 -59 106 -59c46 0 88 18 110 59z" />
    <glyph glyph-name="aogonek.smcp" horiz-adv-x="553" 
d="M535 -168v-12c-11 -15 -37 -35 -65 -35c-46 0 -70 33 -70 71c0 59 67 112 116 144h-174v18c30 11 43 22 43 49c0 25 -13 66 -35 126h-169l-3 -9c-18 -54 -30 -91 -30 -115c0 -27 15 -40 51 -51v-18h-197v18c45 20 66 54 112 181l113 311h101l113 -311
c48 -132 69 -165 108 -181v-18c-40 -41 -75 -90 -75 -132c0 -22 18 -39 44 -39c5 0 12 1 17 3zM334 239l-72 207l-66 -207h138z" />
    <glyph glyph-name="ccedilla.smcp" horiz-adv-x="546" 
d="M223 -186l17 17c22 -10 44 -13 61 -13c20 0 48 12 48 38c0 29 -60 45 -95 46l64 87c-148 4 -272 93 -272 258c0 189 153 275 286 275c49 0 134 -19 162 -33v-103h-29c-38 85 -102 94 -142 94c-95 0 -175 -83 -175 -223c0 -146 87 -226 185 -226c47 0 108 14 147 99h30
l-12 -106c-28 -16 -94 -31 -149 -34l-26 -40c36 -5 86 -32 86 -84c0 -60 -60 -81 -97 -81s-68 13 -89 29z" />
    <glyph glyph-name="cacute.smcp" horiz-adv-x="546" 
d="M510 130l-12 -106c-31 -18 -111 -35 -169 -35c-152 0 -283 89 -283 258c0 189 153 275 286 275c49 0 134 -19 162 -33v-103h-29c-38 85 -102 94 -142 94c-95 0 -175 -83 -175 -223c0 -146 87 -226 185 -226c47 0 108 14 147 99h30zM453 648l-199 -85l-11 20l174 130z" />
    <glyph glyph-name="ccircumflex.smcp" horiz-adv-x="546" 
d="M510 130l-12 -106c-31 -18 -111 -35 -169 -35c-152 0 -283 89 -283 258c0 189 153 275 286 275c49 0 134 -19 162 -33v-103h-29c-38 85 -102 94 -142 94c-95 0 -175 -83 -175 -223c0 -146 87 -226 185 -226c47 0 108 14 147 99h30zM429 560h-33l-82 58l-79 -58h-33
l88 130h49z" />
    <glyph glyph-name="cdotaccent.smcp" horiz-adv-x="546" 
d="M510 130l-12 -106c-31 -18 -111 -35 -169 -35c-152 0 -283 89 -283 258c0 189 153 275 286 275c49 0 134 -19 162 -33v-103h-29c-38 85 -102 94 -142 94c-95 0 -175 -83 -175 -223c0 -146 87 -226 185 -226c47 0 108 14 147 99h30zM310 587c-28 0 -52 22 -52 55
c0 34 24 55 52 55c29 0 53 -21 53 -55c0 -33 -24 -55 -53 -55z" />
    <glyph glyph-name="ccaron.smcp" horiz-adv-x="546" 
d="M510 130l-12 -106c-31 -18 -111 -35 -169 -35c-152 0 -283 89 -283 258c0 189 153 275 286 275c49 0 134 -19 162 -33v-103h-29c-38 85 -102 94 -142 94c-95 0 -175 -83 -175 -223c0 -146 87 -226 185 -226c47 0 108 14 147 99h30zM334 560h-49l-88 130h33l79 -58l82 58
h33z" />
    <glyph glyph-name="dcaron.smcp" horiz-adv-x="613" 
d="M295 0h-254v18c56 18 69 34 69 110v254c0 76 -13 92 -69 110v18h261c148 0 273 -84 273 -243c0 -173 -116 -267 -280 -267zM203 42h94c111 0 176 95 176 222c0 115 -76 205 -168 205h-102v-427zM324 560h-49l-88 130h33l79 -58l82 58h33z" />
    <glyph glyph-name="dcroat.smcp" horiz-adv-x="613" 
d="M295 0h-252v18c56 18 69 34 69 110v108h-58v45h58v101c0 76 -13 92 -69 110v18h259c147 0 271 -84 271 -243c0 -173 -115 -267 -278 -267zM201 42h96c112 0 178 95 178 222c0 115 -77 205 -170 205h-104v-188h99v-45h-99v-194z" />
    <glyph glyph-name="egrave.smcp" horiz-adv-x="469" 
d="M427 0h-386v18c56 18 69 34 69 110v254c0 76 -13 92 -69 110v18h366v-107h-26l-21 31c-23 33 -24 35 -57 35h-100v-186h80c38 0 45 7 71 44h22v-132h-22c-26 37 -33 47 -71 47h-80v-200h119c32 0 44 13 83 62l11 14h25zM335 563l-199 85l36 65l174 -130z" />
    <glyph glyph-name="eacute.smcp" horiz-adv-x="469" 
d="M427 0h-386v18c56 18 69 34 69 110v254c0 76 -13 92 -69 110v18h366v-107h-26l-21 31c-23 33 -24 35 -57 35h-100v-186h80c38 0 45 7 71 44h22v-132h-22c-26 37 -33 47 -71 47h-80v-200h119c32 0 44 13 83 62l11 14h25zM393 648l-199 -85l-11 20l174 130z" />
    <glyph glyph-name="ecircumflex.smcp" horiz-adv-x="469" 
d="M427 0h-386v18c56 18 69 34 69 110v254c0 76 -13 92 -69 110v18h366v-107h-26l-21 31c-23 33 -24 35 -57 35h-100v-186h80c38 0 45 7 71 44h22v-132h-22c-26 37 -33 47 -71 47h-80v-200h119c32 0 44 13 83 62l11 14h25zM341 560h-33l-82 58l-79 -58h-33l88 130h49z" />
    <glyph glyph-name="edieresis.smcp" horiz-adv-x="469" 
d="M427 0h-386v18c56 18 69 34 69 110v254c0 76 -13 92 -69 110v18h366v-107h-26l-21 31c-23 33 -24 35 -57 35h-100v-186h80c38 0 45 7 71 44h22v-132h-22c-26 37 -33 47 -71 47h-80v-200h119c32 0 44 13 83 62l11 14h25zM140 587c-28 0 -52 22 -52 55c0 34 24 55 52 55
c29 0 53 -21 53 -55c0 -33 -24 -55 -53 -55zM338 587c-28 0 -52 22 -52 55c0 34 24 55 52 55c29 0 53 -21 53 -55c0 -33 -24 -55 -53 -55z" />
    <glyph glyph-name="emacron.smcp" horiz-adv-x="469" 
d="M427 0h-386v18c56 18 69 34 69 110v254c0 76 -13 92 -69 110v18h366v-107h-26l-21 31c-23 33 -24 35 -57 35h-100v-186h80c38 0 45 7 71 44h22v-132h-22c-26 37 -33 47 -71 47h-80v-200h119c32 0 44 13 83 62l11 14h25zM354 595h-234v62h234v-62z" />
    <glyph glyph-name="ebreve.smcp" horiz-adv-x="469" 
d="M427 0h-386v18c56 18 69 34 69 110v254c0 76 -13 92 -69 110v18h366v-107h-26l-21 31c-23 33 -24 35 -57 35h-100v-186h80c38 0 45 7 71 44h22v-132h-22c-26 37 -33 47 -71 47h-80v-200h119c32 0 44 13 83 62l11 14h25zM351 692l20 -1c-9 -68 -65 -131 -130 -131
c-64 0 -120 63 -126 131l20 1c19 -41 62 -59 106 -59c46 0 88 18 110 59z" />
    <glyph glyph-name="edotaccent.smcp" horiz-adv-x="469" 
d="M427 0h-386v18c56 18 69 34 69 110v254c0 76 -13 92 -69 110v18h366v-107h-26l-21 31c-23 33 -24 35 -57 35h-100v-186h80c38 0 45 7 71 44h22v-132h-22c-26 37 -33 47 -71 47h-80v-200h119c32 0 44 13 83 62l11 14h25zM242 587c-28 0 -52 22 -52 55c0 34 24 55 52 55
c29 0 53 -21 53 -55c0 -33 -24 -55 -53 -55z" />
    <glyph glyph-name="eogonek.smcp" horiz-adv-x="469" 
d="M407 -168v-12c-11 -15 -37 -35 -65 -35c-46 0 -70 33 -70 71c0 59 67 112 116 144h-347v18c56 18 69 34 69 110v254c0 76 -13 92 -69 110v18h366v-107h-26l-21 31c-23 33 -24 35 -57 35h-100v-186h80c38 0 45 7 71 44h22v-132h-22c-26 37 -33 47 -71 47h-80v-200h119
c32 0 44 13 83 62l11 14h25l-14 -118c-46 -41 -81 -90 -81 -132c0 -22 18 -39 44 -39c5 0 12 1 17 3z" />
    <glyph glyph-name="ecaron.smcp" horiz-adv-x="469" 
d="M427 0h-386v18c56 18 69 34 69 110v254c0 76 -13 92 -69 110v18h366v-107h-26l-21 31c-23 33 -24 35 -57 35h-100v-186h80c38 0 45 7 71 44h22v-132h-22c-26 37 -33 47 -71 47h-80v-200h119c32 0 44 13 83 62l11 14h25zM259 560h-49l-88 130h33l79 -58l82 58h33z" />
    <glyph glyph-name="gcircumflex.smcp" horiz-adv-x="591" 
d="M518 24l-68 -17c-39 -10 -80 -18 -118 -18c-146 0 -283 94 -283 264c0 184 162 269 295 269c53 0 135 -17 163 -30v-107h-29c-41 81 -98 95 -140 95c-97 0 -187 -71 -187 -223c0 -153 91 -223 194 -223c29 0 70 10 88 17v106c0 56 -11 72 -59 86v18h193v-18
c-35 -14 -49 -22 -49 -86v-133zM446 560h-33l-82 58l-79 -58h-33l88 130h49z" />
    <glyph glyph-name="gbreve.smcp" horiz-adv-x="591" 
d="M518 24l-68 -17c-39 -10 -80 -18 -118 -18c-146 0 -283 94 -283 264c0 184 162 269 295 269c53 0 135 -17 163 -30v-107h-29c-41 81 -98 95 -140 95c-97 0 -187 -71 -187 -223c0 -153 91 -223 194 -223c29 0 70 10 88 17v106c0 56 -11 72 -59 86v18h193v-18
c-35 -14 -49 -22 -49 -86v-133zM423 692l20 -1c-9 -68 -65 -131 -130 -131c-64 0 -120 63 -126 131l20 1c19 -41 62 -59 106 -59c46 0 88 18 110 59z" />
    <glyph glyph-name="gdotaccent.smcp" horiz-adv-x="591" 
d="M518 24l-68 -17c-39 -10 -80 -18 -118 -18c-146 0 -283 94 -283 264c0 184 162 269 295 269c53 0 135 -17 163 -30v-107h-29c-41 81 -98 95 -140 95c-97 0 -187 -71 -187 -223c0 -153 91 -223 194 -223c29 0 70 10 88 17v106c0 56 -11 72 -59 86v18h193v-18
c-35 -14 -49 -22 -49 -86v-133zM318 587c-28 0 -52 22 -52 55c0 34 24 55 52 55c29 0 53 -21 53 -55c0 -33 -24 -55 -53 -55z" />
    <glyph glyph-name="gcommaaccent.smcp" horiz-adv-x="591" 
d="M518 24l-68 -17c-39 -10 -80 -18 -118 -18c-146 0 -283 94 -283 264c0 184 162 269 295 269c53 0 135 -17 163 -30v-107h-29c-41 81 -98 95 -140 95c-97 0 -187 -71 -187 -223c0 -153 91 -223 194 -223c29 0 70 10 88 17v106c0 56 -11 72 -59 86v18h193v-18
c-35 -14 -49 -22 -49 -86v-133zM299 -230h-30c19 30 28 61 28 77c0 25 -28 38 -28 67c0 33 24 50 49 50c30 0 52 -23 52 -57c0 -47 -37 -97 -71 -137z" />
    <glyph glyph-name="hcircumflex.smcp" horiz-adv-x="656" 
d="M610 0h-229v18c56 18 69 34 69 110v112h-248v-112c0 -76 13 -92 68 -110v-18h-229v18c56 18 69 34 69 110v254c0 76 -13 92 -69 110v18h229v-18c-55 -18 -68 -34 -68 -110v-97h248v97c0 76 -13 92 -69 110v18h229v-18c-55 -18 -68 -34 -68 -110v-254
c0 -76 13 -92 68 -110v-18zM440 560h-33l-82 58l-79 -58h-33l88 130h49z" />
    <glyph glyph-name="hbar.smcp" horiz-adv-x="656" 
d="M610 0h-229v18c56 18 69 34 69 110v82h-248v-82c0 -76 13 -92 68 -110v-18h-229v18c56 18 69 34 69 110v201h-58v45h58v8c0 76 -13 92 -69 110v18h229v-18c-55 -18 -68 -34 -68 -110v-8h248v8c0 76 -13 92 -69 110v18h229v-18c-55 -18 -68 -34 -68 -110v-8h59v-45h-59
v-201c0 -76 13 -92 68 -110v-18zM450 255v74h-248v-74h248z" />
    <glyph glyph-name="igrave.smcp" horiz-adv-x="316" 
d="M270 0h-229v18c56 18 69 34 69 110v254c0 76 -13 92 -69 110v18h229v-18c-55 -18 -68 -34 -68 -110v-254c0 -76 13 -92 68 -110v-18zM252 563l-199 85l36 65l174 -130z" />
    <glyph glyph-name="iacute.smcp" horiz-adv-x="316" 
d="M270 0h-229v18c56 18 69 34 69 110v254c0 76 -13 92 -69 110v18h229v-18c-55 -18 -68 -34 -68 -110v-254c0 -76 13 -92 68 -110v-18zM263 648l-199 -85l-11 20l174 130z" />
    <glyph glyph-name="icircumflex.smcp" horiz-adv-x="316" 
d="M270 0h-229v18c56 18 69 34 69 110v254c0 76 -13 92 -69 110v18h229v-18c-55 -18 -68 -34 -68 -110v-254c0 -76 13 -92 68 -110v-18zM272 560h-33l-82 58l-79 -58h-33l88 130h49z" />
    <glyph glyph-name="idieresis.smcp" horiz-adv-x="316" 
d="M270 0h-229v18c56 18 69 34 69 110v254c0 76 -13 92 -69 110v18h229v-18c-55 -18 -68 -34 -68 -110v-254c0 -76 13 -92 68 -110v-18zM59 587c-28 0 -52 22 -52 55c0 34 24 55 52 55c29 0 53 -21 53 -55c0 -33 -24 -55 -53 -55zM257 587c-28 0 -52 22 -52 55
c0 34 24 55 52 55c29 0 53 -21 53 -55c0 -33 -24 -55 -53 -55z" />
    <glyph glyph-name="itilde.smcp" horiz-adv-x="316" 
d="M270 0h-229v18c56 18 69 34 69 110v254c0 76 -13 92 -69 110v18h229v-18c-55 -18 -68 -34 -68 -110v-254c0 -76 13 -92 68 -110v-18zM285 686l28 -2c-4 -40 -46 -96 -97 -96c-50 0 -104 35 -137 35c-30 0 -40 -17 -47 -37l-27 4c4 40 45 94 96 94c47 0 104 -32 138 -32
c30 0 38 14 46 34z" />
    <glyph glyph-name="imacron.smcp" horiz-adv-x="316" 
d="M270 0h-229v18c56 18 69 34 69 110v254c0 76 -13 92 -69 110v18h229v-18c-55 -18 -68 -34 -68 -110v-254c0 -76 13 -92 68 -110v-18zM275 595h-234v62h234v-62z" />
    <glyph glyph-name="ibreve.smcp" horiz-adv-x="316" 
d="M270 0h-229v18c56 18 69 34 69 110v254c0 76 -13 92 -69 110v18h229v-18c-55 -18 -68 -34 -68 -110v-254c0 -76 13 -92 68 -110v-18zM266 692l20 -1c-9 -68 -65 -131 -130 -131c-64 0 -120 63 -126 131l20 1c19 -41 62 -59 106 -59c46 0 88 18 110 59z" />
    <glyph glyph-name="iogonek.smcp" horiz-adv-x="316" 
d="M253 -168v-12c-11 -15 -37 -35 -65 -35c-46 0 -70 33 -70 71c0 59 67 112 116 144h-193v18c56 18 69 34 69 110v254c0 76 -13 92 -69 110v18h229v-18c-55 -18 -68 -34 -68 -110v-254c0 -76 13 -92 68 -110v-18c-43 -41 -78 -90 -78 -132c0 -22 18 -39 44 -39
c5 0 12 1 17 3z" />
    <glyph glyph-name="idotaccent.smcp" horiz-adv-x="316" 
d="M270 0h-229v18c56 18 69 34 69 110v254c0 76 -13 92 -69 110v18h229v-18c-55 -18 -68 -34 -68 -110v-254c0 -76 13 -92 68 -110v-18zM158 587c-28 0 -52 22 -52 55c0 34 24 55 52 55c29 0 53 -21 53 -55c0 -33 -24 -55 -53 -55z" />
    <glyph glyph-name="ij.smcp" horiz-adv-x="638" 
d="M270 0h-229v18c56 18 69 34 69 110v254c0 76 -13 92 -69 110v18h229v-18c-55 -18 -68 -34 -68 -110v-254c0 -76 13 -92 68 -110v-18zM370 -156l-15 21c39 28 68 76 68 155v362c0 76 -13 92 -69 110v18h229v-18c-55 -18 -68 -34 -68 -110v-333c0 -113 -85 -178 -145 -205z
" />
    <glyph glyph-name="jcircumflex.smcp" horiz-adv-x="311" 
d="M57 -156l-15 21c39 28 68 76 68 155v362c0 76 -13 92 -69 110v18h229v-18c-55 -18 -68 -34 -68 -110v-333c0 -113 -85 -178 -145 -205zM266 560h-33l-82 58l-79 -58h-33l88 130h49z" />
    <glyph glyph-name="kcommaaccent.smcp" horiz-adv-x="557" 
d="M572 0h-213v18c19 3 33 8 33 22c0 15 -13 42 -45 88l-84 122l-61 -64v-68c1 -76 12 -82 68 -100v-18h-229v18c56 18 69 34 69 110v254c0 76 -13 92 -69 110v18h229v-18c-55 -18 -68 -34 -68 -110v-134l125 137c29 31 40 54 40 74c0 15 -10 26 -33 35v16h206v-16
c-50 -18 -86 -50 -152 -117l-61 -62l122 -181c51 -77 78 -100 123 -116v-18zM270 -230h-30c19 30 28 61 28 77c0 25 -28 38 -28 67c0 33 24 50 49 50c30 0 52 -23 52 -57c0 -47 -37 -97 -71 -137z" />
    <glyph glyph-name="kgreenlandic.smcp" horiz-adv-x="628" 
d="M572 0h-213v18c19 3 33 8 33 22c0 15 -13 42 -45 88l-84 122l-61 -64v-68c1 -76 12 -82 68 -100v-18h-229v18c56 18 69 34 69 110v254c0 76 -13 92 -69 110v18h229v-18c-55 -18 -68 -34 -68 -110v-134l125 137c29 31 40 54 40 74c0 15 -10 26 -33 35v16h206v-16
c-50 -18 -86 -50 -152 -117l-61 -62l122 -181c51 -77 78 -100 123 -116v-18zM598 510h30c-19 -30 -28 -61 -28 -77c0 -25 28 -38 28 -67c0 -33 -24 -50 -49 -50c-30 0 -52 23 -52 57c0 47 37 97 71 137z" />
    <glyph glyph-name="lacute.smcp" horiz-adv-x="453" 
d="M415 0h-374v18c56 18 69 34 69 110v254c0 76 -13 92 -69 110v18h229v-18c-55 -18 -67 -34 -67 -110v-340h107c32 0 44 13 83 62l11 14h25zM298 648l-199 -85l-11 20l174 130z" />
    <glyph glyph-name="lcommaaccent.smcp" horiz-adv-x="453" 
d="M415 0h-374v18c56 18 69 34 69 110v254c0 76 -13 92 -69 110v18h229v-18c-55 -18 -67 -34 -67 -110v-340h107c32 0 44 13 83 62l11 14h25zM233 -230h-30c19 30 28 61 28 77c0 25 -28 38 -28 67c0 33 24 50 49 50c30 0 52 -23 52 -57c0 -47 -37 -97 -71 -137z" />
    <glyph glyph-name="lcaron.smcp" horiz-adv-x="453" 
d="M415 0h-374v18c56 18 69 34 69 110v254c0 76 -13 92 -69 110v18h229v-18c-55 -18 -67 -34 -67 -110v-340h107c32 0 44 13 83 62l11 14h25zM345 329h-30c19 30 28 61 28 77c0 25 -28 38 -28 67c0 33 24 50 49 50c30 0 52 -23 52 -57c0 -47 -37 -97 -71 -137z" />
    <glyph glyph-name="ldot.smcp" horiz-adv-x="316" 
d="M270 0h-229v18c56 18 69 34 69 110v254c0 76 -13 92 -69 110v18h229v-18c-55 -18 -68 -34 -68 -110v-254c0 -76 13 -92 68 -110v-18zM158 587c-28 0 -52 22 -52 55c0 34 24 55 52 55c29 0 53 -21 53 -55c0 -33 -24 -55 -53 -55z" />
    <glyph glyph-name="lslash.smcp" horiz-adv-x="453" 
d="M415 0h-374v18c56 18 69 34 69 110v62l-70 -28v48l70 28v144c0 76 -13 92 -69 110v18h229v-18c-55 -18 -68 -34 -68 -110v-107l84 34v-49l-83 -34v-184h107c32 0 44 13 83 62l11 14h25z" />
    <glyph glyph-name="ntilde.smcp" horiz-adv-x="672" 
d="M562 -7h-67l-321 419v-284c0 -76 13 -92 68 -110v-18h-201v18c56 18 69 34 69 110v254c0 76 -13 92 -69 110v18h166l291 -378v250c0 76 -13 92 -69 110v18h201v-18c-55 -18 -68 -34 -68 -110v-389zM442 686l28 -2c-4 -40 -46 -96 -97 -96c-50 0 -104 35 -137 35
c-30 0 -40 -17 -47 -37l-27 4c4 40 45 94 96 94c47 0 104 -32 138 -32c30 0 38 14 46 34z" />
    <glyph glyph-name="nacute.smcp" horiz-adv-x="672" 
d="M562 -7h-67l-321 419v-284c0 -76 13 -92 68 -110v-18h-201v18c56 18 69 34 69 110v254c0 76 -13 92 -69 110v18h166l291 -378v250c0 76 -13 92 -69 110v18h201v-18c-55 -18 -68 -34 -68 -110v-389zM450 648l-199 -85l-11 20l174 130z" />
    <glyph glyph-name="ncommaaccent.smcp" horiz-adv-x="672" 
d="M562 -7h-67l-321 419v-284c0 -76 13 -92 68 -110v-18h-201v18c56 18 69 34 69 110v254c0 76 -13 92 -69 110v18h166l291 -378v250c0 76 -13 92 -69 110v18h201v-18c-55 -18 -68 -34 -68 -110v-389zM292 -230h-30c19 30 28 61 28 77c0 25 -28 38 -28 67c0 33 24 50 49 50
c30 0 52 -23 52 -57c0 -47 -37 -97 -71 -137z" />
    <glyph glyph-name="ncaron.smcp" horiz-adv-x="672" 
d="M562 -7h-67l-321 419v-284c0 -76 13 -92 68 -110v-18h-201v18c56 18 69 34 69 110v254c0 76 -13 92 -69 110v18h166l291 -378v250c0 76 -13 92 -69 110v18h201v-18c-55 -18 -68 -34 -68 -110v-389zM341 560h-49l-88 130h33l79 -58l82 58h33z" />
    <glyph glyph-name="napostrophe.smcp" horiz-adv-x="672" 
d="M562 -7h-67l-321 419v-284c0 -76 13 -92 68 -110v-18h-201v18c56 18 69 34 69 110v254c0 76 -13 92 -69 110v18h166l291 -378v250c0 76 -13 92 -69 110v18h201v-18c-55 -18 -68 -34 -68 -110v-389zM85 579h-30c19 30 28 61 28 77c0 25 -28 38 -28 67c0 33 24 50 49 50
c30 0 52 -23 52 -57c0 -47 -37 -97 -71 -137z" />
    <glyph glyph-name="ograve.smcp" horiz-adv-x="627" 
d="M581 252c0 -162 -125 -263 -270 -263s-270 101 -270 263c0 166 131 270 270 270s270 -104 270 -270zM311 31c109 0 167 102 167 225c0 122 -58 224 -167 224c-110 0 -169 -103 -169 -224c0 -122 59 -225 169 -225zM402 563l-199 85l36 65l174 -130z" />
    <glyph glyph-name="oacute.smcp" horiz-adv-x="627" 
d="M581 252c0 -162 -125 -263 -270 -263s-270 101 -270 263c0 166 131 270 270 270s270 -104 270 -270zM311 31c109 0 167 102 167 225c0 122 -58 224 -167 224c-110 0 -169 -103 -169 -224c0 -122 59 -225 169 -225zM418 648l-199 -85l-11 20l174 130z" />
    <glyph glyph-name="ocircumflex.smcp" horiz-adv-x="627" 
d="M581 252c0 -162 -125 -263 -270 -263s-270 101 -270 263c0 166 131 270 270 270s270 -104 270 -270zM311 31c109 0 167 102 167 225c0 122 -58 224 -167 224c-110 0 -169 -103 -169 -224c0 -122 59 -225 169 -225zM423 560h-33l-82 58l-79 -58h-33l88 130h49z" />
    <glyph glyph-name="otilde.smcp" horiz-adv-x="627" 
d="M581 252c0 -162 -125 -263 -270 -263s-270 101 -270 263c0 166 131 270 270 270s270 -104 270 -270zM311 31c109 0 167 102 167 225c0 122 -58 224 -167 224c-110 0 -169 -103 -169 -224c0 -122 59 -225 169 -225zM435 686l28 -2c-4 -40 -46 -96 -97 -96
c-50 0 -104 35 -137 35c-30 0 -40 -17 -47 -37l-27 4c4 40 45 94 96 94c47 0 104 -32 138 -32c30 0 38 14 46 34z" />
    <glyph glyph-name="odieresis.smcp" horiz-adv-x="627" 
d="M581 252c0 -162 -125 -263 -270 -263s-270 101 -270 263c0 166 131 270 270 270s270 -104 270 -270zM311 31c109 0 167 102 167 225c0 122 -58 224 -167 224c-110 0 -169 -103 -169 -224c0 -122 59 -225 169 -225zM209 587c-28 0 -52 22 -52 55c0 34 24 55 52 55
c29 0 53 -21 53 -55c0 -33 -24 -55 -53 -55zM407 587c-28 0 -52 22 -52 55c0 34 24 55 52 55c29 0 53 -21 53 -55c0 -33 -24 -55 -53 -55z" />
    <glyph glyph-name="oslash.smcp" horiz-adv-x="627" 
d="M172 -42l-46 27l28 49c-69 45 -113 121 -113 218c0 166 131 270 270 270c39 0 77 -8 113 -24l30 52l47 -28l-30 -52c65 -47 110 -123 110 -218c0 -162 -125 -263 -270 -263c-40 0 -75 7 -109 20c-10 -16 -21 -35 -30 -51zM189 93l208 359c-24 18 -54 28 -86 28
c-110 0 -169 -103 -169 -224c0 -64 16 -121 47 -163zM436 411l-208 -357c23 -15 51 -23 83 -23c109 0 167 102 167 225c0 59 -15 114 -42 155z" />
    <glyph glyph-name="omacron.smcp" horiz-adv-x="627" 
d="M581 252c0 -162 -125 -263 -270 -263s-270 101 -270 263c0 166 131 270 270 270s270 -104 270 -270zM311 31c109 0 167 102 167 225c0 122 -58 224 -167 224c-110 0 -169 -103 -169 -224c0 -122 59 -225 169 -225zM427 595h-234v62h234v-62z" />
    <glyph glyph-name="obreve.smcp" horiz-adv-x="627" 
d="M581 252c0 -162 -125 -263 -270 -263s-270 101 -270 263c0 166 131 270 270 270s270 -104 270 -270zM311 31c109 0 167 102 167 225c0 122 -58 224 -167 224c-110 0 -169 -103 -169 -224c0 -122 59 -225 169 -225zM418 692l20 -1c-9 -68 -65 -131 -130 -131
c-64 0 -120 63 -126 131l20 1c19 -41 62 -59 106 -59c46 0 88 18 110 59z" />
    <glyph glyph-name="ohungarumlaut.smcp" horiz-adv-x="627" 
d="M581 252c0 -162 -125 -263 -270 -263s-270 101 -270 263c0 166 131 270 270 270s270 -104 270 -270zM311 31c109 0 167 102 167 225c0 122 -58 224 -167 224c-110 0 -169 -103 -169 -224c0 -122 59 -225 169 -225zM259 557h-28c13 43 22 88 24 134h74
c-23 -53 -44 -99 -70 -134zM370 557h-28c13 43 23 88 24 134h75c-24 -53 -45 -99 -71 -134z" />
    <glyph glyph-name="racute.smcp" horiz-adv-x="518" 
d="M549 0h-71c-83 0 -91 4 -149 88l-95 138h-31v-98c0 -76 13 -92 68 -110v-18h-230v18c56 18 69 34 69 110v254c0 76 -13 92 -69 110v18h260c104 0 167 -43 167 -132c0 -79 -85 -126 -141 -138l101 -127c58 -73 79 -91 121 -95v-18zM203 264h56c47 0 114 34 114 107
c0 61 -35 98 -82 98h-88v-205zM416 648l-199 -85l-11 20l174 130z" />
    <glyph glyph-name="rcommaaccent.smcp" horiz-adv-x="518" 
d="M549 0h-71c-83 0 -91 4 -149 88l-95 138h-31v-98c0 -76 13 -92 68 -110v-18h-230v18c56 18 69 34 69 110v254c0 76 -13 92 -69 110v18h260c104 0 167 -43 167 -132c0 -79 -85 -126 -141 -138l101 -127c58 -73 79 -91 121 -95v-18zM203 264h56c47 0 114 34 114 107
c0 61 -35 98 -82 98h-88v-205zM241 -230h-30c19 30 28 61 28 77c0 25 -28 38 -28 67c0 33 24 50 49 50c30 0 52 -23 52 -57c0 -47 -37 -97 -71 -137z" />
    <glyph glyph-name="rcaron.smcp" horiz-adv-x="518" 
d="M549 0h-71c-83 0 -91 4 -149 88l-95 138h-31v-98c0 -76 13 -92 68 -110v-18h-230v18c56 18 69 34 69 110v254c0 76 -13 92 -69 110v18h260c104 0 167 -43 167 -132c0 -79 -85 -126 -141 -138l101 -127c58 -73 79 -91 121 -95v-18zM203 264h56c47 0 114 34 114 107
c0 61 -35 98 -82 98h-88v-205zM288 560h-49l-88 130h33l79 -58l82 58h33z" />
    <glyph glyph-name="sacute.smcp" horiz-adv-x="404" 
d="M37 16v122h24c41 -74 75 -104 137 -104c47 0 88 34 88 81c0 66 -55 88 -112 112c-66 27 -134 57 -134 146s82 149 169 149c39 0 91 -5 132 -21v-105h-26c-34 52 -56 80 -113 80c-40 0 -76 -29 -76 -73c0 -57 55 -80 108 -103c65 -27 140 -62 140 -152s-84 -160 -188 -160
c-47 0 -102 7 -149 28zM347 648l-199 -85l-11 20l174 130z" />
    <glyph glyph-name="scircumflex.smcp" horiz-adv-x="404" 
d="M37 16v122h24c41 -74 75 -104 137 -104c47 0 88 34 88 81c0 66 -55 88 -112 112c-66 27 -134 57 -134 146s82 149 169 149c39 0 91 -5 132 -21v-105h-26c-34 52 -56 80 -113 80c-40 0 -76 -29 -76 -73c0 -57 55 -80 108 -103c65 -27 140 -62 140 -152s-84 -160 -188 -160
c-47 0 -102 7 -149 28zM320 560h-33l-82 58l-79 -58h-33l88 130h49z" />
    <glyph glyph-name="scedilla.smcp" horiz-adv-x="404" 
d="M93 -186l17 17c22 -10 44 -13 61 -13c20 0 48 12 48 38c0 29 -60 45 -95 46l63 86c-48 0 -103 7 -150 28v122h24c41 -74 75 -104 137 -104c47 0 88 34 88 81c0 66 -55 88 -112 112c-66 27 -134 57 -134 146s82 149 169 149c39 0 91 -5 132 -21v-105h-26
c-34 52 -56 80 -113 80c-40 0 -76 -29 -76 -73c0 -57 55 -80 108 -103c65 -27 140 -62 140 -152c0 -80 -67 -145 -155 -157l-26 -41c36 -5 86 -32 86 -84c0 -60 -60 -81 -97 -81s-68 13 -89 29z" />
    <glyph glyph-name="scaron.smcp" horiz-adv-x="404" 
d="M37 16v122h24c41 -74 75 -104 137 -104c47 0 88 34 88 81c0 66 -55 88 -112 112c-66 27 -134 57 -134 146s82 149 169 149c39 0 91 -5 132 -21v-105h-26c-34 52 -56 80 -113 80c-40 0 -76 -29 -76 -73c0 -57 55 -80 108 -103c65 -27 140 -62 140 -152s-84 -160 -188 -160
c-47 0 -102 7 -149 28zM224 560h-49l-88 130h33l79 -58l82 58h33z" />
    <glyph glyph-name="scommaaccent.smcp" horiz-adv-x="404" 
d="M37 16v122h24c41 -74 75 -104 137 -104c47 0 88 34 88 81c0 66 -55 88 -112 112c-66 27 -134 57 -134 146s82 149 169 149c39 0 91 -5 132 -21v-105h-26c-34 52 -56 80 -113 80c-40 0 -76 -29 -76 -73c0 -57 55 -80 108 -103c65 -27 140 -62 140 -152s-84 -160 -188 -160
c-47 0 -102 7 -149 28zM193 -230h-30c19 30 28 61 28 77c0 25 -28 38 -28 67c0 33 24 50 49 50c30 0 52 -23 52 -57c0 -47 -37 -97 -71 -137z" />
    <glyph glyph-name="tcommaaccent.smcp" horiz-adv-x="527" 
d="M375 0h-229v18c56 18 69 34 69 110v341h-66c-37 0 -42 -4 -76 -50l-12 -16h-26l10 107h432l10 -107h-26l-12 16c-34 46 -39 50 -76 50h-66v-341c0 -76 13 -92 68 -110v-18zM229 -230h-30c19 30 28 61 28 77c0 25 -28 38 -28 67c0 33 24 50 49 50c30 0 52 -23 52 -57
c0 -47 -37 -97 -71 -137z" />
    <glyph glyph-name="uni021B.smcp" horiz-adv-x="527" 
d="M375 0h-229v18c56 18 69 34 69 110v341h-66c-37 0 -42 -4 -76 -50l-12 -16h-26l10 107h432l10 -107h-26l-12 16c-34 46 -39 50 -76 50h-66v-341c0 -76 13 -92 68 -110v-18zM229 -230h-30c19 30 28 61 28 77c0 25 -28 38 -28 67c0 33 24 50 49 50c30 0 52 -23 52 -57
c0 -47 -37 -97 -71 -137z" />
    <glyph glyph-name="tcaron.smcp" horiz-adv-x="527" 
d="M375 0h-229v18c56 18 69 34 69 110v341h-66c-37 0 -42 -4 -76 -50l-12 -16h-26l10 107h432l10 -107h-26l-12 16c-34 46 -39 50 -76 50h-66v-341c0 -76 13 -92 68 -110v-18zM275 560h-49l-88 130h33l79 -58l82 58h33z" />
    <glyph glyph-name="tbar.smcp" horiz-adv-x="527" 
d="M375 0h-229v18c56 18 69 34 69 110v108h-84v45h84v188h-66c-37 0 -42 -4 -76 -50l-12 -16h-26l10 107h432l10 -107h-26l-12 16c-34 46 -39 50 -76 50h-66v-188h84v-45h-84v-108c0 -76 13 -92 68 -110v-18z" />
    <glyph glyph-name="ugrave.smcp" horiz-adv-x="617" 
d="M462 145v237c0 76 -21 92 -77 110v18h209v-18c-55 -18 -68 -34 -68 -110v-242c0 -98 -96 -151 -212 -151c-110 0 -210 48 -210 151v242c0 76 -13 92 -69 110v18h229v-18c-55 -18 -68 -34 -68 -110v-246c0 -56 51 -96 129 -96c75 0 137 33 137 105zM415 563l-199 85l36 65
l174 -130z" />
    <glyph glyph-name="uacute.smcp" horiz-adv-x="617" 
d="M462 145v237c0 76 -21 92 -77 110v18h209v-18c-55 -18 -68 -34 -68 -110v-242c0 -98 -96 -151 -212 -151c-110 0 -210 48 -210 151v242c0 76 -13 92 -69 110v18h229v-18c-55 -18 -68 -34 -68 -110v-246c0 -56 51 -96 129 -96c75 0 137 33 137 105zM475 648l-199 -85
l-11 20l174 130z" />
    <glyph glyph-name="ucircumflex.smcp" horiz-adv-x="617" 
d="M462 145v237c0 76 -21 92 -77 110v18h209v-18c-55 -18 -68 -34 -68 -110v-242c0 -98 -96 -151 -212 -151c-110 0 -210 48 -210 151v242c0 76 -13 92 -69 110v18h229v-18c-55 -18 -68 -34 -68 -110v-246c0 -56 51 -96 129 -96c75 0 137 33 137 105zM430 560h-33l-82 58
l-79 -58h-33l88 130h49z" />
    <glyph glyph-name="udieresis.smcp" horiz-adv-x="617" 
d="M462 145v237c0 76 -21 92 -77 110v18h209v-18c-55 -18 -68 -34 -68 -110v-242c0 -98 -96 -151 -212 -151c-110 0 -210 48 -210 151v242c0 76 -13 92 -69 110v18h229v-18c-55 -18 -68 -34 -68 -110v-246c0 -56 51 -96 129 -96c75 0 137 33 137 105zM218 587
c-28 0 -52 22 -52 55c0 34 24 55 52 55c29 0 53 -21 53 -55c0 -33 -24 -55 -53 -55zM416 587c-28 0 -52 22 -52 55c0 34 24 55 52 55c29 0 53 -21 53 -55c0 -33 -24 -55 -53 -55z" />
    <glyph glyph-name="utilde.smcp" horiz-adv-x="617" 
d="M462 145v237c0 76 -21 92 -77 110v18h209v-18c-55 -18 -68 -34 -68 -110v-242c0 -98 -96 -151 -212 -151c-110 0 -210 48 -210 151v242c0 76 -13 92 -69 110v18h229v-18c-55 -18 -68 -34 -68 -110v-246c0 -56 51 -96 129 -96c75 0 137 33 137 105zM450 686l28 -2
c-4 -40 -46 -96 -97 -96c-50 0 -104 35 -137 35c-30 0 -40 -17 -47 -37l-27 4c4 40 45 94 96 94c47 0 104 -32 138 -32c30 0 38 14 46 34z" />
    <glyph glyph-name="umacron.smcp" horiz-adv-x="617" 
d="M462 145v237c0 76 -21 92 -77 110v18h209v-18c-55 -18 -68 -34 -68 -110v-242c0 -98 -96 -151 -212 -151c-110 0 -210 48 -210 151v242c0 76 -13 92 -69 110v18h229v-18c-55 -18 -68 -34 -68 -110v-246c0 -56 51 -96 129 -96c75 0 137 33 137 105zM424 595h-234v62h234
v-62z" />
    <glyph glyph-name="ubreve.smcp" horiz-adv-x="617" 
d="M462 145v237c0 76 -21 92 -77 110v18h209v-18c-55 -18 -68 -34 -68 -110v-242c0 -98 -96 -151 -212 -151c-110 0 -210 48 -210 151v242c0 76 -13 92 -69 110v18h229v-18c-55 -18 -68 -34 -68 -110v-246c0 -56 51 -96 129 -96c75 0 137 33 137 105zM431 692l20 -1
c-9 -68 -65 -131 -130 -131c-64 0 -120 63 -126 131l20 1c19 -41 62 -59 106 -59c46 0 88 18 110 59z" />
    <glyph glyph-name="uring.smcp" horiz-adv-x="617" 
d="M462 145v237c0 76 -21 92 -77 110v18h209v-18c-55 -18 -68 -34 -68 -110v-242c0 -98 -96 -151 -212 -151c-110 0 -210 48 -210 151v242c0 76 -13 92 -69 110v18h229v-18c-55 -18 -68 -34 -68 -110v-246c0 -56 51 -96 129 -96c75 0 137 33 137 105zM433 667
c0 -56 -48 -102 -104 -102s-104 46 -104 102s48 102 104 102s104 -46 104 -102zM329 603c35 0 62 29 62 64s-27 64 -62 64s-62 -29 -62 -64s27 -64 62 -64z" />
    <glyph glyph-name="uhungarumlaut.smcp" horiz-adv-x="617" 
d="M462 145v237c0 76 -21 92 -77 110v18h209v-18c-55 -18 -68 -34 -68 -110v-242c0 -98 -96 -151 -212 -151c-110 0 -210 48 -210 151v242c0 76 -13 92 -69 110v18h229v-18c-55 -18 -68 -34 -68 -110v-246c0 -56 51 -96 129 -96c75 0 137 33 137 105zM268 557h-28
c13 43 22 88 24 134h74c-23 -53 -44 -99 -70 -134zM379 557h-28c13 43 23 88 24 134h75c-24 -53 -45 -99 -71 -134z" />
    <glyph glyph-name="uogonek.smcp" horiz-adv-x="617" 
d="M374 -168v-12c-11 -15 -37 -35 -65 -35c-46 0 -70 33 -70 71c0 37 89 122 109 135c-11 -1 -23 -2 -34 -2c-110 0 -210 48 -210 151v242c0 76 -13 92 -69 110v18h229v-18c-55 -18 -68 -34 -68 -110v-246c0 -56 51 -96 129 -96c75 0 137 33 137 105v237
c0 76 -21 92 -77 110v18h209v-18c-55 -18 -68 -34 -68 -110v-242c0 -80 -64 -129 -150 -145c-33 -40 -63 -86 -63 -127c0 -22 18 -39 44 -39c5 0 12 1 17 3z" />
    <glyph glyph-name="wcircumflex.smcp" horiz-adv-x="787" 
d="M585 0h-96l-98 320l-101 -320h-96l-87 311c-42 151 -68 164 -108 181v18h215v-18c-30 -11 -43 -22 -43 -49c0 -28 11 -71 31 -147l58 -219l75 249c16 55 18 91 18 115c0 27 -15 40 -51 51v18h194v-18c-30 -11 -43 -22 -43 -49c0 -28 8 -73 32 -147l69 -219l68 249
c13 47 20 93 20 115c0 27 -15 40 -51 51v18h197v-18c-46 -20 -60 -52 -102 -181zM523 560h-33l-82 58l-79 -58h-33l88 130h49z" />
    <glyph glyph-name="wgrave.smcp" horiz-adv-x="787" 
d="M585 0h-96l-98 320l-101 -320h-96l-87 311c-42 151 -68 164 -108 181v18h215v-18c-30 -11 -43 -22 -43 -49c0 -28 11 -71 31 -147l58 -219l75 249c16 55 18 91 18 115c0 27 -15 40 -51 51v18h194v-18c-30 -11 -43 -22 -43 -49c0 -28 8 -73 32 -147l69 -219l68 249
c13 47 20 93 20 115c0 27 -15 40 -51 51v18h197v-18c-46 -20 -60 -52 -102 -181zM517 563l-199 85l36 65l174 -130z" />
    <glyph glyph-name="wacute.smcp" horiz-adv-x="787" 
d="M585 0h-96l-98 320l-101 -320h-96l-87 311c-42 151 -68 164 -108 181v18h215v-18c-30 -11 -43 -22 -43 -49c0 -28 11 -71 31 -147l58 -219l75 249c16 55 18 91 18 115c0 27 -15 40 -51 51v18h194v-18c-30 -11 -43 -22 -43 -49c0 -28 8 -73 32 -147l69 -219l68 249
c13 47 20 93 20 115c0 27 -15 40 -51 51v18h197v-18c-46 -20 -60 -52 -102 -181zM557 648l-199 -85l-11 20l174 130z" />
    <glyph glyph-name="wdieresis.smcp" horiz-adv-x="787" 
d="M585 0h-96l-98 320l-101 -320h-96l-87 311c-42 151 -68 164 -108 181v18h215v-18c-30 -11 -43 -22 -43 -49c0 -28 11 -71 31 -147l58 -219l75 249c16 55 18 91 18 115c0 27 -15 40 -51 51v18h194v-18c-30 -11 -43 -22 -43 -49c0 -28 8 -73 32 -147l69 -219l68 249
c13 47 20 93 20 115c0 27 -15 40 -51 51v18h197v-18c-46 -20 -60 -52 -102 -181zM309 587c-28 0 -52 22 -52 55c0 34 24 55 52 55c29 0 53 -21 53 -55c0 -33 -24 -55 -53 -55zM507 587c-28 0 -52 22 -52 55c0 34 24 55 52 55c29 0 53 -21 53 -55c0 -33 -24 -55 -53 -55z" />
    <glyph glyph-name="yacute.smcp" horiz-adv-x="481" 
d="M358 0h-229v18c56 18 69 34 69 110v87l-82 143c-55 95 -78 127 -110 134v18h194v-18c-23 -5 -36 -9 -36 -27c0 -16 8 -35 25 -65l71 -128l46 94c24 49 37 80 37 99c0 14 -17 23 -38 26v19h170v-18c-31 -7 -56 -24 -112 -134l-73 -143v-87c0 -76 13 -92 68 -110v-18z
M379 648l-199 -85l-11 20l174 130z" />
    <glyph glyph-name="ydieresis.smcp" horiz-adv-x="481" 
d="M358 0h-229v18c56 18 69 34 69 110v87l-82 143c-55 95 -78 127 -110 134v18h194v-18c-23 -5 -36 -9 -36 -27c0 -16 8 -35 25 -65l71 -128l46 94c24 49 37 80 37 99c0 14 -17 23 -38 26v19h170v-18c-31 -7 -56 -24 -112 -134l-73 -143v-87c0 -76 13 -92 68 -110v-18z
M129 587c-28 0 -52 22 -52 55c0 34 24 55 52 55c29 0 53 -21 53 -55c0 -33 -24 -55 -53 -55zM327 587c-28 0 -52 22 -52 55c0 34 24 55 52 55c29 0 53 -21 53 -55c0 -33 -24 -55 -53 -55z" />
    <glyph glyph-name="ycircumflex.smcp" horiz-adv-x="481" 
d="M358 0h-229v18c56 18 69 34 69 110v87l-82 143c-55 95 -78 127 -110 134v18h194v-18c-23 -5 -36 -9 -36 -27c0 -16 8 -35 25 -65l71 -128l46 94c24 49 37 80 37 99c0 14 -17 23 -38 26v19h170v-18c-31 -7 -56 -24 -112 -134l-73 -143v-87c0 -76 13 -92 68 -110v-18z
M343 560h-33l-82 58l-79 -58h-33l88 130h49z" />
    <glyph glyph-name="ygrave.smcp" horiz-adv-x="481" 
d="M358 0h-229v18c56 18 69 34 69 110v87l-82 143c-55 95 -78 127 -110 134v18h194v-18c-23 -5 -36 -9 -36 -27c0 -16 8 -35 25 -65l71 -128l46 94c24 49 37 80 37 99c0 14 -17 23 -38 26v19h170v-18c-31 -7 -56 -24 -112 -134l-73 -143v-87c0 -76 13 -92 68 -110v-18z
M338 563l-199 85l36 65l174 -130z" />
    <glyph glyph-name="zacute.smcp" horiz-adv-x="482" 
d="M433 0h-400v31l295 431h-159c-25 0 -52 -7 -71 -28l-31 -36h-20l18 112h379v-31l-289 -432h170c26 0 49 1 71 28l36 44h20zM375 648l-199 -85l-11 20l174 130z" />
    <glyph glyph-name="zdotaccent.smcp" horiz-adv-x="482" 
d="M433 0h-400v31l295 431h-159c-25 0 -52 -7 -71 -28l-31 -36h-20l18 112h379v-31l-289 -432h170c26 0 49 1 71 28l36 44h20zM226 587c-28 0 -52 22 -52 55c0 34 24 55 52 55c29 0 53 -21 53 -55c0 -33 -24 -55 -53 -55z" />
    <glyph glyph-name="zcaron.smcp" horiz-adv-x="482" 
d="M433 0h-400v31l295 431h-159c-25 0 -52 -7 -71 -28l-31 -36h-20l18 112h379v-31l-289 -432h170c26 0 49 1 71 28l36 44h20zM255 560h-49l-88 130h33l79 -58l82 58h33z" />
    <glyph glyph-name="zero.tscf" horiz-adv-x="570" 
d="M285 -12c-132 0 -246 100 -246 269c0 172 119 265 246 265c128 0 247 -93 247 -265c0 -169 -114 -269 -247 -269zM285 40c103 0 145 89 145 216c0 140 -51 214 -145 214s-145 -74 -145 -214c0 -127 42 -216 145 -216z" />
    <glyph glyph-name="one.tscf" horiz-adv-x="399" 
d="M339 0h-270v18c83 18 98 33 98 110v261c-28 -16 -85 -33 -133 -46l-4 33c85 32 163 107 216 170l13 1v-419c0 -76 14 -92 80 -110v-18z" />
    <glyph glyph-name="two.tscf" horiz-adv-x="490" 
d="M437 0h-387v14c132 149 275 247 275 342c0 67 -55 110 -130 110c-33 0 -68 -11 -96 -31h5c39 0 63 -20 63 -58c0 -36 -25 -59 -57 -59c-35 0 -62 22 -62 63c0 66 79 141 199 141s174 -70 174 -152c0 -92 -67 -141 -147 -194c-39 -26 -82 -65 -114 -96h277v-80z" />
    <glyph glyph-name="three.tscf" horiz-adv-x="510" 
d="M148 234v34c119 0 171 51 171 115c0 70 -63 96 -130 96c-21 0 -42 -3 -61 -10c29 -7 52 -25 52 -61s-27 -61 -62 -61s-66 21 -66 67c0 64 87 108 199 108c101 0 172 -48 172 -122c0 -63 -69 -107 -126 -122c90 -11 164 -57 164 -139c0 -120 -139 -187 -253 -187
c-98 0 -173 41 -173 107c0 38 33 67 71 67s67 -26 67 -64c0 -33 -19 -57 -34 -69c17 -4 34 -7 50 -7c90 0 164 55 164 128c0 86 -73 121 -171 121c-11 0 -22 0 -34 -1z" />
    <glyph glyph-name="four.tscf" horiz-adv-x="504" 
d="M295 195v242l-199 -242h199zM453 0h-236v18c70 18 78 33 78 110v8h-270v44l297 367h62v-352h72v-59h-72v-8c0 -76 4 -92 69 -110v-18z" />
    <glyph glyph-name="five.tscf" horiz-adv-x="475" 
d="M394 419h-238l-25 -143c26 15 66 27 118 27c94 0 180 -61 180 -162c0 -129 -141 -190 -244 -190c-82 0 -155 36 -155 99c0 35 26 61 62 61c34 0 65 -23 65 -60c0 -28 -18 -46 -40 -56c22 -8 42 -9 63 -9c82 0 147 55 147 138c0 84 -67 131 -132 131
c-36 0 -68 -14 -97 -34l-21 4l44 285h273v-91z" />
    <glyph glyph-name="six.tscf" horiz-adv-x="487" 
d="M421 562v-30c-119 -26 -234 -110 -266 -238c32 22 80 42 133 42c85 0 174 -55 174 -158c0 -99 -88 -194 -204 -194c-136 0 -219 118 -219 228c0 180 156 322 382 350zM150 272c-3 -17 -4 -34 -4 -52c0 -121 38 -198 122 -198c65 0 96 56 96 134c0 73 -50 134 -135 134
c-27 0 -55 -6 -79 -18z" />
    <glyph glyph-name="seven.tscf" horiz-adv-x="478" 
d="M131 -69l-58 26l278 467h-319v86h424v-4z" />
    <glyph glyph-name="eight.tscf" horiz-adv-x="517" 
d="M318 310l13 -5c86 -35 146 -80 146 -160c0 -110 -124 -160 -226 -160c-99 0 -211 46 -211 140c0 57 40 95 150 148l-13 6c-67 30 -121 76 -121 145c0 86 95 137 203 137c118 0 194 -58 194 -123c0 -66 -81 -106 -135 -128zM215 262l-5 2c-35 -24 -74 -65 -74 -128
c0 -70 49 -113 124 -113c65 0 124 37 124 98c0 76 -75 103 -169 141zM294 320l4 -2c46 36 57 77 57 109c0 68 -56 96 -107 96c-58 0 -102 -33 -102 -82c0 -61 53 -83 148 -121z" />
    <glyph glyph-name="nine.tscf" horiz-adv-x="486" 
d="M65 -36v27c119 26 232 105 265 230c-32 -21 -79 -41 -132 -41c-85 0 -173 52 -173 155c0 99 87 187 203 187c136 0 219 -108 219 -218c0 -180 -156 -312 -382 -340zM335 245c3 16 5 33 5 51c0 121 -38 188 -122 188c-57 0 -95 -49 -95 -127c0 -73 49 -130 134 -130
c27 0 54 6 78 18z" />
    <glyph glyph-name="euro.smcp" horiz-adv-x="541" 
d="M466 156h42c0 -98 -78 -171 -173 -171c-115 0 -195 77 -218 199h-75v45h70c-1 9 -1 18 -1 27c0 8 0 17 1 26h-70v45h77c27 112 117 196 237 196c83 0 127 -44 127 -98c0 -40 -29 -65 -61 -65s-57 20 -57 52c0 39 32 55 54 55c-8 11 -29 20 -62 20
c-69 0 -121 -66 -138 -160h139v-45h-145v-24c0 -10 0 -20 1 -29h144v-45h-138c17 -85 64 -147 135 -147c55 0 111 57 111 119z" />
    <glyph glyph-name="dollar.smcp" horiz-adv-x="420" 
d="M240 -94h-45v82c-47 0 -111 7 -158 28v122h20c38 -70 80 -99 138 -102v187c-73 28 -155 55 -155 150c0 81 76 138 155 147v80h45v-79c36 -1 83 -7 117 -20v-105h-22c-28 42 -54 67 -95 75v-172c72 -28 150 -58 150 -151c0 -77 -67 -139 -150 -155v-87zM195 318v154
c-37 -5 -73 -31 -73 -70c0 -43 31 -66 73 -84zM240 203v-162c35 11 66 38 66 74c0 44 -28 69 -66 88z" />
    <glyph glyph-name="cent.smcp" horiz-adv-x="542" 
d="M337 -94h-45v85c-136 12 -246 100 -246 256c0 171 124 257 246 272v81h45v-78c49 -2 127 -19 153 -32v-104h-25c-34 74 -88 90 -128 93v-448c47 1 105 17 143 99h26l-12 -107c-29 -17 -101 -32 -157 -34v-83zM292 35v442c-83 -15 -148 -94 -148 -220
c0 -127 66 -204 148 -222z" />
    <glyph glyph-name="sterling.smcp" horiz-adv-x="541" 
d="M379 0h-302v32c41 21 92 81 92 124c0 26 -12 57 -24 90h-83v45h69c-5 17 -8 34 -8 51c0 113 103 180 191 180c104 0 159 -50 159 -99c0 -37 -28 -62 -60 -62c-34 0 -58 22 -58 55c0 24 19 43 40 49c-23 10 -36 15 -66 15c-80 0 -109 -40 -109 -95c0 -33 10 -65 20 -94
h138v-45h-125c2 -10 4 -20 4 -29c0 -54 -21 -93 -73 -134h167c72 0 83 12 93 51h24c1 -8 1 -25 1 -32c0 -74 -51 -102 -90 -102z" />
    <glyph glyph-name="yen.smcp" horiz-adv-x="541" 
d="M386 0h-225v18c55 17 68 33 69 106h-108v45h108v46l-4 7h-104v45h78l-52 91c-55 95 -78 127 -110 134v18h190v-18c-23 -5 -36 -9 -36 -27c0 -16 8 -35 25 -65l73 -131l48 97c25 51 37 80 37 99c0 14 -17 23 -38 26v19h166v-18c-31 -7 -56 -24 -112 -134l-47 -91h74v-45
h-97l-3 -7v-46h100v-45h-100c0 -73 14 -89 68 -106v-18z" />
    <glyph glyph-name="florin.smcp" horiz-adv-x="541" 
d="M122 -197h10c45 0 75 29 75 154v224h-96l11 51h85v83c0 157 73 207 174 207c56 0 90 -33 90 -77c0 -38 -23 -57 -50 -57c-29 0 -54 13 -54 50c0 22 8 34 18 45h-10c-45 0 -75 -29 -75 -154v-97h107v-51h-107v-211c0 -153 -73 -205 -174 -205c-43 0 -90 29 -90 75
c0 37 23 56 50 56c29 0 54 -12 54 -49c0 -22 -8 -34 -18 -44z" />
    <glyph glyph-name="percent.smcp" horiz-adv-x="854" 
d="M269 -46h-58l306 496c-4 -3 -10 -6 -14 -8c-26 -17 -56 -35 -91 -35c-23 0 -48 6 -67 14c3 -14 6 -33 6 -51c0 -98 -64 -240 -167 -240c-85 0 -144 69 -144 159c0 105 81 233 186 233c40 0 60 -14 80 -28c32 -23 54 -40 104 -40c71 0 131 43 174 94h50zM187 177
c81 0 127 115 127 198c0 42 -24 100 -73 100c-73 0 -115 -118 -115 -210c0 -39 18 -88 61 -88zM644 -12c-83 0 -141 67 -141 155c0 110 80 236 191 236c77 0 120 -65 120 -146c0 -103 -59 -245 -170 -245zM650 36c81 0 128 115 128 197c0 43 -25 100 -72 100
c-75 0 -117 -118 -117 -210c0 -39 21 -87 61 -87z" />
    <glyph glyph-name="perthousand.smcp" horiz-adv-x="1204" 
d="M269 -46h-58l306 496c-4 -3 -10 -6 -14 -8c-26 -17 -56 -35 -91 -35c-23 0 -48 6 -67 14c3 -14 6 -33 6 -51c0 -98 -64 -240 -167 -240c-85 0 -144 69 -144 159c0 105 81 233 186 233c40 0 60 -14 80 -28c32 -23 54 -40 104 -40c71 0 131 43 174 94h50zM187 177
c81 0 127 115 127 198c0 42 -24 100 -73 100c-73 0 -115 -118 -115 -210c0 -39 18 -88 61 -88zM644 -12c-83 0 -141 67 -141 155c0 110 80 236 191 236c77 0 120 -65 120 -146c0 -103 -59 -245 -170 -245zM650 36c81 0 128 115 128 197c0 43 -25 100 -72 100
c-75 0 -117 -118 -117 -210c0 -39 21 -87 61 -87zM994 -12c-83 0 -141 67 -141 155c0 110 80 236 191 236c77 0 120 -65 120 -146c0 -103 -59 -245 -170 -245zM1000 36c81 0 128 115 128 197c0 43 -25 100 -72 100c-75 0 -117 -118 -117 -210c0 -39 21 -87 61 -87z" />
    <glyph glyph-name="ordfeminine.smcp" horiz-adv-x="428" 
d="M400 278h-144v15c20 8 29 15 29 32c0 15 -11 46 -24 81h-108c-1 -2 -1 -4 -1 -5c-12 -35 -20 -60 -20 -75c0 -17 10 -25 33 -33v-15h-135v15c30 14 43 33 74 120l75 209h74l75 -209c34 -95 47 -108 72 -120v-15zM253 441l-48 122l-40 -122h88zM400 175h-370v54h370v-54z
" />
    <glyph glyph-name="ordmasculine.smcp" horiz-adv-x="423" 
d="M394 175h-365v54h365v-54zM393 448c0 -109 -85 -177 -182 -177c-98 0 -182 68 -182 177c0 111 88 182 182 182c93 0 182 -71 182 -182zM211 303c70 0 103 67 103 148c0 79 -33 147 -103 147c-71 0 -105 -68 -105 -147c0 -80 34 -148 105 -148z" />
    <glyph glyph-name="exclam.smcp" horiz-adv-x="280" 
d="M152 163h-26c0 91 -32 292 -42 359h111c-8 -67 -43 -268 -43 -359zM140 -12c-33 0 -60 26 -60 64c0 37 27 63 60 63s60 -26 60 -63c0 -38 -27 -64 -60 -64z" />
    <glyph glyph-name="question.smcp" horiz-adv-x="447" 
d="M228 163h-27c0 125 96 133 96 217c0 59 -41 93 -108 93c-34 0 -65 -12 -86 -27h5c35 0 66 -19 66 -56c0 -39 -30 -59 -59 -59c-31 0 -58 23 -58 63c0 64 62 128 169 128c90 0 160 -59 160 -132c0 -120 -149 -133 -158 -227zM213 -12c-33 0 -60 26 -60 64
c0 37 27 63 60 63s60 -26 60 -63c0 -38 -27 -64 -60 -64z" />
    <glyph glyph-name="exclamdown.smcp" horiz-adv-x="280" 
d="M126 359h26c0 -91 35 -292 43 -359h-111c10 67 42 268 42 359zM140 534c33 0 60 -26 60 -64c0 -37 -27 -63 -60 -63s-60 26 -60 63c0 38 27 64 60 64z" />
    <glyph glyph-name="questiondown.smcp" horiz-adv-x="447" 
d="M224 347h27c0 -125 -96 -133 -96 -217c0 -59 41 -93 108 -93c34 0 65 12 86 27h-5c-35 0 -66 19 -66 56c0 39 30 59 59 59c31 0 58 -23 58 -63c0 -64 -62 -128 -169 -128c-90 0 -160 59 -160 132c0 120 149 133 158 227zM239 522c33 0 60 -26 60 -64
c0 -37 -27 -63 -60 -63s-60 26 -60 63c0 38 27 64 60 64z" />
    <glyph glyph-name="parenleft.smcp" horiz-adv-x="330" 
d="M324 -157h-29c-65 65 -202 198 -202 414c0 189 150 340 202 394h29c-74 -119 -138 -224 -138 -404c0 -189 61 -287 138 -404z" />
    <glyph glyph-name="parenright.smcp" horiz-adv-x="330" 
d="M35 -157h-29c77 117 138 215 138 404c0 180 -64 285 -138 404h29c52 -54 202 -205 202 -394c0 -216 -137 -349 -202 -414z" />
    <glyph glyph-name="bracketleft.smcp" horiz-adv-x="360" 
d="M308 -137h-199v808h199v-42h-117v-724h117v-42z" />
    <glyph glyph-name="bracketright.smcp" horiz-adv-x="360" 
d="M251 -137h-199v42h117v724h-117v42h199v-808z" />
    <glyph glyph-name="braceleft.smcp" horiz-adv-x="301" 
d="M285 -127v-14c-99 10 -163 41 -163 184v45c0 87 -7 158 -85 167v18c78 9 85 79 85 167v46c0 142 64 173 163 183v-14c-61 -14 -81 -65 -81 -170v-37c0 -94 -52 -156 -114 -184c62 -27 114 -90 114 -184v-36c0 -106 20 -158 81 -171z" />
    <glyph glyph-name="braceright.smcp" horiz-adv-x="301" 
d="M16 -141v14c61 13 81 65 81 171v36c0 94 52 157 114 184c-62 28 -114 90 -114 184v37c0 105 -20 156 -81 170v14c99 -10 163 -41 163 -183v-46c0 -88 7 -158 85 -167v-18c-78 -9 -85 -80 -85 -167v-45c0 -143 -64 -174 -163 -184z" />
    <glyph glyph-name="ampersand.smcp" horiz-adv-x="649" 
d="M633 0h-161c-18 15 -41 38 -72 75l-2 2c-59 -63 -115 -92 -192 -92c-109 0 -170 86 -170 164c0 74 60 122 158 176c-39 48 -58 93 -58 133c0 76 64 150 167 150c77 0 133 -43 133 -113c0 -66 -41 -117 -134 -167l128 -149c28 37 49 72 49 96c0 20 -15 35 -52 39v17h212
v-16c-53 -15 -103 -73 -164 -148l-17 -20l11 -12c77 -87 112 -107 164 -118v-17zM371 110l-150 183c-60 -31 -98 -67 -98 -118c0 -65 53 -128 124 -128c29 0 72 13 124 63zM275 360c62 39 91 69 91 126c0 54 -39 79 -79 79c-43 0 -74 -34 -74 -81c0 -34 19 -74 62 -124z" />
    <glyph glyph-name="at.smcp" horiz-adv-x="719" 
d="M577 59l6 -7c-45 -46 -137 -86 -217 -86c-177 0 -315 113 -315 284c0 162 132 293 323 293c180 0 295 -113 295 -260c0 -125 -124 -197 -215 -197c-33 0 -46 17 -39 63l9 64c-70 -110 -99 -127 -130 -127c-53 0 -92 41 -92 112c0 114 76 220 199 220c26 0 56 -4 76 -9
l45 9h10l-39 -273c-2 -18 -3 -27 12 -27c41 0 110 62 110 155c0 125 -77 234 -235 234c-160 0 -250 -118 -250 -257c0 -146 95 -252 260 -252c59 0 132 25 187 61zM431 266l16 111c-8 4 -28 9 -43 9c-89 0 -120 -95 -120 -178c0 -48 18 -65 41 -65c36 0 74 79 106 123z" />
    <glyph glyph-name="slash.smcp" horiz-adv-x="386" 
d="M67 -15h-61l308 537h63z" />
    <glyph glyph-name="backslash.smcp" horiz-adv-x="386" 
d="M377 -15h-63l-308 537h61z" />
    <glyph glyph-name="asterisk.smcp" horiz-adv-x="370" 
d="M305 246l-61 -45l-61 132l-60 -132l-62 45l100 97l-135 23l24 78l121 -71l-20 149h69l-22 -148l118 70l25 -78l-135 -23z" />
    <glyph glyph-name="quoteleft.smcp" horiz-adv-x="212" 
d="M159 572h19c-36 -39 -49 -80 -49 -101s31 -31 31 -69c0 -31 -26 -53 -54 -53c-34 0 -56 27 -56 59c0 56 52 130 109 164z" />
    <glyph glyph-name="quoteright.smcp" horiz-adv-x="212" 
d="M53 299h-19c36 39 49 80 49 101s-31 31 -31 69c0 31 26 53 54 53c34 0 56 -27 56 -59c0 -56 -52 -130 -109 -164z" />
    <glyph glyph-name="quotedblleft.smcp" horiz-adv-x="392" 
d="M159 572h19c-36 -39 -49 -80 -49 -101s31 -31 31 -69c0 -31 -26 -53 -54 -53c-34 0 -56 27 -56 59c0 56 52 130 109 164zM328 572h19c-36 -39 -49 -80 -49 -101s31 -31 31 -69c0 -31 -26 -53 -54 -53c-34 0 -56 27 -56 59c0 56 52 130 109 164z" />
    <glyph glyph-name="quotedblright.smcp" horiz-adv-x="392" 
d="M53 299h-19c36 39 49 80 49 101s-31 31 -31 69c0 31 26 53 54 53c34 0 56 -27 56 -59c0 -56 -52 -130 -109 -164zM222 299h-19c36 39 49 80 49 101s-31 31 -31 69c0 31 26 53 54 53c34 0 56 -27 56 -59c0 -56 -52 -130 -109 -164z" />
    <glyph glyph-name="zero.alt" horiz-adv-x="541" 
d="M268 -15c-160 0 -220 163 -220 354c0 192 67 364 220 364c154 0 221 -168 221 -360c0 -191 -61 -358 -221 -358zM268 37c112 0 121 178 121 301c0 125 -14 313 -121 313s-121 -188 -121 -313c0 -123 10 -301 121 -301z" />
    <glyph glyph-name="one.alt" horiz-adv-x="413" 
d="M342 0h-270v18c83 18 98 33 98 110v412c-28 -16 -85 -33 -133 -46l-4 33c85 32 163 107 216 170l13 1v-570c0 -76 14 -92 80 -110v-18z" />
    <glyph glyph-name="two.alt" horiz-adv-x="506" 
d="M435 0h-390v34l177 217c77 95 118 189 118 268c0 74 -52 130 -128 130c-57 0 -86 -10 -110 -35c43 0 70 -24 70 -65c0 -38 -27 -65 -63 -65s-65 19 -65 70c0 62 82 150 211 150c106 0 186 -68 186 -182c0 -76 -64 -170 -157 -281l-127 -151h278v-90z" />
    <glyph glyph-name="three.alt" horiz-adv-x="531" 
d="M167 349l-13 23l161 224h-242v94h358v-15l-171 -232c101 -12 199 -78 199 -211c0 -160 -120 -247 -254 -247c-101 0 -161 48 -161 115c0 40 31 67 66 67c36 0 62 -24 62 -62c0 -34 -20 -56 -44 -68c18 -7 41 -13 58 -13c89 0 176 56 176 179c0 126 -101 153 -195 146z
" />
    <glyph glyph-name="four.alt" horiz-adv-x="541" 
d="M325 251v313l-215 -313h215zM493 0h-266v18c83 18 98 33 98 110v58h-290v50l317 461h62v-446h72v-65h-72v-58c0 -76 14 -92 79 -110v-18z" />
    <glyph glyph-name="five.alt" horiz-adv-x="536" 
d="M429 604h-245l-26 -214c30 22 73 45 120 45c99 0 185 -60 185 -203c0 -181 -146 -247 -254 -247c-84 0 -160 53 -160 117c0 45 30 67 66 67c35 0 61 -24 61 -62c0 -34 -21 -53 -42 -66c23 -9 42 -12 62 -12c103 0 167 65 167 191c0 118 -66 149 -136 149
c-38 0 -84 -16 -117 -38l-13 5l43 354h289v-86z" />
    <glyph glyph-name="six.alt" horiz-adv-x="541" 
d="M432 704v-39c-128 -37 -228 -132 -265 -274c33 25 95 46 131 46c109 0 190 -68 190 -210c0 -146 -86 -242 -209 -242c-136 0 -226 113 -226 262c0 251 167 425 379 457zM159 356c-5 -28 -7 -58 -7 -90c0 -143 34 -229 130 -229c76 0 116 74 116 164
c0 121 -54 180 -138 180c-31 0 -73 -10 -101 -25z" />
    <glyph glyph-name="seven.alt" horiz-adv-x="541" 
d="M232 0h-102c53 176 171 405 284 598h-363v92h432v-24c-115 -205 -206 -475 -251 -666z" />
    <glyph glyph-name="eight.alt" horiz-adv-x="541" 
d="M336 383v-4c76 -40 154 -91 154 -195c0 -125 -119 -199 -226 -199c-106 0 -217 56 -217 178c0 102 90 153 148 182v4c-72 39 -132 85 -132 183c0 90 82 171 206 171c129 0 198 -84 198 -161c0 -86 -79 -131 -131 -159zM219 332c-40 -29 -82 -91 -82 -167
c0 -70 47 -128 135 -128c75 0 131 49 131 124c0 73 -95 127 -184 171zM310 394c49 42 67 100 67 140c0 74 -53 117 -116 117c-77 0 -115 -49 -115 -108c0 -66 73 -102 164 -149z" />
    <glyph glyph-name="nine.alt" horiz-adv-x="541" 
d="M120 -15v43c111 29 221 117 251 273c-37 -21 -81 -38 -133 -38c-104 0 -193 68 -193 203c0 132 86 235 209 235c135 0 225 -123 225 -290c0 -215 -149 -394 -359 -426zM376 329c3 18 5 36 5 71c0 144 -34 249 -133 249c-81 0 -113 -70 -113 -156c0 -115 57 -178 155 -178
c18 0 56 2 86 14z" />
    <glyph glyph-name="zero.tosf" horiz-adv-x="541" 
d="M268 -12c-132 0 -228 121 -228 267c0 155 101 267 228 267c128 0 229 -112 229 -267c0 -146 -96 -267 -229 -267zM268 21c103 0 123 129 123 234c0 122 -29 234 -123 234c-93 0 -123 -112 -123 -234c0 -105 20 -234 123 -234z" />
    <glyph glyph-name="one.tosf" horiz-adv-x="541" 
d="M419 0h-270v18c83 18 99 33 99 110v249c-28 -18 -71 -38 -122 -50l-4 28c79 29 139 89 201 167h16v-394c0 -76 14 -92 80 -110v-18z" />
    <glyph glyph-name="two.tosf" horiz-adv-x="541" 
d="M458 0h-418v14c154 120 318 243 318 345c0 72 -67 114 -142 114c-35 0 -68 -8 -98 -31h6c41 0 65 -27 65 -68s-25 -67 -60 -67c-34 0 -63 26 -63 75c0 63 73 140 209 140c102 0 183 -58 183 -158c0 -84 -77 -135 -158 -188c-43 -28 -90 -60 -119 -86h277v-90z" />
    <glyph glyph-name="three.tosf" horiz-adv-x="541" 
d="M140 149v48c115 0 191 65 191 154c0 83 -53 124 -125 124c-26 0 -64 -7 -86 -20c30 -7 56 -21 56 -60c0 -38 -24 -62 -58 -62c-33 0 -61 20 -61 68c0 65 94 121 199 121c111 0 175 -69 175 -154c0 -75 -74 -126 -122 -154c82 -22 152 -79 152 -180
c0 -141 -129 -228 -254 -228c-91 0 -166 40 -166 108c0 40 31 70 66 70c36 0 63 -27 63 -67c0 -36 -18 -50 -32 -63c15 -4 37 -6 51 -6c90 0 172 49 172 161s-94 143 -186 143c-15 0 -20 -1 -35 -3z" />
    <glyph glyph-name="four.tosf" horiz-adv-x="541" 
d="M330 64v290l-199 -290h199zM419 -187h-89v187h-300v12l347 498h42v-446h72v-64h-72v-187z" />
    <glyph glyph-name="five.tosf" horiz-adv-x="541" 
d="M435 424h-245l-26 -214c30 22 73 45 120 45c99 0 185 -60 185 -203c0 -181 -146 -247 -254 -247c-84 0 -160 53 -160 117c0 45 30 67 66 67c35 0 61 -24 61 -62c0 -34 -21 -53 -42 -66c23 -9 42 -12 62 -12c103 0 167 65 167 191c0 118 -66 149 -136 149
c-38 0 -84 -16 -117 -38l-13 5l43 354h289v-86z" />
    <glyph glyph-name="six.tosf" horiz-adv-x="541" 
d="M432 704v-39c-128 -37 -228 -132 -265 -274c33 25 95 46 131 46c109 0 190 -68 190 -210c0 -146 -86 -242 -209 -242c-136 0 -226 113 -226 262c0 251 167 425 379 457zM159 356c-5 -28 -7 -58 -7 -90c0 -143 34 -229 130 -229c76 0 116 74 116 164
c0 121 -54 180 -138 180c-31 0 -73 -10 -101 -25z" />
    <glyph glyph-name="seven.tosf" horiz-adv-x="541" 
d="M136 -183h-72l336 604h-348v89h432v-11z" />
    <glyph glyph-name="eight.tosf" horiz-adv-x="541" 
d="M338 383v-4c76 -40 154 -91 154 -195c0 -125 -119 -199 -226 -199c-106 0 -217 56 -217 178c0 102 90 153 148 182v4c-72 39 -132 85 -132 183c0 90 82 171 206 171c129 0 198 -84 198 -161c0 -86 -79 -131 -131 -159zM221 332c-40 -29 -82 -91 -82 -167
c0 -70 47 -128 135 -128c75 0 131 49 131 124c0 73 -95 127 -184 171zM312 394c49 42 67 100 67 140c0 74 -53 117 -116 117c-77 0 -115 -49 -115 -108c0 -66 73 -102 164 -149z" />
    <glyph glyph-name="nine.tosf" horiz-adv-x="541" 
d="M110 -194v43c111 29 231 117 261 273c-31 -18 -80 -38 -129 -38c-109 0 -197 68 -197 200c0 136 86 238 209 238c135 0 225 -122 225 -292c0 -212 -159 -392 -369 -424zM376 150c3 18 5 40 5 61c0 162 -34 259 -137 259c-76 0 -109 -70 -109 -160
c0 -111 64 -174 147 -174c38 0 65 3 94 14z" />
    <glyph glyph-name="Euro.taboldstyle" horiz-adv-x="541" 
d="M466 156h42c0 -98 -78 -171 -173 -171c-115 0 -195 77 -218 199h-75v45h70c-1 9 -1 18 -1 27c0 8 0 17 1 26h-70v45h77c27 112 117 196 237 196c83 0 127 -44 127 -98c0 -40 -29 -65 -61 -65s-57 20 -57 52c0 39 32 55 54 55c-8 11 -29 20 -62 20
c-69 0 -121 -66 -138 -160h139v-45h-145v-24c0 -10 0 -20 1 -29h144v-45h-138c17 -85 64 -147 135 -147c55 0 111 57 111 119z" />
    <glyph glyph-name="dollar.taboldstyle" horiz-adv-x="541" 
d="M297 -94h-45v82c-47 0 -111 7 -158 28v122h20c38 -70 80 -99 138 -102v187c-73 28 -155 55 -155 150c0 81 76 138 155 147v80h45v-79c36 -1 83 -7 117 -20v-105h-22c-28 42 -54 67 -95 75v-172c72 -28 150 -58 150 -151c0 -77 -67 -139 -150 -155v-87zM252 318v154
c-37 -5 -73 -31 -73 -70c0 -43 31 -66 73 -84zM297 203v-162c35 11 66 38 66 74c0 44 -28 69 -66 88z" />
    <glyph glyph-name="cent.taboldstyle" horiz-adv-x="541" 
d="M331 -94h-45v85c-136 12 -246 100 -246 256c0 171 124 257 246 272v81h45v-78c49 -2 127 -19 153 -32v-104h-25c-34 74 -88 90 -128 93v-448c47 1 105 17 143 99h26l-12 -107c-29 -17 -101 -32 -157 -34v-83zM286 35v442c-83 -15 -148 -94 -148 -220
c0 -127 66 -204 148 -222z" />
    <glyph glyph-name="sterling.taboldstyle" horiz-adv-x="541" 
d="M379 0h-302v32c41 21 92 81 92 124c0 26 -12 57 -24 90h-83v45h69c-5 17 -8 34 -8 51c0 113 103 180 191 180c104 0 159 -50 159 -99c0 -37 -28 -62 -60 -62c-34 0 -58 22 -58 55c0 24 19 43 40 49c-23 10 -36 15 -66 15c-80 0 -109 -40 -109 -95c0 -33 10 -65 20 -94
h138v-45h-125c2 -10 4 -20 4 -29c0 -54 -21 -93 -73 -134h167c72 0 83 12 93 51h24c1 -8 1 -25 1 -32c0 -74 -51 -102 -90 -102z" />
    <glyph glyph-name="yen.taboldstyle" horiz-adv-x="541" 
d="M386 0h-225v18c55 17 68 33 69 106h-108v45h108v46l-4 7h-104v45h78l-52 91c-55 95 -78 127 -110 134v18h190v-18c-23 -5 -36 -9 -36 -27c0 -16 8 -35 25 -65l73 -131l48 97c25 51 37 80 37 99c0 14 -17 23 -38 26v19h166v-18c-31 -7 -56 -24 -112 -134l-47 -91h74v-45
h-97l-3 -7v-46h100v-45h-100c0 -73 14 -89 68 -106v-18z" />
    <glyph glyph-name="florin.taboldstyle" horiz-adv-x="541" 
d="M122 -197h10c45 0 75 29 75 154v224h-96l11 51h85v83c0 157 73 207 174 207c56 0 90 -33 90 -77c0 -38 -23 -57 -50 -57c-29 0 -54 13 -54 50c0 22 8 34 18 45h-10c-45 0 -75 -29 -75 -154v-97h107v-51h-107v-211c0 -153 -73 -205 -174 -205c-43 0 -90 29 -90 75
c0 37 23 56 50 56c29 0 54 -12 54 -49c0 -22 -8 -34 -18 -44z" />
    <glyph glyph-name="percent.oldstyle" horiz-adv-x="854" 
d="M269 -46h-58l306 496c-4 -3 -10 -6 -14 -8c-26 -17 -56 -35 -91 -35c-23 0 -48 6 -67 14c3 -14 6 -33 6 -51c0 -98 -64 -240 -167 -240c-85 0 -144 69 -144 159c0 105 81 233 186 233c40 0 60 -14 80 -28c32 -23 54 -40 104 -40c71 0 131 43 174 94h50zM187 177
c81 0 127 115 127 198c0 42 -24 100 -73 100c-73 0 -115 -118 -115 -210c0 -39 18 -88 61 -88zM644 -12c-83 0 -141 67 -141 155c0 110 80 236 191 236c77 0 120 -65 120 -146c0 -103 -59 -245 -170 -245zM650 36c81 0 128 115 128 197c0 43 -25 100 -72 100
c-75 0 -117 -118 -117 -210c0 -39 21 -87 61 -87z" />
    <glyph glyph-name="perthousand.oldstyle" horiz-adv-x="1204" 
d="M269 -46h-58l306 496c-4 -3 -10 -6 -14 -8c-26 -17 -56 -35 -91 -35c-23 0 -48 6 -67 14c3 -14 6 -33 6 -51c0 -98 -64 -240 -167 -240c-85 0 -144 69 -144 159c0 105 81 233 186 233c40 0 60 -14 80 -28c32 -23 54 -40 104 -40c71 0 131 43 174 94h50zM187 177
c81 0 127 115 127 198c0 42 -24 100 -73 100c-73 0 -115 -118 -115 -210c0 -39 18 -88 61 -88zM644 -12c-83 0 -141 67 -141 155c0 110 80 236 191 236c77 0 120 -65 120 -146c0 -103 -59 -245 -170 -245zM650 36c81 0 128 115 128 197c0 43 -25 100 -72 100
c-75 0 -117 -118 -117 -210c0 -39 21 -87 61 -87zM994 -12c-83 0 -141 67 -141 155c0 110 80 236 191 236c77 0 120 -65 120 -146c0 -103 -59 -245 -170 -245zM1000 36c81 0 128 115 128 197c0 43 -25 100 -72 100c-75 0 -117 -118 -117 -210c0 -39 21 -87 61 -87z" />
    <glyph glyph-name="numbersign.taboldstyle" horiz-adv-x="541" 
d="M165 0h-50l27 140h-57v49h66l26 131h-92v50h101l28 140h50l-28 -140h111l28 140h50l-28 -140h58v-50h-67l-26 -131h93v-49h-102l-27 -140h-50l27 140h-111zM227 320l-26 -131h111l26 131h-111z" />
    <glyph glyph-name="zero.posf" horiz-adv-x="541" 
d="M268 -12c-132 0 -228 121 -228 267c0 155 101 267 228 267c128 0 229 -112 229 -267c0 -146 -96 -267 -229 -267zM268 21c103 0 123 129 123 234c0 122 -29 234 -123 234c-93 0 -123 -112 -123 -234c0 -105 20 -234 123 -234z" />
    <glyph glyph-name="one.posf" horiz-adv-x="433" 
d="M352 0h-270v18c83 18 99 33 99 110v249c-28 -18 -71 -38 -122 -50l-4 28c79 29 139 89 201 167h16v-394c0 -76 14 -92 80 -110v-18z" />
    <glyph glyph-name="two.posf" horiz-adv-x="515" 
d="M447 0h-387v14c132 149 275 247 275 342c0 67 -55 110 -130 110c-33 0 -68 -11 -96 -31h5c39 0 63 -20 63 -58c0 -36 -25 -59 -57 -59c-35 0 -62 22 -62 63c0 66 79 141 199 141s174 -70 174 -152c0 -92 -67 -141 -147 -194c-39 -26 -82 -65 -114 -96h277v-80z" />
    <glyph glyph-name="three.posf" horiz-adv-x="508" 
d="M130 149v48c115 0 191 65 191 154c0 83 -53 124 -125 124c-26 0 -64 -7 -86 -20c30 -7 56 -21 56 -60c0 -38 -24 -62 -58 -62c-33 0 -61 20 -61 68c0 65 94 121 199 121c111 0 175 -69 175 -154c0 -75 -74 -126 -122 -154c82 -22 152 -79 152 -180
c0 -141 -129 -228 -254 -228c-91 0 -166 40 -166 108c0 40 31 70 66 70c36 0 63 -27 63 -67c0 -36 -18 -50 -32 -63c15 -4 37 -6 51 -6c90 0 172 49 172 161s-94 143 -186 143c-15 0 -25 -1 -35 -3z" />
    <glyph glyph-name="four.posf" horiz-adv-x="541" 
d="M320 64v290l-199 -290h199zM409 -187h-89v187h-300v12l347 498h42v-446h72v-64h-72v-187z" />
    <glyph glyph-name="five.posf" horiz-adv-x="541" 
d="M435 425h-245l-26 -214c30 22 73 45 120 45c99 0 185 -60 185 -203c0 -181 -146 -247 -254 -247c-84 0 -160 53 -160 117c0 45 30 67 66 67c35 0 61 -24 61 -62c0 -34 -21 -53 -42 -66c23 -9 42 -12 62 -12c103 0 167 65 167 191c0 118 -66 149 -136 149
c-38 0 -84 -16 -117 -38l-13 5l43 354h289v-86z" />
    </font>
</defs>
</svg>
